<svg width="24" height="22" viewBox="0 0 24 22" xmlns="http://www.w3.org/2000/svg">
<path d="M18.7924 9.44361V5.01842C18.7924 4.6798 18.5518 4.39245 18.2243 4.32842L12.3135 0.915874C12.096 0.790249 11.828 0.790249 11.6104 0.915874L5.55919 4.40956C5.34164 4.53514 5.20763 4.76726 5.20763 5.01847V9.44365C2.87611 10.1772 0 11.6912 0 14.1342C0 16.2305 2.22244 18.0517 5.96742 19.0447L5.68805 20.324C5.56823 20.8725 6.11184 21.3365 6.63614 21.1268L10.1518 19.7206C10.6169 19.5346 10.7443 18.9334 10.3922 18.575L7.76719 15.9031C7.37662 15.5057 6.69788 15.7 6.57867 16.2459L6.26784 17.6692C3.30047 16.8697 1.40625 15.5022 1.40625 14.1342C1.40625 12.9461 2.84466 11.746 5.20763 10.9249V12.0058C5.20763 12.257 5.34164 12.4892 5.55919 12.6147L11.6484 16.1304C11.866 16.256 12.134 16.256 12.3516 16.1304L18.4408 12.6147C18.6584 12.4891 18.7924 12.257 18.7924 12.0058V10.9249C21.1553 11.746 22.5938 12.9461 22.5938 14.1342C22.5938 16.7379 16.8751 18.0596 14.0667 18.2912C13.6797 18.3232 13.3919 18.6628 13.4238 19.0498C13.4555 19.433 13.7911 19.7246 14.1825 19.6927C17.8434 19.3901 24 17.8081 24 14.1342C24 11.691 21.1231 10.177 18.7924 9.44361ZM7.67517 17.816L8.64891 18.8072L7.3448 19.3288L7.67517 17.816ZM11.962 2.33666L16.645 5.04041C16.0732 5.3705 12.3815 7.50191 12 7.72217C11.5837 7.48184 7.94161 5.37908 7.317 5.01842L11.962 2.33666ZM6.61387 6.23633L11.2969 8.94003V14.3036L6.61387 11.5999V6.23633ZM17.3861 11.5999L12.7031 14.3036V8.94003L17.3861 6.23633V11.5999Z"/>
</svg>
