<svg width="40" height="70" viewBox="0 0 40 70" fill="none" xmlns="http://www.w3.org/2000/svg">
<path fill-rule="evenodd" clip-rule="evenodd" d="M5.77876 23.2367C5.74843 23.2082 5.80295 22.6034 4.7678 23.1988C3.25279 24.0701 4.52409 23.5548 2.17179 24.4402C1.52513 24.2726 2.33029 24.4828 1.62189 24.5127C1.53307 23.9126 1.32293 23.5321 1.17995 23.0035C0.961507 22.1962 1.17273 20.1818 1.09799 19.5095C0.873408 17.4862 1.38251 18.6033 0.977399 17.6165C0.504772 20.8823 0.694333 19.5391 0.675558 23.2956C0.673392 23.7494 0.60695 24.3145 0.749568 24.7109C0.958621 25.2923 1.27021 25.0919 0.960421 25.8627L0 27.9731C0.456379 28.1692 0.250588 29.4798 0.257449 29.9203L0.456384 36.0959C0.553509 37.2296 0.654248 38.016 1.78761 38.9526C2.5072 39.5476 2.24255 39.4194 2.6946 40.1863C3.21308 41.0655 3.34847 40.7694 3.6366 41.2778C3.36869 42.0263 3.27264 41.9967 3.12316 42.9542C2.83756 44.7887 1.07308 46.7561 0.993283 49.2536C0.903379 52.0637 0.362149 52.1969 1.12579 54.7756C1.39297 55.6783 0.993997 56.3567 2.11292 57.8136C3.85756 60.0864 4.13811 59.8947 5.31445 60.9779C6.84317 62.386 7.2443 63.4797 8.97883 63.384C9.15286 62.5933 8.72031 63.1071 8.79613 62.1044C10.0501 64.0238 8.56433 62.919 11.434 64.6022C12.0854 64.9846 11.6254 64.7517 12.3443 64.5091C12.7237 65.0474 12.4981 64.9766 13.0487 65.3897L13.7917 66.1613C15.762 68.1049 16.0213 67.2076 18.1122 67.0903C19.5041 67.0123 19.7337 67.16 20.9573 67.2946C21.4809 66.9469 21.6935 66.5837 22.4073 66.2772C23.4927 65.811 23.0147 66.0284 23.6389 65.1814C24.0967 64.5596 23.9234 65.1535 25.1926 64.4574C26.2505 63.8776 26.249 63.8635 26.3779 63.2923L25.1467 63.627C25.8464 62.6294 26.6126 62.8998 26.8982 61.9084C26.9224 61.9405 26.9365 61.9932 26.9451 62.0196L27.0155 62.2297C27.1827 62.9583 26.8531 62.1181 27.0242 62.6167C27.3827 62.2441 27.5687 62.0214 27.8113 61.5083C28.5042 61.6191 28.5847 61.6791 29.2411 61.1909L31.9967 58.2396L29.8809 58.2024C28.2453 60.4977 29.9091 61.2231 27.5033 61.3715C27.6409 60.7591 27.7687 60.7114 27.9583 60.1792C28.1623 59.6066 27.9727 59.5597 27.955 59.5207C27.9514 59.5124 27.929 59.4882 27.9261 59.4596C27.9019 59.2148 28.2847 58.9538 28.5587 58.2887C27.7239 58.3638 26.0634 59.1636 25.1485 58.8505C25.4641 58.1125 26.8188 58.3996 28.536 57.3807C29.6473 56.721 28.9894 56.4748 30.3763 54.334C30.9926 53.3827 31.5671 52.3396 32.261 51.3531C32.5138 50.9943 34.0381 48.8766 34.1551 48.4466C33.2496 48.3253 34.2793 47.8003 33.4716 46.3239C32.7199 44.9498 32.5383 45.222 32.4563 44.6093C31.6237 45.1357 31.3186 45.9344 30.7359 46.2543L32.2451 44.2233C31.8281 43.885 32.0754 44.2244 31.9664 43.716L32.1931 42.4339C32.0837 42.3501 31.8671 42.2346 31.8176 42.1974C31.6685 42.0866 31.7465 42.1461 31.5934 42.0082L30.5384 41.1644L30.5142 39.688C29.6773 39.4851 29.6596 39.4241 28.8093 39.6458C28.7862 39.0797 28.8161 39.1898 28.5287 38.8414C28.1529 38.949 27.9962 39.0833 27.7174 39.2425C27.0423 38.9865 27.898 38.993 26.9061 38.9717L26.7895 39.2096C26.6743 39.3833 26.7841 39.2663 26.6357 39.3797L25.8193 38.4337L26.2342 37.8976C26.1104 37.8293 26.3032 37.8817 25.9551 37.7715L25.2778 37.7668L25.4785 37.3188C25.5175 37.0509 25.5171 37.1787 25.4085 36.979C25.1247 37.4217 25.4919 37.3155 24.86 37.5109C24.4488 37.638 24.4968 37.4841 24.0801 37.6715C23.6927 37.8459 23.6739 38.12 23.5941 38.4023L23.1778 39.297C22.9002 40.0274 22.5326 40.2852 21.7683 40.7766L21.5841 40.5225C21.3455 40.1809 21.248 39.9541 20.7013 39.9198C20.8822 40.5427 21.3151 40.9218 21.5152 41.4128C21.487 41.9555 21.3946 41.8363 21.3187 42.2761C21.1797 43.0816 21.3357 44.2832 20.5515 44.3085C20.5446 42.7072 20.3215 41.7208 18.9101 41.1113L18.6592 41.0074C18.7906 40.3141 18.5454 40.8683 18.9563 40.3535C19.2918 39.9328 19.798 39.6259 20.1836 39.2804L26.1869 34.5939C26.2187 34.5704 26.4104 34.4274 26.4187 34.4216C26.6733 34.2498 26.4711 34.3949 26.6689 34.2696L29.5906 31.9199C30.5005 30.9464 31.7198 31.2291 31.4038 29.113L29.5224 27.8186C28.6959 27.3792 24.5051 24.8442 23.9667 24.2214C23.683 23.8931 22.572 22.116 22.4438 21.6734C21.7365 21.7932 21.6805 21.8622 21.2274 22.2142C20.8024 21.4867 19.3474 21.6744 18.8083 20.0764C18.574 19.3821 17.7302 17.1255 17.4359 16.9305C16.4314 17.0099 16.8817 17.145 16.5932 18.0566L15.9545 18.834C15.2692 18.2086 12.944 16.7828 12.0059 16.1318C10.4093 15.0241 8.91854 13.6965 7.91046 16.1289C8.88423 17.3973 8.25995 18.0624 8.49464 20.1991C8.54194 20.6328 8.48237 21.3235 8.48851 21.8077C8.50367 23.0194 8.90192 27.2611 8.59899 28.0717C7.8664 28.0565 7.9935 27.7828 7.70682 27.2521C7.17353 27.9724 7.32698 28.1287 6.62508 28.6324C6.08386 28.2598 5.63254 27.5673 5.20396 27.0315C4.6714 26.365 4.42768 26.0118 3.98466 25.3013C3.40408 25.5118 3.26796 25.4526 2.87079 25.8952C2.77114 26.0068 2.62347 26.2 2.5202 26.3595C2.37614 26.582 2.44402 26.5672 2.25988 26.7751C1.96742 27.1055 2.127 26.8993 1.76378 27.0835C1.23338 27.3528 1.05106 27.824 0.350605 27.945C0.551715 25.5302 5.11875 24.6604 5.77876 23.2367Z" fill="#3C4455"/>
<path fill-rule="evenodd" clip-rule="evenodd" d="M20.4787 2.48108C20.7065 2.69014 20.6238 2.68219 20.9603 2.82156C21.8063 3.17143 22.5692 3.96504 23.3054 4.72904L24.0896 5.49701C24.1048 5.47065 24.1499 5.55262 24.1784 5.58222C23.3307 7.64784 22.5082 6.64554 22.7688 9.90915C23.2942 10.1464 22.6984 9.44736 23.0913 10.0911C24.3456 12.1463 23.6524 11.4975 24.1438 12.924C24.6084 14.2729 24.9605 15.2146 25.0215 16.7953C24.5167 16.2309 22.9353 11.8249 22.3991 10.7306C21.8846 9.75426 21.3734 9.77737 20.8181 8.66242C20.2227 7.46732 20.401 7.91575 19.9353 7.69117C19.6341 7.54602 19.7378 7.56841 19.3543 7.34022C16.0358 5.36414 16.1192 6.13031 13.8258 7.2023L13.0755 7.72944C12.6029 8.00312 12.7159 7.98904 12.1468 7.90816L12.1472 6.64807C12.7123 6.28412 12.7347 6.2769 12.9957 5.73134C13.6691 4.32537 14.5649 3.97515 14.7963 3.50541C14.6031 3.56462 14.5479 3.59242 14.4454 3.58881C14.0572 3.57473 14.5006 3.73901 14.2251 3.49205C13.495 3.6242 12.6003 4.79186 11.5486 5.62555C11.289 5.83135 11.3092 5.83135 11.025 6.04221C10.4416 6.47512 10.525 6.38594 10.278 7.20482C10.5329 7.59152 10.7503 7.81429 11.2171 7.87784C10.9528 8.48189 10.4307 8.62306 11.2684 9.32785L11.5941 9.6102C11.6085 9.58457 11.6511 9.66291 11.6728 9.69468C10.6795 9.69324 10.2094 9.23506 9.87218 10.2226L10.5015 10.437C10.3712 10.9205 9.91658 11.0292 9.73461 11.8448C9.46057 11.8448 9.36851 11.7358 8.77817 11.7831C8.23261 11.8264 8.13945 11.891 7.72712 12.0102C6.82014 12.2727 6.80679 12.4734 6.40132 12.1903L4.05588 12.9865C4.74659 13.0316 4.57579 13.1739 5.30874 13.1291C3.75438 16.9383 4.04035 14.1938 4.11906 16.4649C3.05069 16.8913 3.45651 16.4617 2.43291 16.6148C2.36323 17.0376 1.93826 18.1817 1.58731 18.3847C1.21289 18.1045 1.30641 18.42 1.39703 17.656C1.071 17.373 1.34216 17.7293 1.19232 17.3293C1.10783 17.104 1.13995 17.1827 1.11829 16.948C1.10565 16.8086 1.12841 16.3093 1.12768 16.1284C1.01359 16.6462 1.15766 17.0108 0.976403 17.616C1.38151 18.6027 0.872413 17.4856 1.09699 19.509C1.17173 20.1813 0.960512 22.1956 1.17895 23.003C1.32193 23.5316 1.53208 23.9121 1.6209 24.5122C2.3293 24.4822 1.52413 24.2721 2.17079 24.4396C1.84728 24.5079 1.73859 24.479 2.00505 23.3341C2.19714 22.5083 3.20992 20.6835 3.40525 20.4907C3.96272 19.9408 3.96236 20.4802 4.30645 20.6294C4.8614 20.8702 4.62129 20.5665 4.99426 20.1762C5.24087 19.9181 5.4326 19.8979 5.77019 19.5996C6.24751 19.1783 6.09514 19.1873 6.89164 19.2364L7.19024 20.8608C7.20612 21.9313 7.00429 22.1408 5.77777 23.2362C5.11775 24.6599 0.550719 25.5297 0.349609 27.9444C1.05006 27.8235 1.23239 27.3523 1.76278 27.0829C2.12601 26.8988 1.96643 27.105 2.25889 26.7746C2.44303 26.5666 2.37515 26.5814 2.51921 26.359C2.62247 26.1994 2.77014 26.0063 2.8698 25.8947C3.26696 25.452 3.40308 25.5112 3.98367 25.3007C4.42669 26.0113 4.6704 26.3644 5.20296 27.031C5.63154 27.5668 6.08286 28.2593 6.62409 28.6319C7.32599 28.1282 7.17254 27.9719 7.70582 27.2516C7.9925 27.7823 7.86541 28.056 8.598 28.0712C8.90093 27.2606 8.50268 23.0189 8.48751 21.8071C8.48137 21.323 8.54095 20.6322 8.49365 20.1986C8.25896 18.0619 8.88324 17.3968 7.90946 16.1284C8.91754 13.6959 10.4083 15.0236 12.0049 16.1313C12.943 16.7823 15.2682 18.2081 15.9535 18.8335L16.5922 18.0561C16.8807 17.1444 16.4305 17.0094 17.4349 16.93C17.7292 17.1249 18.573 19.3815 18.8073 20.0759C19.3464 21.6739 20.8014 21.4862 21.2264 22.2137C21.6795 21.8617 21.7355 21.7927 22.4428 21.6728C22.571 22.1155 23.682 23.8926 23.9658 24.2208C24.5041 24.8437 28.6949 27.3786 29.5214 27.8181L31.4029 29.1125C31.7188 31.2286 30.4995 30.9459 29.5896 31.9193L26.6679 34.2691C26.4701 34.3944 26.6723 34.2492 26.4177 34.4211C26.4094 34.4269 26.2177 34.5699 26.1859 34.5933L20.1826 39.2799C19.797 39.6254 19.2908 39.9323 18.9553 40.353C18.5445 40.8678 18.7896 40.3136 18.6582 41.0068L18.9091 41.1108C20.3205 41.7203 20.5436 42.7067 20.5505 44.308C21.3347 44.2827 21.1787 43.0811 21.3178 42.2756C21.3936 41.8358 21.486 41.955 21.5142 41.4123C21.3141 40.9213 20.8812 40.5421 20.7003 39.9193C21.247 39.9536 21.3445 40.1804 21.5831 40.5219L21.7673 40.7761C22.5316 40.2847 22.8992 40.0269 23.1769 39.2965L23.5931 38.4018C23.6729 38.1194 23.6917 37.8454 24.0791 37.671C24.4958 37.4836 24.4478 37.6374 24.859 37.5103C25.4909 37.315 25.1237 37.4212 25.4075 36.9785C25.5162 37.1782 25.5165 37.0503 25.4775 37.3182L25.2768 37.7663L25.9541 37.771C26.3022 37.8811 26.1094 37.8288 26.2332 37.897L25.8184 38.4332L26.6347 39.3792C26.7831 39.2658 26.6733 39.3828 26.7885 39.2091L26.9051 38.9712C27.897 38.9925 27.0413 38.986 27.7165 39.242C27.9952 39.0827 28.1519 38.9484 28.5277 38.8408C28.8151 39.1893 28.7852 39.0791 28.8083 39.6453C29.6586 39.4236 29.6763 39.4846 30.5132 39.6875L30.5374 41.1639L31.5924 42.0077C31.7455 42.1456 31.6675 42.086 31.8166 42.1969C31.8661 42.2341 32.0827 42.3496 32.1921 42.4334L31.9654 43.7155C32.0744 44.2239 31.8271 43.8845 32.2441 44.2228C32.5658 43.1642 34.2635 40.514 34.2827 39.6308L34.4022 38.175C33.8357 37.4984 33.8353 31.464 33.8393 30.73C33.8458 29.5598 33.5436 28.325 33.389 27.0786C32.998 23.9273 32.4218 25.6402 32.1791 23.9713C32.889 23.8103 32.9092 23.542 33.8433 23.6366C32.346 23.5446 32.7362 23.2853 31.0689 24.471C30.6175 24.792 30.3421 24.8617 30.0915 25.3997C29.6997 26.2406 29.9839 26.1514 28.969 26.4857C29.3947 25.5546 29.1802 25.981 29.6618 25.3838C29.686 25.3538 29.7496 25.2636 29.7738 25.2332L32.8543 22.4473C33.3836 22.699 33.7144 23.3044 34.3798 23.0784L34.4419 20.1856L34.2563 20.8431C34.0527 21.6732 34.1137 21.2554 33.5425 21.6927L33.375 21.8508C32.9067 22.1722 33.2143 22.1704 32.6702 22.3112C32.2109 18.7984 32.2134 18.2807 30.4583 15.8208C30.1348 15.3669 29.8546 14.8604 29.4874 14.4953C29.1101 14.1195 28.64 13.8743 28.3165 13.5024C27.2388 12.2629 27.1785 12.1604 25.9592 11.5455C25.8884 11.07 26.0018 10.8717 25.7194 10.493C25.1685 11.9401 26.3029 14.3094 27.0337 15.19C28.245 16.6494 29.0462 15.216 30.2785 18.1413C29.7427 17.8579 29.7189 17.23 29.2585 16.8863C28.6101 16.4017 27.051 15.7403 27.0423 15.7345C26.5228 15.3998 25.4613 12.6207 25.249 11.9686C24.9886 11.1685 24.7392 11.4299 24.9785 10.2695C25.11 9.63222 25.9985 7.74352 26.7188 7.57635C26.882 7.38282 26.9275 7.35971 27.0813 7.08748C27.3687 6.57983 26.9322 7.05462 27.3319 6.63398L27.029 6.39352C27.1637 5.89418 27.4955 5.8819 26.7961 5.66599C25.2002 5.17314 26.2581 4.9547 24.3759 3.65453C23.1104 2.7804 22.5573 2.22654 21.2658 2.30886C20.8303 2.33666 21.2087 2.33991 20.8556 2.49011C20.8419 2.49553 20.8058 2.51574 20.7924 2.51935L20.4787 2.48108Z" fill="#4E545C"/>
<path fill-rule="evenodd" clip-rule="evenodd" d="M34.2837 39.6306C34.2645 40.5137 32.5668 43.1639 32.2451 44.2225L30.7359 46.2535C31.3186 45.9336 31.6237 45.1349 32.4564 44.6085C33.2279 43.7358 33.936 42.292 34.5855 41.1864C34.839 40.33 35.5405 39.0948 36.0796 38.5539C36.5172 38.1145 37.7253 36.9674 38.4207 36.7927L38.4568 37.7556C38.3615 38.6853 38.4528 39.7783 38.438 40.7362C38.3817 44.3525 38.5723 42.2392 38.7604 43.4416L38.9034 47.9053C38.9633 49.3803 38.7633 48.7849 38.7651 49.2514C38.7662 49.5496 38.7431 49.1265 38.893 49.6587C39.2096 50.7841 38.8641 55.8999 37.7224 56.6816C37.3826 56.9145 36.9905 56.9806 36.5053 56.9661C35.5228 56.9369 35.9622 56.6538 35.1318 56.6924C33.8114 57.0506 35.2639 56.218 32.5625 57.333C31.6996 57.6893 30.8081 57.3629 30.1961 56.7975C29.6419 55.7194 33.9648 49.3926 34.18 48.8293C34.4949 48.0057 34.2681 48.4603 34.0728 48.3217L34.1551 48.4459C34.0381 48.8759 32.5138 50.9935 32.261 51.3524C31.5671 52.3388 30.9926 53.3819 30.3763 54.3333C28.9894 56.474 29.6473 56.7202 28.536 57.3799C26.8188 58.3988 25.4641 58.1118 25.1485 58.8498C26.0634 59.1628 27.7239 58.3631 28.5587 58.288C28.2847 58.953 27.9019 59.2141 27.9261 59.4589C27.929 59.4874 27.9514 59.5116 27.955 59.5199C27.9727 59.5589 28.1623 59.6058 27.9583 60.1785C27.7687 60.7107 27.6409 60.7583 27.5033 61.3707C29.9091 61.2223 28.2453 60.4969 29.8809 58.2017L31.9967 58.2389L29.2411 61.1902C28.5847 61.6783 28.5042 61.6184 27.8113 61.5075C27.5687 62.0206 27.3827 62.2434 27.0242 62.616C26.8531 62.1174 27.1827 62.9575 27.0155 62.2289L26.9451 62.0188C26.9365 61.9924 26.9224 61.9397 26.8982 61.9076C26.6126 62.8991 25.8464 62.6286 25.1467 63.6262L26.3779 63.2915C26.249 63.8627 26.2505 63.8768 25.1926 64.4567C23.9234 65.1528 24.0967 64.5588 23.6389 65.1806C23.0147 66.0276 23.4927 65.8103 22.4073 66.2764C21.6935 66.5829 21.4809 66.9462 20.9573 67.2939C19.7337 67.1592 19.5041 67.0115 18.1122 67.0895C16.0213 67.2069 15.762 68.1041 13.7917 66.1605L13.0487 65.3889C12.4981 64.9759 12.7237 65.0466 12.3443 64.5083C11.6254 64.7509 12.0854 64.9838 11.434 64.6014C8.56433 62.9182 10.0501 64.023 8.79613 62.1036C8.72031 63.1063 9.15286 62.5925 8.97883 63.3832C7.2443 63.4789 6.84317 62.3853 5.31445 60.9771C4.13812 59.894 3.85756 60.0857 2.11292 57.8128C0.993997 56.3559 1.39297 55.6775 1.12579 54.7749C0.362149 52.1962 0.903379 52.063 0.993283 49.2528C1.07308 46.7554 2.83756 44.788 3.12316 42.9534C3.27264 41.9959 3.36869 42.0255 3.6366 41.277C3.34847 40.7687 3.21308 41.0647 2.6946 40.1855C2.24255 39.4187 2.5072 39.5468 1.78761 38.9518C0.654249 38.0152 0.553509 37.2288 0.456384 36.0951L0.257449 29.9195C0.250589 29.4791 0.456379 28.1684 0 27.9724V37.7823C0.0628243 39.2962 0.183794 40.7575 0.403318 42.0905C0.512719 42.7559 0.763648 43.2755 0.811308 43.846C0.571926 44.7703 0.270442 42.6382 0.270442 47.0908L0.133969 50.8754C0.116638 51.5347 -0.00323331 52.1095 0.0527309 52.5728C0.244092 54.1632 0.310151 57.893 1.2554 59.2209C2.68484 61.2295 15.0667 69.6693 15.9642 69.796L16.0339 69.8058H18.9726C19.3499 69.7512 19.7124 69.6765 20.0601 69.5848C20.2522 69.5339 20.324 69.536 20.523 69.5068C20.8512 69.4588 20.9526 69.444 21.3632 69.4003L26.5014 68.5893C27.2477 68.2492 31.2584 64.8538 31.8743 64.2278C33.0889 62.9929 35.6766 61.1472 36.9114 59.53C37.9419 58.1807 37.4704 59.4993 38.3795 57.0766L39.2908 54.0672C39.3154 53.9524 39.3327 53.7455 39.3454 53.475V48.244L39.0551 42.6487C38.8868 41.146 39.0717 38.4622 38.7424 37.2819C38.3351 35.82 38.0564 37.5892 38.8576 34.4346C39.05 33.6771 38.7568 25.8454 38.6785 24.9077C38.6225 24.2358 38.7316 24.6073 38.5019 24.1285C38.3362 23.7837 38.2918 23.9328 38.3196 23.488L38.1174 14.5124C38.0098 14.0741 38.2225 14.3518 37.8975 14.1001C37.9614 15.8047 37.8538 17.3951 37.9148 19.1029C37.9452 19.9565 38.0026 20.8393 38.0289 21.6719C38.1008 23.9523 38.0094 23.0399 37.4989 23.6999L37.6755 23.8516C37.6978 23.874 37.7325 23.9021 37.7556 23.9278C38.0167 24.2206 37.9907 24.3029 38.0524 24.7427C38.3918 27.1636 38.4936 25.8695 38.503 28.2969C38.52 32.5751 38.9695 32.6383 37.5274 35.6853C36.997 36.8053 37.1136 36.7739 36.4576 37.2891C35.3658 38.1466 35.2011 39.6089 34.3617 40.5856C34.461 39.8433 34.5841 39.9704 34.2837 39.6306Z" fill="#19212B"/>
<path fill-rule="evenodd" clip-rule="evenodd" d="M12.4267 23.8423L12.4238 38.2868C12.5047 38.5919 12.5964 38.7818 12.8477 38.9674C12.86 38.9768 13.4799 39.3021 13.5789 39.3277C14.549 39.5797 15.8503 38.5121 16.3132 38.1257L23.1852 32.4654C24.7056 31.0248 25.1974 31.3245 24.9497 28.9848C24.5908 28.4201 24.4005 28.4905 23.6593 27.9006C21.4832 26.1678 18.421 24.6759 16.5211 23.2729C15.8535 22.78 14.4104 21.5618 13.6435 21.5557C13.0665 21.7961 12.9033 21.8117 12.6488 22.437C12.4758 22.8613 12.4542 23.3415 12.4267 23.8423Z" fill="#92EFDB"/>
<path fill-rule="evenodd" clip-rule="evenodd" d="M24.1802 29.9196C23.0963 28.8563 19.3276 26.4321 17.5537 25.2182L13.4289 22.5298C12.9906 23.3205 13.2657 25.5262 13.2578 26.6744L13.0596 35.7388C13.0491 36.2623 12.9318 37.4513 13.0126 37.8632C13.1141 38.3806 13.6979 38.9778 14.341 38.6114C14.715 38.3983 15.1736 37.8513 15.5946 37.5376C16.051 37.1975 16.3773 36.8826 16.876 36.5241C17.7681 35.8832 18.5419 35.1261 19.4352 34.4823L23.3101 31.4631C23.8513 31.0519 24.2163 30.8244 24.1802 29.9196Z" fill="#303D4B"/>
<path fill-rule="evenodd" clip-rule="evenodd" d="M10.0078 24.2415L10.024 36.1384C10.0132 37.1497 10.0858 38.2968 10.4162 39.1601C10.6548 39.784 13.5144 41.677 14.2351 42.024C14.9081 42.3483 16.0198 42.8046 16.248 43.4636C16.7484 44.9074 15.9725 50.488 16.6795 53.0948C17.108 54.6766 17.4492 54.8853 18.4082 54.8109C19.3415 53.0768 18.9942 47.3222 18.9213 44.7923C18.8772 43.2726 18.9993 43.1115 18.1518 42.189C17.3774 41.3452 17.2868 40.9408 18.0258 39.9674C18.5909 39.2236 20.8457 37.3389 21.7386 36.6413C22.1719 36.3027 23.3269 35.5073 23.606 35.1494C23.55 35.083 23.5053 34.9891 23.4136 34.9281C23.5223 34.8563 23.7465 34.7292 23.8237 34.6765C24.5033 34.215 25.2611 32.9625 25.3582 32.1274C25.0867 32.8268 24.7138 33.8124 23.8191 33.6955C24.1415 33.1434 24.2895 33.6503 24.1584 32.7166L23.185 32.465L16.313 38.1253C15.8501 38.5116 14.5489 39.5793 13.5787 39.3273C13.4798 39.3016 12.8598 38.9763 12.8475 38.9669C12.5962 38.7813 12.5045 38.5914 12.4236 38.2863L12.4265 23.8418C12.4034 23.883 12.3843 23.9321 12.3706 23.9714L12.2417 24.3679C12.2352 24.3975 12.1868 24.8708 12.1846 24.9185C12.0532 27.4845 11.7463 26.648 11.5452 27.6427C11.1563 29.5635 12.2908 33.5662 12.2908 34.3743C12.2912 35.6629 12.1698 36.9103 12.1698 38.2055C12.1641 37.6935 11.5726 38.4831 11.5958 36.9822C11.6098 36.0572 11.7376 36.2113 11.2347 35.43L10.6393 34.2869C10.6249 34.2631 10.5992 34.2331 10.5855 34.2085C10.4606 33.9839 10.5862 34.284 10.4924 34.0377C10.4328 33.8814 9.94896 28.9439 10.0905 28.1958C10.1985 27.6264 10.3436 24.9015 10.0078 24.2415Z" fill="#00B7BD"/>
<path fill-rule="evenodd" clip-rule="evenodd" d="M36.6272 13.2083C36.5149 13.9224 35.9848 14.042 35.6404 14.568C35.3642 14.9901 35.1591 15.6981 34.9746 16.204C34.6731 17.0301 34.4511 19.2528 34.4417 20.1861L34.3796 23.0789C33.7141 23.3049 33.3834 22.6994 32.8541 22.4478L29.7736 25.2337C29.7494 25.264 29.6858 25.3543 29.6616 25.3843C29.18 25.9815 29.3944 25.5551 28.9688 26.4862C29.9837 26.1519 29.6995 26.2411 30.0913 25.4002C30.3419 24.8622 30.6173 24.7925 31.0687 24.4715C32.736 23.2858 32.3457 23.545 33.843 23.6371L34.2908 23.722C34.2207 24.2903 34.0716 24.6466 34.3413 25.1449C34.9728 24.8943 34.0929 24.2776 36.5185 23.9469C36.1535 24.8109 35.167 25.9248 34.9114 26.553C34.7006 27.0715 34.6255 33.9937 34.7396 34.7725C34.9551 36.2457 34.3081 36.7898 34.402 38.1755L34.2825 39.6313C34.5829 39.9711 34.4597 39.844 34.3605 40.5863C35.1999 39.6096 35.3645 38.1474 36.4564 37.2898C37.1124 36.7746 36.9958 36.806 37.5262 35.686C38.9683 32.639 38.5188 32.5758 38.5018 28.2977C38.4924 25.8703 38.3906 27.1643 38.0512 24.7434C37.9894 24.3036 38.0155 24.2213 37.7544 23.9285C37.7313 23.9028 37.6966 23.8747 37.6742 23.8523L37.4977 23.7007C38.0082 23.0406 38.0996 23.953 38.0277 21.6726C38.0014 20.84 37.944 19.9572 37.9136 19.1036C37.8526 17.3958 37.9602 15.8054 37.8963 14.1008C38.1331 13.3238 37.4547 12.6912 37.0456 12.5425L36.6272 13.2083Z" fill="#2B3846"/>
<path fill-rule="evenodd" clip-rule="evenodd" d="M29.3596 30.1889C27.9688 31.2797 26.6794 32.7022 25.1207 33.9457C24.6376 34.3313 24.0776 34.8462 23.6065 35.1491C23.3274 35.5069 22.1723 36.3024 21.7391 36.641C20.8462 37.3386 18.5914 39.2233 18.0263 39.9671C17.2872 40.9405 17.3778 41.3449 18.1523 42.1887C18.9997 43.1112 18.8777 43.2722 18.9217 44.7919C18.9947 47.3219 19.342 53.0764 18.4087 54.8106C17.4497 54.885 17.1085 54.6763 16.6799 53.0945C15.973 50.4876 16.7489 44.9071 16.2484 43.4632C16.0202 42.8043 14.9085 42.3479 14.2355 42.0237C13.5149 41.6767 10.6553 39.7837 10.4166 39.1598C10.0862 38.2965 10.0137 37.1494 10.0245 36.1381C9.58798 35.4921 9.79631 34.2685 9.77789 33.2958C9.74504 31.5616 9.64106 32.1812 9.24642 31.3028L9.11464 36.8844C8.78319 40.7845 9.02292 39.9425 13.07 42.6891C15.3285 44.2222 15.4556 43.4304 15.4213 46.9554C15.4007 49.0568 15.2053 51.1325 15.353 53.2321C15.5375 55.8562 14.5439 56.0393 17.037 58.2602C17.9429 58.0908 19.1308 57.7666 19.7616 57.2311C19.9569 56.8892 19.7901 46.0188 19.7493 44.1099C19.7096 42.2443 18.5191 42.2266 18.1122 41.0626L21.2155 38.2907C21.7802 37.8823 22.3233 37.4047 22.8468 36.9479C23.4487 36.4229 23.974 36.0366 24.6019 35.5918C24.9261 35.3618 25.128 35.1434 25.4168 34.9195C25.7829 34.6357 25.8411 34.6278 26.2552 34.2707C26.8217 33.7829 27.2839 33.4193 27.8789 32.9189C28.8277 32.1209 30.2857 31.1746 30.7414 29.7838C30.5796 29.4805 30.3038 29.287 29.9167 29.0801C29.5979 29.5491 29.7849 29.205 29.8084 30.1225L29.3596 30.1889Z" fill="#A6F6FF"/>
<path fill-rule="evenodd" clip-rule="evenodd" d="M22.757 30.5541L20.134 28.7171C18.7746 27.5541 18.8544 27.7242 17.5755 26.8313C17.5571 26.8573 17.547 26.9017 17.5394 26.9201L17.4275 27.1974C17.313 27.4671 17.4404 27.2949 17.2939 27.4841C17.183 27.2414 17.1224 27.1642 17.0256 26.8277C16.84 26.1821 16.9722 26.3781 16.7559 26.1525C16.4573 25.8412 15.6767 25.834 13.6125 23.7236C13.8096 24.6776 13.9169 25.9283 13.9172 27.0808C13.9179 28.9868 13.5667 27.9668 13.5999 30.461C13.6212 32.0244 13.545 35.9043 14.1952 36.9987C14.6993 36.9658 14.7108 36.9171 15.13 36.5412L15.8634 35.9116C15.8865 35.8928 15.9189 35.8689 15.9413 35.8494C16.3641 35.4739 16.358 35.1216 16.4732 34.8082C16.4876 34.7688 16.5046 34.7302 16.5187 34.6948L16.6288 34.4706C17.1487 35.1215 16.7046 34.3973 16.8342 35.0836C16.8375 35.1002 16.8418 35.1457 16.844 35.1584C16.8458 35.1703 16.8397 35.2082 16.8519 35.2281C17.0808 35.0208 17.2314 34.9518 17.5368 34.741C17.7643 34.5836 17.5495 34.7359 17.6961 34.6298C17.9257 34.4633 17.7492 34.5875 17.9246 34.4547L19.1418 33.5083C19.4573 33.2321 19.353 33.1682 19.748 32.9021L20.4564 32.3869C20.4791 32.3692 20.512 32.3465 20.5351 32.3291L20.9211 32.0356C20.951 32.0107 21.033 31.9352 21.0626 31.9099C22.1544 30.9827 21.7529 31.4431 22.3537 31.0452C22.3779 31.0293 22.4115 31.0066 22.4339 30.9892C22.7654 30.7257 22.3888 30.913 22.757 30.5541Z" fill="#5D6268"/>
<path fill-rule="evenodd" clip-rule="evenodd" d="M35.1309 56.6932C35.9613 56.6546 35.5219 56.9376 36.5043 56.9669C36.9896 56.9813 37.3817 56.9152 37.7215 56.6824C38.8631 55.9007 39.2087 50.7848 38.892 49.6594C38.7422 49.1272 38.7653 49.5504 38.7642 49.2521C38.7624 48.7856 38.9624 49.381 38.9025 47.9061L38.7595 43.4423C38.5714 42.24 38.3808 44.3533 38.4371 40.7369C38.4519 39.779 38.3605 38.6861 38.4559 37.7563C37.8937 38.2246 37.4933 40.408 36.8185 41.7233C35.7858 43.7369 35.6306 42.6397 35.6475 46.1452C35.6562 47.9014 35.6002 55.7909 35.1309 56.6932Z" fill="#253043"/>
<path fill-rule="evenodd" clip-rule="evenodd" d="M34.5849 41.1877L35.0633 41.1913C35.789 44.4336 35.142 43.5317 34.8322 44.6632C34.7311 45.033 34.5759 46.1609 34.5463 46.5487C34.3795 48.7558 34.5582 47.1109 34.0722 48.3229C34.2675 48.4616 34.4943 48.007 34.1794 48.8306C33.9642 49.3938 29.6413 55.7207 30.1955 56.7988C30.8075 57.3642 31.699 57.6906 32.5619 57.3342C35.2633 56.2193 33.8108 57.0519 35.1312 56.6937C35.6006 55.7914 35.6565 47.9019 35.6479 46.1457C35.6309 42.6402 35.7862 43.7375 36.8188 41.7238C37.4936 40.4085 37.894 38.2252 38.4562 37.7569L38.4201 36.7939C37.7247 36.9687 36.5166 38.1158 36.079 38.5552C35.5399 39.0961 34.8384 40.3312 34.5849 41.1877Z" fill="#4D565F"/>
<path fill-rule="evenodd" clip-rule="evenodd" d="M9.11455 36.8858L9.24633 31.3042C9.64097 32.1826 9.74495 31.5631 9.7778 33.2972C9.79622 34.2699 9.58789 35.4936 10.0244 36.1395L10.0082 24.2426L10.0013 21.8849C9.98288 20.9425 9.9912 18.08 10.3454 17.5695C11.0224 17.4424 11.1459 17.7096 11.504 18.0158L14.5907 20.2074C15.9389 21.0721 16.9777 21.3982 18.0237 22.0293C18.4418 22.2813 18.5501 22.5236 18.8866 22.7955L23.0049 25.572C23.806 26.0309 26.8115 27.8304 27.0429 28.2832C27.9142 28.6031 29.0797 29.3003 29.3595 30.1903L29.8083 30.1239C29.7848 29.2064 29.5978 29.5505 29.9166 29.0815L21.4017 23.3999C17.3658 20.4919 18.8584 22.0773 17.4323 18.8982C15.7902 19.7395 17.3113 21.1284 11.7532 16.9589C11.3109 16.6275 10.7613 16.1913 10.1414 16.126C8.85856 16.4148 9.05677 19.4874 9.05713 20.4562C9.05821 22.8074 8.94124 35.6261 9.11455 36.8858Z" fill="#77F0FF"/>
<path fill-rule="evenodd" clip-rule="evenodd" d="M26.7189 7.57713C26.6294 7.90209 27.1721 8.57871 27.293 8.82639C27.6591 9.57848 27.3576 9.63301 27.5501 10.1973C27.775 10.8574 28.7705 12.0763 29.2799 12.4041C29.9778 12.8533 31.2249 12.6092 32.3186 13.2848C33.079 13.7541 34.1654 13.9971 34.7521 14.6571C33.3982 14.8124 33.7693 14.8944 33.1418 15.6093C32.8865 15.9003 32.8179 15.8638 32.7302 16.4166C32.4868 17.945 33.6043 20.4547 33.375 21.8516L33.5426 21.6935C34.1138 21.2562 34.0528 21.674 34.2564 20.8439L34.442 20.1864C34.4514 19.2531 34.6734 17.0304 34.9749 16.2043C35.1594 15.6984 35.3645 14.9904 35.6407 14.5683C35.9851 14.0423 36.5152 13.9227 36.6275 13.2086L36.6437 12.6168L33.4631 11.8763C32.559 11.5741 31.846 10.6274 31.3574 10.0551C31.0415 9.68499 30.848 9.17554 30.5382 8.84589C30.2587 8.54874 29.7904 8.37904 29.4171 8.06601C28.2827 7.11425 29.6601 8.30394 28.435 7.73636C28.0545 7.5598 27.784 7.02435 27.662 6.64271L27.332 6.63477C26.9323 7.0554 27.3688 6.58061 27.0814 7.08826C26.9276 7.3605 26.8821 7.38361 26.7189 7.57713Z" fill="#8D8B81"/>
<path fill-rule="evenodd" clip-rule="evenodd" d="M1.12846 16.1287C1.12918 16.3096 1.10643 16.809 1.11906 16.9484C1.14073 17.1831 1.1086 17.1043 1.19309 17.3296C1.34293 17.7297 1.07177 17.3733 1.39781 17.6564C1.4841 16.7985 3.4089 13.228 3.17638 12.2477C3.05831 11.7509 3.21032 12.2466 3.00019 11.9083C2.61096 11.2815 2.65286 11.2617 2.62433 10.263C3.23489 9.98894 4.29929 9.36972 4.75531 8.87146C4.77228 8.89854 4.77877 8.91876 4.78491 8.96245C4.85531 9.45529 5.1225 9.32748 5.13442 9.3282C5.79191 9.37442 5.58573 8.21722 6.56203 7.70452C7.41521 7.2568 8.32003 6.39748 9.1353 6.27978C8.61321 6.97698 8.09653 8.08146 7.20291 8.32121C7.35094 8.64833 7.10506 8.52629 7.50006 8.35442C7.50223 8.35334 7.87629 8.09482 7.8976 8.07893C8.18825 7.86447 8.39261 7.65252 8.7905 7.43011C8.94214 7.22359 9.22485 6.8275 9.40357 6.60329C9.66751 6.27183 9.91231 6.19204 10.1752 5.86528C11.4974 4.22282 11.3345 4.54055 13.4893 3.26854C14.0793 2.92012 14.8227 2.3352 15.4546 2.42439C15.2827 2.86813 14.7068 3.35628 14.2259 3.4924C14.5014 3.73937 14.058 3.57508 14.4461 3.58916C14.5487 3.59277 14.6039 3.56497 14.7971 3.50576C14.9538 3.23641 17.2306 1.83911 17.4938 1.70805C18.6286 1.14407 19.9028 1.78315 20.4794 2.48144L20.7932 2.51971C20.8066 2.5161 20.8427 2.49588 20.8564 2.49046C21.2095 2.34026 20.8311 2.33701 21.2665 2.30921C22.558 2.22689 23.1112 2.78075 24.3767 3.65488C26.2589 4.95505 25.201 5.17349 26.7969 5.66634C27.4963 5.88225 27.1644 5.89453 27.0298 6.39387L27.3327 6.63434L27.6627 6.64228C28.6744 5.88153 29.863 6.89322 30.844 7.46369C31.8726 8.06197 33.0071 8.80466 34.0722 9.27007C33.9628 8.80683 34.0906 9.04513 33.7321 8.75953C33.5187 8.58948 33.3501 8.54073 33.1335 8.414C32.7432 8.18581 32.3843 7.96159 31.9514 7.70344C30.4421 6.80295 29.8872 6.24584 28.3361 5.91041C27.7262 5.77863 26.5102 4.9175 26.0733 4.52286C25.618 4.11125 25.7946 4.02172 25.1248 3.57833C24.3619 3.07321 23.6791 2.66846 22.9032 2.14926C21.9331 1.50007 20.613 0.527744 19.5623 0.0710038C18.1015 -0.564461 12.7654 3.24941 11.1789 4.18744C10.3806 4.65935 9.70397 5.12547 8.92986 5.58907L6.56854 6.87841C1.54079 10.2305 2.61385 9.01986 2.03904 13.3009C1.87729 14.5054 1.48374 14.7264 1.12846 16.1287Z" fill="#77F0FE"/>
<path fill-rule="evenodd" clip-rule="evenodd" d="M33.3778 21.8511C33.6071 20.4542 32.4896 17.9445 32.733 16.4161C32.8207 15.8633 32.8893 15.8998 33.1446 15.6088C33.7721 14.8939 33.4009 14.8119 34.7549 14.6567C34.1682 13.9966 33.0817 13.7537 32.3214 13.2843C31.2277 12.6087 29.9806 12.8528 29.2827 12.4037C28.7732 12.0758 27.7778 10.8569 27.5528 10.1969C27.3604 9.63253 27.6619 9.57801 27.2958 8.82592C27.1748 8.57823 26.6321 7.90161 26.7217 7.57666C26.0014 7.74383 25.1128 9.63253 24.9814 10.2698C24.742 11.4302 24.9915 11.1688 25.2518 11.9689C25.4641 12.621 26.5256 15.4001 27.0452 15.7348C27.0538 15.7406 28.6129 16.402 29.2614 16.8866C29.7217 17.2303 29.7456 17.8582 30.2814 18.1416C29.0491 15.2163 28.2479 16.6497 27.0365 15.1903C26.3057 14.3097 25.1713 11.9404 25.7223 10.4933C26.0046 10.872 25.8912 11.0703 25.962 11.5458C27.1813 12.1607 27.2416 12.2632 28.3194 13.5027C28.6429 13.8746 29.113 14.1198 29.4903 14.4956C29.8575 14.8607 30.1377 15.3672 30.4612 15.8211C32.2163 18.281 32.2137 18.7987 32.673 22.3115C33.2171 22.1707 32.9095 22.1725 33.3778 21.8511Z" fill="#BAB39C"/>
<path fill-rule="evenodd" clip-rule="evenodd" d="M9.99965 21.8849C10.4156 21.5993 10.5777 21.7437 10.9413 21.8235C11.0363 20.2356 10.7633 20.8187 11.2955 19.7106L11.3211 19.5091C11.4652 18.8491 11.8154 18.9614 12.0324 18.9578C12.1573 19.3452 11.8894 19.0491 12.1678 19.5091C13.0968 19.3542 13.0632 19.6442 13.0622 20.6468C13.689 20.7808 13.4929 20.6703 13.9186 21.1321L13.7922 21.3946C13.7778 21.4141 13.7359 21.4592 13.7222 21.4769C13.7077 21.4949 13.668 21.5292 13.642 21.5563C14.4089 21.5625 15.8521 22.7807 16.5197 23.2735C18.4196 24.6766 21.4817 26.1685 23.6578 27.9012C24.3991 28.4912 24.5893 28.4208 24.9482 28.9855C25.358 28.8826 25.088 28.9418 25.3118 28.775C25.3263 28.7641 25.3548 28.7345 25.3689 28.7241C26.0932 28.1857 25.8043 28.971 26.2293 29.3043C27.159 28.9039 26.3878 28.5537 27.3132 28.6288C26.9878 28.5269 27.2287 28.5381 27.0413 28.2832C26.8099 27.8305 23.8044 26.0309 23.0032 25.572L18.885 22.7955C18.5485 22.5236 18.4401 22.2813 18.022 22.0293C16.976 21.3982 15.9373 21.0722 14.5891 20.2074L11.5024 18.0158C11.1442 17.7096 11.0207 17.4424 10.3437 17.5695C9.98955 18.0801 9.98123 20.9425 9.99965 21.8849Z" fill="#00C2CF"/>
<path fill-rule="evenodd" clip-rule="evenodd" d="M10.002 21.8854L10.0088 24.2431C10.3446 24.9031 10.1995 27.628 10.0915 28.1974C9.94998 28.9455 10.4338 33.883 10.4934 34.0394C10.5872 34.2856 10.4616 33.9856 10.5865 34.2101C10.6002 34.2347 10.6259 34.2647 10.6403 34.2885L11.2357 35.4316C11.7387 36.2129 11.6108 36.0588 11.5968 36.9838C11.5737 38.4847 12.1651 37.6951 12.1708 38.2071C12.1708 36.912 12.2922 35.6645 12.2918 34.3759C12.2918 33.5678 11.1573 29.5651 11.5462 27.6443C11.7473 26.6496 12.0542 27.4861 12.1857 24.9201C12.1878 24.8724 12.2362 24.3991 12.2427 24.3695L12.3716 23.973C12.3853 23.9337 12.4044 23.8846 12.4276 23.8434C12.455 23.3426 12.4767 22.8624 12.6496 22.4382C12.9042 21.8128 13.0674 21.7973 13.6443 21.5568C13.6703 21.5297 13.71 21.4954 13.7245 21.4774C13.7382 21.4597 13.7801 21.4146 13.7945 21.3951L13.9209 21.1326C13.4952 20.6708 13.6913 20.7813 13.0645 20.6473C13.0656 19.6447 13.0991 19.3547 12.1701 19.5096C11.8917 19.0496 12.1597 19.3457 12.0347 18.9583C11.8177 18.9619 11.4675 18.8496 11.3234 19.5096L11.2978 19.7111C10.7656 20.8192 11.0386 20.2361 10.9436 21.824C10.58 21.7442 10.4179 21.5998 10.002 21.8854Z" fill="#00A9B5"/>
<path fill-rule="evenodd" clip-rule="evenodd" d="M14.7959 3.50662C14.5645 3.97636 13.6687 4.32658 12.9953 5.73255C12.7343 6.27811 12.7119 6.28533 12.1469 6.64928L12.1465 7.90938C12.7155 7.99025 12.6025 8.00434 13.0751 7.73065L13.8254 7.20351C12.9874 7.47358 13.6532 7.36057 13.3849 6.93632C14.2139 6.79768 14.5006 6.28786 14.714 6.103L15.1213 5.82751C15.1444 5.81018 15.1761 5.78635 15.1985 5.76794C15.5224 5.50075 15.1462 5.81235 15.4022 5.56394C16.5254 4.47426 15.5661 4.97866 16.1445 4.58402C16.5532 4.30492 16.529 4.50062 16.9793 4.04135C17.9339 3.06721 18.3311 2.13857 18.7925 1.65294C18.9994 1.81867 19.0149 1.88366 19.1987 2.06852C19.4193 2.28985 19.4135 2.25735 19.6507 2.43427C20.6996 3.21524 21.8705 4.79668 22.0991 4.95302C21.4589 4.89273 22.2005 4.86709 21.6008 4.83893C21.1961 4.81979 21.2762 4.72917 21.039 4.98877C20.6693 5.39315 21.0859 5.3177 21.2889 6.02068C21.377 6.32686 21.1571 6.81789 22.0413 7.22192C22.3749 7.37429 22.2074 7.4252 22.5306 7.25586C22.5869 7.99748 22.5663 8.01156 22.4807 8.81528C22.3962 9.60816 22.5085 10.1512 22.4807 10.427C22.4771 10.4628 22.467 10.5036 22.462 10.5346L22.3988 10.7318C22.9349 11.8261 24.5164 16.2322 25.0211 16.7965C24.9601 15.2158 24.6081 14.2741 24.1434 12.9252C23.652 11.4987 24.3452 12.1475 23.0909 10.0923C22.6981 9.44857 23.2938 10.1476 22.7685 9.91036C22.5078 6.64675 23.3303 7.64906 24.1781 5.58344C24.1495 5.55383 24.1044 5.47186 24.0892 5.49822L23.305 4.73025C22.5688 3.96625 21.8059 3.17264 20.9599 2.82277C20.6234 2.6834 20.7061 2.69135 20.4783 2.4823C19.9017 1.78401 18.6275 1.14493 17.4927 1.70891C17.2295 1.83997 14.9526 3.23727 14.7959 3.50662Z" fill="#8D8B81"/>
<path fill-rule="evenodd" clip-rule="evenodd" d="M13.8255 7.20194C16.119 6.12995 16.0356 5.36378 19.3541 7.33986C19.7375 7.56805 19.6339 7.54566 19.935 7.69081C20.4008 7.91539 20.2224 7.46695 20.8178 8.66206C21.3731 9.77701 21.8844 9.7539 22.3989 10.7302L22.4621 10.5331C22.4671 10.502 22.4772 10.4612 22.4808 10.4255C22.5086 10.1496 22.3963 9.60659 22.4808 8.8137C22.5664 8.00999 22.587 7.9959 22.5307 7.25429C22.2075 7.42362 22.375 7.37271 22.0414 7.22035C21.1572 6.81632 21.3771 6.32528 21.289 6.0191C21.086 5.31612 20.6694 5.39158 21.0391 4.98719C21.2763 4.72759 21.1962 4.81822 21.6009 4.83735C22.2006 4.86552 21.459 4.89115 22.0992 4.95145C21.8706 4.79511 20.6997 3.21367 19.6508 2.4327C19.4136 2.25578 19.4194 2.28828 19.1988 2.06695C19.015 1.88208 18.9995 1.81709 18.7926 1.65137C18.3312 2.13699 17.934 3.06564 16.9794 4.03978C16.5291 4.49904 16.5533 4.30335 16.1446 4.58245C15.5662 4.97709 16.5255 4.47269 15.4023 5.56236C15.1463 5.81077 15.5225 5.49918 15.1986 5.76636C15.1762 5.78478 15.1445 5.8086 15.1214 5.82593L14.7141 6.10142C14.5007 6.28628 14.214 6.7961 13.385 6.93475C13.6533 7.35899 12.9875 7.47201 13.8255 7.20194Z" fill="#C4BCA1"/>
<path fill-rule="evenodd" clip-rule="evenodd" d="M7.2022 8.32148L6.94767 8.56844C6.92384 8.58613 6.89062 8.61574 6.86391 8.63343C6.27791 9.02157 6.01289 8.66593 5.62872 9.33641C4.78601 10.8063 4.92356 9.49384 3.96531 12.5325C3.7985 13.0625 3.32083 13.8049 3.33021 14.1418C3.44611 13.8533 3.909 13.3102 4.05595 12.9871L6.40139 12.191C6.80686 12.474 6.82021 12.2733 7.72719 12.0108C8.13952 11.8916 8.23268 11.827 8.77824 11.7837C9.36858 11.7364 9.46064 11.8454 9.73468 11.8454C9.91665 11.0298 10.3712 10.9211 10.5016 10.4376L9.87225 10.2232C9.57545 10.0055 9.26495 9.37216 9.10789 9.02951C8.87428 8.52078 8.90244 7.99002 8.78979 7.43038C8.3919 7.65279 8.18754 7.86473 7.89689 8.0792C7.87559 8.09509 7.50152 8.35361 7.49936 8.35469C7.10436 8.52656 7.35024 8.6486 7.2022 8.32148ZM27.662 6.64255C27.784 7.02419 28.0545 7.55964 28.435 7.7362C29.6601 8.30378 28.2827 7.11409 29.4171 8.06584C29.7904 8.37888 30.2587 8.54858 30.5382 8.84573C30.848 9.17538 31.0415 9.68483 31.3574 10.0549C31.846 10.6272 32.559 11.5739 33.4631 11.8761L36.6437 12.6166L36.6275 13.2084L37.0459 12.5426C36.7524 11.97 36.0653 11.293 35.5923 10.8222C35.3139 10.5452 35.1002 10.3654 34.8626 10.0647C34.5449 9.66317 34.5261 9.49492 34.0715 9.27034C33.0064 8.80493 31.8719 8.06224 30.8433 7.46396C29.8623 6.89349 28.6737 5.8818 27.662 6.64255Z" fill="#767A76"/>
<path fill-rule="evenodd" clip-rule="evenodd" d="M34.4027 38.1758C34.3089 36.79 34.9559 36.2459 34.7403 34.7728C34.6262 33.994 34.7013 27.0718 34.9122 26.5533C35.1678 25.925 36.1542 24.8112 36.5193 23.9472C34.0937 24.2779 34.9736 24.8946 34.3421 25.1452C34.0724 24.6469 34.2215 24.2905 34.2915 23.7222L33.8438 23.6374C32.9098 23.5428 32.8895 23.811 32.1797 23.9721C32.4223 25.6409 32.9986 23.928 33.3896 27.0793C33.5441 28.3257 33.8463 29.5605 33.8398 30.7307C33.8359 31.4648 33.8362 37.4992 34.4027 38.1758Z" fill="#989185"/>
<path fill-rule="evenodd" clip-rule="evenodd" d="M1.39762 17.6569C1.30699 18.4209 1.21348 18.1053 1.5879 18.3855C1.93885 18.1826 2.36381 17.0384 2.4335 16.6156C3.4571 16.4625 3.05127 16.8922 4.11965 16.4658C4.04094 14.1947 3.75497 16.9391 5.30933 13.1299C4.57638 13.1747 4.74717 13.0324 4.05646 12.9873C3.90951 13.3105 3.44663 13.8535 3.33073 14.142C3.32134 13.8051 3.79902 13.0628 3.96583 12.5327C4.92408 9.49406 4.78653 10.8065 5.62924 9.33664C6.01341 8.66615 6.27842 9.0218 6.86442 8.63366C6.89114 8.61597 6.92435 8.58636 6.94818 8.56867L7.20272 8.3217C8.09634 8.08196 8.61302 6.97748 9.13511 6.28027C8.31984 6.39798 7.41502 7.2573 6.56184 7.70501C5.58554 8.21772 5.79172 9.37491 5.13423 9.3287C5.12231 9.32798 4.85512 9.45579 4.78472 8.96294C4.77858 8.91925 4.77209 8.89903 4.75512 8.87195C4.2991 9.37022 3.2347 9.98943 2.62414 10.2635C2.65267 11.2622 2.61077 11.282 2.99999 11.9088C3.21013 12.2471 3.05812 11.7514 3.17619 12.2482C3.40871 13.2285 1.48391 16.799 1.39762 17.6569Z" fill="#394854"/>
<path fill-rule="evenodd" clip-rule="evenodd" d="M24.95 28.9845C25.1977 31.3241 24.706 31.0245 23.1855 32.4651L24.159 32.7168C24.29 33.6505 24.142 33.1435 23.8196 33.6956C24.7143 33.8126 25.0872 32.8269 25.3588 32.1275C25.2616 32.9626 24.5038 34.2152 23.8243 34.6766C23.747 34.7293 23.5228 34.8564 23.4141 34.9282C23.5058 34.9893 23.5506 35.0831 23.6065 35.1496C24.0777 34.8466 24.6377 34.3318 25.1208 33.9462C26.6795 32.7027 27.9689 31.2801 29.3597 30.1893C29.0798 29.2993 27.9143 28.6021 27.0431 28.2822C27.2305 28.5371 26.9897 28.5259 27.315 28.6278C26.3896 28.5527 27.1608 28.9029 26.2311 29.3033C25.8061 28.97 26.095 28.1847 25.3707 28.7231C25.3566 28.7335 25.3281 28.7632 25.3136 28.774C25.0898 28.9408 25.3598 28.8816 24.95 28.9845Z" fill="#00DDEC"/>
<path fill-rule="evenodd" clip-rule="evenodd" d="M2.17326 24.4404C4.52556 23.5551 3.25426 24.0703 4.76927 23.1991C5.80443 22.6037 5.74991 23.2085 5.78023 23.237C7.00675 22.1416 7.20859 21.9321 7.1927 20.8616L6.89411 19.2372C6.09761 19.1881 6.24997 19.1791 5.77265 19.6004C5.43506 19.8987 5.24333 19.9189 4.99673 20.177C4.62375 20.5673 4.86387 20.871 4.30892 20.6302C3.96483 20.4811 3.96519 19.9416 3.40772 20.4915C3.21238 20.6843 2.1996 22.5091 2.00752 23.3349C1.74106 24.4798 1.84975 24.5087 2.17326 24.4404Z" fill="#6E4930"/>
<path fill-rule="evenodd" clip-rule="evenodd" d="M13.6138 23.7233C15.678 25.8337 16.4586 25.8409 16.7572 26.1521C16.9735 26.3778 16.8414 26.1817 17.0269 26.8273C17.1237 27.1638 17.1844 27.2411 17.2952 27.4837C17.4418 27.2945 17.3143 27.4667 17.4288 27.197L17.5407 26.9197C17.5483 26.9013 17.5584 26.8569 17.5768 26.8309C18.8557 27.7238 18.7759 27.5537 20.1353 28.7167L22.7584 30.5538L23.587 30.2212C23.6181 30.2054 23.656 30.1833 23.6838 30.1685L23.8791 30.0548C23.5661 29.3627 23.3177 29.4092 22.667 29.0106C21.6637 28.3965 20.2992 27.0526 18.8135 26.372C18.1722 26.0785 17.3245 25.2635 16.2568 24.6075C15.296 24.0172 13.907 22.9094 13.5254 22.8506L13.6138 23.7233Z" fill="#C9C1A7"/>
<path fill-rule="evenodd" clip-rule="evenodd" d="M17.5494 45.8737C16.5612 46.6883 16.7338 47.4598 16.8028 49.394C16.8288 50.1302 17.0108 50.5487 17.1111 51.1795C17.2415 52.0005 17.1646 52.506 17.7134 52.9201C18.4247 52.8021 18.5113 52.1872 18.6052 51.0094C18.6727 50.1591 18.5947 49.059 18.5972 48.1722C18.6016 46.6334 18.8781 45.1895 17.6545 44.1663C17.3505 43.9121 17.9051 43.9984 17.0924 43.9604C17.6087 44.4547 17.3361 43.8489 17.3747 44.7338C17.396 45.222 17.3823 45.5578 17.5494 45.8737Z" fill="#0096A2"/>
<path fill-rule="evenodd" clip-rule="evenodd" d="M8.79102 7.42892C8.90367 7.98856 8.87551 8.51932 9.10911 9.02805C9.26617 9.3707 9.57668 10.004 9.87347 10.2217C10.2107 9.23422 10.6808 9.6924 11.6741 9.69384C11.6524 9.66207 11.6098 9.58373 11.5954 9.60936L11.2697 9.32701C10.432 8.62222 10.9541 8.48105 11.2184 7.877C10.7516 7.81345 10.5342 7.59068 10.2793 7.20398C10.5263 6.3851 10.4429 6.47428 11.0263 6.04137C11.3105 5.83051 11.2903 5.83051 11.5499 5.62471C12.6016 4.79102 13.4963 3.62336 14.2264 3.49121C14.7073 3.35509 15.2832 2.86694 15.4551 2.42319C14.8232 2.33401 14.0798 2.91893 13.4898 3.26735C11.335 4.53936 11.4979 4.22163 10.1757 5.86409C9.91283 6.19085 9.66803 6.27064 9.40409 6.60209C9.22537 6.82631 8.94266 7.22239 8.79102 7.42892Z" fill="#49463E"/>
<path fill-rule="evenodd" clip-rule="evenodd" d="M32.457 44.6086C32.539 45.2214 32.7206 44.9491 33.4723 46.3233C34.28 47.7997 33.2503 48.3247 34.1558 48.446L34.0735 48.3218C34.5595 47.1097 34.3808 48.7547 34.5476 46.5475C34.5772 46.1598 34.7324 45.0318 34.8335 44.6621C35.1433 43.5305 35.7903 44.4324 35.0646 41.1901L34.5862 41.1865C33.9366 42.2921 33.2286 43.736 32.457 44.6086Z" fill="#988D7E"/>
<path fill-rule="evenodd" clip-rule="evenodd" d="M8.06836 40.6008C8.21892 41.3832 8.92516 41.4767 9.48444 41.8027C9.79206 41.9818 11.3872 43.3116 12.4581 43.981C13.3694 44.5501 13.1943 44.5605 13.5193 44.8021C13.872 45.0638 14.1486 45.2335 14.6941 44.6215C14.9173 44.3717 14.9357 44.2955 15.0516 43.9247C14.8426 43.9077 14.2121 43.7759 14.0529 43.6987C13.7164 43.5348 13.7547 43.3571 13.4008 43.1412C12.6896 42.7061 11.2089 41.9746 10.3687 41.3171C9.35806 40.5268 9.55737 40.9915 8.99629 40.1357C8.52547 40.2264 8.37851 40.278 8.06836 40.6008Z" fill="#767873"/>
<path fill-rule="evenodd" clip-rule="evenodd" d="M32.1044 35.9143C32.4149 35.5652 32.7496 35.0323 32.9114 34.5174C32.1109 33.1537 30.1128 33.5779 29.9836 33.8664C29.8196 34.2329 29.9796 36.1815 32.1044 35.9143ZM2.22461 23.9178C3.33559 23.9528 4.27578 23.0603 5.15099 22.6194C5.21851 21.8413 5.11056 21.472 4.90909 20.834C3.76164 21.412 2.31921 22.1854 2.22461 23.9178Z" fill="#A75441"/>
<path fill-rule="evenodd" clip-rule="evenodd" d="M14.5215 57.3663C14.5709 58.1213 15.8491 59.2893 16.8871 59.241L19.4911 58.6059C20.1713 58.2957 19.7215 58.4586 20.1103 58.1433C19.8124 57.8209 20.5024 57.5144 18.6022 58.2336C16.9511 58.8586 16.9023 58.6481 16.0924 57.8971C15.6783 57.5129 15.5256 57.2504 15.0071 57.0508C14.9096 57.1201 14.5244 57.3631 14.5215 57.3663Z" fill="#767873"/>
<path fill-rule="evenodd" clip-rule="evenodd" d="M30.1797 13.3294C30.448 14.1313 30.7007 14.3512 31.0307 14.8509C31.4048 15.4178 31.5217 15.5846 32.2139 15.8821C32.5345 15.4936 32.74 15.5929 32.7883 14.9134C32.8263 14.383 32.6226 14.0959 32.3518 13.7916C31.5326 12.8716 31.4221 13.0897 30.1797 13.3294Z" fill="#9D9889"/>
<path fill-rule="evenodd" clip-rule="evenodd" d="M7.84105 32.3809C8.24111 31.952 8.66679 30.2951 8.67077 29.7867C8.00281 29.5885 7.22832 29.5477 6.45312 29.4502C6.63221 30.0582 6.94814 30.3196 7.25252 30.7713C7.68398 31.4115 7.57459 31.7548 7.84105 32.3809Z" fill="#767873"/>
<path fill-rule="evenodd" clip-rule="evenodd" d="M15.1007 14.3278C14.879 15.5998 15.569 15.4189 16.307 15.0084L16.1872 14.0375C15.6712 14.0299 15.3957 14.1436 15.1007 14.3278Z" fill="#A2694D"/>
</svg>
