<svg width="39" height="24" viewBox="0 0 39 24" fill="none" xmlns="http://www.w3.org/2000/svg">
<path d="M24.6587 2.56641H14.1602V21.4333H24.6587V2.56641Z" fill="#FF5F00"/>
<path d="M14.8269 12.0003C14.8258 10.183 15.2382 8.38929 16.0329 6.75498C16.8276 5.12076 17.9838 3.68866 19.4139 2.56733C17.6438 1.17601 15.518 0.310757 13.2795 0.0704847C11.0409 -0.169788 8.77986 0.224598 6.75478 1.20859C4.7297 2.19257 3.02241 3.72651 1.82791 5.63489C0.633422 7.54337 0 9.74933 0 12.0008C0 14.2522 0.633422 16.4582 1.82791 18.3667C3.02241 20.2752 4.7297 21.8089 6.75478 22.7929C8.77986 23.7769 11.0409 24.1713 13.2795 23.9311C15.518 23.6908 17.6438 22.8256 19.4139 21.4342C17.9837 20.3128 16.8274 18.8806 16.0327 17.2461C15.238 15.6116 14.8257 13.8177 14.8269 12.0003Z" fill="#EB001B"/>
<path d="M38.8229 11.9994C38.823 14.2507 38.1896 16.4567 36.9952 18.3651C35.8009 20.2734 34.0936 21.8072 32.0687 22.7911C30.0438 23.7751 27.7827 24.1695 25.5443 23.9292C23.3058 23.6889 21.1801 22.8236 19.4102 21.4323C20.8383 20.3094 21.9927 18.8768 22.7865 17.2427C23.5803 15.6086 23.9929 13.8156 23.9929 11.9989C23.9929 10.1821 23.5803 8.3892 22.7865 6.75508C21.9927 5.12096 20.8383 3.68838 19.4102 2.56542C21.1801 1.17409 23.3058 0.308834 25.5443 0.0685417C27.7827 -0.17175 30.0438 0.222626 32.0687 1.20659C34.0936 2.19054 35.8009 3.72441 36.9952 5.63279C38.1896 7.54117 38.823 9.74704 38.8229 11.9984V11.9994Z" fill="#F79E1B"/>
</svg>
