<svg width="33" height="33" viewBox="0 0 33 33" fill="none" xmlns="http://www.w3.org/2000/svg">
<path d="M16.2109 0C25.1833 5.08319e-05 32.457 7.27373 32.457 16.2461C32.457 25.2185 25.1833 32.4921 16.2109 32.4922C8.88862 32.4922 2.69853 27.6434 0.669922 20.9844L6.81738 23.5225C7.122 24.9074 8.07725 26.1222 9.47949 26.7061C10.5825 27.1643 11.8224 27.166 12.9268 26.7109C14.0312 26.2558 14.9102 25.3808 15.3701 24.2783C15.6155 23.691 15.7332 23.0581 15.7168 22.4219L21.3994 18.3574L21.5391 18.3604C24.9431 18.3604 27.7099 15.5853 27.71 12.1768C27.71 8.76811 24.9482 6.0032 21.5391 5.99609C18.1367 5.99628 15.3682 8.76823 15.3682 12.1768H15.373L15.375 12.2568L11.3994 18.0322C10.7558 18.0028 10.1102 18.1159 9.49707 18.3682C9.23009 18.4767 8.97498 18.6129 8.73633 18.7744L0.00683594 15.1758L0.00585938 15.1777C0.00377472 15.1742 0.00208974 15.1705 0 15.167C0.556431 6.69818 7.60149 0 16.2109 0Z" fill="#3E4C5C"/>
<path d="M9.97949 19.2881C10.7806 18.9835 11.692 18.9733 12.5439 19.3271C13.4068 19.6841 14.0666 20.3564 14.4199 21.2158C14.7732 22.0753 14.7714 23.023 14.415 23.8789L14.3457 24.043C13.5534 25.7065 11.5889 26.4684 9.87402 25.7539C9.08859 25.4238 8.45174 24.8168 8.08496 24.0479L10.0938 24.8799C10.4039 25.009 10.7363 25.0756 11.0723 25.0762C11.4084 25.0767 11.742 25.011 12.0527 24.8828C12.3634 24.7546 12.6459 24.5664 12.8838 24.3291C13.1216 24.0918 13.3105 23.8102 13.4395 23.5C13.7006 22.8729 13.7026 22.1673 13.4443 21.5391C13.1859 20.9108 12.6884 20.4104 12.0615 20.1484L9.97949 19.2881Z" fill="#3E4C5C"/>
<path fill-rule="evenodd" clip-rule="evenodd" d="M21.5449 8.05957C22.6357 8.06226 23.6814 8.4977 24.4521 9.26953C25.2227 10.0413 25.656 11.0871 25.6572 12.1777C25.6563 13.2687 25.2229 14.3149 24.4521 15.0869C23.6813 15.8589 22.6358 16.2942 21.5449 16.2969C20.4542 16.2939 19.4093 15.8579 18.6387 15.0859C17.8682 14.3139 17.4346 13.2684 17.4336 12.1777C17.4348 11.0871 17.8682 10.0413 18.6387 9.26953C19.4092 8.49774 20.4543 8.06254 21.5449 8.05957ZM21.5508 9.07617C20.7313 9.0776 19.9459 9.40519 19.3672 9.98535C18.7885 10.5655 18.4632 11.3515 18.4639 12.1709C18.4635 12.9903 18.7884 13.7764 19.3672 14.3564C19.946 14.9364 20.7314 15.2634 21.5508 15.2646C22.3705 15.2638 23.1571 14.9375 23.7363 14.3574C24.3155 13.7774 24.6401 12.9906 24.6396 12.1709C24.6396 10.4626 23.254 9.07617 21.5508 9.07617Z" fill="#3E4C5C"/>
</svg>
