<svg width="14" height="14" viewBox="0 0 14 14" fill="none" xmlns="http://www.w3.org/2000/svg">
<path d="M6.99242 0C10.8626 2.19021e-05 14 3.13405 14 7C14 10.866 10.8626 14 6.99242 14C3.83401 14 1.16398 11.9108 0.288964 9.0416L2.94061 10.1352C3.072 10.7319 3.48404 11.2553 4.08888 11.5069C4.56466 11.7043 5.09948 11.7051 5.57582 11.509C6.0522 11.3129 6.43137 10.9359 6.62974 10.4609C6.73556 10.2078 6.78636 9.93513 6.77928 9.66098L9.23041 7.90971L9.29065 7.91098C10.7589 7.91098 11.9524 6.7153 11.9524 5.24663C11.9524 3.77794 10.7612 2.58662 9.29065 2.58355C7.82306 2.58363 6.6289 3.77799 6.6289 5.24663H6.631L6.63184 5.28114L4.91702 7.7696C4.63939 7.75693 4.36095 7.80564 4.09646 7.91434C3.9813 7.96109 3.87126 8.01978 3.76832 8.08938L0.00294861 6.53883L0.00252738 6.53967C0.00162819 6.53817 0.000901386 6.53655 0 6.53504C0.240011 2.88606 3.27882 0 6.99242 0Z" fill="#747F8C"/>
<path d="M4.30455 8.31071C4.65011 8.17946 5.04324 8.17507 5.4107 8.32754C5.7829 8.48134 6.06749 8.77103 6.21988 9.14132C6.37226 9.51164 6.37149 9.91999 6.21778 10.2888L6.18787 10.3595C5.8461 11.0762 4.99874 11.4045 4.25906 11.0967C3.92027 10.9544 3.64557 10.6929 3.48736 10.3616L4.35383 10.7201C4.48761 10.7757 4.631 10.8044 4.77591 10.8046C4.9209 10.8049 5.06478 10.7766 5.19882 10.7213C5.33282 10.6661 5.45466 10.585 5.55729 10.4827C5.65987 10.3805 5.74134 10.2592 5.79697 10.1255C5.90961 9.8553 5.91049 9.55131 5.79907 9.2806C5.68761 9.00988 5.47299 8.79429 5.20261 8.68141L4.30455 8.31071Z" fill="#747F8C"/>
<path fill-rule="evenodd" clip-rule="evenodd" d="M9.29318 3.47265C9.76368 3.47381 10.2147 3.66143 10.5472 3.99399C10.8796 4.32654 11.0665 4.77713 11.067 5.24705C11.0666 5.71711 10.8797 6.16789 10.5472 6.50054C10.2147 6.83317 9.76373 7.02072 9.29318 7.02188C8.82268 7.0206 8.37198 6.83276 8.0396 6.50012C7.70725 6.16749 7.52021 5.71701 7.5198 5.24705C7.52032 4.77715 7.70724 4.32654 8.0396 3.99399C8.37196 3.66145 8.82276 3.47393 9.29318 3.47265ZM9.2957 3.91068C8.94224 3.91129 8.60347 4.05244 8.35383 4.30242C8.10424 4.5524 7.96392 4.89105 7.9642 5.24411C7.96402 5.59717 8.10417 5.93589 8.35383 6.1858C8.6035 6.43569 8.94228 6.57657 9.2957 6.57712C9.64929 6.57677 9.98858 6.43616 10.2384 6.18622C10.4882 5.93629 10.6282 5.59729 10.6281 5.24411C10.628 4.50804 10.0304 3.91068 9.2957 3.91068Z" fill="#747F8C"/>
</svg>
