<svg width="74" height="25" viewBox="0 0 74 25" fill="none" xmlns="http://www.w3.org/2000/svg">
<path d="M48.2016 0.489744C42.949 0.489744 38.2514 3.21425 38.2514 8.24867C38.2514 14.0217 46.58 14.4212 46.58 17.321C46.58 18.5428 45.1812 19.6356 42.7923 19.6356C40.7235 19.6214 38.69 19.0968 36.8723 18.1084L35.7882 23.1881C37.952 24.042 40.2573 24.4797 42.5834 24.4784C48.3281 24.4784 52.8494 21.6192 52.8494 16.4988C52.8494 10.3983 44.4917 10.0116 44.4917 7.32424C44.4917 6.36729 45.6396 5.31976 48.0228 5.31976C49.7098 5.34282 51.373 5.72152 52.9039 6.43117L53.9649 1.5245C52.1245 0.825218 50.1702 0.474338 48.2016 0.489744ZM0.127686 0.860212L0 1.60115C1.4337 1.87988 2.83989 2.28524 4.20203 2.81243C6.7662 3.7415 6.94845 4.27688 7.38026 5.94805L12.085 24.094H18.3915L28.1073 0.860212H21.8147L15.572 16.6544L13.024 3.26767C12.9373 2.57894 12.594 1.94832 12.0627 1.50195C11.5313 1.05559 10.8511 0.826392 10.158 0.860212H0.127686ZM30.6378 0.860212L25.701 24.0975H31.7011L36.6205 0.860212H30.6378ZM64.1032 0.860212C63.4688 0.852553 62.8503 1.05822 62.3469 1.44422C61.8434 1.83023 61.4841 2.37422 61.3266 2.98895L52.536 24.0975H58.8286L60.0462 20.5809H67.7074L68.448 24.0986H74L69.1607 0.860212H64.1032ZM64.9215 7.13842L66.7869 15.8577H61.7955L64.9296 7.13842H64.9215Z" fill="white"/>
</svg>
