<svg width="41" height="21" viewBox="0 0 41 21" fill="none" xmlns="http://www.w3.org/2000/svg">
<g clip-path="url(#clip0_2007_106)">
<path fill-rule="evenodd" clip-rule="evenodd" d="M7.46486 0.369888C7.4572 0.377662 7.45097 0.769347 7.45097 1.24029V2.09657L7.236 2.11058C6.24806 2.1749 5.30904 2.53052 4.61143 3.10458C3.91823 3.675 3.34236 4.5776 3.11376 5.45201C2.98428 5.94729 2.98543 5.93006 2.97303 7.56355C2.96247 8.95527 2.95927 9.06012 2.92573 9.11207C2.87242 9.19458 2.80146 9.21681 2.36181 9.28847C1.90331 9.36315 1.76171 9.40247 1.55195 9.51338C1.24892 9.67355 1.02879 9.93869 0.920591 10.2738L0.862061 10.4551V13.7433V17.0316L0.916471 17.1944C1.05209 17.6001 1.34312 17.909 1.72088 18.0482C1.85835 18.0989 2.61159 18.2328 3.41163 18.3488C4.59875 18.5209 5.54773 18.5984 6.71583 18.6185L7.45052 18.6312L7.45572 19.4958L7.46098 20.3604H7.71092H7.96086V10.3637V0.367107L7.71983 0.361444C7.58726 0.358318 7.47252 0.362134 7.46486 0.369888ZM7.45097 3.35891V3.98603L7.286 3.99948C6.64229 4.05197 6.20227 4.23147 5.72731 4.63525C5.25659 5.0354 4.96945 5.55935 4.85727 6.22275C4.8294 6.38761 4.82476 6.60029 4.82544 7.67801L4.82624 8.94024L4.75383 8.95167C4.66874 8.96504 3.62321 9.08498 3.59124 9.08498C3.57563 9.08498 3.57149 8.67149 3.57668 7.62864C3.58464 6.03617 3.58371 6.05053 3.7111 5.56332C3.98236 4.52613 4.71955 3.62241 5.70249 3.12213C6.16459 2.88695 6.75555 2.73926 7.256 2.73388L7.45097 2.73179V3.35891ZM36.2361 3.27216C35.6585 3.33254 35.1862 3.4552 34.7247 3.66459C33.5786 4.18468 32.7905 5.16705 32.5343 6.39487C32.4939 6.58864 32.4811 6.71955 32.4725 7.02835C32.4518 7.77052 32.5511 8.30258 32.8073 8.82195C33.1281 9.47218 33.6408 9.97881 34.3443 10.3408C34.7962 10.5733 35.2131 10.7304 36.3761 11.1063C37.2815 11.399 37.4466 11.4604 37.7867 11.6316C38.5758 12.0288 38.9657 12.4949 39.0641 13.1586C39.1107 13.4734 39.0782 13.9311 38.9845 14.2812C38.8884 14.64 38.6285 15.0762 38.3589 15.3312C37.8465 15.8158 37.1697 16.0496 36.2761 16.0506C35.8867 16.0512 35.624 16.0268 35.3263 15.9625C34.7691 15.8422 34.0815 15.4756 33.3966 14.9334C33.1295 14.722 32.9866 14.6465 32.8533 14.6465C32.6069 14.6465 32.4803 14.7715 32.1265 15.3641L31.8617 15.8076L32.0193 15.97C32.3653 16.3268 32.8807 16.7084 33.3668 16.9676C33.9627 17.2854 34.5622 17.4829 35.2663 17.5934C35.5204 17.6333 35.6354 17.639 36.1961 17.6397C36.7166 17.6403 36.8789 17.6337 37.066 17.604C37.9248 17.4675 38.6322 17.1826 39.231 16.732C39.4267 16.5846 39.7646 16.256 39.9269 16.0551C40.292 15.603 40.564 15.0439 40.7165 14.4322C40.8106 14.0546 40.8456 13.7954 40.8589 13.378C40.8815 12.6673 40.7851 12.16 40.532 11.6578C40.199 10.9969 39.6842 10.513 38.8957 10.1199C38.4527 9.89898 37.9623 9.70715 36.9358 9.35298C35.9892 9.02641 35.8209 8.96115 35.4905 8.79258C35.1537 8.62075 34.9182 8.45327 34.7064 8.23481C34.3542 7.87155 34.2265 7.54984 34.2265 7.02561C34.2265 5.94313 34.8912 5.17649 36.0524 4.91976C36.2338 4.87963 36.3141 4.87466 36.7861 4.87429C37.2122 4.87397 37.3526 4.88097 37.503 4.91006C38.0525 5.0163 38.684 5.31593 39.2475 5.73778C39.4275 5.87253 39.5323 5.91756 39.6674 5.91808C39.8125 5.91867 39.9325 5.85545 40.0255 5.72948C40.064 5.67735 40.199 5.4297 40.3254 5.17917L40.5554 4.72363L40.4854 4.64928C40.3758 4.53281 40.0343 4.25925 39.8255 4.12066C39.2002 3.70553 38.5157 3.44966 37.6759 3.31713C37.473 3.28515 37.2951 3.27477 36.866 3.26996C36.5635 3.26657 36.2801 3.26757 36.2361 3.27216ZM13.7799 3.40231C11.8949 3.59592 10.5969 4.71171 10.1303 6.53949C10.0737 6.76127 10.0026 7.13509 10.0147 7.14738C10.028 7.16092 10.5359 7.23789 10.6118 7.23789C10.7885 7.23789 10.9047 7.11795 10.9681 6.87007C11.1729 6.06914 11.4671 5.52577 11.9471 5.06211C12.5902 4.44098 13.5188 4.13175 14.5029 4.21103C15.6824 4.30608 16.4811 4.80786 16.911 5.72381C17.0941 6.11401 17.1694 6.49407 17.1693 7.02738C17.1692 7.21287 17.1567 7.42727 17.1399 7.53281C16.9962 8.43218 16.4956 9.09464 15.6444 9.51189C15.1097 9.77401 14.5516 9.90704 13.7899 9.95378L13.5599 9.96795V10.313V10.6581L13.9499 10.6714C14.8133 10.7009 15.4775 10.8468 16.0595 11.1348C16.8578 11.5298 17.2654 12.0587 17.4519 12.9416C17.5138 13.2345 17.5196 13.9384 17.4622 14.1898C17.3292 14.7721 17.1033 15.2322 16.7506 15.6383C16.3825 16.0624 15.805 16.4382 15.2397 16.6216C14.5558 16.8436 13.5714 16.8534 12.8598 16.6456C12.2617 16.4709 11.7525 16.1584 11.4009 15.7501C11.0354 15.3258 10.8077 14.9094 10.5809 14.2508C10.4891 13.984 10.4506 13.9232 10.3425 13.8733C10.2069 13.8108 10.0932 13.823 9.83252 13.9281C9.70498 13.9796 9.59235 14.0295 9.58223 14.0391C9.54177 14.0777 9.89423 15.0615 10.0914 15.4602C10.3678 16.0193 10.8174 16.5395 11.3203 16.882C11.5458 17.0356 11.997 17.2615 12.2625 17.3538C12.5187 17.4429 12.8476 17.5177 13.18 17.5625C13.5547 17.6131 14.4701 17.6135 14.7897 17.5632C16.2922 17.3268 17.4599 16.5262 18.0607 15.3206C18.3267 14.7868 18.4479 14.2561 18.4487 13.621C18.4493 13.1504 18.4022 12.8379 18.2694 12.4318C18.049 11.7576 17.6165 11.1905 17.0294 10.8058C16.6812 10.5777 16.1754 10.3695 15.6834 10.2517L15.4473 10.1951L15.6534 10.1308C16.0671 10.0018 16.4719 9.80429 16.7894 9.57652C17.0291 9.40447 17.3811 9.04852 17.5464 8.81098C17.7792 8.47635 17.9627 8.03818 18.0522 7.60327C18.1031 7.35561 18.1243 6.72064 18.091 6.43464C17.9727 5.41623 17.4958 4.61436 16.6787 4.06005C16.2045 3.73835 15.6394 3.53138 14.9597 3.43042C14.7131 3.3938 14.0229 3.37734 13.7799 3.40231ZM19.5289 10.4949V17.4476H22.2553C24.5089 17.4476 25.0351 17.4424 25.2903 17.4176C27.8895 17.1649 29.8088 15.6676 30.6353 13.2479C31.0825 11.9384 31.1854 10.318 30.9161 8.82595C30.671 7.46812 30.0604 6.24081 29.1875 5.35145C28.3642 4.51251 27.3002 3.94614 26.0778 3.69624C25.3637 3.55021 25.5107 3.55606 22.3634 3.54879L19.5289 3.54226V10.4949ZM25.3779 4.42391C26.2102 4.54421 26.8765 4.77248 27.4876 5.14671C28.3079 5.64908 28.9004 6.31841 29.3477 7.24801C29.7098 8.00075 29.9063 8.76075 29.9875 9.72247C30.0141 10.0377 30.0137 10.9564 29.9867 11.2782C29.8851 12.4941 29.5554 13.521 28.9887 14.3867C28.7175 14.801 28.4939 15.0597 28.1375 15.372C27.5799 15.8605 26.8311 16.2473 26.083 16.433C25.7894 16.506 25.4269 16.5672 25.128 16.5944C24.9873 16.6072 24.0506 16.6153 22.7134 16.6154L20.5287 16.6154V10.4947V4.37402L22.8334 4.38161C24.8737 4.38835 25.1655 4.3932 25.3779 4.42391ZM7.45097 6.72715V8.83487L6.79606 8.84795C6.43588 8.85521 5.99356 8.87081 5.81313 8.88264C5.57613 8.89818 5.47903 8.89795 5.46319 8.8819C5.44777 8.86624 5.44138 8.47984 5.44159 7.57687L5.4419 6.29407L5.49552 6.09578C5.60847 5.67825 5.8474 5.30741 6.17055 5.04815C6.49093 4.79108 6.93343 4.62457 7.306 4.6209L7.45097 4.61948V6.72715ZM7.45097 10.8377V12.2454L7.316 12.2681C7.1176 12.3015 6.91789 12.4094 6.78509 12.555C6.65069 12.7024 6.57995 12.8442 6.53887 13.0485C6.49512 13.2664 6.52111 13.4232 6.64057 13.6621C6.6908 13.7626 6.73172 13.8701 6.73149 13.9012C6.73126 13.9321 6.65806 14.165 6.56883 14.4188C6.47958 14.6724 6.40189 14.9143 6.39619 14.9562C6.38267 15.0557 6.43681 15.199 6.51223 15.2635C6.6252 15.36 6.99309 15.4686 7.286 15.4919L7.45097 15.505V16.7536V18.0021L6.76606 17.989C5.37862 17.9625 4.46553 17.893 3.36164 17.7301C2.76722 17.6424 2.064 17.5132 1.9403 17.4691C1.72085 17.3908 1.56916 17.242 1.49807 17.0352C1.46384 16.9355 1.46196 16.7632 1.46196 13.723V10.516L1.50761 10.4013C1.60213 10.1641 1.80284 10.0121 2.10565 9.94847C2.55088 9.85492 3.55975 9.70212 4.25149 9.6235C5.10293 9.52675 6.18417 9.45681 7.03103 9.44384C7.20149 9.44121 7.36572 9.43704 7.39595 9.43452L7.45097 9.43001V10.8377ZM7.45097 13.8782V15.099L7.306 15.0865C7.15555 15.0735 6.85458 15.0033 6.82635 14.9746C6.81749 14.9657 6.8932 14.726 6.99458 14.4421C7.22086 13.8087 7.2288 13.7445 7.09812 13.6072C6.97309 13.4758 6.92537 13.364 6.92635 13.2047C6.92732 13.0504 6.97658 12.9244 7.0768 12.8197C7.15149 12.7418 7.31669 12.6578 7.39595 12.6576L7.45097 12.6574V13.8782Z" fill="#1B99CC"/>
</g>
<defs>
<clipPath id="clip0_2007_106">
<rect width="40" height="20" fill="white" transform="translate(0.862061 0.360352)"/>
</clipPath>
</defs>
</svg>
