<svg width="26" height="26" viewBox="0 0 26 26" fill="none" xmlns="http://www.w3.org/2000/svg">
<g clip-path="url(#clip0_2188_49)">
<path d="M17.0146 10.121L13.7375 13.3981L17.0146 16.6752C17.2177 16.8783 17.2177 17.2085 17.0146 17.4116C16.9125 17.5137 16.7792 17.5637 16.6458 17.5637C16.5125 17.5637 16.3792 17.5127 16.2771 17.4116L13 14.1345L9.72292 17.4116C9.62083 17.5137 9.4875 17.5637 9.35417 17.5637C9.22083 17.5637 9.0875 17.5127 8.98542 17.4116C8.78229 17.2085 8.78229 16.8783 8.98542 16.6752L12.2625 13.3981L8.98542 10.121C8.78229 9.91786 8.78229 9.58766 8.98542 9.38453C9.18854 9.18141 9.51875 9.18141 9.72187 9.38453L12.999 12.6616L16.276 9.38453C16.4792 9.18141 16.8094 9.18141 17.0125 9.38453C17.2156 9.58766 17.2156 9.91786 17.0125 10.121H17.0146ZM25.5 13.3981C25.5 20.2908 19.8927 25.8981 13 25.8981C6.10729 25.8981 0.5 20.2908 0.5 13.3981C0.5 6.50536 6.10729 0.898071 13 0.898071C19.8927 0.898071 25.5 6.50536 25.5 13.3981ZM24.4583 13.3981C24.4583 7.08036 19.3177 1.93974 13 1.93974C6.68229 1.93974 1.54167 7.08036 1.54167 13.3981C1.54167 19.7158 6.68229 24.8564 13 24.8564C19.3177 24.8564 24.4583 19.7158 24.4583 13.3981Z" fill="white"/>
</g>
<defs>
<clipPath id="clip0_2188_49">
<rect width="25" height="25" fill="white" transform="translate(0.5 0.898071)"/>
</clipPath>
</defs>
</svg>
