<svg width="24" height="24" viewBox="0 0 24 24" fill="none" xmlns="http://www.w3.org/2000/svg">
<path d="M15.854 8.854L12.708 12L15.854 15.146C16.049 15.341 16.049 15.658 15.854 15.853C15.756 15.951 15.628 15.999 15.5 15.999C15.372 15.999 15.244 15.95 15.146 15.853L12 12.707L8.854 15.853C8.756 15.951 8.628 15.999 8.5 15.999C8.372 15.999 8.244 15.95 8.146 15.853C7.951 15.658 7.951 15.341 8.146 15.146L11.292 12L8.146 8.854C7.951 8.659 7.951 8.342 8.146 8.147C8.341 7.952 8.658 7.952 8.853 8.147L11.999 11.293L15.145 8.147C15.34 7.952 15.657 7.952 15.852 8.147C16.047 8.342 16.047 8.659 15.852 8.854H15.854ZM24 12C24 18.617 18.617 24 12 24C5.383 24 0 18.617 0 12C0 5.383 5.383 0 12 0C18.617 0 24 5.383 24 12ZM23 12C23 5.935 18.065 1 12 1C5.935 1 1 5.935 1 12C1 18.065 5.935 23 12 23C18.065 23 23 18.065 23 12Z" fill="white"/>
</svg>
