<svg width="20" height="21" viewBox="0 0 20 21" fill="none" xmlns="http://www.w3.org/2000/svg">
<g clip-path="url(#clip0_2021_3476)">
<path d="M7.5 3.53939C7.5 1.69855 10.2983 0.206055 13.75 0.206055C17.2017 0.206055 20 1.69855 20 3.53939C20 5.38022 17.2017 6.87272 13.75 6.87272C10.2983 6.87272 7.5 5.38022 7.5 3.53939ZM13.75 8.53939C12.8942 8.53939 12.0825 8.44355 11.3408 8.27689C10.2083 7.42772 8.3525 6.87272 6.25 6.87272C2.79833 6.87272 0 8.36522 0 10.2061C0 12.0469 2.79833 13.5394 6.25 13.5394C9.70167 13.5394 12.5 12.0469 12.5 10.2061C12.5 10.1819 12.4942 10.1586 12.4933 10.1344H12.5V11.8727C12.5 13.7136 9.70167 15.2061 6.25 15.2061C2.79833 15.2061 0 13.7136 0 11.8727V13.5394C0 15.3802 2.79833 16.8727 6.25 16.8727C9.70167 16.8727 12.5 15.3802 12.5 13.5394V15.2061C12.5 17.0469 9.70167 18.5394 6.25 18.5394C2.79833 18.5394 0 17.0469 0 15.2061V16.8727C0 18.7136 2.79833 20.2061 6.25 20.2061C9.70167 20.2061 12.5 18.7136 12.5 16.8727V16.8061C12.9042 16.8494 13.3217 16.8727 13.75 16.8727C17.2017 16.8727 20 15.3802 20 13.5394V11.8727C20 13.6386 17.4233 15.0802 14.1667 15.1952V13.5286C17.4233 13.4136 20 11.9727 20 10.2061V8.53939C20 10.3052 17.4233 11.7469 14.1667 11.8619V10.1952C17.4233 10.0802 20 8.63939 20 6.87272V5.20605C20 7.04689 17.2017 8.53939 13.75 8.53939Z" fill="url(#paint0_linear_2021_3476)"/>
</g>
<defs>
<linearGradient id="paint0_linear_2021_3476" x1="10" y1="0.206055" x2="10" y2="20.2061" gradientUnits="userSpaceOnUse">
<stop stop-color="#F3AAEE"/>
<stop offset="1" stop-color="#70E2FF"/>
</linearGradient>
<clipPath id="clip0_2021_3476">
<rect width="20" height="20" fill="white" transform="translate(0 0.206055)"/>
</clipPath>
</defs>
</svg>
