<svg width="24" height="24" viewBox="0 0 24 24" fill="none" xmlns="http://www.w3.org/2000/svg">
<g clip-path="url(#clip0_2083_544)">
<path d="M6 10.808V8.5C6 8.224 6.224 8 6.5 8C6.776 8 7 8.224 7 8.5V10.293L11.293 6L7 1.707V3.5C7 3.776 6.776 4 6.5 4C6.224 4 6 3.776 6 3.5V1.192C6 0.534 6.535 0 7.192 0H9.5C9.776 0 10 0.224 10 0.5C10 0.776 9.776 1 9.5 1H7.707L12 5.293L16.293 1H14.5C14.224 1 14 0.776 14 0.5C14 0.224 14.224 0 14.5 0H16.808C17.465 0 18 0.535 18 1.192V3.5C18 3.776 17.776 4 17.5 4C17.224 4 17 3.776 17 3.5V1.707L12.707 6L17 10.293V8.5C17 8.224 17.224 8 17.5 8C17.776 8 18 8.224 18 8.5V10.808C18 11.466 17.465 12 16.808 12H14.5C14.224 12 14 11.776 14 11.5C14 11.224 14.224 11 14.5 11H16.293L12 6.707L7.707 11H9.5C9.776 11 10 11.224 10 11.5C10 11.776 9.776 12 9.5 12H7.192C6.535 12 6 11.465 6 10.808ZM20.625 2.142C20.354 2.074 20.085 2.234 20.016 2.502C19.948 2.769 20.108 3.042 20.375 3.111C21.921 3.509 23 4.903 23 6.501V15.5C23 17.43 21.43 19 19.5 19H4.5C2.57 19 1 17.43 1 15.5V6.5C1 4.902 2.079 3.508 3.625 3.11C3.892 3.041 4.053 2.769 3.984 2.501C3.915 2.233 3.645 2.073 3.375 2.141C1.388 2.653 0 4.445 0 6.5V15.5C0 17.981 2.019 20 4.5 20H11.5V23H6.5C6.224 23 6 23.224 6 23.5C6 23.776 6.224 24 6.5 24H17.5C17.776 24 18 23.776 18 23.5C18 23.224 17.776 23 17.5 23H12.5V20H19.5C21.981 20 24 17.981 24 15.5V6.5C24 4.446 22.612 2.653 20.625 2.142Z" fill="white"/>
</g>
<defs>
<clipPath id="clip0_2083_544">
<rect width="24" height="24" fill="white"/>
</clipPath>
</defs>
</svg>
