<svg width="24" height="25" viewBox="0 0 24 25" fill="none" xmlns="http://www.w3.org/2000/svg">
<path d="M22.56 12.3611C22.56 11.5811 22.49 10.8311 22.36 10.1111H12V14.3711H17.92C17.66 15.7411 16.88 16.9011 15.71 17.6811V20.4511H19.28C21.36 18.5311 22.56 15.7111 22.56 12.3611Z" fill="#4285F4"/>
<path d="M11.9999 23.1112C14.9699 23.1112 17.4599 22.1312 19.2799 20.4512L15.7099 17.6812C14.7299 18.3412 13.4799 18.7412 11.9999 18.7412C9.13993 18.7412 6.70993 16.8112 5.83993 14.2112H2.17993V17.0512C3.98993 20.6412 7.69993 23.1112 11.9999 23.1112Z" fill="#34A853"/>
<path d="M5.84 14.2012C5.62 13.5412 5.49 12.8412 5.49 12.1112C5.49 11.3812 5.62 10.6812 5.84 10.0212V7.18115H2.18C1.43 8.66115 1 10.3312 1 12.1112C1 13.8912 1.43 15.5612 2.18 17.0412L5.03 14.8212L5.84 14.2012Z" fill="#FBBC05"/>
<path d="M11.9999 5.49108C13.6199 5.49108 15.0599 6.05108 16.2099 7.13108L19.3599 3.98108C17.4499 2.20108 14.9699 1.11108 11.9999 1.11108C7.69993 1.11108 3.98993 3.58108 2.17993 7.18108L5.83993 10.0211C6.70993 7.42108 9.13993 5.49108 11.9999 5.49108Z" fill="#EA4335"/>
</svg>
