<svg width="54" height="63" viewBox="0 0 54 63" fill="none" xmlns="http://www.w3.org/2000/svg">
<path d="M3 17.5087C10.8269 12.7503 22.3392 5.75133 25.8265 3.63125C26.4663 3.24225 27.2624 3.24311 27.9013 3.63373C31.3736 5.75679 42.8145 12.7521 50.5939 17.5087M3 17.5087C3 26.6514 3 40.1326 3 44.0593C3 44.7518 3.35822 45.392 3.94696 45.7566L26.8648 59.95M3 17.5087C12.3198 23.1747 26.8648 32.0174 26.8648 32.0174M50.5939 17.5087C50.5939 26.6542 50.5939 40.1408 50.5939 44.0629C50.5939 44.7536 50.2376 45.3921 49.6513 45.7572L26.8648 59.95M50.5939 17.5087C41.3271 23.1747 26.8648 32.0174 26.8648 32.0174M26.8648 59.95V32.0174" stroke="url(#paint0_linear_0_14)" stroke-width="5"/>
<defs>
<linearGradient id="paint0_linear_0_14" x1="26.797" y1="3" x2="26.797" y2="59.95" gradientUnits="userSpaceOnUse">
<stop stop-color="#F3AAEE"/>
<stop offset="0.5" stop-color="#18B1D7"/>
<stop offset="1" stop-color="#2D07D8"/>
</linearGradient>
</defs>
</svg>
