<svg width="50" height="37" viewBox="0 0 50 37" fill="none" xmlns="http://www.w3.org/2000/svg">
<path d="M30.1532 9.0752H19.8196V27.6456H30.1532V9.0752Z" fill="#FF5F00"/>
<path d="M20.4752 18.3607C20.4735 16.5722 20.8787 14.8068 21.6602 13.1981C22.4417 11.5895 23.5789 10.1797 24.9858 9.07549C23.2435 7.7058 21.151 6.85395 18.9474 6.61732C16.7438 6.3807 14.5182 6.76884 12.5248 7.73738C10.5314 8.70591 8.85071 10.2157 7.67488 12.0943C6.49905 13.9729 5.87549 16.1444 5.87549 18.3607C5.87549 20.5769 6.49905 22.7484 7.67488 24.627C8.85071 26.5055 10.5314 28.0154 12.5248 28.984C14.5182 29.9525 16.7438 30.3406 18.9474 30.104C21.151 29.8674 23.2435 29.0155 24.9858 27.6458C23.5789 26.5417 22.4417 25.1319 21.6602 23.5232C20.8787 21.9145 20.4735 20.1491 20.4752 18.3607Z" fill="#EB001B"/>
<path d="M44.0955 18.3596C44.0957 20.5757 43.4724 22.7471 42.2968 24.6257C41.1212 26.5042 39.4407 28.0141 37.4475 28.9827C35.4543 29.9512 33.2287 30.3394 31.0253 30.1028C28.8219 29.8662 26.7295 29.0144 24.9873 27.6448C26.3929 26.5394 27.5292 25.1294 28.3105 23.521C29.0919 21.9126 29.4978 20.1477 29.4978 18.3596C29.4978 16.5714 29.0919 14.8066 28.3105 13.1982C27.5292 11.5898 26.3929 10.1797 24.9873 9.0744C26.7295 7.70475 28.8219 6.85292 31.0253 6.61633C33.2287 6.37974 35.4543 6.76791 37.4475 7.73647C39.4407 8.70503 41.1212 10.2149 42.2968 12.0935C43.4724 13.972 44.0957 16.1435 44.0955 18.3596Z" fill="#F79E1B"/>
<path d="M42.9681 25.6782V25.2981H43.1216V25.2207H42.7314V25.2981H42.8849V25.6782H42.9681ZM43.7268 25.6782V25.2192H43.6077L43.4644 25.5348L43.3209 25.2192H43.2019V25.6782H43.2865V25.3326L43.4156 25.6308H43.5031L43.6321 25.3326V25.6796L43.7268 25.6782Z" fill="#F79E1B"/>
</svg>
