<svg width="16" height="28" viewBox="0 0 16 28" fill="none" xmlns="http://www.w3.org/2000/svg">
<path d="M2.44629 0.335907C1.85714 -0.144208 0.988478 -0.109601 0.439453 0.439422C-0.109571 0.988447 -0.144177 1.85711 0.335938 2.44626L0.439453 2.56052L11.8789 14L0.439453 25.4394L0.335938 25.5537C-0.144178 26.1428 -0.109571 27.0115 0.439453 27.5605C0.988479 28.1095 1.85714 28.1441 2.44629 27.664L2.56055 27.5605L15.0605 15.0605L15.1641 14.9463C15.2882 14.7939 15.3773 14.6227 15.4326 14.4433C15.4384 14.4246 15.4432 14.4056 15.4482 14.3867C15.4533 14.3677 15.4596 14.3491 15.4639 14.33L15.4727 14.2861C15.4747 14.2754 15.4757 14.2646 15.4775 14.2539C15.4826 14.224 15.4869 14.1941 15.4902 14.164C15.4921 14.1471 15.4938 14.1302 15.4951 14.1133C15.4973 14.084 15.4985 14.0547 15.499 14.0254C15.4992 14.0169 15.5 14.0084 15.5 14L15.498 13.9277C15.4975 13.9169 15.4959 13.9062 15.4951 13.8955C15.4933 13.87 15.4913 13.8446 15.4883 13.8193C15.4859 13.7994 15.4827 13.7796 15.4795 13.7597C15.4753 13.734 15.4713 13.7082 15.4658 13.6826C15.4612 13.6613 15.4557 13.6402 15.4502 13.6191C15.4444 13.5969 15.4385 13.5747 15.4316 13.5527C15.4217 13.5208 15.4106 13.4893 15.3984 13.458C15.3945 13.4479 15.3908 13.4377 15.3867 13.4277C15.3568 13.3551 15.3201 13.2849 15.2783 13.2168C15.2678 13.1996 15.2583 13.1818 15.2471 13.165C15.2196 13.124 15.1892 13.0846 15.1572 13.0459L15.0605 12.9394L2.56055 0.439422L2.44629 0.335907Z" fill="white"/>
</svg>
