<svg width="25" height="24" viewBox="0 0 25 24" fill="none" xmlns="http://www.w3.org/2000/svg">
<path d="M11 3H12V0.5C12 0.224 12.224 0 12.5 0C12.776 0 13 0.224 13 0.5V3H14C17.584 3 20.5 5.916 20.5 9.5V15.686C20.5 20.141 17.021 23.869 12.746 23.997C12.663 23.999 12.58 24 12.497 24C10.404 24 8.435 23.204 6.93 21.742C5.363 20.221 4.5 18.182 4.5 16V9.5C4.5 5.916 7.416 3 11 3ZM11 4C7.968 4 5.5 6.467 5.5 9.5V11H12V4H11ZM13 4L12.7708 4.54648C12.7708 1.51348 16.033 4 13 4ZM7.626 21.024C8.995 22.354 10.812 23.071 12.715 22.997C16.456 22.885 19.5 19.605 19.5 15.686V12H5.5V16C5.5 17.91 6.255 19.694 7.626 21.024Z" fill="white"/>
</svg>
