<svg width="16" height="28" viewBox="0 0 16 28" fill="none" xmlns="http://www.w3.org/2000/svg">
<path d="M13.5537 0.335907C14.1429 -0.144208 15.0115 -0.109601 15.5605 0.439422C16.1096 0.988447 16.1442 1.85711 15.6641 2.44626L15.5605 2.56052L4.12109 14L15.5605 25.4394L15.6641 25.5537C16.1442 26.1428 16.1096 27.0115 15.5605 27.5605C15.0115 28.1095 14.1429 28.1441 13.5537 27.664L13.4395 27.5605L0.939453 15.0605L0.835938 14.9463C0.71179 14.7939 0.622704 14.6227 0.567383 14.4433C0.561598 14.4246 0.556791 14.4056 0.551758 14.3867C0.54672 14.3677 0.540416 14.3491 0.536133 14.33L0.527344 14.2861C0.52528 14.2754 0.524291 14.2646 0.522461 14.2539C0.51736 14.224 0.513052 14.1941 0.509766 14.164C0.507914 14.1471 0.50616 14.1302 0.504883 14.1133C0.502683 14.084 0.501466 14.0547 0.500977 14.0254C0.500834 14.0169 0.5 14.0084 0.5 14L0.501953 13.9277C0.502471 13.9169 0.504134 13.9062 0.504883 13.8955C0.50665 13.87 0.50866 13.8446 0.511719 13.8193C0.514128 13.7994 0.5173 13.7796 0.520508 13.7597C0.524672 13.734 0.528667 13.7082 0.53418 13.6826C0.538772 13.6613 0.544278 13.6402 0.549805 13.6191C0.555618 13.5969 0.561511 13.5747 0.568359 13.5527C0.578296 13.5208 0.589448 13.4893 0.601562 13.458C0.605465 13.4479 0.609152 13.4377 0.613281 13.4277C0.643217 13.3551 0.679864 13.2849 0.72168 13.2168C0.732191 13.1996 0.741667 13.1818 0.75293 13.165C0.780431 13.124 0.810797 13.0846 0.842773 13.0459L0.939453 12.9394L13.4395 0.439422L13.5537 0.335907Z" fill="white"/>
</svg>
