<svg width="50" height="50" viewBox="0 0 50 50" fill="none" xmlns="http://www.w3.org/2000/svg">
<path d="M25.0064 24.5288C32.2981 24.4851 36.0627 20.7163 36.1981 13.2872C36.0731 6.10801 32.1002 2.12884 24.9939 2.08301C17.8022 2.12676 13.8022 6.38717 13.8022 13.2872C13.8022 20.4997 17.8043 24.4851 25.0064 24.5288ZM24.9939 4.16634C30.9418 4.20592 34.0106 7.28717 34.1147 13.2872C34.0002 19.4997 31.1022 22.4101 25.0064 22.4455C18.9022 22.4101 16.0043 19.5059 15.8856 13.3059C16.0002 7.19342 18.9835 4.20384 24.9939 4.16634Z" fill="#F3AAEE"/>
<path d="M24.9937 29.7793C14.0374 29.848 8.14158 35.7522 7.94158 46.8564C7.93116 47.4314 8.3895 47.9064 8.9645 47.9168H8.98325C9.54991 47.9168 10.0145 47.4626 10.0249 46.8939C10.2041 36.8418 15.1041 31.923 24.9916 31.8626C34.7603 31.9251 39.802 36.9835 39.9728 46.8939C39.9832 47.4689 40.5041 47.946 41.0332 47.9168C41.6082 47.9064 42.0666 47.4335 42.0562 46.8564C41.8666 35.9147 35.8124 29.848 24.9937 29.7793Z" fill="#F3AAEE"/>
</svg>
