<svg width="25" height="25" viewBox="0 0 25 25" fill="none" xmlns="http://www.w3.org/2000/svg">
<g clip-path="url(#clip0_2008_194)">
<path d="M18.3208 8.94167L19.0531 9.68125L12.7625 15.9125C12.2594 16.4115 11.5948 16.6615 10.9312 16.6615C10.2719 16.6615 9.6125 16.4156 9.10938 15.9229L5.94792 12.8073L6.67812 12.0656L9.83854 15.1802C10.4437 15.7719 11.426 15.7687 12.0302 15.1729L18.3208 8.94167ZM25 12.5C25 19.3927 19.3927 25 12.5 25C5.60729 25 0 19.3927 0 12.5C0 5.60729 5.60729 0 12.5 0C19.3927 0 25 5.60729 25 12.5ZM23.9583 12.5C23.9583 6.18229 18.8177 1.04167 12.5 1.04167C6.18229 1.04167 1.04167 6.18229 1.04167 12.5C1.04167 18.8177 6.18229 23.9583 12.5 23.9583C18.8177 23.9583 23.9583 18.8177 23.9583 12.5Z" fill="#06CDFF"/>
</g>
<defs>
<clipPath id="clip0_2008_194">
<rect width="25" height="25" fill="white"/>
</clipPath>
</defs>
</svg>
