<svg width="50" height="19" viewBox="0 0 50 19" fill="none" xmlns="http://www.w3.org/2000/svg">
<path d="M50 0.214355H0V18.507H50V0.214355Z" fill="white"/>
<path d="M31.4597 2.65358C28.4289 2.65358 25.7206 4.1774 25.7206 6.99236C25.7206 10.2202 30.5236 10.444 30.5236 12.0658C30.5236 12.749 29.7172 13.3599 28.339 13.3599C27.1446 13.3523 25.9707 13.0588 24.9213 12.5054L24.2955 15.3461C25.5434 15.8236 26.873 16.0685 28.2145 16.068C31.5281 16.068 34.1353 14.4699 34.1353 11.6064C34.1353 8.19538 29.3119 7.97854 29.3119 6.47353C29.3119 5.93886 29.9744 5.3527 31.3484 5.3527C32.3215 5.36536 33.2808 5.5769 34.1639 5.97351L34.7764 3.22984C33.7171 2.84051 32.5925 2.64512 31.4597 2.65358ZM3.73195 2.86052L3.65845 3.2744C4.48534 3.43058 5.29633 3.65754 6.0819 3.95264C7.56006 4.47048 7.66622 4.77149 7.91939 5.70816L10.6287 15.8541H14.2659L19.8702 2.86052H16.2402L12.6417 11.6945L11.1707 4.20612C11.1206 3.82119 10.9225 3.46879 10.6161 3.21934C10.3097 2.96989 9.91756 2.84175 9.51801 2.86052H3.73195ZM21.329 2.86052L18.4819 15.8541H21.9425L24.7804 2.86052H21.329ZM40.6309 2.86052C40.2655 2.85636 39.9092 2.97116 39.619 3.18656C39.3288 3.40196 39.1215 3.70552 39.0302 4.04869L33.9597 15.8511H37.5888L38.2911 13.8837H42.7123L43.139 15.8511H46.3414L43.5484 2.86052H40.6309ZM41.1025 6.37056L42.1784 11.246H39.2966L41.1025 6.37056Z" fill="#1434CB"/>
</svg>
