<svg width="25" height="24" viewBox="0 0 25 24" fill="none" xmlns="http://www.w3.org/2000/svg">
<path d="M14 3H13V0.5C13 0.224 12.776 0 12.5 0C12.224 0 12 0.224 12 0.5V3H11C7.416 3 4.5 5.916 4.5 9.5V15.686C4.5 20.141 7.979 23.869 12.254 23.997C12.337 23.999 12.42 24 12.503 24C14.596 24 16.565 23.204 18.07 21.742C19.637 20.221 20.5 18.182 20.5 16V9.5C20.5 5.916 17.584 3 14 3ZM14 4C17.032 4 19.5 6.467 19.5 9.5V11H13V4H14ZM11 4H12V11H5.5V9.5C5.5 6.467 7.967 4 11 4ZM17.374 21.024C16.005 22.354 14.188 23.071 12.285 22.997C8.544 22.885 5.5 19.605 5.5 15.686V12H19.5V16C19.5 17.91 18.745 19.694 17.374 21.024Z" fill="white"/>
<rect x="11.4961" y="3.99561" width="2.00391" height="6.99902" fill="white"/>
</svg>
