<svg width="50" height="51" viewBox="0 0 50 51" fill="none" xmlns="http://www.w3.org/2000/svg">
<g clip-path="url(#clip0_0_178)">
<path d="M31.8726 25.1119C36.8976 21.0661 42.6706 16.014 43.6851 8.3911C43.9643 6.29526 43.3268 4.18485 41.9372 2.59735C40.5539 1.01818 38.5581 0.114014 36.4601 0.114014H13.5414C11.4435 0.114014 9.44764 1.02235 8.06431 2.59943C6.67472 4.1911 6.03514 6.3036 6.31639 8.40151C7.33514 16.0182 13.1039 21.0682 18.1268 25.1119C13.1039 29.1557 7.33514 34.2057 6.31639 41.8223C6.03722 43.9161 6.67264 46.0286 8.06431 47.6161C9.45181 49.1994 11.4518 50.1078 13.5539 50.1078H36.4476C38.5497 50.1078 40.5518 49.1994 41.9372 47.6182C43.3268 46.0307 43.9643 43.9223 43.6872 41.8328C42.6726 34.2098 36.8997 29.1578 31.8747 25.1119H31.8726ZM40.3685 46.2473C39.3768 47.3807 37.9476 48.0286 36.4456 48.0286H13.5518C12.0497 48.0286 10.6226 47.3786 9.63097 46.2453C8.63514 45.1078 8.17889 43.5973 8.37889 42.1015C9.35597 34.7932 15.5018 29.8765 20.4414 25.9265C20.6893 25.7286 20.8331 25.4307 20.8331 25.1119C20.8331 24.7932 20.6893 24.4953 20.4414 24.2973C15.5039 20.3473 9.35806 15.4307 8.37889 8.12235C8.17681 6.62026 8.63514 5.10776 9.63097 3.97026C10.6185 2.8411 12.0435 2.19318 13.5393 2.19318H36.4581C37.956 2.19318 39.3789 2.8411 40.3664 3.96818C41.3622 5.1036 41.8164 6.6161 41.6164 8.11193C40.6435 15.4265 34.4956 20.3453 29.556 24.2973C29.3101 24.4953 29.1643 24.7932 29.1643 25.1119C29.1643 25.4307 29.3081 25.7286 29.556 25.9265C34.4956 29.8765 40.6435 34.7973 41.6164 42.1119C41.8164 43.6057 41.3601 45.1119 40.3664 46.2473H40.3685ZM26.5351 31.0369C26.3372 30.8786 26.1497 30.7098 25.9747 30.5286C25.5831 30.1307 24.8768 30.1307 24.4831 30.5286C24.3081 30.7098 24.1226 30.8786 23.9206 31.0369C19.6747 34.4348 15.2831 37.9453 14.031 42.5432C13.9456 42.8557 14.0122 43.1932 14.2081 43.4515C14.406 43.7098 14.7122 43.8598 15.0351 43.8598H35.4122C35.7372 43.8598 36.0456 43.7098 36.2393 43.4515C36.4372 43.1932 36.5018 42.8578 36.4143 42.5432C35.1372 37.9182 30.5622 34.2598 26.5289 31.0369H26.5351ZM16.5206 41.7765C18.0497 38.4036 21.6893 35.489 25.2289 32.6598C28.5914 35.3494 32.3518 38.3557 33.9247 41.7765H16.5206Z" fill="white"/>
</g>
<defs>
<clipPath id="clip0_0_178">
<rect width="50" height="50" fill="white" transform="translate(-0.000244141 0.111938)"/>
</clipPath>
</defs>
</svg>
