<svg width="50" height="51" viewBox="0 0 50 51" fill="none" xmlns="http://www.w3.org/2000/svg">
<path d="M39.4584 24.1619C39.4584 23.7703 39.2396 23.4119 38.8917 23.2348C37.0479 22.2953 35.0688 21.4244 32.8459 20.5786C28.8563 19.0453 25.8271 15.964 24.3167 11.9078C23.4875 9.64942 22.6313 7.63901 21.7042 5.75984C21.5292 5.40359 21.1667 5.17859 20.7709 5.17859C20.375 5.17859 20.0125 5.40359 19.8375 5.75984C18.9104 7.64317 18.0584 9.65359 17.2271 11.9036C15.7167 15.9619 12.6875 19.0432 8.70212 20.5765C6.47503 21.4244 4.49378 22.2953 2.65212 23.2348C2.3042 23.4119 2.08545 23.7703 2.08545 24.1619C2.08545 24.5536 2.3042 24.9119 2.65212 25.089C4.49587 26.0286 6.47503 26.8994 8.69795 27.7453C12.6875 29.2807 15.7167 32.3619 17.2271 36.4182C18.0563 38.6723 18.9125 40.6828 19.8375 42.564C20.0125 42.9203 20.375 43.1453 20.7709 43.1453C21.1667 43.1453 21.5292 42.9203 21.7042 42.564C22.6292 40.6869 23.4834 38.6765 24.3167 36.4203C25.8271 32.3619 28.8563 29.2807 32.8417 27.7473C35.0688 26.8994 37.05 26.0286 38.8917 25.089C39.2396 24.9119 39.4584 24.5536 39.4584 24.1619ZM32.0959 25.8015C27.5396 27.5536 24.0834 31.0682 22.3625 35.6973C21.8438 37.1036 21.3167 38.4098 20.7688 39.6432C20.2209 38.4078 19.6959 37.1015 19.1771 35.6953C17.4563 31.0661 14 27.5536 9.43962 25.7994C8.03753 25.2661 6.73753 24.7223 5.51253 24.1598C6.73753 23.5973 8.03753 23.0557 9.44378 22.5203C14 20.7682 17.4563 17.2557 19.1771 12.6244C19.6959 11.2203 20.2209 9.91401 20.7688 8.67651C21.3167 9.91192 21.8438 11.2182 22.3625 12.6265C24.0834 17.2536 27.5396 20.7682 32.1 22.5203C33.5021 23.0536 34.8021 23.5973 36.0271 24.1598C34.8021 24.7223 33.5021 25.264 32.0959 25.7994V25.8015Z" fill="white"/>
<path d="M36.6646 12.1078C37.1854 12.3724 37.6958 12.5911 38.2041 12.7849C38.9646 13.0765 39.5208 13.6432 39.8104 14.4182C40.0021 14.9369 40.2125 15.4557 40.4729 15.9807C40.6479 16.3369 41.0083 16.5619 41.4042 16.5619C41.8 16.5619 42.1604 16.339 42.3375 15.9828C42.5979 15.4557 42.8125 14.9369 43.0021 14.4203C43.2917 13.6411 43.8458 13.0765 44.6042 12.7849C45.1167 12.589 45.6271 12.3724 46.1479 12.1057C46.4958 11.9286 46.7125 11.5703 46.7125 11.1786C46.7125 10.7869 46.4937 10.4307 46.1458 10.2515C45.6271 9.98695 45.1167 9.77028 44.6083 9.57445C43.8479 9.28278 43.2917 8.71611 43.0021 7.94111C42.8104 7.42028 42.5979 6.90153 42.3375 6.37653C42.1604 6.02236 41.8 5.79736 41.4042 5.79736C41.0083 5.79736 40.6479 6.02236 40.4729 6.37861C40.2125 6.90361 40 7.42236 39.8104 7.93903C39.5208 8.7182 38.9666 9.28278 38.2041 9.57445C37.6958 9.7682 37.1875 9.98486 36.6667 10.2494C36.3167 10.4265 36.0979 10.7849 36.0979 11.1765C36.0979 11.5682 36.3167 11.9265 36.6646 12.1057V12.1078ZM41.4062 9.42236C41.8292 10.1578 42.4229 10.7557 43.1521 11.1786C42.425 11.6015 41.8291 12.2015 41.4083 12.9349C40.9854 12.2015 40.3896 11.6015 39.6625 11.1786C40.3896 10.7557 40.9854 10.1557 41.4062 9.42028V9.42236Z" fill="white"/>
<path d="M47.35 37.5078C46.6959 37.1724 46.05 36.8974 45.4042 36.6536C44.35 36.2495 43.5813 35.4661 43.1813 34.3911C42.9417 33.737 42.6688 33.0786 42.3417 32.4141C41.9917 31.7057 40.8229 31.7057 40.475 32.4141C40.1479 33.0786 39.8792 33.7349 39.6375 34.387C39.2375 35.4641 38.4667 36.2495 37.4146 36.6516C36.7688 36.8974 36.125 37.1724 35.4688 37.5078C35.1208 37.687 34.9021 38.0453 34.9021 38.4349C34.9021 38.8245 35.1208 39.1828 35.4688 39.362C36.1229 39.6953 36.7667 39.9703 37.4125 40.2161C38.4688 40.6203 39.2375 41.4057 39.6375 42.4828C39.8792 43.1349 40.1479 43.7891 40.475 44.4536C40.65 44.8099 41.0125 45.0349 41.4083 45.0349C41.8042 45.0349 42.1667 44.8099 42.3417 44.4536C42.6708 43.787 42.9417 43.1328 43.1792 42.4849C43.5813 41.4036 44.35 40.6203 45.4042 40.2161C46.05 39.9703 46.6938 39.6953 47.35 39.362C47.6979 39.1828 47.9167 38.8245 47.9167 38.4349C47.9167 38.0453 47.6979 37.687 47.35 37.5078ZM41.4063 41.3245C40.8146 40.0349 39.8146 39.0286 38.5375 38.4349C39.8146 37.8432 40.8146 36.8349 41.4063 35.5474C42 36.8349 42.9979 37.8411 44.275 38.4349C43 39.0266 42.0021 40.0328 41.4063 41.3245Z" fill="white"/>
</svg>
