<svg width="50" height="51" viewBox="0 0 50 51" fill="none" xmlns="http://www.w3.org/2000/svg">
<g clip-path="url(#clip0_0_192)">
<path d="M33.1333 33.7432C33.5437 34.1453 33.552 34.8057 33.15 35.2161L27.9104 40.5703C27.1166 41.364 26.077 41.7661 25.0395 41.7765C24 41.7682 22.8854 41.3682 22.0958 40.5786L16.8479 35.2161C16.4458 34.8057 16.4541 34.1453 16.8645 33.7432C17.2791 33.3411 17.9395 33.3515 18.3375 33.7599L23.577 39.114C23.6937 39.2307 23.8208 39.3286 23.9583 39.4119V24.0724C23.9583 23.4974 24.425 23.0307 25 23.0307C25.575 23.0307 26.0416 23.4974 26.0416 24.0724V39.4119C26.1791 39.3286 26.3104 39.2286 26.4312 39.1078L31.6625 33.7619C32.0645 33.3536 32.725 33.3432 33.1354 33.7453L33.1333 33.7432ZM45.8333 20.9161V40.739C45.8333 45.9078 41.627 50.114 36.4583 50.114H13.5416C8.37288 50.114 4.16663 45.9078 4.16663 40.739V9.48694C4.16663 4.31819 8.37288 0.111938 13.5416 0.111938H25.0312C28.6458 0.111938 32.0479 1.52027 34.6083 4.07861L41.8666 11.339C44.425 13.8953 45.8333 17.2953 45.8333 20.914V20.9161ZM29.1666 13.6557C29.1666 15.3786 30.5687 16.7807 32.2916 16.7807H42.9833C42.4145 15.3099 41.5395 13.9619 40.3916 12.814L33.1333 5.55361C31.9833 4.40569 30.6354 3.53277 29.1666 2.96402V13.6557ZM43.75 20.9161C43.75 20.2203 43.6875 19.5349 43.5666 18.864H32.2916C29.4187 18.864 27.0833 16.5265 27.0833 13.6557V2.37861C26.4125 2.25777 25.727 2.19527 25.0312 2.19527H13.5416C9.52079 2.19527 6.24996 5.46611 6.24996 9.48694V40.7369C6.24996 44.7578 9.52079 48.0286 13.5416 48.0286H36.4583C40.4791 48.0286 43.75 44.7578 43.75 40.7369V20.914V20.9161ZM25.0395 41.7765C25.025 41.7765 25.052 41.7765 25.0395 41.7765V41.7765Z" fill="white"/>
</g>
<defs>
<clipPath id="clip0_0_192">
<rect width="50" height="50" fill="white" transform="translate(0 0.111938)"/>
</clipPath>
</defs>
</svg>
