<svg width="50" height="51" viewBox="0 0 50 51" fill="none" xmlns="http://www.w3.org/2000/svg">
<g clip-path="url(#clip0_0_198)">
<path d="M37.4562 48.7724C37.6187 49.3245 37.3042 49.9015 36.75 50.064C36.6521 50.0932 36.5542 50.1078 36.4562 50.1078C36.0042 50.1078 35.5896 49.814 35.4583 49.3599C34.1437 44.8932 29.8437 41.7745 24.9979 41.7745C20.1521 41.7745 15.8521 44.8932 14.5375 49.3599C14.3771 49.914 13.7937 50.2265 13.2458 50.0661C12.6917 49.9036 12.3771 49.3265 12.5396 48.7745C14.1104 43.4265 19.2333 39.6932 24.9958 39.6932C30.7583 39.6932 35.8833 43.4265 37.4521 48.7745L37.4562 48.7724ZM49.9562 30.0224C48.3854 24.6745 43.2625 20.9411 37.5 20.9411C36.925 20.9411 36.4583 21.4078 36.4583 21.9828C36.4583 22.5578 36.925 23.0245 37.5 23.0245C42.3437 23.0245 46.6458 26.1432 47.9604 30.6099C48.0917 31.0661 48.5083 31.3578 48.9583 31.3578C49.0562 31.3578 49.1542 31.3432 49.2521 31.314C49.8062 31.1515 50.1187 30.5745 49.9562 30.0224ZM13.5417 21.9828C13.5417 21.4078 13.075 20.9411 12.5 20.9411C6.73541 20.9411 1.61249 24.6745 0.0437433 30.0224C-0.118757 30.5745 0.195827 31.1515 0.749993 31.314C0.84791 31.3432 0.945827 31.3578 1.04374 31.3578C1.49583 31.3578 1.91041 31.064 2.04166 30.6099C3.35624 26.1432 7.65624 23.0245 12.5021 23.0245C13.0771 23.0245 13.5417 22.5578 13.5417 21.9828ZM25 18.8578C29.5958 18.8578 33.3333 22.5953 33.3333 27.1911C33.3333 31.787 29.5958 35.5245 25 35.5245C20.4042 35.5245 16.6667 31.787 16.6667 27.1911C16.6667 22.5953 20.4042 18.8578 25 18.8578ZM18.75 27.1911C18.75 30.637 21.5542 33.4411 25 33.4411C28.4458 33.4411 31.25 30.637 31.25 27.1911C31.25 23.7453 28.4458 20.9411 25 20.9411C21.5542 20.9411 18.75 23.7453 18.75 27.1911ZM29.1667 8.44112C29.1667 3.84529 32.9042 0.107788 37.5 0.107788C42.0958 0.107788 45.8333 3.84529 45.8333 8.44112C45.8333 13.037 42.0958 16.7745 37.5 16.7745C32.9042 16.7745 29.1667 13.037 29.1667 8.44112ZM31.25 8.44112C31.25 11.887 34.0542 14.6911 37.5 14.6911C40.9458 14.6911 43.75 11.887 43.75 8.44112C43.75 4.99529 40.9458 2.19112 37.5 2.19112C34.0542 2.19112 31.25 4.99529 31.25 8.44112ZM4.16666 8.44112C4.16666 3.84529 7.90416 0.107788 12.5 0.107788C17.0958 0.107788 20.8333 3.84529 20.8333 8.44112C20.8333 13.037 17.0958 16.7745 12.5 16.7745C7.90416 16.7745 4.16666 13.037 4.16666 8.44112ZM6.24999 8.44112C6.24999 11.887 9.05416 14.6911 12.5 14.6911C15.9458 14.6911 18.75 11.887 18.75 8.44112C18.75 4.99529 15.9458 2.19112 12.5 2.19112C9.05416 2.19112 6.24999 4.99529 6.24999 8.44112Z" fill="white"/>
</g>
<defs>
<clipPath id="clip0_0_198">
<rect width="50" height="50" fill="white" transform="translate(0 0.107788)"/>
</clipPath>
</defs>
</svg>
