<svg width="16" height="16" viewBox="0 0 16 16" fill="none" xmlns="http://www.w3.org/2000/svg">
<g clip-path="url(#clip0_76_562)">
<path d="M7.04393 8.06561L1.93489 5.28902C1.70763 5.16558 1.43927 5.17068 1.21689 5.30287C0.994512 5.43504 0.861816 5.66839 0.861816 5.92709V12.3682C0.861816 12.6288 1.00255 12.8707 1.22911 12.9995L6.33824 15.904C6.45087 15.968 6.57403 16 6.69723 16C6.82277 16 6.94827 15.9668 7.0624 15.9004C7.28844 15.7689 7.42338 15.5342 7.42338 15.2727V8.70371C7.42338 8.43735 7.27803 8.19283 7.04393 8.06561Z" fill="white"/>
<path d="M14.2113 3.61359C14.211 3.34164 14.0607 3.09497 13.8193 2.96984L8.24809 0.0815006C8.03715 -0.0279073 7.78573 -0.0270946 7.57557 0.0835325L2.08627 2.97187C1.84726 3.09769 1.69859 3.34361 1.69824 3.61372C1.69793 3.88377 1.84601 4.13003 2.08467 4.25638L7.57401 7.16276C7.68029 7.21899 7.79698 7.24713 7.91374 7.24713C8.02905 7.24713 8.1444 7.21968 8.24962 7.16476L13.821 4.25844C14.0621 4.13266 14.2117 3.88555 14.2113 3.61359Z" fill="white"/>
<path d="M14.7832 5.30286C14.5609 5.17067 14.2924 5.16545 14.0652 5.28898L8.95606 8.0656C8.72202 8.19283 8.57666 8.43731 8.57666 8.70367V15.2726C8.57666 15.5342 8.71161 15.7688 8.93764 15.9003C9.05177 15.9668 9.17725 16 9.30282 16C9.42598 16 9.5492 15.968 9.6618 15.904L14.771 12.9995C14.9975 12.8706 15.1382 12.6287 15.1382 12.3681V5.92708C15.1382 5.66838 15.0055 5.43503 14.7832 5.30286Z" fill="white"/>
</g>
<defs>
<clipPath id="clip0_76_562">
<rect width="16" height="16" fill="white"/>
</clipPath>
</defs>
</svg>
