<svg width="16" height="16" viewBox="0 0 16 16" fill="none" xmlns="http://www.w3.org/2000/svg">
<g clip-path="url(#clip0_15_271)">
<path d="M7.04393 8.06558L1.93489 5.289C1.70763 5.16555 1.43927 5.17065 1.21689 5.30284C0.994512 5.43501 0.861816 5.66836 0.861816 5.92706V12.3681C0.861816 12.6287 1.00255 12.8707 1.22911 12.9995L6.33824 15.904C6.45087 15.968 6.57403 16 6.69723 16C6.82277 16 6.94827 15.9668 7.0624 15.9003C7.28844 15.7688 7.42338 15.5342 7.42338 15.2726V8.70368C7.42338 8.43732 7.27803 8.19281 7.04393 8.06558Z" fill="#131314"/>
<path d="M14.2112 3.61359C14.2109 3.34163 14.0606 3.09496 13.8192 2.96983L8.24797 0.081493C8.03703 -0.0279149 7.78561 -0.0271022 7.57545 0.0835249L2.08614 2.97186C1.84713 3.09768 1.69846 3.3436 1.69812 3.61371C1.69781 3.88376 1.84588 4.13002 2.08455 4.25637L7.57389 7.16275C7.68017 7.21898 7.79686 7.24712 7.91362 7.24712C8.02893 7.24712 8.14428 7.21967 8.2495 7.16475L13.8209 4.25844C14.062 4.13265 14.2116 3.88554 14.2112 3.61359Z" fill="#131314"/>
<path d="M14.7833 5.30284C14.561 5.17065 14.2925 5.16543 14.0654 5.28897L8.95618 8.06558C8.72214 8.19281 8.57678 8.43729 8.57678 8.70365V15.2726C8.57678 15.5341 8.71173 15.7688 8.93777 15.9003C9.05189 15.9667 9.17737 15.9999 9.30294 15.9999C9.4261 15.9999 9.54932 15.968 9.66192 15.904L14.7711 12.9994C14.9977 12.8706 15.1384 12.6287 15.1384 12.3681V5.92706C15.1384 5.66836 15.0057 5.43501 14.7833 5.30284Z" fill="#131314"/>
</g>
<defs>
<clipPath id="clip0_15_271">
<rect width="16" height="16" fill="white"/>
</clipPath>
</defs>
</svg>
