<svg width="24" height="24" viewBox="0 0 24 24" fill="none" xmlns="http://www.w3.org/2000/svg">
<path d="M10.2 24.0001H11.8C15.5538 23.9959 18.5958 20.9539 18.6 17.2001V8.40011C18.5959 4.64632 15.5538 1.60432 11.8 1.6001H10.2C6.44624 1.60432 3.40424 4.64632 3.40002 8.40011V17.2001C3.40424 20.9539 6.44624 23.9959 10.2 24.0001ZM11.5352 6.09893C11.4908 6.08332 11.446 6.06893 11.4 6.05693V4.56569L13.354 2.61171C13.7709 2.72271 14.1745 2.87871 14.5576 3.07689L11.5352 6.09893ZM11.0001 6.80013C11.4419 6.80013 11.8001 7.1583 11.8001 7.60015V10.8001C11.8001 11.242 11.4419 11.6001 11.0001 11.6001C10.5582 11.6001 10.2 11.242 10.2 10.8001V7.6001C10.2 7.1583 10.5582 6.80013 11.0001 6.80013ZM12.6 8.96571L16.6644 4.90132C16.9037 5.23249 17.1085 5.58729 17.2756 5.96013L12.8344 10.4001H12.6V8.96571ZM17.5745 6.79132C17.7064 7.26424 17.7795 7.75169 17.7921 8.24252L15.6344 10.4001H13.9657L17.5745 6.79132ZM17.8 9.36569V10.4001H16.7656L17.8 9.36569ZM16.152 4.2821L12.6 7.83452V7.6001C12.5984 7.21722 12.4583 6.84785 12.2056 6.56008L15.2596 3.5065C15.5818 3.73525 15.8806 3.99504 16.152 4.2821ZM12.4036 2.43054L11.4 3.4345V2.40011H11.8C12.004 2.40011 12.2053 2.41089 12.4036 2.43054ZM10.2 2.40011H10.6V6.05693C9.89573 6.23875 9.40274 6.87274 9.40002 7.60015V10.4001H4.20004V8.40011C4.20379 5.08797 6.8879 2.40386 10.2 2.40011ZM4.20004 11.2001H9.45684C9.63646 11.9058 10.2719 12.3997 11.0001 12.3997C11.7283 12.3997 12.3636 11.9058 12.5433 11.2001H17.8001V17.2001C17.7963 20.5122 15.1122 23.1964 11.8001 23.2001H10.2C6.8879 23.1964 4.20379 20.5122 4.20004 17.2001V11.2001Z" fill="#89888C"/>
<path d="M16.6001 2.4C16.821 2.4 17 2.22089 17 2.00002V0.399984C17 0.179063 16.821 0 16.6001 0C16.3791 0 16.2001 0.179109 16.2001 0.399984V1.99997C16.2001 2.22089 16.3792 2.4 16.6001 2.4Z" fill="#89888C"/>
<path d="M18.2001 2.80004C18.3062 2.80004 18.4079 2.75785 18.4829 2.68285L19.6141 1.55124C19.718 1.45079 19.7598 1.3021 19.7231 1.16223C19.6865 1.02235 19.5773 0.913181 19.4375 0.876571C19.2977 0.839962 19.1489 0.881681 19.0485 0.985649L17.9173 2.11726C17.8029 2.23163 17.7687 2.40367 17.8306 2.5531C17.8925 2.70259 18.0383 2.80004 18.2001 2.80004Z" fill="#89888C"/>
<path d="M18.2001 4.00008C18.2001 4.221 18.3791 4.40007 18.6001 4.40007H20.2C20.421 4.40007 20.6 4.22096 20.6 4.00008C20.6 3.77921 20.421 3.6001 20.2 3.6001H18.6001C18.3791 3.6001 18.2001 3.77921 18.2001 4.00008Z" fill="#89888C"/>
</svg>
