<svg width="19" height="21" viewBox="0 0 19 21" fill="none" xmlns="http://www.w3.org/2000/svg">
<path d="M9.50243 20.3489C14.4761 20.3489 18.508 16.3169 18.508 11.3433C18.508 6.3696 14.4761 2.33765 9.50243 2.33765C4.52877 2.33765 0.496826 6.3696 0.496826 11.3433C0.496826 16.3169 4.52877 20.3489 9.50243 20.3489Z" fill="#1A0B86"/>
<path d="M14.3392 2.9299C14.7469 2.9299 15.1498 2.95086 15.5473 2.98896C13.9477 1.53703 11.8256 0.650879 9.50019 0.650879C4.53447 0.650879 0.494263 4.69077 0.494263 9.65681C0.494263 11.4291 1.01115 13.0823 1.89889 14.4771C2.37578 8.02072 7.76092 2.9299 14.3392 2.9299Z" fill="#8171FF"/>
<path d="M9.49985 18.6625C14.4656 18.6625 18.5058 14.6226 18.5058 9.65659C18.5058 7.01625 17.3634 4.63784 15.5473 2.98874C15.1498 2.95064 14.7469 2.92969 14.3392 2.92969C7.76121 2.92969 2.37575 8.02082 1.89886 14.4769C3.49812 16.9906 6.30674 18.6625 9.49985 18.6625Z" fill="#5C47FF"/>
<path d="M9.50021 16.7796C13.434 16.7796 16.623 13.5906 16.623 9.65676C16.623 5.72293 13.434 2.53394 9.50021 2.53394C5.56638 2.53394 2.37738 5.72293 2.37738 9.65676C2.37738 13.5906 5.56638 16.7796 9.50021 16.7796Z" fill="#1A0B86"/>
<path d="M9.68752 5.78783L10.8172 8.0767C10.8477 8.13829 10.9064 8.18116 10.9747 8.191L13.5004 8.55803C13.6718 8.58311 13.7404 8.79393 13.6163 8.9149L11.7887 10.6964C11.7395 10.7443 11.717 10.8136 11.7287 10.8815L12.1602 13.3971C12.1894 13.5679 12.01 13.6984 11.8567 13.6177L9.59766 12.43C9.5367 12.3979 9.464 12.3979 9.40304 12.43L7.14401 13.6177C6.99066 13.6984 6.81127 13.5682 6.84048 13.3971L7.27197 10.8815C7.28371 10.8136 7.26117 10.7443 7.21196 10.6964L5.38442 8.9149C5.26028 8.79393 5.32886 8.58311 5.50031 8.55803L8.02603 8.191C8.0943 8.18116 8.15303 8.13829 8.18351 8.0767L9.31318 5.78783C9.38938 5.63257 9.611 5.63257 9.68752 5.78783Z" fill="#5C47FF"/>
<path d="M9.50022 5.67114C9.4256 5.67114 9.35099 5.70988 9.31257 5.78767L8.1829 8.07653C8.15242 8.13813 8.09369 8.18099 8.02542 8.19083L5.4997 8.55787C5.32825 8.58295 5.25967 8.79377 5.38381 8.91474L7.21135 10.6962C7.26056 10.7442 7.28311 10.8134 7.27136 10.8813L6.83987 13.3969C6.81066 13.5677 6.99005 13.6982 7.1434 13.6176L9.40243 12.4298C9.43291 12.4139 9.46624 12.4057 9.4999 12.4057V5.67114H9.50022Z" fill="#8171FF"/>
</svg>
