<svg width="24" height="24" viewBox="0 0 24 24" fill="none" xmlns="http://www.w3.org/2000/svg">
<path d="M18.7924 10.4437V6.01854C18.7924 5.67992 18.5518 5.39257 18.2243 5.32854L12.3135 1.916C12.096 1.79037 11.828 1.79037 11.6104 1.916L5.55919 5.40968C5.34164 5.53526 5.20762 5.76739 5.20762 6.01859V10.4438C2.87611 11.1773 0 12.6913 0 15.1343C0 17.2307 2.22244 19.0518 5.96742 20.0448L5.68805 21.3241C5.56823 21.8727 6.11184 22.3367 6.63614 22.1269L10.1518 20.7207C10.6169 20.5347 10.7443 19.9335 10.3922 19.5751L7.76719 16.9032C7.37663 16.5058 6.69788 16.7001 6.57867 17.246L6.26784 18.6693C3.30047 17.8698 1.40625 16.5024 1.40625 15.1343C1.40625 13.9462 2.84466 12.7461 5.20762 11.925V13.006C5.20762 13.2572 5.34164 13.4893 5.55919 13.6149L11.6484 17.1305C11.866 17.2561 12.134 17.2561 12.3516 17.1305L18.4408 13.6149C18.6584 13.4892 18.7924 13.2572 18.7924 13.006V11.925C21.1553 12.7461 22.5938 13.9462 22.5938 15.1343C22.5938 17.738 16.8751 19.0597 14.0667 19.2913C13.6797 19.3233 13.3919 19.663 13.4238 20.05C13.4555 20.4331 13.7911 20.7247 14.1825 20.6929C17.8434 20.3902 24 18.8082 24 15.1343C24 12.6911 21.1231 11.1771 18.7924 10.4437ZM7.67517 18.8162L8.64891 19.8073L7.3448 20.329L7.67517 18.8162ZM11.962 3.33678L16.645 6.04053C16.0732 6.37062 12.3815 8.50203 12 8.72229C11.5837 8.48196 7.94161 6.3792 7.317 6.01854L11.962 3.33678ZM6.61387 7.23645L11.2969 9.94015V15.3037L6.61387 12.6V7.23645ZM17.3861 12.6L12.7031 15.3037V9.94015L17.3861 7.23645V12.6Z" fill="black"/>
</svg>
