<svg width="158" height="26" viewBox="0 0 158 26" fill="none" xmlns="http://www.w3.org/2000/svg">
<path d="M6.93156 20.4837C5.38485 20.4837 4.08638 20.2656 3.03614 19.8294C2.005 19.3932 1.24119 18.8716 0.744714 18.2647C0.248238 17.6577 0 17.1172 0 16.643C0 16.4534 0.0668333 16.3016 0.2005 16.1878C0.353262 16.0551 0.515571 15.9887 0.687428 15.9887H3.95271C4.06728 15.9887 4.17231 16.0361 4.26778 16.1309C4.49692 16.2827 4.66878 16.4059 4.78335 16.5008C5.20345 16.8042 5.56626 17.0318 5.87178 17.1836C6.1964 17.3163 6.58785 17.3827 7.04614 17.3827C7.5999 17.3827 8.04864 17.2784 8.39235 17.0698C8.75516 16.8422 8.93656 16.5292 8.93656 16.1309C8.93656 15.8085 8.84109 15.5525 8.65014 15.3628C8.47828 15.1731 8.13456 14.9929 7.61899 14.8222C7.10342 14.6326 6.32052 14.4334 5.27028 14.2248C3.68538 13.9024 2.46328 13.3808 1.604 12.6601C0.763809 11.9204 0.343714 10.9341 0.343714 9.70132C0.343714 8.9237 0.591952 8.18401 1.08843 7.48225C1.5849 6.78049 2.32007 6.2115 3.29393 5.77527C4.28688 5.33904 5.46123 5.12093 6.81699 5.12093C8.17275 5.12093 9.35666 5.32956 10.3687 5.74682C11.3808 6.16408 12.1446 6.67618 12.6601 7.2831C13.1948 7.87106 13.4621 8.4116 13.4621 8.90473C13.4621 9.07543 13.3953 9.22716 13.2616 9.35992C13.1471 9.49269 13.0038 9.55907 12.832 9.55907H9.85313C9.70037 9.55907 9.55716 9.51165 9.42349 9.41682C9.17525 9.28406 8.95566 9.14181 8.76471 8.99008C8.44009 8.74352 8.13456 8.55385 7.84814 8.42109C7.56171 8.28832 7.20845 8.22194 6.78835 8.22194C6.29188 8.22194 5.89088 8.33574 5.58535 8.56333C5.29892 8.79093 5.15571 9.08491 5.15571 9.44527C5.15571 9.72977 5.23209 9.96685 5.38485 10.1565C5.55671 10.3462 5.90042 10.5358 6.41599 10.7255C6.95066 10.8962 7.73356 11.0764 8.76471 11.266C10.6169 11.5885 11.9632 12.1575 12.8033 12.973C13.6626 13.7886 14.0923 14.7464 14.0923 15.8464C14.0923 17.2499 13.4621 18.3785 12.2018 19.2319C10.9416 20.0665 9.1848 20.4837 6.93156 20.4837Z" fill="white"/>
<path d="M23.4795 20.4837C21.3218 20.4837 19.5745 19.9147 18.2379 18.7767C16.9012 17.6198 16.1851 16.0171 16.0897 13.9688L16.061 12.8308L16.0897 11.6643C16.166 9.61597 16.8726 8.01331 18.2092 6.85636C19.565 5.69941 21.3218 5.12093 23.4795 5.12093C25.1026 5.12093 26.4679 5.41491 27.5754 6.00287C28.7021 6.57186 29.5327 7.26413 30.0674 8.07969C30.6211 8.87628 30.9171 9.60649 30.9553 10.2703C30.9744 10.46 30.9076 10.6307 30.7548 10.7824C30.6211 10.9152 30.4493 10.9816 30.2392 10.9816H26.6016C26.3915 10.9816 26.2292 10.9341 26.1147 10.8393C26.0001 10.7445 25.8951 10.6022 25.7996 10.4126C25.5704 9.8246 25.2745 9.40734 24.9117 9.16078C24.5679 8.91421 24.1192 8.79093 23.5654 8.79093C21.9996 8.79093 21.1881 9.79615 21.1308 11.8066L21.1022 12.8877L21.1308 13.8265C21.169 14.8507 21.3886 15.6094 21.7896 16.1025C22.2097 16.5766 22.8016 16.8137 23.5654 16.8137C24.1574 16.8137 24.6252 16.6904 24.9689 16.4439C25.3127 16.1973 25.5895 15.7801 25.7996 15.1921C25.8951 15.0024 26.0001 14.8602 26.1147 14.7654C26.2292 14.6705 26.3915 14.6231 26.6016 14.6231H30.2392C30.4302 14.6231 30.5925 14.6895 30.7261 14.8222C30.8789 14.936 30.9553 15.0878 30.9553 15.2774C30.9553 15.8844 30.688 16.5956 30.1533 17.4112C29.6377 18.2267 28.8166 18.9474 27.69 19.5733C26.5634 20.1803 25.1599 20.4837 23.4795 20.4837Z" fill="white"/>
<path d="M38.9995 20.4837C37.3191 20.4837 35.9633 19.9242 34.9322 18.8052C33.901 17.6672 33.3855 16.0835 33.3855 14.0541V6.11667C33.3855 5.90804 33.4523 5.73734 33.586 5.60457C33.7196 5.47181 33.8915 5.40543 34.1015 5.40543H37.6819C37.8919 5.40543 38.0638 5.47181 38.1974 5.60457C38.3502 5.73734 38.4266 5.90804 38.4266 6.11667V13.8834C38.4266 15.7421 39.2572 16.6715 40.9185 16.6715C41.7205 16.6715 42.3507 16.4249 42.8089 15.9318C43.2672 15.4387 43.4964 14.7559 43.4964 13.8834V6.11667C43.4964 5.90804 43.5632 5.73734 43.6969 5.60457C43.8496 5.47181 44.0215 5.40543 44.2124 5.40543H47.7928C48.0028 5.40543 48.1747 5.47181 48.3084 5.60457C48.442 5.73734 48.5089 5.90804 48.5089 6.11667V19.488C48.5089 19.6777 48.442 19.8483 48.3084 20.0001C48.1747 20.1328 48.0028 20.1992 47.7928 20.1992H44.4702C44.2793 20.1992 44.1074 20.1328 43.9547 20.0001C43.821 19.8483 43.7542 19.6777 43.7542 19.488V18.4069C42.7612 19.7914 41.1763 20.4837 38.9995 20.4837Z" fill="white"/>
<path d="M52.5941 20.1992C52.4031 20.1992 52.2312 20.1328 52.0785 20.0001C51.9448 19.8483 51.878 19.6777 51.878 19.488V0.71124C51.878 0.50261 51.9448 0.331912 52.0785 0.199148C52.2312 0.0663827 52.4031 0 52.5941 0H55.9739C56.184 0 56.3558 0.0663827 56.4895 0.199148C56.6231 0.331912 56.69 0.50261 56.69 0.71124V19.488C56.69 19.6966 56.6231 19.8673 56.4895 20.0001C56.3558 20.1328 56.184 20.1992 55.9739 20.1992H52.5941Z" fill="white"/>
<path d="M60.7897 25.6047C60.5988 25.6047 60.4269 25.5383 60.2741 25.4055C60.1405 25.2727 60.0736 25.102 60.0736 24.8934V6.11667C60.0736 5.90804 60.1405 5.73734 60.2741 5.60457C60.4269 5.47181 60.5988 5.40543 60.7897 5.40543H64.0264C64.2364 5.40543 64.4082 5.47181 64.5419 5.60457C64.6756 5.73734 64.7424 5.90804 64.7424 6.11667V7.14085C65.7736 5.79424 67.2534 5.12093 69.1821 5.12093C71.0534 5.12093 72.5142 5.69941 73.5644 6.85636C74.6146 8.01331 75.1875 9.64442 75.283 11.7497C75.3021 11.9963 75.3116 12.3471 75.3116 12.8023C75.3116 13.2575 75.3021 13.6084 75.283 13.855C75.2066 15.9033 74.6337 17.525 73.5644 18.7198C72.4951 19.8958 71.0343 20.4837 69.1821 20.4837C67.3107 20.4837 65.9168 19.8483 65.0002 18.5776V24.8934C65.0002 25.102 64.9334 25.2727 64.7997 25.4055C64.666 25.5383 64.4942 25.6047 64.2841 25.6047H60.7897ZM67.6353 16.6715C68.5328 16.6715 69.1725 16.4059 69.5544 15.8749C69.9554 15.3438 70.1846 14.6136 70.2418 13.6843C70.28 13.3049 70.2991 13.011 70.2991 12.8023C70.2991 12.5937 70.28 12.2997 70.2418 11.9204C70.1846 10.991 69.9554 10.2608 69.5544 9.72977C69.1725 9.19871 68.5328 8.93318 67.6353 8.93318C66.757 8.93318 66.1077 9.20819 65.6876 9.75822C65.2866 10.2893 65.0575 10.9816 65.0002 11.835L64.9716 12.8877L65.0002 13.9688C65.0384 14.7464 65.2771 15.3912 65.7163 15.9033C66.1555 16.4154 66.7952 16.6715 67.6353 16.6715Z" fill="white"/>
<path d="M85.6783 20.1992C81.7256 20.1992 79.7492 18.331 79.7492 14.5947V9.13233H77.5151C77.3051 9.13233 77.1237 9.06594 76.9709 8.93318C76.8372 8.80041 76.7704 8.62972 76.7704 8.42109V6.11667C76.7704 5.90804 76.8372 5.73734 76.9709 5.60457C77.1237 5.47181 77.3051 5.40543 77.5151 5.40543H79.7492V0.71124C79.7492 0.50261 79.8161 0.331912 79.9498 0.199148C80.1025 0.0663827 80.2744 0 80.4653 0H83.7879C83.9979 0 84.1698 0.0663827 84.3035 0.199148C84.4371 0.331912 84.504 0.50261 84.504 0.71124V5.40543H88.0843C88.2944 5.40543 88.4662 5.47181 88.5999 5.60457C88.7526 5.73734 88.829 5.90804 88.829 6.11667V8.42109C88.829 8.62972 88.7526 8.80041 88.5999 8.93318C88.4662 9.06594 88.2944 9.13233 88.0843 9.13233H84.504V14.1964C84.504 15.5999 85.0482 16.3016 86.1366 16.3016H88.3421C88.5521 16.3016 88.724 16.368 88.8577 16.5008C88.9913 16.6335 89.0582 16.8042 89.0582 17.0129V19.488C89.0582 19.6777 88.9913 19.8483 88.8577 20.0001C88.724 20.1328 88.5521 20.1992 88.3421 20.1992H85.6783Z" fill="white"/>
<path d="M95.898 20.4837C94.8859 20.4837 93.9598 20.2941 93.1196 19.9147C92.2985 19.5164 91.6493 18.9854 91.1719 18.3216C90.7136 17.6388 90.4845 16.8896 90.4845 16.074C90.4845 14.7654 91.0192 13.7127 92.0885 12.9161C93.1769 12.1195 94.6663 11.5695 96.5568 11.266L100.137 10.7255V10.3272C100.137 9.60649 99.9844 9.07543 99.6788 8.73403C99.3733 8.39264 98.8577 8.22194 98.1321 8.22194C97.6929 8.22194 97.3301 8.2978 97.0437 8.44954C96.7573 8.60127 96.4613 8.8099 96.1558 9.07543C95.8884 9.30302 95.6879 9.45475 95.5543 9.53062C95.497 9.68235 95.392 9.75822 95.2392 9.75822H92.1171C91.9262 9.75822 91.7639 9.70132 91.6302 9.58752C91.5156 9.45475 91.4679 9.30302 91.487 9.13233C91.5061 8.62023 91.7543 8.05124 92.2317 7.42535C92.7282 6.79946 93.4729 6.25891 94.4658 5.80372C95.4779 5.34853 96.7191 5.12093 98.1894 5.12093C100.538 5.12093 102.276 5.64251 103.402 6.68566C104.529 7.70985 105.092 9.09439 105.092 10.8393V19.488C105.092 19.6777 105.025 19.8483 104.892 20.0001C104.758 20.1328 104.586 20.1992 104.376 20.1992H101.054C100.863 20.1992 100.691 20.1328 100.538 20.0001C100.404 19.8483 100.338 19.6777 100.338 19.488V18.4922C99.9175 19.0802 99.3256 19.5639 98.5618 19.9432C97.817 20.3035 96.9291 20.4837 95.898 20.4837ZM97.2442 17.2405C98.1226 17.2405 98.8291 16.956 99.3638 16.387C99.9175 15.818 100.194 14.9835 100.194 13.8834V13.4851L97.7598 13.9119C96.0412 14.2153 95.1819 14.8128 95.1819 15.7042C95.1819 16.1783 95.3824 16.5577 95.7834 16.8422C96.1844 17.1077 96.6713 17.2405 97.2442 17.2405Z" fill="white"/>
<path d="M113.881 20.4837C112.01 20.4837 110.549 19.9052 109.499 18.7483C108.468 17.5724 107.904 15.9223 107.809 13.7981L107.78 12.8023L107.809 11.7781C107.885 9.72977 108.449 8.10814 109.499 6.91326C110.568 5.71837 112.029 5.12093 113.881 5.12093C115.619 5.12093 117.022 5.68044 118.092 6.79946V0.71124C118.092 0.50261 118.159 0.331912 118.292 0.199148C118.426 0.0663827 118.598 0 118.808 0H122.302C122.512 0 122.684 0.0663827 122.818 0.199148C122.951 0.331912 123.018 0.50261 123.018 0.71124V19.488C123.018 19.6777 122.951 19.8483 122.818 20.0001C122.684 20.1328 122.512 20.1992 122.302 20.1992H119.066C118.875 20.1992 118.703 20.1328 118.55 20.0001C118.416 19.8483 118.349 19.6777 118.349 19.488V18.5776C117.299 19.8483 115.81 20.4837 113.881 20.4837ZM115.457 16.6715C116.316 16.6715 116.956 16.4059 117.376 15.8749C117.796 15.3249 118.034 14.6231 118.092 13.7696C118.111 13.523 118.12 13.1627 118.12 12.6885C118.12 12.2333 118.111 11.8825 118.092 11.6359C118.054 10.8583 117.815 10.2134 117.376 9.70132C116.936 9.18923 116.297 8.93318 115.457 8.93318C114.559 8.93318 113.91 9.19871 113.509 9.72977C113.127 10.2608 112.907 10.991 112.85 11.9204C112.831 12.1101 112.821 12.404 112.821 12.8023C112.821 13.2006 112.831 13.4946 112.85 13.6843C112.907 14.6136 113.127 15.3438 113.509 15.8749C113.91 16.4059 114.559 16.6715 115.457 16.6715Z" fill="white"/>
<path d="M153.906 20.1992C149.953 20.1992 147.977 18.331 147.977 14.5947V9.13233H145.743C145.533 9.13233 145.351 9.06594 145.198 8.93318C145.065 8.80041 144.998 8.62972 144.998 8.42109V6.11667C144.998 5.90804 145.065 5.73734 145.198 5.60457C145.351 5.47181 145.533 5.40543 145.743 5.40543H147.977V0.71124C147.977 0.50261 148.044 0.331912 148.177 0.199148C148.33 0.0663827 148.502 0 148.693 0H152.015C152.225 0 152.397 0.0663827 152.531 0.199148C152.665 0.331912 152.731 0.50261 152.731 0.71124V5.40543H156.312C156.522 5.40543 156.694 5.47181 156.827 5.60457C156.98 5.73734 157.057 5.90804 157.057 6.11667V8.42109C157.057 8.62972 156.98 8.80041 156.827 8.93318C156.694 9.06594 156.522 9.13233 156.312 9.13233H152.731V14.1964C152.731 15.5999 153.276 16.3016 154.364 16.3016H156.57C156.78 16.3016 156.952 16.368 157.085 16.5008C157.219 16.6335 157.286 16.8042 157.286 17.0129V19.488C157.286 19.6777 157.219 19.8483 157.085 20.0001C156.952 20.1328 156.78 20.1992 156.57 20.1992H153.906Z" fill="white"/>
<path d="M142.654 12.8023C142.654 17.1793 139.106 20.7276 134.729 20.7276C130.352 20.7276 126.804 17.1793 126.804 12.8023C126.804 8.42533 130.352 4.87708 134.729 4.87708C139.106 4.87708 142.654 8.42533 142.654 12.8023Z" fill="#5C47FF"/>
<path d="M140.216 8.53489C140.216 9.88165 139.124 10.9734 137.777 10.9734C136.431 10.9734 135.339 9.88165 135.339 8.53489C135.339 7.18812 136.431 6.09635 137.777 6.09635C139.124 6.09635 140.216 7.18812 140.216 8.53489Z" fill="#CDC7FE"/>
</svg>
