<svg width="16" height="16" viewBox="0 0 16 16" fill="none" xmlns="http://www.w3.org/2000/svg">
<path d="M8.0008 7.86385C9.8134 7.86385 11.2829 6.40194 11.2829 4.59856C11.2829 2.79518 9.8134 1.33325 8.0008 1.33325C6.18818 1.33325 4.71875 2.79518 4.71875 4.59856C4.71875 6.40194 6.18818 7.86385 8.0008 7.86385Z" fill="white"/>
<path d="M9.70973 9.22437H6.29093C4.30802 9.22437 2.66699 10.8571 2.66699 12.8298C2.66699 13.306 2.87212 13.7142 3.28238 13.9183C3.89776 14.2584 5.26529 14.6665 8.00033 14.6665C10.7354 14.6665 12.1029 14.2584 12.7183 13.9183C13.0601 13.7142 13.3337 13.306 13.3337 12.8298C13.3337 10.789 11.6927 9.22437 9.70973 9.22437Z" fill="white"/>
</svg>
