<svg width="24" height="24" viewBox="0 0 24 24" fill="none" xmlns="http://www.w3.org/2000/svg">
<path d="M5.40002 8.40011V17.2001C5.4042 20.9539 8.44624 23.9959 12.2 24.0001H13.8C17.5538 23.9959 20.5958 20.9539 20.6 17.2001V8.40011C20.5958 4.64632 17.5538 1.60432 13.8 1.6001H12.2C8.44624 1.60432 5.4042 4.64632 5.40002 8.40011ZM12.3656 2.40011H12.6V3.83454L6.20004 10.2345V8.56572L12.3656 2.40011ZM11.4 10.4001H9.9656L11.4 8.96571V10.4001ZM11.4 7.6001V7.83452L8.83441 10.4001H7.16562L12.6 4.96572V6.05693C11.8957 6.23875 11.4027 6.87274 11.4 7.6001ZM12.2 7.6001C12.2 7.15825 12.5582 6.80008 13.0001 6.80008C13.4419 6.80008 13.8001 7.15825 13.8001 7.6001V10.8001C13.8001 11.242 13.4419 11.6001 13.0001 11.6001C12.5582 11.6001 12.2 11.242 12.2 10.8001V7.6001ZM13.8 23.2001H12.2C8.8879 23.1964 6.20379 20.5122 6.20004 17.2001V11.2001H11.4568C11.6365 11.9058 12.2719 12.3997 13.0001 12.3997C13.7283 12.3997 14.3637 11.9058 14.5433 11.2001H19.8V17.2001C19.7963 20.5123 17.1122 23.1964 13.8 23.2001ZM19.8 8.40011V10.4001H14.6V7.60015C14.5973 6.87279 14.1043 6.2388 13.4 6.05693V2.40011H13.8C17.1122 2.40386 19.7963 5.08797 19.8 8.40011ZM11.134 2.50052L6.30045 7.33413C6.74881 4.87408 8.67396 2.94893 11.134 2.50052Z" fill="#89888C"/>
<path d="M7.39998 2.4C7.62091 2.4 7.79997 2.22089 7.79997 2.00002V0.399984C7.79997 0.179063 7.62086 0 7.39998 0C7.17911 0 7 0.179109 7 0.399984V1.99997C6.99995 2.22089 7.17906 2.4 7.39998 2.4Z" fill="#89888C"/>
<path d="M5.51716 2.68285C5.6741 2.83445 5.92361 2.83229 6.07788 2.67798C6.23219 2.52367 6.23435 2.2742 6.08276 2.11726L4.95115 0.985649C4.85069 0.881681 4.702 0.839962 4.56213 0.876571C4.42225 0.913181 4.31308 1.0224 4.27647 1.16223C4.23986 1.3021 4.28158 1.45079 4.38555 1.55124L5.51716 2.68285Z" fill="#89888C"/>
<path d="M3.80001 4.40011H5.39999C5.62091 4.40011 5.79998 4.221 5.79998 4.00013C5.79998 3.77925 5.62091 3.6001 5.39999 3.6001H3.80001C3.57909 3.6001 3.40002 3.77921 3.40002 4.00008C3.40002 4.22096 3.57909 4.40011 3.80001 4.40011Z" fill="#89888C"/>
</svg>
