<svg width="24" height="24" viewBox="0 0 24 24" fill="none" xmlns="http://www.w3.org/2000/svg">
<path d="M11.1999 24H12.8C16.554 23.9958 19.5961 20.9536 19.6003 17.1997V8.39927C19.5944 5.05678 17.1636 2.2127 13.8629 1.68617L13.0893 0.571339C12.8421 0.213573 12.435 0 12.0002 0C11.5654 0 11.1583 0.213573 10.9111 0.571292L10.1371 1.68617C6.83638 2.2127 4.40561 5.05678 4.39966 8.39927V17.1997C4.40383 20.9536 7.44597 23.9958 11.1999 24ZM18.8003 8.39927V10.3994H13.6001V8.39927C13.5973 7.67188 13.1043 7.03786 12.4 6.85598V5.99916C12.8419 5.99916 13.2001 5.64097 13.2001 5.1991V4.7991H13.4681C13.9616 4.79887 14.4141 4.52449 14.6425 4.08708C14.8779 3.64297 14.847 3.10491 14.5625 2.69061L14.5393 2.65742C17.0667 3.42761 18.7954 5.75713 18.8003 8.39927ZM12 7.59922C12.4419 7.59922 12.8001 7.9574 12.8001 8.39927V10.7994C12.8001 11.2412 12.4419 11.5994 12 11.5994C11.5581 11.5994 11.1999 11.2412 11.1999 10.7994V8.39927C11.1999 7.9574 11.5581 7.59922 12 7.59922ZM11.5688 1.02652C11.6665 0.884479 11.8278 0.799631 12.0002 0.799631C12.1726 0.799631 12.3339 0.884479 12.4316 1.02652L13.9025 3.14663C14.0198 3.31492 14.0324 3.53496 13.9349 3.71544C13.8454 3.89067 13.6647 4.00041 13.4681 3.99905H12.8C12.5791 3.99905 12.4 4.17816 12.4 4.39905V5.1991H11.5999V4.3991C11.5999 4.17816 11.4209 3.99909 11.1999 3.99909H10.5319C10.3349 4.00022 10.1542 3.88996 10.0651 3.71427C9.96773 3.53445 9.97978 3.31511 10.0963 3.14705L11.5688 1.02652ZM9.46268 2.65737L9.43825 2.69258C9.15427 3.10632 9.12343 3.64353 9.35823 4.08704C9.58653 4.52421 10.0387 4.79854 10.5319 4.79905H10.7999V5.19906C10.7999 5.64092 11.1581 5.99911 11.5999 5.99911V6.85593C10.8956 7.03777 10.4026 7.67178 10.3999 8.39922V10.3993H5.19966V8.39922C5.20501 5.75661 6.93459 3.427 9.46268 2.65737ZM5.19966 11.1994H10.4567C10.6363 11.9051 11.2718 12.3991 12 12.3991C12.7282 12.3991 13.3637 11.9051 13.5433 11.1994H18.8003V17.1997C18.7966 20.512 16.1123 23.1962 12.8001 23.1999H11.2C7.8877 23.1962 5.20346 20.512 5.19971 17.1997L5.19966 11.1994Z" fill="#89888C"/>
<path d="M10.9107 18.6273C11.1579 18.9851 11.565 19.1986 11.9998 19.1986C12.4346 19.1986 12.8417 18.985 13.0888 18.6273L14.5617 16.5072C14.8457 16.0935 14.8766 15.5563 14.6417 15.1128C14.4138 14.6751 13.9616 14.4003 13.4681 14.3995H13.2001V13.9995C13.2001 13.5577 12.8419 13.1995 12.4 13.1995H11.6C11.1581 13.1995 10.7999 13.5577 10.7999 13.9995V14.3995H10.5319C10.0384 14.3998 9.5859 14.6741 9.35747 15.1115C9.12271 15.556 9.1543 16.0941 9.43946 16.508L10.9107 18.6273ZM10.0651 15.4844C10.1542 15.3087 10.3349 15.1984 10.5319 15.1995H11.1999C11.4209 15.1995 11.5999 15.0204 11.5999 14.7995V13.9995H12.4V14.7995C12.4 15.0205 12.5791 15.1995 12.8 15.1995H13.468C13.665 15.1984 13.8458 15.3087 13.9348 15.4844C14.0322 15.6642 14.0202 15.8835 13.9036 16.0516L12.4312 18.1717C12.3295 18.3078 12.1696 18.388 11.9998 18.388C11.8299 18.388 11.67 18.3078 11.5683 18.1717L10.0975 16.0516C9.9808 15.8837 9.96828 15.6645 10.0651 15.4844Z" fill="#89888C"/>
</svg>
