<svg width="20" height="20" viewBox="0 0 20 20" xmlns="http://www.w3.org/2000/svg">
<path d="M15.7924 18.4281L16.3502 17.0219C16.4493 16.7713 16.5987 16.5437 16.7893 16.3531C16.9798 16.1626 17.2074 16.0131 17.458 15.9141L18.8736 15.3562C18.9028 15.3447 18.9278 15.3247 18.9454 15.2988C18.963 15.2729 18.9724 15.2423 18.9724 15.2109C18.9724 15.1796 18.963 15.149 18.9454 15.1231C18.9278 15.0972 18.9028 15.0771 18.8736 15.0656L17.458 14.5078C17.2074 14.4087 16.9798 14.2593 16.7893 14.0687C16.5987 13.8782 16.4493 13.6506 16.3502 13.4L15.7924 11.9937C15.7808 11.9647 15.7608 11.9397 15.7348 11.9222C15.7089 11.9046 15.6784 11.8953 15.6471 11.8953C15.6158 11.8953 15.5852 11.9046 15.5593 11.9222C15.5334 11.9397 15.5133 11.9647 15.5017 11.9937L14.9439 13.4C14.8451 13.6507 14.6957 13.8785 14.5052 14.069C14.3146 14.2596 14.0869 14.409 13.8361 14.5078L12.4299 15.0656C12.4007 15.0771 12.3757 15.0972 12.3581 15.1231C12.3405 15.149 12.3311 15.1796 12.3311 15.2109C12.3311 15.2423 12.3405 15.2729 12.3581 15.2988C12.3757 15.3247 12.4007 15.3447 12.4299 15.3562L13.8361 15.9141C14.0869 16.0129 14.3146 16.1622 14.5052 16.3528C14.6957 16.5434 14.8451 16.7711 14.9439 17.0219L15.5017 18.4281C15.5131 18.4575 15.533 18.4827 15.5589 18.5006C15.5849 18.5184 15.6156 18.528 15.6471 18.5281C15.6785 18.528 15.7092 18.5184 15.7352 18.5006C15.7611 18.4827 15.781 18.4575 15.7924 18.4281Z"/>
<path d="M10.7812 15.8344V10.5219L15.4437 7.83126V9.89532C15.4423 10.0014 15.4791 10.1044 15.5474 10.1855C15.6156 10.2667 15.7108 10.3207 15.8155 10.3375C16.0138 10.3655 16.2066 10.4235 16.3874 10.5094C16.4542 10.5415 16.528 10.5561 16.602 10.5518C16.676 10.5474 16.7476 10.5243 16.8102 10.4846C16.8727 10.4449 16.9241 10.3899 16.9595 10.3248C16.9949 10.2597 17.0131 10.1866 17.0124 10.1125V7.57969C17.0124 7.08596 16.8825 6.60091 16.6357 6.17331C16.3888 5.74571 16.0337 5.39062 15.6062 5.14376L11.4062 2.72188C10.9786 2.47503 10.4936 2.34508 9.9999 2.34508C9.50621 2.34508 9.02121 2.47503 8.59365 2.72188L4.3999 5.14376C3.97231 5.39062 3.61725 5.74571 3.3704 6.17331C3.12355 6.60091 2.99361 7.08596 2.99365 7.57969V12.4234C2.99361 12.9172 3.12355 13.4022 3.3704 13.8298C3.61725 14.2574 3.97231 14.6125 4.3999 14.8594L8.59365 17.2781C9.02157 17.5239 9.50643 17.6532 9.9999 17.6532C10.4934 17.6532 10.9782 17.5239 11.4062 17.2781H11.4155C11.4764 17.2432 11.528 17.194 11.5658 17.1348C11.6036 17.0756 11.6266 17.0082 11.6327 16.9382C11.6388 16.8682 11.628 16.7978 11.601 16.7329C11.5741 16.6681 11.5319 16.6107 11.478 16.5656C11.2608 16.3781 10.7812 15.8344 10.7812 15.8344ZM9.21865 15.8344L5.18115 13.5031C4.99109 13.3934 4.83326 13.2356 4.72355 13.0455C4.61384 12.8554 4.5561 12.6398 4.55615 12.4203V7.83126L9.21865 10.5234V15.8344ZM5.27646 6.44219L9.3749 4.07501C9.56493 3.9653 9.78048 3.90754 9.9999 3.90754C10.2193 3.90754 10.4349 3.9653 10.6249 4.07501L14.7233 6.44219L9.9999 9.17032L5.27646 6.44219Z"/>
</svg>
