<svg width="24" height="25" viewBox="0 0 24 25" fill="none" xmlns="http://www.w3.org/2000/svg">
<g clip-path="url(#clip0_45_270)">
<path d="M11.999 1.25C12.1041 1.25 12.2237 1.27861 12.3672 1.36426C12.4566 1.41765 12.5361 1.50111 12.5986 1.6582L12.6006 1.66016L15.2285 8.19141L15.3994 8.61621L15.8555 8.6582L22.6279 9.2793C22.8399 9.31338 22.9398 9.37541 22.9863 9.41797C23.0706 9.4952 23.1473 9.60524 23.2051 9.77148C23.2537 9.91161 23.2634 10.0503 23.2324 10.2012C23.2098 10.3108 23.1529 10.4242 23.0244 10.5469L17.874 15.207L17.5498 15.5L17.6445 15.9258L19.1865 22.8604C19.2267 23.044 19.2057 23.1624 19.166 23.25C19.0952 23.4061 19.0014 23.5255 18.8857 23.6191C18.796 23.6917 18.693 23.7355 18.5547 23.748C18.4628 23.7564 18.3626 23.7389 18.2334 23.6523L18.2256 23.6465L18.2168 23.6406L12.3994 19.9717L11.999 19.7197L11.5996 19.9717L5.78223 23.6406L5.7666 23.6504C5.63668 23.737 5.53528 23.7562 5.44141 23.748C5.30491 23.7361 5.20336 23.6927 5.11426 23.6201C4.99706 23.5247 4.90386 23.4045 4.83301 23.249C4.79403 23.1635 4.7721 23.0458 4.8125 22.8604L6.35352 15.9258L6.44922 15.5L6.125 15.207L0.983398 10.5557C0.849809 10.4292 0.791759 10.3121 0.768555 10.1992C0.737356 10.0474 0.746084 9.90935 0.793945 9.77051C0.850438 9.6068 0.926863 9.49666 1.0127 9.41797C1.06065 9.37404 1.16142 9.31226 1.37402 9.2793L8.14355 8.6582L8.59961 8.61621L8.77051 8.19141L11.3984 1.66016L11.3994 1.6582C11.4618 1.50133 11.5416 1.41766 11.6309 1.36426C11.7743 1.27862 11.894 1.25007 11.999 1.25Z" stroke="white" stroke-width="1.5"/>
</g>
<defs>
<clipPath id="clip0_45_270">
<rect width="24" height="24" fill="white" transform="translate(0 0.5)"/>
</clipPath>
</defs>
</svg>
