<svg xmlns="http://www.w3.org/2000/svg" version="1.1" xmlns:xlink="http://www.w3.org/1999/xlink" width="33" height="33"><svg width="33" height="33" viewBox="0 0 33 33" fill="none" xmlns="http://www.w3.org/2000/svg">
<rect width="32" height="32" transform="translate(0.925247 0.925247)" fill="#131314"></rect>
<path d="M27 16.9252C27 22.4894 22.4894 27 16.9252 27C11.3611 27 6.85049 22.4894 6.85049 16.9252C6.85049 11.3611 11.3611 6.85049 16.9252 6.85049C22.4894 6.85049 27 11.3611 27 16.9252Z" fill="#5C47FF"></path>
<path d="M23.9001 11.5004C23.9001 13.2124 22.5122 14.6003 20.8002 14.6003C19.0881 14.6003 17.7002 13.2124 17.7002 11.5004C17.7002 9.78834 19.0881 8.40046 20.8002 8.40046C22.5122 8.40046 23.9001 9.78834 23.9001 11.5004Z" fill="#CDC7FE"></path>
</svg><style>@media (prefers-color-scheme: light) { :root { filter: none; } }
@media (prefers-color-scheme: dark) { :root { filter: none; } }
</style></svg>