<svg width="106" height="22" viewBox="0 0 106 22" fill="none" xmlns="http://www.w3.org/2000/svg">
<path d="M83.7419 0.623466C79.2089 0.623466 75.1548 2.97474 75.1548 7.31948C75.1548 12.3016 82.3425 12.6464 82.3425 15.149C82.3425 16.2034 81.1353 17.1465 79.0737 17.1465C77.2883 17.1343 75.5334 16.6816 73.9647 15.8285L73.029 20.2124C74.8964 20.9492 76.8859 21.327 78.8934 21.3259C83.8511 21.3259 87.753 18.8583 87.753 14.4394C87.753 9.17464 80.5403 8.8409 80.5403 6.52169C80.5403 5.69584 81.5309 4.79181 83.5877 4.79181C85.0435 4.81171 86.4789 5.13853 87.8001 5.75097L88.7157 1.51647C87.1274 0.912983 85.4408 0.610171 83.7419 0.623466ZM42.2537 0.943183L42.1436 1.58262C43.3809 1.82317 44.5944 2.17299 45.7699 2.62796C47.9828 3.42976 48.1401 3.8918 48.5128 5.33403L52.573 20.9941H58.0156L66.4004 0.943183H60.9698L55.5823 14.5737L53.3834 3.02084C53.3086 2.42646 53.0123 1.88223 52.5538 1.49701C52.0951 1.11179 51.5081 0.913997 50.91 0.943183H42.2537ZM68.5842 0.943183L64.3237 20.9971H69.5018L73.7473 0.943183H68.5842ZM97.4651 0.943183C96.9177 0.936573 96.3839 1.11406 95.9494 1.44719C95.5149 1.78032 95.2048 2.24978 95.0689 2.7803L87.4825 20.9971H92.9131L93.9639 17.9623H100.576L101.215 20.9981H106.006L101.83 0.943183H97.4651ZM98.1714 6.36133L99.7812 13.8862H95.4736L98.1784 6.36133H98.1714Z" fill="#1434CB"/>
<path d="M22.264 2.31738H12.7852V19.3519H22.264V2.31738Z" fill="#FF5F00"/>
<path d="M13.3868 10.835C13.3858 9.19419 13.7581 7.57469 14.4757 6.09911C15.1932 4.62361 16.2371 3.3306 17.5283 2.31818C15.9301 1.06198 14.0108 0.280766 11.9896 0.0638288C9.9685 -0.153108 7.92708 0.202975 6.0987 1.0914C4.27031 1.97982 2.72884 3.36477 1.65037 5.08781C0.571898 6.81093 0 8.80265 0 10.8354C0 12.8682 0.571898 14.8599 1.65037 16.5831C2.72884 18.3062 4.27031 19.691 6.0987 20.5794C7.92708 21.4679 9.9685 21.824 11.9896 21.607C14.0108 21.3901 15.9301 20.6089 17.5283 19.3527C16.237 18.3402 15.193 17.0471 14.4755 15.5713C13.758 14.0956 13.3857 12.4759 13.3868 10.835Z" fill="#EB001B"/>
<path d="M35.0516 10.834C35.0517 12.8667 34.4798 14.8584 33.4015 16.5814C32.3231 18.3044 30.7817 19.6893 28.9534 20.5776C27.1252 21.4661 25.0838 21.8221 23.0627 21.6051C21.0417 21.3882 19.1224 20.607 17.5244 19.3508C18.8138 18.3369 19.8561 17.0434 20.5728 15.568C21.2896 14.0926 21.662 12.4738 21.662 10.8335C21.662 9.19323 21.2896 7.57442 20.5728 6.09901C19.8561 4.6236 18.8138 3.33016 17.5244 2.31626C19.1224 1.06006 21.0417 0.278839 23.0627 0.0618848C25.0838 -0.15507 27.1252 0.201005 28.9534 1.0894C30.7817 1.97779 32.3231 3.36269 33.4015 5.08572C34.4798 6.80876 35.0517 8.80039 35.0516 10.8331V10.834Z" fill="#F79E1B"/>
</svg>
