<svg width="20" height="19" viewBox="0 0 20 19" fill="none" xmlns="http://www.w3.org/2000/svg">
<path fill-rule="evenodd" clip-rule="evenodd" d="M10 19C9.93524 19 9.87049 18.9908 9.80668 18.9725L0.797851 16.3837C0.334027 16.2504 0 15.6626 4.82977e-05 14.9796L0 4.02053C4.65775e-05 3.33744 0.334119 2.74958 0.797755 2.61629L9.80663 0.027495C9.87047 0.00917457 9.93524 -4.56871e-06 10 1.70677e-09C9.99999 1.70677e-09 10 1.70677e-09 10 1.70677e-09C10.0648 8.22177e-06 10.1296 0.00920381 10.1934 0.0276292L19.2023 2.61629C19.2603 2.63296 19.3162 2.65672 19.3697 2.68689C19.7443 2.89804 20 3.42282 20 4.02047L20 14.9796C20 15.004 19.9996 15.0284 19.9987 15.0526C19.986 15.4155 19.8791 15.7474 19.7095 15.9923C19.6927 16.0166 19.6752 16.0401 19.6571 16.0627C19.5307 16.2207 19.3756 16.3339 19.2023 16.3837L10.1935 18.9725C10.1296 18.9908 10.0648 19 10 19C10 19 9.99999 19 10 19ZM10 15.9835L2.96301 13.9613L2.96297 5.03865L9.9998 3.01654L10 15.9835Z" fill="white"/>
</svg>
