<svg width="14" height="13" viewBox="0 0 14 13" fill="none" xmlns="http://www.w3.org/2000/svg">
<path fill-rule="evenodd" clip-rule="evenodd" d="M6.75 13C6.70629 13 6.66258 12.9937 6.61951 12.9812L0.538549 11.2099C0.225468 11.1187 0 10.7165 3.26009e-05 10.2492L0 2.75089C3.14398e-05 2.28351 0.22553 1.88129 0.538485 1.79009L6.61948 0.0188124C6.66257 0.00627734 6.70628 -3.12596e-06 6.75 1.16779e-09C6.79372 5.62542e-06 6.83747 0.00629734 6.88055 0.0189042L12.9615 1.7901C13.0007 1.8015 13.0384 1.81776 13.0746 1.8384C13.3274 1.98287 13.5 2.34193 13.5 2.75085L13.5 10.2492C13.5 10.2659 13.4997 10.2826 13.4991 10.2991C13.4906 10.5475 13.4184 10.7745 13.3039 10.9421C13.2925 10.9587 13.2808 10.9748 13.2686 10.9903C13.1832 11.0984 13.0785 11.1758 12.9615 11.2099L6.88059 12.9812C6.83747 12.9937 6.79372 13 6.75 13ZM6.75 10.9361L2.00003 9.5525L2 3.4475L6.74987 2.06395L6.75 10.9361Z" fill="#2D2F2F"/>
</svg>
