<svg width="164" height="41" viewBox="0 0 164 41" fill="none" xmlns="http://www.w3.org/2000/svg">
<path d="M10.176 33.5119C8.29868 33.5119 6.48535 33.2985 4.73602 32.8719C2.98668 32.4452 1.54668 31.8905 0.416016 31.2079L2.84802 25.7039C3.91468 26.3225 5.09868 26.8239 6.40002 27.2079C7.72268 27.5705 9.00268 27.7519 10.24 27.7519C10.9653 27.7519 11.5307 27.7092 11.936 27.6239C12.3627 27.5172 12.672 27.3785 12.864 27.2079C13.056 27.0159 13.152 26.7919 13.152 26.5359C13.152 26.1305 12.928 25.8105 12.48 25.5759C12.032 25.3412 11.4347 25.1492 10.688 24.9999C9.96268 24.8292 9.16268 24.6585 8.28802 24.4879C7.41335 24.2959 6.52802 24.0505 5.63202 23.7519C4.75735 23.4532 3.94668 23.0585 3.20002 22.5679C2.47468 22.0772 1.88802 21.4372 1.44002 20.6479C0.992016 19.8372 0.768016 18.8345 0.768016 17.6399C0.768016 16.2532 1.15202 14.9945 1.92002 13.8639C2.70935 12.7119 3.87202 11.7945 5.40802 11.1119C6.96535 10.4292 8.89602 10.0879 11.2 10.0879C12.7147 10.0879 14.208 10.2479 15.68 10.5679C17.152 10.8879 18.4747 11.3785 19.648 12.0399L17.376 17.5119C16.2667 16.9572 15.1893 16.5412 14.144 16.2639C13.12 15.9865 12.1173 15.8479 11.136 15.8479C10.4107 15.8479 9.83468 15.9119 9.40802 16.0399C8.98135 16.1679 8.67202 16.3385 8.48002 16.5519C8.30935 16.7652 8.22402 16.9999 8.22402 17.2559C8.22402 17.6399 8.44802 17.9492 8.89602 18.1839C9.34402 18.3972 9.93068 18.5785 10.656 18.7279C11.4027 18.8772 12.2133 19.0372 13.088 19.2079C13.984 19.3785 14.8693 19.6132 15.744 19.9119C16.6187 20.2105 17.4187 20.6052 18.144 21.0959C18.8907 21.5865 19.488 22.2265 19.936 23.0159C20.384 23.8052 20.608 24.7865 20.608 25.9599C20.608 27.3252 20.2134 28.5839 19.424 29.7359C18.656 30.8665 17.504 31.7839 15.968 32.4879C14.432 33.1705 12.5013 33.5119 10.176 33.5119Z" fill="#FEBF1D"/>
<path d="M28.6793 30.1199L28.8393 21.6079L34.8873 15.4959H43.4313L35.4313 23.8799L31.8153 26.7919L28.6793 30.1199ZM22.6313 32.9999V9.25586H29.8633V32.9999H22.6313ZM35.2713 32.9999L30.4713 26.9199L34.9193 21.4479L44.0073 32.9999H35.2713Z" fill="#FEBF1D"/>
<path d="M45.4438 32.9999V15.4959H52.6758V32.9999H45.4438Z" fill="#FEBF1D"/>
<path d="M68.0413 15.1759C69.3853 15.1759 70.6013 15.4532 71.6893 16.0079C72.7773 16.5412 73.6306 17.3839 74.2493 18.5359C74.8893 19.6879 75.2093 21.1812 75.2093 23.0159V32.9999H67.9773V24.2639C67.9773 23.1759 67.7853 22.4079 67.4013 21.9599C67.0173 21.4905 66.4946 21.2559 65.8333 21.2559C65.3426 21.2559 64.8839 21.3732 64.4573 21.6079C64.0519 21.8212 63.7213 22.1839 63.4653 22.6959C63.2306 23.2079 63.1133 23.9012 63.1133 24.7759V32.9999H55.8813V15.4959H62.7613V20.6159L61.3853 19.1439C62.0679 17.8212 62.9853 16.8292 64.1373 16.1679C65.3106 15.5065 66.6119 15.1759 68.0413 15.1759Z" fill="#FEBF1D"/>
<path d="M81.36 33V14.536C81.36 12.872 81.84 11.5493 82.8 10.568C83.7813 9.56533 85.168 9.064 86.96 9.064C87.6213 9.064 88.2507 9.14933 88.848 9.32C89.4667 9.46933 89.9893 9.71467 90.416 10.056L89.488 12.392C89.168 12.136 88.8053 11.944 88.4 11.816C87.9947 11.6667 87.568 11.592 87.12 11.592C86.224 11.592 85.5413 11.848 85.072 12.36C84.6027 12.8507 84.368 13.5867 84.368 14.568V16.84L84.432 18.248V33H81.36ZM78.48 18.568V16.04H89.296V18.568H78.48ZM99.2073 33.192C97.5006 33.192 95.9859 32.8187 94.6633 32.072C93.3406 31.3253 92.2953 30.3013 91.5273 29C90.7593 27.6773 90.3753 26.184 90.3753 24.52C90.3753 22.8347 90.7593 21.3413 91.5273 20.04C92.2953 18.7387 93.3406 17.7253 94.6633 17C95.9859 16.2533 97.5006 15.88 99.2073 15.88C100.893 15.88 102.397 16.2533 103.719 17C105.063 17.7253 106.109 18.7387 106.855 20.04C107.623 21.32 108.007 22.8133 108.007 24.52C108.007 26.2053 107.623 27.6987 106.855 29C106.109 30.3013 105.063 31.3253 103.719 32.072C102.397 32.8187 100.893 33.192 99.2073 33.192ZM99.2073 30.504C100.295 30.504 101.266 30.2587 102.119 29.768C102.994 29.2773 103.677 28.584 104.167 27.688C104.658 26.7707 104.903 25.7147 104.903 24.52C104.903 23.304 104.658 22.2587 104.167 21.384C103.677 20.488 102.994 19.7947 102.119 19.304C101.266 18.8133 100.295 18.568 99.2073 18.568C98.1193 18.568 97.1486 18.8133 96.2953 19.304C95.4419 19.7947 94.7593 20.488 94.2473 21.384C93.7353 22.2587 93.4793 23.304 93.4793 24.52C93.4793 25.7147 93.7353 26.7707 94.2473 27.688C94.7593 28.584 95.4419 29.2773 96.2953 29.768C97.1486 30.2587 98.1193 30.504 99.2073 30.504ZM112.256 33V16.04H115.2V20.648L114.912 19.496C115.381 18.3227 116.17 17.4267 117.28 16.808C118.389 16.1893 119.754 15.88 121.376 15.88V18.856C121.248 18.8347 121.12 18.824 120.992 18.824C120.885 18.824 120.778 18.824 120.672 18.824C119.029 18.824 117.728 19.3147 116.768 20.296C115.808 21.2773 115.328 22.696 115.328 24.552V33H112.256ZM132.43 39.4C130.872 39.4 129.358 39.176 127.886 38.728C126.435 38.3013 125.251 37.6827 124.334 36.872L125.806 34.504C126.595 35.1867 127.566 35.72 128.718 36.104C129.87 36.5093 131.075 36.712 132.334 36.712C134.339 36.712 135.811 36.2427 136.75 35.304C137.688 34.3653 138.158 32.936 138.158 31.016V27.432L138.478 24.072L138.318 20.68V16.04H141.23V30.696C141.23 33.6827 140.483 35.88 138.99 37.288C137.496 38.696 135.31 39.4 132.43 39.4ZM132.046 32.296C130.403 32.296 128.931 31.9547 127.63 31.272C126.35 30.568 125.326 29.5973 124.558 28.36C123.811 27.1227 123.438 25.6933 123.438 24.072C123.438 22.4293 123.811 21 124.558 19.784C125.326 18.5467 126.35 17.5867 127.63 16.904C128.931 16.2213 130.403 15.88 132.046 15.88C133.496 15.88 134.819 16.1787 136.014 16.776C137.208 17.352 138.158 18.248 138.862 19.464C139.587 20.68 139.95 22.216 139.95 24.072C139.95 25.9067 139.587 27.432 138.862 28.648C138.158 29.864 137.208 30.7813 136.014 31.4C134.819 31.9973 133.496 32.296 132.046 32.296ZM132.398 29.608C133.528 29.608 134.531 29.3733 135.406 28.904C136.28 28.4347 136.963 27.784 137.454 26.952C137.966 26.12 138.222 25.16 138.222 24.072C138.222 22.984 137.966 22.024 137.454 21.192C136.963 20.36 136.28 19.72 135.406 19.272C134.531 18.8027 133.528 18.568 132.398 18.568C131.267 18.568 130.254 18.8027 129.358 19.272C128.483 19.72 127.79 20.36 127.278 21.192C126.787 22.024 126.542 22.984 126.542 24.072C126.542 25.16 126.787 26.12 127.278 26.952C127.79 27.784 128.483 28.4347 129.358 28.904C130.254 29.3733 131.267 29.608 132.398 29.608ZM154.652 33.192C152.838 33.192 151.238 32.8187 149.852 32.072C148.486 31.3253 147.42 30.3013 146.652 29C145.905 27.6987 145.532 26.2053 145.532 24.52C145.532 22.8347 145.894 21.3413 146.62 20.04C147.366 18.7387 148.38 17.7253 149.66 17C150.961 16.2533 152.422 15.88 154.044 15.88C155.686 15.88 157.137 16.2427 158.396 16.968C159.654 17.6933 160.636 18.7173 161.34 20.04C162.065 21.3413 162.428 22.8667 162.428 24.616C162.428 24.744 162.417 24.8933 162.396 25.064C162.396 25.2347 162.385 25.3947 162.364 25.544H147.932V23.336H160.764L159.516 24.104C159.537 23.016 159.313 22.0453 158.844 21.192C158.374 20.3387 157.724 19.6773 156.892 19.208C156.081 18.7173 155.132 18.472 154.044 18.472C152.977 18.472 152.028 18.7173 151.196 19.208C150.364 19.6773 149.713 20.3493 149.244 21.224C148.774 22.0773 148.54 23.0587 148.54 24.168V24.68C148.54 25.8107 148.796 26.824 149.308 27.72C149.841 28.5947 150.577 29.2773 151.516 29.768C152.454 30.2587 153.532 30.504 154.748 30.504C155.75 30.504 156.657 30.3333 157.468 29.992C158.3 29.6507 159.025 29.1387 159.644 28.456L161.34 30.44C160.572 31.336 159.612 32.0187 158.46 32.488C157.329 32.9573 156.06 33.192 154.652 33.192Z" fill="white"/>
<path d="M57.2821 1.6524L49.1741 0.01745C49.0592 -0.00582415 48.9409 -0.00578094 48.826 0.0173653L40.718 1.65239C40.3007 1.73658 40 2.10786 40 2.53928L40 9.46077C40 9.8922 40.3006 10.2634 40.7181 10.3476L48.826 11.9826C48.9409 12.0058 49.0591 12.0058 49.1741 11.9826L57.2821 10.3476C57.4603 10.3116 57.6172 10.2234 57.7386 10.1004C57.9013 9.93538 58 9.70793 58 9.46078L58 2.53924C58 2.10786 57.6994 1.73658 57.2821 1.6524Z" fill="#FEBF1D"/>
<path d="M49 12C49.0583 12 49.1166 11.9942 49.1741 11.9826L57.2821 10.3476C57.4603 10.3116 57.6172 10.2234 57.7386 10.1004C57.9013 9.93538 58 9.70793 58 9.46078L58 2.53924C58 2.10786 57.6994 1.73658 57.2821 1.6524L49.1741 0.01745C49.1166 0.00581059 49.0583 2.86083e-06 49 0V12Z" fill="#FF8001"/>
</svg>
