<svg width="24" height="24" viewBox="0 0 24 24" fill="none" xmlns="http://www.w3.org/2000/svg">
<g clip-path="url(#clip0_91_1012)">
<path d="M0.666332 15.3976C2.12627 20.2656 6.64159 23.8153 11.9847 23.8153C18.5101 23.8153 23.8001 18.5254 23.8001 12C23.8001 5.47454 18.5101 0.18457 11.9847 0.18457C5.72332 0.18457 0.599501 5.05583 0.194824 11.215C0.960609 12.4988 1.25784 13.293 0.665593 15.3976H0.666332Z" fill="white"/>
<path d="M11.3759 9.04091L11.377 9.09925L8.48594 13.2993C8.01776 13.2778 7.54809 13.3602 7.10206 13.5437C6.9079 13.6226 6.72252 13.7216 6.54896 13.8391L0.200032 11.2223C0.200032 11.2223 0.0530782 13.6393 0.665263 15.4404L5.15363 17.2925C5.37517 18.2997 6.06932 19.1829 7.08914 19.6076C7.89146 19.9409 8.79329 19.9422 9.59657 19.6112C10.3998 19.2801 11.0389 18.6438 11.3733 17.8419C11.5518 17.4148 11.6378 16.9547 11.6259 16.492L15.7587 13.5363L15.8602 13.5381C18.3359 13.5381 20.3482 11.5199 20.3482 9.04091C20.3482 6.5619 18.3396 4.55107 15.8602 4.5459C13.3856 4.5459 11.3722 6.5619 11.3722 9.04091H11.3759ZM10.6818 17.5517C10.1449 18.844 8.66354 19.4521 7.37603 18.9156C6.80469 18.6755 6.34159 18.2337 6.07486 17.6743L7.53591 18.2798C7.76161 18.3738 8.00361 18.4223 8.24809 18.4227C8.49257 18.4231 8.73472 18.3753 8.96072 18.2821C9.18672 18.1888 9.39214 18.052 9.56523 17.8793C9.73832 17.7067 9.8757 17.5016 9.96951 17.2759C10.1595 16.8197 10.1606 16.3068 9.97263 15.8498C9.78467 15.3928 9.42299 15.0291 8.96705 14.8386L7.4532 14.2127C8.03585 13.9912 8.69825 13.9838 9.31782 14.2412C9.94551 14.5007 10.4255 14.9896 10.6825 15.6147C10.9395 16.2398 10.938 16.9292 10.6788 17.5517M15.8643 12.0372C15.071 12.0351 14.3109 11.7186 13.7504 11.1571C13.19 10.5957 12.8749 9.83496 12.8742 9.04165C12.8751 8.24847 13.1903 7.48796 13.7507 6.92665C14.3111 6.36534 15.0711 6.04897 15.8643 6.04682C16.6576 6.04878 17.4178 6.36506 17.9783 6.92639C18.5389 7.48772 18.8542 8.24835 18.855 9.04165C18.8544 9.83509 18.5392 10.5959 17.9786 11.1574C17.418 11.7189 16.6577 12.0353 15.8643 12.0372ZM13.6238 9.03685C13.6233 8.4408 13.8595 7.86894 14.2804 7.44695C14.7014 7.02496 15.2727 6.78737 15.8687 6.78639C17.1075 6.78639 18.1151 7.79439 18.1151 9.03685C18.1154 9.63303 17.8789 10.2049 17.4577 10.6268C17.0364 11.0487 16.4649 11.286 15.8687 11.2866C15.2727 11.2857 14.7015 11.0482 14.2805 10.6264C13.8594 10.2046 13.6235 9.63284 13.6238 9.03685Z" fill="#2B68C2"/>
</g>
<defs>
<clipPath id="clip0_91_1012">
<rect width="24" height="24" fill="white"/>
</clipPath>
</defs>
</svg>
