<svg width="40" height="40" viewBox="0 0 40 40" fill="none" xmlns="http://www.w3.org/2000/svg">
<g clip-path="url(#clip0_210_7)">
<path d="M28.3334 13.3337V8.33366C28.3334 7.89163 28.1578 7.46771 27.8453 7.15515C27.5327 6.84259 27.1088 6.66699 26.6667 6.66699H10.0001C9.11603 6.66699 8.26818 7.01818 7.64306 7.6433C7.01794 8.26842 6.66675 9.11627 6.66675 10.0003M6.66675 10.0003C6.66675 10.8844 7.01794 11.7322 7.64306 12.3573C8.26818 12.9825 9.11603 13.3337 10.0001 13.3337H30.0001C30.4421 13.3337 30.866 13.5093 31.1786 13.8218C31.4912 14.1344 31.6667 14.5583 31.6667 15.0003V20.0003M6.66675 10.0003V30.0003C6.66675 30.8844 7.01794 31.7322 7.64306 32.3573C8.26818 32.9825 9.11603 33.3337 10.0001 33.3337H30.0001C30.4421 33.3337 30.866 33.1581 31.1786 32.8455C31.4912 32.5329 31.6667 32.109 31.6667 31.667V26.667" stroke="#FEBF1D" stroke-width="2" stroke-linecap="round" stroke-linejoin="round"/>
<path d="M33.3333 20V26.6667H26.6666C25.7825 26.6667 24.9347 26.3155 24.3096 25.6904C23.6844 25.0652 23.3333 24.2174 23.3333 23.3333C23.3333 22.4493 23.6844 21.6014 24.3096 20.9763C24.9347 20.3512 25.7825 20 26.6666 20H33.3333Z" stroke="#FEBF1D" stroke-width="2" stroke-linecap="round" stroke-linejoin="round"/>
</g>
<defs>
<clipPath id="clip0_210_7">
<rect width="40" height="40" fill="white"/>
</clipPath>
</defs>
</svg>
