<svg width="64" height="64" viewBox="0 0 64 64" fill="none" xmlns="http://www.w3.org/2000/svg">
<g clip-path="url(#clip0_133_1947)">
<path d="M45.6667 21.6667V13.6667C45.6667 12.9594 45.3857 12.2811 44.8856 11.781C44.3855 11.281 43.7072 11 43 11H16.3333C14.9188 11 13.5623 11.5619 12.5621 12.5621C11.5619 13.5623 11 14.9188 11 16.3333M11 16.3333C11 17.7478 11.5619 19.1044 12.5621 20.1046C13.5623 21.1048 14.9188 21.6667 16.3333 21.6667H48.3333C49.0406 21.6667 49.7189 21.9476 50.219 22.4477C50.7191 22.9478 51 23.6261 51 24.3333V32.3333M11 16.3333V48.3333C11 49.7478 11.5619 51.1044 12.5621 52.1046C13.5623 53.1048 14.9188 53.6667 16.3333 53.6667H48.3333C49.0406 53.6667 49.7189 53.3857 50.219 52.8856C50.7191 52.3855 51 51.7072 51 51V43" stroke="#949595" stroke-width="6" stroke-linecap="round" stroke-linejoin="round"/>
<path d="M53.6667 32.333V42.9997H43.0001C41.5856 42.9997 40.229 42.4378 39.2288 41.4376C38.2287 40.4374 37.6667 39.0808 37.6667 37.6663C37.6667 36.2519 38.2287 34.8953 39.2288 33.8951C40.229 32.8949 41.5856 32.333 43.0001 32.333H53.6667Z" stroke="#949595" stroke-width="6" stroke-linecap="round" stroke-linejoin="round"/>
</g>
<defs>
<clipPath id="clip0_133_1947">
<rect width="64" height="64" fill="white"/>
</clipPath>
</defs>
</svg>
