<svg width="21" height="20" viewBox="0 0 21 20" fill="none" xmlns="http://www.w3.org/2000/svg">
<path d="M13.7115 9.045L11.0898 11.6667L13.7115 14.2883C13.874 14.4508 13.874 14.715 13.7115 14.8775C13.6298 14.9592 13.5231 14.9992 13.4165 14.9992C13.3098 14.9992 13.2031 14.9583 13.1215 14.8775L10.4998 12.2558L7.87815 14.8775C7.79648 14.9592 7.68982 14.9992 7.58315 14.9992C7.47648 14.9992 7.36982 14.9583 7.28815 14.8775C7.12565 14.715 7.12565 14.4508 7.28815 14.2883L9.90982 11.6667L7.28815 9.045C7.12565 8.8825 7.12565 8.61833 7.28815 8.45583C7.45065 8.29333 7.71482 8.29333 7.87732 8.45583L10.499 11.0775L13.1207 8.45583C13.2831 8.29333 13.5473 8.29333 13.7098 8.45583C13.8723 8.61833 13.8723 8.8825 13.7098 9.045H13.7115ZM19.6665 3.75C19.6665 3.98 19.4798 4.16667 19.2498 4.16667H17.9998C17.9998 4.17917 17.9998 4.19167 17.9981 4.205L16.8565 16.5942C16.6773 18.5358 15.0715 20 13.1223 20H7.89565C5.94815 20 4.34315 18.5383 4.16232 16.6L3.00232 4.20583C3.00148 4.1925 3.00065 4.18 3.00065 4.16667H1.75065C1.52065 4.16667 1.33398 3.98 1.33398 3.75C1.33398 3.52 1.52065 3.33333 1.75065 3.33333H5.94065C6.14898 1.46083 7.74065 0 9.66732 0H11.334C13.2606 0 14.8531 1.46083 15.0606 3.33333H19.2506C19.4806 3.33333 19.6665 3.52 19.6665 3.75ZM6.77982 3.33333H14.2198C14.0173 1.92167 12.7998 0.833333 11.3331 0.833333H9.66648C8.19982 0.833333 6.98232 1.92167 6.77982 3.33333ZM17.1648 4.16667H3.83482L4.99065 16.5217C5.13065 18.03 6.37982 19.1667 7.89398 19.1667H13.1207C14.6373 19.1667 15.8856 18.0283 16.0248 16.5175L17.1631 4.16667H17.1648Z" fill="white"/>
</svg>
