<svg width="21" height="20" viewBox="0 0 21 20" fill="none" xmlns="http://www.w3.org/2000/svg">
<g clip-path="url(#clip0_2007_293)">
<path d="M16.75 20H4.25C2.18333 20 0.5 18.3167 0.5 16.25V3.75C0.5 1.68333 2.18333 0 4.25 0H16.75C18.8167 0 20.5 1.68333 20.5 3.75V16.25C20.5 18.3167 18.8167 20 16.75 20ZM4.25 0.833333C2.64167 0.833333 1.33333 2.14167 1.33333 3.75V16.25C1.33333 17.8583 2.64167 19.1667 4.25 19.1667H16.75C18.3583 19.1667 19.6667 17.8583 19.6667 16.25V3.75C19.6667 2.14167 18.3583 0.833333 16.75 0.833333H4.25ZM7.78333 14.1667C7.60833 14.1667 7.43333 14.1083 7.28333 14C7 13.7917 6.88333 13.4167 6.99167 13.0833L7.775 10.575L5.8 8.96667C5.525 8.73333 5.43333 8.36667 5.55 8.04167C5.66667 7.71667 5.98333 7.5 6.33333 7.5H8.83333L9.71667 5.125C9.83333 4.81667 10.1417 4.60833 10.5 4.60833C10.8583 4.60833 11.1667 4.80833 11.2833 5.125L12.1667 7.5H14.6667C15.0167 7.5 15.3333 7.71667 15.45 8.05C15.5667 8.375 15.475 8.75 15.2083 8.96667L13.2333 10.575L14.05 13.0583C14.1583 13.3917 14.05 13.7667 13.7667 13.9833C13.4833 14.2 13.1 14.2167 12.8 14.025L10.5083 12.5333L8.25 14.0417C8.10833 14.1333 7.94167 14.1833 7.78333 14.1833V14.1667ZM6.33333 8.325L8.51667 10.1083C8.65 10.2167 8.7 10.3917 8.65 10.5583L7.78333 13.3417L10.2667 11.6833C10.4083 11.5917 10.5833 11.5917 10.725 11.6833L13.25 13.325L12.3417 10.5667C12.2917 10.4 12.3417 10.225 12.475 10.1167L14.6583 8.34167H11.8667C11.6917 8.34167 11.5333 8.23333 11.475 8.06667L10.4917 5.41667L9.50833 8.06667C9.45 8.23333 9.29167 8.34167 9.11667 8.34167H6.325L6.33333 8.325Z" fill="white"/>
</g>
<defs>
<clipPath id="clip0_2007_293">
<rect width="20" height="20" fill="white" transform="translate(0.5)"/>
</clipPath>
</defs>
</svg>
