<svg width="26" height="26" viewBox="0 0 26 26" fill="none" xmlns="http://www.w3.org/2000/svg">
<g clip-path="url(#clip0_2021_2484)">
<path d="M22.8958 19.5053C22.0667 19.5053 21.3354 19.9021 20.8583 20.5084L17.0688 18.6136C17.126 18.398 17.1677 18.1761 17.1677 17.9428C17.1677 17.7094 17.1271 17.4875 17.0688 17.2719L20.8583 15.3771C21.3354 15.9834 22.0667 16.3803 22.8958 16.3803C24.3312 16.3803 25.5 15.2115 25.5 13.7761C25.5 12.3407 24.3312 11.1719 22.8958 11.1719C21.4604 11.1719 20.2917 12.3407 20.2917 13.7761C20.2917 14.0094 20.3323 14.2313 20.3906 14.4469L16.601 16.3417C16.124 15.7355 15.3927 15.3386 14.5635 15.3386C13.1281 15.3386 11.9594 16.5073 11.9594 17.9428C11.9594 19.3782 13.1281 20.5469 14.5635 20.5469C15.3927 20.5469 16.124 20.15 16.601 19.5438L20.3906 21.4386C20.3333 21.6542 20.2917 21.8761 20.2917 22.1094C20.2917 23.5448 21.4604 24.7136 22.8958 24.7136C24.3312 24.7136 25.5 23.5448 25.5 22.1094C25.5 20.674 24.3312 19.5053 22.8958 19.5053ZM22.8958 12.2136C23.7573 12.2136 24.4583 12.9146 24.4583 13.7761C24.4583 14.6375 23.7573 15.3386 22.8958 15.3386C22.0344 15.3386 21.3333 14.6375 21.3333 13.7761C21.3333 12.9146 22.0344 12.2136 22.8958 12.2136ZM14.5625 19.5053C13.701 19.5053 13 18.8042 13 17.9428C13 17.0813 13.701 16.3803 14.5625 16.3803C15.424 16.3803 16.125 17.0813 16.125 17.9428C16.125 18.8042 15.424 19.5053 14.5625 19.5053ZM22.8958 23.6719C22.0344 23.6719 21.3333 22.9709 21.3333 22.1094C21.3333 21.248 22.0344 20.5469 22.8958 20.5469C23.7573 20.5469 24.4583 21.248 24.4583 22.1094C24.4583 22.9709 23.7573 23.6719 22.8958 23.6719ZM18.2083 23.1511C18.2083 23.4386 17.975 23.6719 17.6875 23.6719H6.22917C3.06979 23.6719 0.5 21.1021 0.5 17.9428C0.5 16.374 1.12812 14.9094 2.26875 13.8198C2.61042 13.4928 2.75729 12.9667 2.67083 12.375C2.53021 11.4136 2.55938 10.4344 2.75729 9.46255C3.42083 6.19484 6.06042 3.59172 9.32604 2.98547C13.0479 2.29276 16.6802 4.08547 18.3625 7.44276C18.5656 7.84797 18.9448 8.13859 19.4042 8.24172C19.9677 8.3688 20.5167 8.55734 21.0354 8.80422C21.2958 8.92817 21.4062 9.23859 21.2823 9.49797C21.1594 9.75734 20.8469 9.8688 20.5885 9.74484C20.1385 9.5313 19.6635 9.36776 19.176 9.25734C18.4104 9.08547 17.774 8.59484 17.4302 7.90838C15.9583 4.97088 12.774 3.40213 9.51562 4.00942C6.66354 4.53859 4.35729 6.81255 3.77813 9.66984C3.60417 10.523 3.57917 11.3823 3.70104 12.224C3.83646 13.1532 3.57708 14.0094 2.9875 14.5719C2.05521 15.4636 1.54167 16.6594 1.54167 17.9417C1.54167 20.5261 3.64479 22.6292 6.22917 22.6292H17.6875C17.975 22.6292 18.2083 22.8636 18.2083 23.1511Z" fill="white"/>
</g>
<defs>
<clipPath id="clip0_2021_2484">
<rect width="25" height="25" fill="white" transform="translate(0.5 0.755249)"/>
</clipPath>
</defs>
</svg>
