<svg width="21" height="20" viewBox="0 0 21 20" fill="none" xmlns="http://www.w3.org/2000/svg">
<g clip-path="url(#clip0_2007_295)">
<path d="M19.4225 6.84331C19.4733 6.79247 19.5017 6.72997 19.5367 6.67081L2.58333 6.66664C1.8825 6.66664 1.33333 7.21581 1.33333 7.91664V17.9166C1.33333 18.6175 1.8825 19.1666 2.58333 19.1666H18.8333V20H2.58333C1.415 20 0.5 19.085 0.5 17.9166V7.91664C0.5 6.74831 1.415 5.83331 2.58333 5.83331L19.5367 5.83747C19.5017 5.77831 19.4733 5.71581 19.4225 5.66497L15.2983 1.53997L15.8875 0.950806L20.0117 5.07581C20.3267 5.39081 20.5 5.80914 20.5 6.25414C20.5 6.69914 20.3267 7.11831 20.0117 7.43331L15.8875 11.5583L15.2983 10.9691L19.4225 6.84414V6.84331Z" fill="white"/>
</g>
<defs>
<clipPath id="clip0_2007_295">
<rect width="20" height="20" fill="white" transform="translate(0.5)"/>
</clipPath>
</defs>
</svg>
