<svg width="31" height="30" viewBox="0 0 31 30" fill="none" xmlns="http://www.w3.org/2000/svg">
<g clip-path="url(#clip0_2021_1346)">
<path d="M29.995 14.7818C29.5063 14.1255 28.7537 13.748 27.93 13.748H26.7512V9.37305C26.7512 6.2718 24.2275 3.74805 21.1262 3.74805H13.5562C13.2662 3.74805 12.9763 3.6793 12.7175 3.55055L8.77375 1.57805C8.3425 1.36305 7.86 1.24805 7.37625 1.24805H4.87625C2.4625 1.24805 0.5 3.21055 0.5 5.62305V23.123C0.5 26.2243 3.02375 28.748 6.125 28.748H23.0725C25.5763 28.748 27.7412 27.1368 28.4688 24.7118L30.39 17.0393C30.625 16.2568 30.48 15.4343 29.995 14.7818ZM1.75 23.123V5.62305C1.75 3.90055 3.15125 2.49805 4.875 2.49805H7.375C7.665 2.49805 7.955 2.5668 8.21375 2.69555L12.1575 4.66805C12.5887 4.88305 13.0712 4.99805 13.555 4.99805H21.125C23.5375 4.99805 25.5 6.96055 25.5 9.37305V13.748H10.6437C8.78125 13.748 7.12125 14.9205 6.505 16.6905L3.46375 26.5955C2.42125 25.7955 1.74875 24.5368 1.74875 23.1243L1.75 23.123ZM29.185 16.708L27.2637 24.3806C26.7037 26.2456 25.0187 27.498 23.0712 27.498H6.125C5.58125 27.498 5.06125 27.398 4.5825 27.2168L7.69375 17.078C8.1275 15.833 9.3125 14.9968 10.6437 14.9968H27.9288C28.3538 14.9968 28.74 15.1893 28.9925 15.5268C29.24 15.8593 29.3137 16.2805 29.185 16.7068V16.708Z" fill="#F3AAEE"/>
</g>
<defs>
<clipPath id="clip0_2021_1346">
<rect width="30" height="30" fill="white" transform="translate(0.5 -0.00195312)"/>
</clipPath>
</defs>
</svg>
