<svg width="31" height="30" viewBox="0 0 31 30" fill="none" xmlns="http://www.w3.org/2000/svg">
<g clip-path="url(#clip0_2021_1454)">
<path d="M8 13.512V10.627C8 10.282 8.28 10.002 8.625 10.002C8.97 10.002 9.25 10.282 9.25 10.627V12.8682L14.6163 7.50195L9.25 2.1357V4.37695C9.25 4.72195 8.97 5.00195 8.625 5.00195C8.28 5.00195 8 4.72195 8 4.37695V1.49195C8 0.669453 8.66875 0.00195313 9.49 0.00195313H12.375C12.72 0.00195313 13 0.281953 13 0.626953C13 0.971953 12.72 1.25195 12.375 1.25195H10.1337L15.5 6.6182L20.8662 1.25195H18.625C18.28 1.25195 18 0.971953 18 0.626953C18 0.281953 18.28 0.00195312 18.625 0.00195312H21.51C22.3313 0.00195312 23 0.670703 23 1.49195V4.37695C23 4.72195 22.72 5.00195 22.375 5.00195C22.03 5.00195 21.75 4.72195 21.75 4.37695V2.1357L16.3837 7.50195L21.75 12.8682V10.627C21.75 10.282 22.03 10.002 22.375 10.002C22.72 10.002 23 10.282 23 10.627V13.512C23 14.3345 22.3313 15.002 21.51 15.002H18.625C18.28 15.002 18 14.722 18 14.377C18 14.032 18.28 13.752 18.625 13.752H20.8662L15.5 8.3857L10.1337 13.752H12.375C12.72 13.752 13 14.032 13 14.377C13 14.722 12.72 15.002 12.375 15.002H9.49C8.66875 15.002 8 14.3332 8 13.512ZM26.2812 2.67945C25.9425 2.59445 25.6063 2.79445 25.52 3.12945C25.435 3.4632 25.635 3.80445 25.9688 3.8907C27.9013 4.3882 29.25 6.1307 29.25 8.1282V19.377C29.25 21.7895 27.2875 23.752 24.875 23.752H6.125C3.7125 23.752 1.75 21.7895 1.75 19.377V8.12695C1.75 6.12945 3.09875 4.38695 5.03125 3.88945C5.365 3.8032 5.56625 3.4632 5.48 3.1282C5.39375 2.7932 5.05625 2.5932 4.71875 2.6782C2.235 3.3182 0.5 5.5582 0.5 8.12695V19.377C0.5 22.4782 3.02375 25.002 6.125 25.002H14.875V28.752H8.625C8.28 28.752 8 29.032 8 29.377C8 29.722 8.28 30.002 8.625 30.002H22.375C22.72 30.002 23 29.722 23 29.377C23 29.032 22.72 28.752 22.375 28.752H16.125V25.002H24.875C27.9762 25.002 30.5 22.4782 30.5 19.377V8.12695C30.5 5.55945 28.765 3.3182 26.2812 2.67945Z" fill="white"/>
</g>
<defs>
<clipPath id="clip0_2021_1454">
<rect width="30" height="30" fill="white" transform="translate(0.5 0.00195312)"/>
</clipPath>
</defs>
</svg>
