<svg width="31" height="30" viewBox="0 0 31 30" fill="none" xmlns="http://www.w3.org/2000/svg">
<g clip-path="url(#clip0_2021_1444)">
<path d="M24.875 1.24805H6.125C3.02375 1.24805 0.5 3.7718 0.5 6.87305V23.123C0.5 26.2243 3.02375 28.748 6.125 28.748H24.875C27.9762 28.748 30.5 26.2243 30.5 23.123V6.87305C30.5 3.7718 27.9762 1.24805 24.875 1.24805ZM29.25 23.123C29.25 25.5355 27.2875 27.498 24.875 27.498H6.125C3.7125 27.498 1.75 25.5355 1.75 23.123V6.87305C1.75 4.46055 3.7125 2.49805 6.125 2.49805H24.875C27.2875 2.49805 29.25 4.46055 29.25 6.87305V23.123ZM25.5 8.12305C25.5 8.46805 25.22 8.74805 24.875 8.74805H12.375C12.03 8.74805 11.75 8.46805 11.75 8.12305C11.75 7.77805 12.03 7.49805 12.375 7.49805H24.875C25.22 7.49805 25.5 7.77805 25.5 8.12305ZM8 8.12305C8 8.81305 7.44 9.37305 6.75 9.37305C6.06 9.37305 5.5 8.81305 5.5 8.12305C5.5 7.43305 6.06 6.87305 6.75 6.87305C7.44 6.87305 8 7.43305 8 8.12305ZM25.5 14.998C25.5 15.343 25.22 15.623 24.875 15.623H12.375C12.03 15.623 11.75 15.343 11.75 14.998C11.75 14.653 12.03 14.373 12.375 14.373H24.875C25.22 14.373 25.5 14.653 25.5 14.998ZM8 14.998C8 15.688 7.44 16.248 6.75 16.248C6.06 16.248 5.5 15.688 5.5 14.998C5.5 14.308 6.06 13.748 6.75 13.748C7.44 13.748 8 14.308 8 14.998ZM25.5 21.873C25.5 22.218 25.22 22.498 24.875 22.498H12.375C12.03 22.498 11.75 22.218 11.75 21.873C11.75 21.528 12.03 21.248 12.375 21.248H24.875C25.22 21.248 25.5 21.528 25.5 21.873ZM8 21.873C8 22.563 7.44 23.123 6.75 23.123C6.06 23.123 5.5 22.563 5.5 21.873C5.5 21.183 6.06 20.623 6.75 20.623C7.44 20.623 8 21.183 8 21.873Z" fill="#F3AAEE"/>
</g>
<defs>
<clipPath id="clip0_2021_1444">
<rect width="30" height="30" fill="white" transform="translate(0.5 -0.00195312)"/>
</clipPath>
</defs>
</svg>
