<svg width="50" height="50" viewBox="0 0 50 50" fill="none" xmlns="http://www.w3.org/2000/svg">
<g clip-path="url(#clip0_2168_149)">
<path d="M43.9399 9.61875L28.9274 1.04167C26.5066 -0.337498 23.4962 -0.337498 21.0732 1.04167L6.06074 9.62084C3.60033 11.0271 2.07324 13.6583 2.07324 16.4917V33.5083C2.07324 36.3396 3.60033 38.9729 6.06074 40.3792L21.0732 48.9583C22.2712 49.6396 23.6128 49.9833 24.9545 49.9917C24.9691 49.9917 24.9837 50 24.9982 50C25.0128 50 25.0274 49.9917 25.042 49.9917C26.3837 49.9833 27.7274 49.6417 28.9232 48.9583L43.9357 40.3792C46.3962 38.9729 47.9232 36.3417 47.9232 33.5083V16.4917C47.9232 13.6604 46.3962 11.0271 43.9357 9.61875H43.9399ZM7.09408 11.4292L22.1066 2.85209C23.8878 1.83125 26.1107 1.83125 27.892 2.85209L42.9045 11.4271C43.5545 11.7979 44.0753 12.3146 44.5274 12.8833L24.9524 23.8L5.71908 12.5625C6.11908 12.1271 6.56699 11.7313 7.09408 11.4292ZM7.09408 38.5708C5.28157 37.5333 4.15658 35.5917 4.15658 33.5063V16.4917C4.15658 15.7354 4.35033 15.0167 4.62533 14.3354L23.9587 25.6313V47.7792C23.317 47.6625 22.6857 47.4792 22.1066 47.1479L7.09408 38.5708ZM45.8441 33.5063C45.8441 35.5917 44.7191 37.5333 42.9066 38.5688L27.8941 47.1458C27.3149 47.4771 26.6837 47.6625 26.042 47.7771V25.575L45.5316 14.7042C45.717 15.2771 45.8441 15.8708 45.8441 16.4875V33.5063Z" fill="#06CDFF"/>
</g>
<defs>
<clipPath id="clip0_2168_149">
<rect width="50" height="50" fill="white"/>
</clipPath>
</defs>
</svg>
