<svg width="31" height="30" viewBox="0 0 31 30" fill="none" xmlns="http://www.w3.org/2000/svg">
<g clip-path="url(#clip0_2021_1555)">
<path d="M26.8641 5.77125L17.8566 0.625004C16.4041 -0.202496 14.5979 -0.202496 13.1441 0.625004L4.13664 5.7725C2.66039 6.61625 1.74414 8.195 1.74414 9.895V20.105C1.74414 21.8038 2.66039 23.3838 4.13664 24.2275L13.1441 29.375C13.8629 29.7838 14.6679 29.99 15.4729 29.995C15.4816 29.995 15.4904 30 15.4991 30C15.5079 30 15.5166 29.995 15.5254 29.995C16.3304 29.99 17.1366 29.785 17.8541 29.375L26.8616 24.2275C28.3379 23.3838 29.2541 21.805 29.2541 20.105V9.895C29.2541 8.19625 28.3379 6.61625 26.8616 5.77125H26.8641ZM4.75664 6.8575L13.7641 1.71125C14.8329 1.09875 16.1666 1.09875 17.2354 1.71125L26.2429 6.85625C26.6329 7.07875 26.9454 7.38875 27.2166 7.73L15.4716 14.28L3.93164 7.5375C4.17164 7.27625 4.44039 7.03875 4.75664 6.8575ZM4.75664 23.1425C3.66914 22.52 2.99414 21.355 2.99414 20.1038V9.895C2.99414 9.44125 3.11039 9.01 3.27539 8.60125L14.8754 15.3788V28.6675C14.4904 28.5975 14.1116 28.4875 13.7641 28.2888L4.75664 23.1425ZM28.0066 20.1038C28.0066 21.355 27.3316 22.52 26.2441 23.1413L17.2366 28.2875C16.8891 28.4863 16.5104 28.5975 16.1254 28.6663V15.345L27.8191 8.8225C27.9304 9.16625 28.0066 9.5225 28.0066 9.8925V20.1038Z" fill="#F3AAEE"/>
</g>
<defs>
<clipPath id="clip0_2021_1555">
<rect width="30" height="30" fill="white" transform="translate(0.5)"/>
</clipPath>
</defs>
</svg>
