<svg width="26" height="26" viewBox="0 0 26 26" fill="none" xmlns="http://www.w3.org/2000/svg">
<g clip-path="url(#clip0_2021_2488)">
<path d="M23.4167 17.475V8.56775C23.4167 5.98337 21.3135 3.88025 18.7292 3.88025H7.27083C4.68646 3.88025 2.58333 5.98337 2.58333 8.56775V17.475C1.39583 17.7167 0.5 18.7688 0.5 20.0261C0.5 21.4615 1.66875 22.6302 3.10417 22.6302H22.8958C24.3312 22.6302 25.5 21.4615 25.5 20.0261C25.5 18.7688 24.6042 17.7167 23.4167 17.475ZM3.625 8.56775C3.625 6.55733 5.26042 4.92192 7.27083 4.92192H18.7292C20.7396 4.92192 22.375 6.55733 22.375 8.56775V17.4219H16.6458C16.5073 17.4219 16.375 17.4771 16.2771 17.574L15.3875 18.4636H10.6104L9.72083 17.574C9.62292 17.4761 9.49062 17.4219 9.35208 17.4219H3.625V8.56775ZM22.8958 21.5886H3.10417C2.24271 21.5886 1.54167 20.8875 1.54167 20.0261C1.54167 19.1646 2.24271 18.4636 3.10417 18.4636H9.13854L10.0281 19.3532C10.126 19.4511 10.2583 19.5052 10.3969 19.5052H15.6052C15.7437 19.5052 15.876 19.45 15.974 19.3532L16.8635 18.4636H22.8979C23.7594 18.4636 24.4604 19.1646 24.4604 20.0261C24.4604 20.8875 23.7594 21.5886 22.8979 21.5886H22.8958ZM9.03229 11.0657C8.82917 10.8625 8.82917 10.5323 9.03229 10.3292L11.9031 7.45837C12.5073 6.85421 13.4906 6.85421 14.0958 7.45837L16.9667 10.3302C17.1698 10.5334 17.1698 10.8636 16.9667 11.0667C16.8646 11.1688 16.7313 11.2188 16.5979 11.2188C16.4646 11.2188 16.3313 11.1677 16.2292 11.0667L13.5187 8.35629V14.8188C13.5187 15.1063 13.2854 15.3396 12.9979 15.3396C12.7104 15.3396 12.4771 15.1063 12.4771 14.8188V8.35525L9.76667 11.0657C9.56354 11.2688 9.23333 11.2688 9.03021 11.0657H9.03229Z" fill="white"/>
</g>
<defs>
<clipPath id="clip0_2021_2488">
<rect width="25" height="25" fill="white" transform="translate(0.5 0.755249)"/>
</clipPath>
</defs>
</svg>
