<svg width="26" height="26" viewBox="0 0 26 26" fill="none" xmlns="http://www.w3.org/2000/svg">
<g clip-path="url(#clip0_2021_2480)">
<path d="M25.4892 12.7125C25.5017 13 25.2778 13.2427 24.9903 13.2552C24.9819 13.2552 24.9746 13.2552 24.9684 13.2552C24.6903 13.2552 24.4601 13.0365 24.4476 12.7563C24.1851 6.61046 19.1569 1.79692 13.0007 1.79692C9.13402 1.79692 5.53297 3.7865 3.42464 7.00525H7.27152C7.55902 7.00525 7.79235 7.23858 7.79235 7.52608C7.79235 7.81358 7.55902 8.04692 7.27152 8.04692H3.10485C2.24339 8.04692 1.54235 7.34587 1.54235 6.48442V2.31775C1.54235 2.03025 1.77568 1.79692 2.06318 1.79692C2.35068 1.79692 2.58401 2.03025 2.58401 2.31775V6.39275C4.88714 2.90837 8.79964 0.755249 13.0007 0.755249C19.7163 0.755249 25.2028 6.00733 25.4892 12.7125ZM22.8965 18.4636H18.7299C18.4424 18.4636 18.209 18.6969 18.209 18.9844C18.209 19.2719 18.4424 19.5052 18.7299 19.5052H22.5767C20.4684 22.724 16.8673 24.7136 13.0007 24.7136C6.84443 24.7136 1.81631 19.899 1.55381 13.7542C1.54131 13.4667 1.32256 13.2271 1.0111 13.2563C0.72464 13.2688 0.500681 13.5115 0.51214 13.799C0.798598 20.5042 6.28506 25.7563 13.0007 25.7563C17.2017 25.7563 21.1142 23.6032 23.4174 20.1188V24.1938C23.4174 24.4813 23.6507 24.7146 23.9382 24.7146C24.2257 24.7146 24.459 24.4813 24.459 24.1938V20.0271C24.459 19.1657 23.758 18.4636 22.8965 18.4636Z" fill="white"/>
</g>
<defs>
<clipPath id="clip0_2021_2480">
<rect width="25" height="25" fill="white" transform="translate(0.5 0.755249)"/>
</clipPath>
</defs>
</svg>
