<svg width="51" height="50" viewBox="0 0 51 50" fill="none" xmlns="http://www.w3.org/2000/svg">
<g clip-path="url(#clip0_2168_268)">
<path d="M34.375 32.625L32.3333 26.4167L37.2708 22.3959C37.9375 21.8334 38.1667 20.9167 37.875 20.1042C37.5833 19.2917 36.7917 18.7292 35.9167 18.7292H29.6667L27.4583 12.7917C27.1667 12 26.3958 11.5 25.5 11.5C24.6042 11.5 23.8333 12 23.5417 12.7917L21.3333 18.7292H15.0833C14.2083 18.7292 13.4375 19.2709 13.125 20.0834C12.8333 20.8959 13.0625 21.8334 13.75 22.3959L18.6875 26.4167L16.7292 32.6875C16.4583 33.5209 16.75 34.4584 17.4583 34.9792C17.8333 35.25 18.2708 35.3959 18.7083 35.3959C19.1042 35.3959 19.5208 35.2709 19.875 35.0417L25.5208 31.2709L31.2708 35C32 35.4792 32.9792 35.4375 33.6667 34.8959C34.375 34.3542 34.6458 33.4375 34.375 32.6042V32.625ZM26.0833 29.1667C25.7292 28.9375 25.2917 28.9375 24.9375 29.1667L18.7292 33.3125L20.8958 26.3542C21.0208 25.9375 20.8958 25.5 20.5625 25.2292L15.1042 20.7917H22.0833C22.5208 20.7917 22.9167 20.5209 23.0625 20.1042L25.5208 13.4792L27.9792 20.1042C28.125 20.5209 28.5208 20.7917 28.9583 20.7917H35.9583L30.4792 25.2292C30.1458 25.5 30.0208 25.9584 30.1458 26.3542L32.4167 33.25L26.1042 29.1459L26.0833 29.1667ZM37.4792 14.1667C37.9792 14.4584 38.5208 14.6042 39.0625 14.6042C39.6042 14.6042 40.1042 14.4792 40.5417 14.2084L48.9167 10.0209C49.8958 9.45835 50.5 8.43752 50.5 7.31252C50.5 6.18752 49.9167 5.16669 48.875 4.56252L40.6042 0.416687C39.625 -0.145813 38.4583 -0.145813 37.4792 0.416687C36.5 0.979187 35.9167 2.00002 35.9167 3.12502V11.4375C35.9167 12.5625 36.5 13.5834 37.4792 14.1459V14.1667ZM38 3.14585C38 2.60419 38.375 2.33335 38.5208 2.25002C38.6042 2.18752 38.7917 2.10419 39.0417 2.10419C39.2083 2.10419 39.4167 2.14585 39.625 2.27085L47.8958 6.39585C48.375 6.66669 48.4167 7.12502 48.4167 7.31252C48.4167 7.50002 48.375 7.95835 47.9375 8.18752L39.5625 12.375C39.0833 12.6459 38.6667 12.4584 38.5208 12.375C38.3542 12.2917 38 12.0209 38 11.4792V3.12502V3.14585ZM0.5 15.625V9.37502C0.5 4.20835 4.70833 2.03559e-05 9.875 2.03559e-05H16.125C16.7083 2.03559e-05 17.1667 0.458354 17.1667 1.04169C17.1667 1.62502 16.7083 2.08335 16.125 2.08335H9.875C5.85417 2.08335 2.58333 5.35419 2.58333 9.37502V15.625C2.58333 16.2084 2.125 16.6667 1.54167 16.6667C0.958333 16.6667 0.5 16.2084 0.5 15.625ZM17.1667 48.9584C17.1667 49.5417 16.7083 50 16.125 50H9.875C4.70833 50 0.5 45.7917 0.5 40.625V34.375C0.5 33.7917 0.958333 33.3334 1.54167 33.3334C2.125 33.3334 2.58333 33.7917 2.58333 34.375V40.625C2.58333 44.6459 5.85417 47.9167 9.875 47.9167H16.125C16.7083 47.9167 17.1667 48.375 17.1667 48.9584ZM50.5 34.375V40.625C50.5 45.7917 46.2917 50 41.125 50H34.875C34.2917 50 33.8333 49.5417 33.8333 48.9584C33.8333 48.375 34.2917 47.9167 34.875 47.9167H41.125C45.1458 47.9167 48.4167 44.6459 48.4167 40.625V34.375C48.4167 33.7917 48.875 33.3334 49.4583 33.3334C50.0417 33.3334 50.5 33.7917 50.5 34.375Z" fill="#06CDFF"/>
</g>
<defs>
<clipPath id="clip0_2168_268">
<rect width="50" height="50" fill="white" transform="translate(0.5)"/>
</clipPath>
</defs>
</svg>
