<svg width="30" height="30" viewBox="0 0 30 30" fill="none" xmlns="http://www.w3.org/2000/svg">
<path d="M28.5663 27.6638L22.3688 21.4875C24.0725 19.5213 24.9625 16.7238 25.03 13.1038C24.8988 5.52 20.6775 1.31625 13.1363 1.2675C5.4975 1.31625 1.25 5.69125 1.25 13.1038C1.25 20.665 5.39125 24.9163 13.1438 24.9625C16.7325 24.9413 19.5163 24.0738 21.4863 22.37L27.685 28.5488C28.0675 28.8925 28.4463 28.67 28.5688 28.5488C28.8113 28.3038 28.8113 27.9075 28.5663 27.6638ZM13.1438 23.7125C6.11625 23.6713 2.635 20.2038 2.5 13.115C2.63 6.02875 6.1125 2.5625 13.1363 2.5175C20.0775 2.5625 23.6588 6.13125 23.78 13.1025C23.65 20.2 20.1675 23.6713 13.1438 23.7125Z" fill="white"/>
</svg>
