<svg width="50" height="50" viewBox="0 0 50 50" fill="none" xmlns="http://www.w3.org/2000/svg">
<g clip-path="url(#clip0_2168_101)">
<path d="M10.4172 11.4583V7.29167C10.4172 3.27083 13.688 0 17.7089 0H21.8755C22.4505 0 22.9172 0.466667 22.9172 1.04167C22.9172 1.61667 22.4505 2.08333 21.8755 2.08333H17.7089C14.8359 2.08333 12.5005 4.41875 12.5005 7.29167V11.4583C12.5005 12.0333 12.0339 12.5 11.4589 12.5C10.8839 12.5 10.4172 12.0333 10.4172 11.4583ZM48.9589 27.0833C48.3839 27.0833 47.9172 27.55 47.9172 28.125V32.2917C47.9172 35.1646 45.5818 37.5 42.7089 37.5H38.5422C37.9672 37.5 37.5005 37.9667 37.5005 38.5417C37.5005 39.1167 37.9672 39.5833 38.5422 39.5833H42.7089C46.7297 39.5833 50.0005 36.3125 50.0005 32.2917V28.125C50.0005 27.55 49.5339 27.0833 48.9589 27.0833ZM42.7089 0H38.5422C37.9672 0 37.5005 0.466667 37.5005 1.04167C37.5005 1.61667 37.9672 2.08333 38.5422 2.08333H42.7089C45.5818 2.08333 47.9172 4.41875 47.9172 7.29167V11.4583C47.9172 12.0333 48.3839 12.5 48.9589 12.5C49.5339 12.5 50.0005 12.0333 50.0005 11.4583V7.29167C50.0005 3.27083 46.7297 0 42.7089 0ZM36.5651 28.2646L31.9839 27.7958L29.8464 32.025C29.3734 32.9688 28.4068 33.5521 27.3672 33.5521C27.2464 33.5521 27.1276 33.5437 27.0068 33.5292C25.8359 33.3771 24.888 32.5 24.6443 31.3458L23.8547 27.6167L1.77969 49.6958C1.57552 49.9 1.30885 50 1.04219 50C0.775521 50 0.508854 49.8979 0.304687 49.6958C-0.101562 49.2896 -0.101562 48.6292 0.304687 48.2229L22.3443 26.1833L18.7214 25.4646C18.1797 25.3604 17.6859 25.0958 17.2922 24.7042C16.8714 24.2833 16.5922 23.725 16.5068 23.1333C16.338 21.9667 16.9276 20.8187 17.9734 20.2729L22.2109 18.0521L21.738 13.45C21.6422 12.2729 22.2859 11.1667 23.3401 10.6792C24.3922 10.1958 25.6505 10.4187 26.4714 11.2354L29.6422 14.4083L33.9484 12.3646C35.0068 11.8812 36.263 12.1062 37.0818 12.9229C37.9026 13.7396 38.1276 14.9937 37.6443 16.0458L35.5964 20.3625L38.7672 23.5312C39.5922 24.3562 39.813 25.6208 39.3214 26.6729C38.8318 27.7271 37.7089 28.3521 36.563 28.2687L36.5651 28.2646ZM37.2964 25L33.6068 21.3125C33.2964 21.0021 33.2151 20.5271 33.4005 20.1313L35.7589 15.1604C35.8755 14.9083 35.8172 14.5958 35.6151 14.3937C35.4089 14.1875 35.0964 14.1312 34.8318 14.2521L29.8734 16.6042C29.4755 16.7937 29.0026 16.7083 28.6922 16.3979L25.0026 12.7083C24.8714 12.5771 24.6901 12.5042 24.5089 12.5042C24.4089 12.5042 24.3089 12.5271 24.2172 12.5687C23.9526 12.6917 23.7922 12.9667 23.8151 13.2583L24.3589 18.5375C24.4026 18.9604 24.1839 19.3667 23.8068 19.5646L18.9422 22.1167C18.6776 22.2542 18.5297 22.5438 18.5714 22.8354C18.5922 22.9875 18.6609 23.125 18.7672 23.2292C18.8651 23.3271 18.988 23.3937 19.1234 23.4187L24.6818 24.5208C25.0922 24.6021 25.4151 24.9187 25.5005 25.3271L26.6818 30.9187C26.7422 31.2083 26.9818 31.4271 27.2734 31.4667C27.5693 31.5083 27.8505 31.3562 27.9839 31.0917L30.4484 26.2188C30.6443 25.8333 31.0568 25.6 31.4839 25.6542L36.7609 26.1937C37.0672 26.2 37.3151 26.0562 37.4339 25.7937C37.5609 25.5271 37.5026 25.2104 37.2964 25.0021V25Z" fill="#06CDFF"/>
</g>
<defs>
<clipPath id="clip0_2168_101">
<rect width="50" height="50" fill="white"/>
</clipPath>
</defs>
</svg>
