<svg width="30" height="30" viewBox="0 0 30 30" fill="none" xmlns="http://www.w3.org/2000/svg">
<g clip-path="url(#clip0_2021_2276)">
<path d="M6.25031 6.875V4.375C6.25031 1.9625 8.21281 0 10.6253 0H13.1253C13.4703 0 13.7503 0.28 13.7503 0.625C13.7503 0.97 13.4703 1.25 13.1253 1.25H10.6253C8.90156 1.25 7.50031 2.65125 7.50031 4.375V6.875C7.50031 7.22 7.22031 7.5 6.87531 7.5C6.53031 7.5 6.25031 7.22 6.25031 6.875ZM29.3753 16.25C29.0303 16.25 28.7503 16.53 28.7503 16.875V19.375C28.7503 21.0987 27.3491 22.5 25.6253 22.5H23.1253C22.7803 22.5 22.5003 22.78 22.5003 23.125C22.5003 23.47 22.7803 23.75 23.1253 23.75H25.6253C28.0378 23.75 30.0003 21.7875 30.0003 19.375V16.875C30.0003 16.53 29.7203 16.25 29.3753 16.25ZM25.6253 0H23.1253C22.7803 0 22.5003 0.28 22.5003 0.625C22.5003 0.97 22.7803 1.25 23.1253 1.25H25.6253C27.3491 1.25 28.7503 2.65125 28.7503 4.375V6.875C28.7503 7.22 29.0303 7.5 29.3753 7.5C29.7203 7.5 30.0003 7.22 30.0003 6.875V4.375C30.0003 1.9625 28.0378 0 25.6253 0ZM21.9391 16.9587L19.1903 16.6775L17.9078 19.215C17.6241 19.7812 17.0441 20.1312 16.4203 20.1312C16.3478 20.1312 16.2766 20.1262 16.2041 20.1175C15.5016 20.0262 14.9328 19.5 14.7866 18.8075L14.3128 16.57L1.06781 29.8175C0.945312 29.94 0.785312 30 0.625312 30C0.465312 30 0.305312 29.9387 0.182812 29.8175C-0.0609375 29.5737 -0.0609375 29.1775 0.182812 28.9338L13.4066 15.71L11.2328 15.2787C10.9078 15.2162 10.6116 15.0575 10.3753 14.8225C10.1228 14.57 9.95531 14.235 9.90406 13.88C9.80281 13.18 10.1566 12.4913 10.7841 12.1637L13.3266 10.8313L13.0428 8.07C12.9853 7.36375 13.3716 6.7 14.0041 6.4075C14.6353 6.1175 15.3903 6.25125 15.8828 6.74125L17.7853 8.645L20.3691 7.41875C21.0041 7.12875 21.7578 7.26375 22.2491 7.75375C22.7416 8.24375 22.8766 8.99625 22.5866 9.6275L21.3578 12.2175L23.2603 14.1187C23.7553 14.6138 23.8878 15.3725 23.5928 16.0037C23.2991 16.6363 22.6253 17.0112 21.9378 16.9613L21.9391 16.9587ZM22.3778 15L20.1641 12.7875C19.9778 12.6012 19.9291 12.3162 20.0403 12.0788L21.4553 9.09625C21.5253 8.945 21.4903 8.7575 21.3691 8.63625C21.2453 8.5125 21.0578 8.47875 20.8991 8.55125L17.9241 9.9625C17.6853 10.0763 17.4016 10.025 17.2153 9.83875L15.0016 7.625C14.9228 7.54625 14.8141 7.5025 14.7053 7.5025C14.6453 7.5025 14.5853 7.51625 14.5303 7.54125C14.3716 7.615 14.2753 7.78 14.2891 7.955L14.6153 11.1225C14.6416 11.3762 14.5103 11.62 14.2841 11.7387L11.3653 13.27C11.2066 13.3525 11.1178 13.5263 11.1428 13.7013C11.1553 13.7925 11.1966 13.875 11.2603 13.9375C11.3191 13.9962 11.3928 14.0363 11.4741 14.0513L14.8091 14.7125C15.0553 14.7613 15.2491 14.9512 15.3003 15.1962L16.0091 18.5513C16.0453 18.725 16.1891 18.8563 16.3641 18.88C16.5416 18.905 16.7103 18.8137 16.7903 18.655L18.2691 15.7312C18.3866 15.5 18.6341 15.36 18.8903 15.3925L22.0566 15.7162C22.2403 15.72 22.3891 15.6337 22.4603 15.4762C22.5366 15.3162 22.5016 15.1263 22.3778 15.0013V15Z" fill="#F3AAEE"/>
</g>
<defs>
<clipPath id="clip0_2021_2276">
<rect width="30" height="30" fill="white"/>
</clipPath>
</defs>
</svg>
