<svg width="50" height="50" viewBox="0 0 50 50" fill="none" xmlns="http://www.w3.org/2000/svg">
<g clip-path="url(#clip0_2168_2)">
<path d="M40.625 0H9.375C4.20833 0 0 4.20833 0 9.375V40.625C0 45.7917 4.20833 50 9.375 50H40.625C45.7917 50 50 45.7917 50 40.625V9.375C50 4.20833 45.7917 0 40.625 0ZM47.9167 29.7708L29.7708 47.9167H18.125L47.8958 18.1458V29.7917L47.9167 29.7708ZM2.08333 19.1875L19.1875 2.08333H31.875L2.08333 31.8542V19.1667V19.1875ZM9.375 2.08333H16.2292L2.08333 16.2292V9.375C2.08333 5.35417 5.35417 2.08333 9.375 2.08333ZM2.08333 34.8125L34.8125 2.08333H40.625C42.25 2.08333 43.7708 2.625 44.9792 3.54167L3.54167 44.9792C2.625 43.7708 2.08333 42.25 2.08333 40.625V34.8125ZM5.02083 46.4583L46.4583 5C47.375 6.20833 47.9167 7.72917 47.9167 9.375V15.1875L15.1875 47.9167H9.375C7.75 47.9167 6.22917 47.375 5.02083 46.4583ZM40.625 47.9167H32.7292L47.9167 32.7292V40.625C47.9167 44.6458 44.6458 47.9167 40.625 47.9167Z" fill="#06CDFF"/>
</g>
<defs>
<clipPath id="clip0_2168_2">
<rect width="50" height="50" fill="white"/>
</clipPath>
</defs>
</svg>
