<svg width="30" height="30" viewBox="0 0 30 30" fill="none" xmlns="http://www.w3.org/2000/svg">
<g clip-path="url(#clip0_2021_2098)">
<path d="M24.375 0H5.625C2.525 0 0 2.525 0 5.625V24.375C0 27.475 2.525 30 5.625 30H24.375C27.475 30 30 27.475 30 24.375V5.625C30 2.525 27.475 0 24.375 0ZM28.75 17.8625L17.8625 28.75H10.875L28.7375 10.8875V17.875L28.75 17.8625ZM1.25 11.5125L11.5125 1.25H19.125L1.25 19.1125V11.5V11.5125ZM5.625 1.25H9.7375L1.25 9.7375V5.625C1.25 3.2125 3.2125 1.25 5.625 1.25ZM1.25 20.8875L20.8875 1.25H24.375C25.35 1.25 26.2625 1.575 26.9875 2.125L2.125 26.9875C1.575 26.2625 1.25 25.35 1.25 24.375V20.8875ZM3.0125 27.875L27.875 3C28.425 3.725 28.75 4.6375 28.75 5.625V9.1125L9.1125 28.75H5.625C4.65 28.75 3.7375 28.425 3.0125 27.875ZM24.375 28.75H19.6375L28.75 19.6375V24.375C28.75 26.7875 26.7875 28.75 24.375 28.75Z" fill="#F3AAEE"/>
</g>
<defs>
<clipPath id="clip0_2021_2098">
<rect width="30" height="30" fill="white"/>
</clipPath>
</defs>
</svg>
