<svg width="26" height="26" viewBox="0 0 26 26" fill="none" xmlns="http://www.w3.org/2000/svg">
<g clip-path="url(#clip0_2021_2476)">
<path d="M13.5221 5.96358C14.9586 5.96358 16.1263 4.79483 16.1263 3.35942C16.1263 1.924 14.9586 0.755249 13.5221 0.755249C12.0856 0.755249 10.9179 1.924 10.9179 3.35942C10.9179 4.79483 12.0867 5.96358 13.5221 5.96358ZM13.5221 1.79692C14.3836 1.79692 15.0846 2.49796 15.0846 3.35942C15.0846 4.22087 14.3836 4.92192 13.5221 4.92192C12.6606 4.92192 11.9596 4.22087 11.9596 3.35942C11.9596 2.49796 12.6606 1.79692 13.5221 1.79692ZM21.9919 13.8313L18.3471 12.0084C18.0909 11.8802 17.8752 11.6844 17.7221 11.4438L15.4815 7.89483C14.9867 7.32921 14.2731 7.00525 13.5221 7.00525H12.0388C10.8846 7.00525 9.7294 7.27817 8.6971 7.79379L6.50023 8.89275C5.80856 9.23858 5.3096 9.86775 5.13148 10.6198L4.16273 14.698C4.09606 14.9782 4.26898 15.2594 4.54919 15.325C4.58981 15.3344 4.63044 15.3396 4.67002 15.3396C4.90544 15.3396 5.11898 15.1782 5.17627 14.9396L6.14502 10.8615C6.25231 10.4105 6.55127 10.0334 6.9669 9.82504L9.16377 8.72608C9.53565 8.54067 9.92627 8.39171 10.3273 8.28129L8.91898 14.1365C8.64815 15.2584 9.1596 16.4417 10.1638 17.0125L14.2961 19.3594C14.7836 19.6365 15.0867 20.1573 15.0867 20.7188V25.2355C15.0867 25.523 15.32 25.7563 15.6075 25.7563C15.895 25.7563 16.1284 25.523 16.1284 25.2355V20.7188C16.1284 19.7844 15.6242 18.9167 14.8106 18.4542L13.2179 17.55L15.3325 9.60004L16.8429 12C17.0971 12.4032 17.4565 12.7282 17.8825 12.9417L21.5273 14.7646C21.7825 14.8927 22.0971 14.7896 22.2263 14.5313C22.3544 14.274 22.2502 13.9615 21.9929 13.8323L21.9919 13.8313ZM12.3242 17.0427L10.6773 16.1073C10.0742 15.7646 9.7669 15.0552 9.93044 14.3813L11.444 8.07608C11.6419 8.05733 11.8409 8.04796 12.0398 8.04796H13.5231C13.9356 8.04796 14.3294 8.2115 14.5836 8.449L12.3242 17.0427ZM10.2534 19.1636L9.73252 21.198L7.74398 25.4563C7.65544 25.6448 7.46794 25.7563 7.2721 25.7563C7.19815 25.7563 7.12315 25.7407 7.05127 25.7073C6.79085 25.5855 6.6794 25.275 6.80127 25.0146L8.75648 20.848L9.24398 18.9052C9.31481 18.6261 9.60023 18.4573 9.87731 18.5302C10.1565 18.6011 10.3242 18.8855 10.2523 19.1636H10.2534Z" fill="white"/>
</g>
<defs>
<clipPath id="clip0_2021_2476">
<rect width="25" height="25" fill="white" transform="translate(0.5 0.755249)"/>
</clipPath>
</defs>
</svg>
