<svg width="60" height="60" viewBox="0 0 60 60" fill="none" xmlns="http://www.w3.org/2000/svg">
<g clip-path="url(#clip0_0_139)">
<path d="M52.7275 11.5425L34.7125 1.25004C31.8075 -0.404961 28.195 -0.404961 25.2875 1.25004L7.27249 11.545C4.31999 13.2325 2.48749 16.39 2.48749 19.79V40.21C2.48749 43.6075 4.31999 46.7675 7.27249 48.455L25.2875 58.75C26.725 59.5675 28.335 59.98 29.945 59.99C29.9625 59.99 29.98 60 29.9975 60C30.015 60 30.0325 59.99 30.05 59.99C31.66 59.98 33.2725 59.57 34.7075 58.75L52.7225 48.455C55.675 46.7675 57.5075 43.61 57.5075 40.21V19.79C57.5075 16.3925 55.675 13.2325 52.7225 11.5425H52.7275ZM8.51249 13.715L26.5275 3.42254C28.665 2.19754 31.3325 2.19754 33.47 3.42254L51.485 13.7125C52.265 14.1575 52.89 14.7775 53.4325 15.46L29.9425 28.56L6.86249 15.075C7.34249 14.5525 7.87999 14.0775 8.51249 13.715ZM8.51249 46.285C6.33749 45.04 4.98749 42.71 4.98749 40.2075V19.79C4.98749 18.8825 5.21999 18.02 5.54999 17.2025L28.75 30.7575V57.335C27.98 57.195 27.2225 56.975 26.5275 56.5775L8.51249 46.285ZM55.0125 40.2075C55.0125 42.71 53.6625 45.04 51.4875 46.2825L33.4725 56.575C32.7775 56.9725 32.02 57.195 31.25 57.3325V30.69L54.6375 17.645C54.86 18.3325 55.0125 19.045 55.0125 19.785V40.2075Z" fill="white"/>
</g>
<defs>
<clipPath id="clip0_0_139">
<rect width="60" height="60" fill="white"/>
</clipPath>
</defs>
</svg>
