<svg width="60" height="60" viewBox="0 0 60 60" fill="none" xmlns="http://www.w3.org/2000/svg">
<g clip-path="url(#clip0_0_150)">
<path d="M52.5 45C51.11 45 49.8225 45.405 48.7025 46.0675L40.08 35.4825C41.5575 34.1125 42.4975 32.17 42.4975 30C42.4975 27.83 41.5525 25.88 40.07 24.51L48.62 13.8875C49.755 14.58 51.0725 15 52.4975 15C56.6325 15 59.9975 11.635 59.9975 7.5C59.9975 3.365 56.6325 0 52.4975 0C49.2425 0 46.4925 2.0975 45.4575 5H14.54C13.505 2.0975 10.755 0 7.5 0C3.365 0 0 3.365 0 7.5C0 10.755 2.0975 13.505 5 14.54V45.4625C2.0975 46.4975 0 49.2475 0 52.5025C0 56.6375 3.365 60.0025 7.5 60.0025C10.755 60.0025 13.505 57.905 14.54 55.0025H45.4625C46.4975 57.905 49.2475 60.0025 52.5025 60.0025C56.6375 60.0025 60.0025 56.6375 60.0025 52.5025C60.0025 48.3675 56.6375 45.0025 52.5025 45.0025L52.5 45ZM40 30C40 32.7575 37.7575 35 35 35C32.2425 35 30 32.7575 30 30C30 27.2425 32.2425 25 35 25C35.89 25 36.7125 25.2525 37.4375 25.6625L38.4725 26.495L38.51 26.4475C39.4275 27.355 39.9975 28.61 39.9975 30H40ZM52.5 2.5C55.2575 2.5 57.5 4.7425 57.5 7.5C57.5 10.2575 55.2575 12.5 52.5 12.5C49.7425 12.5 47.5 10.2575 47.5 7.5C47.5 4.7425 49.7425 2.5 52.5 2.5ZM2.5 7.5C2.5 4.7425 4.7425 2.5 7.5 2.5C10.2575 2.5 12.5 4.7425 12.5 7.5C12.5 10.2575 10.2575 12.5 7.5 12.5C4.7425 12.5 2.5 10.2575 2.5 7.5ZM7.5 57.5C4.7425 57.5 2.5 55.2575 2.5 52.5C2.5 49.7425 4.7425 47.5 7.5 47.5C10.2575 47.5 12.5 49.7425 12.5 52.5C12.5 55.2575 10.2575 57.5 7.5 57.5ZM15 52.5C15 48.365 11.635 45 7.5 45V15C11.635 15 15 11.635 15 7.5H45C45 9.3075 45.67 10.945 46.7375 12.2425L37.9775 23.125C37.0625 22.7275 36.0575 22.5025 35 22.5025C30.865 22.5025 27.5 25.8675 27.5 30.0025C27.5 34.1375 30.865 37.5025 35 37.5025C36.0625 37.5025 37.07 37.275 37.9875 36.8725L46.7975 47.6875C45.6925 48.995 45 50.66 45 52.5H15ZM52.5 57.5C49.7425 57.5 47.5 55.2575 47.5 52.5C47.5 49.7425 49.7425 47.5 52.5 47.5C55.2575 47.5 57.5 49.7425 57.5 52.5C57.5 55.2575 55.2575 57.5 52.5 57.5Z" fill="white"/>
</g>
<defs>
<clipPath id="clip0_0_150">
<rect width="60" height="60" fill="white"/>
</clipPath>
</defs>
</svg>
