<svg width="61" height="60" viewBox="0 0 61 60" fill="none" xmlns="http://www.w3.org/2000/svg">
<g clip-path="url(#clip0_0_162)">
<path d="M57.325 31.6999L46.975 25.7499C46.7 25.5999 46.425 25.4999 46.125 25.3999V11.4999C46.125 9.2999 44.9 7.2499 42.95 6.1249L33.825 0.874902C31.775 -0.300098 29.25 -0.300098 27.2 0.874902L18.05 6.1249C16.1 7.2499 14.875 9.2999 14.875 11.4999V25.4249C14.575 25.5249 14.3 25.6249 14.025 25.7749L3.675 31.6999C1.725 32.8249 0.5 34.8749 0.5 37.0749V48.4999C0.5 50.6999 1.725 52.7499 3.675 53.8749L12.825 59.1249C13.85 59.6999 15 59.9999 16.15 59.9999C17.3 59.9999 18.45 59.6999 19.475 59.1249L30.525 52.7749L41.575 59.1249C42.6 59.6999 43.75 59.9999 44.9 59.9999C46.05 59.9999 47.2 59.6999 48.225 59.1249L57.375 53.8749C59.325 52.7499 60.55 50.6999 60.55 48.4999V37.0749C60.55 34.8749 59.325 32.8249 57.375 31.6999H57.325ZM56.075 33.8749C56.275 33.9999 56.45 34.1499 56.625 34.2999L44.85 41.0499L32.975 34.2499L43.975 27.9249C44.5 27.6249 45.15 27.6249 45.7 27.9249L56.05 33.8749H56.075ZM17.45 10.8749L29.25 17.6499V32.0999L18.225 25.7749C17.95 25.6249 17.675 25.5249 17.375 25.4249V11.4999C17.375 11.2999 17.425 11.0749 17.45 10.8749ZM43.525 10.8749C43.575 11.0749 43.6 11.2749 43.6 11.4999V25.4249C43.3 25.5249 43.025 25.6249 42.75 25.7749L31.725 32.0999V17.6499L43.525 10.8749ZM28.425 3.0499C29.7 2.3249 31.275 2.3249 32.55 3.0499L41.7 8.2999C41.9 8.4249 42.075 8.5749 42.25 8.7249L30.475 15.4749L18.725 8.7249C18.9 8.5749 19.075 8.4249 19.275 8.2999L28.425 3.0499ZM15.275 27.9249C15.55 27.7749 15.825 27.6999 16.125 27.6999C16.425 27.6999 16.725 27.7749 16.975 27.9249L27.975 34.2499L16.1 41.0499L4.35 34.2999C4.525 34.1499 4.7 33.9999 4.9 33.8749L15.25 27.9249H15.275ZM4.9 51.6999C3.725 51.0249 3 49.7999 3 48.4999V37.0749C3 36.8749 3.05 36.6499 3.075 36.4499L14.875 43.2249V57.2999C14.6 57.1999 14.325 57.1249 14.05 56.9749L4.9 51.7249V51.6999ZM18.175 56.9499C17.925 57.0999 17.625 57.1999 17.35 57.2749V43.1999L29.225 36.3749V50.5749L18.175 56.9249V56.9499ZM31.725 50.5999V36.3999L43.6 43.2249V57.2999C43.325 57.1999 43.05 57.1249 42.775 56.9749L31.725 50.6249V50.5999ZM57.975 48.4999C57.975 49.7999 57.25 51.0249 56.075 51.6999L46.925 56.9499C46.675 57.0999 46.375 57.1999 46.1 57.2749V43.1999L57.9 36.4249C57.95 36.6249 57.975 36.8249 57.975 37.0499V48.4749V48.4999Z" fill="white"/>
</g>
<defs>
<clipPath id="clip0_0_162">
<rect width="60" height="60" fill="white" transform="translate(0.5)"/>
</clipPath>
</defs>
</svg>
