<svg width="30" height="30" viewBox="0 0 30 30" fill="none" xmlns="http://www.w3.org/2000/svg">
<g clip-path="url(#clip0_2125_437)">
<path d="M8.75716 30C6.43466 30 4.21591 29.0913 2.56216 27.4375C0.692163 25.5675 -0.225337 22.975 0.0471629 20.3263C0.408413 16.805 2.95341 13.7913 6.37966 12.83C8.00716 12.3737 9.64216 12.3875 11.2459 12.87L23.2009 0.915C23.7922 0.325 24.5759 0 25.4109 0H28.1259C29.1597 0 30.0009 0.84125 30.0009 1.875V4.58875C30.0009 5.42375 29.6759 6.20875 29.0859 6.79875L27.1347 8.75H23.7509V12.5H20.0009V15.8837L17.1309 18.7537C17.6134 20.3575 17.6259 21.9925 17.1697 23.62C16.2084 27.0462 13.1972 29.5912 9.67341 29.9537C9.36841 29.985 9.06216 30.0012 8.75841 30.0012L8.75716 30ZM8.75216 13.7487C8.07466 13.7487 7.39591 13.8438 6.71716 14.0338C3.78091 14.8575 1.59966 17.4388 1.28966 20.455C1.05591 22.7275 1.84216 24.95 3.44591 26.5537C5.04966 28.1575 7.27091 28.9438 9.54591 28.71C12.5622 28.4 15.1434 26.2188 15.9659 23.2825C16.3884 21.7775 16.3422 20.2662 15.8272 18.7875L15.6984 18.4175L18.7497 15.3663V11.25H22.4997V7.5H26.6159L28.2009 5.915C28.5547 5.56125 28.7497 5.09 28.7497 4.58875V1.875C28.7497 1.53 28.4684 1.25 28.1247 1.25H25.4097C24.9159 1.25 24.4334 1.45 24.0834 1.79875L11.5809 14.3L11.2109 14.1712C10.3997 13.8888 9.57716 13.7475 8.75091 13.7475L8.75216 13.7487ZM6.24966 22.5C6.24966 23.19 6.80966 23.75 7.49966 23.75C8.18966 23.75 8.74966 23.19 8.74966 22.5C8.74966 21.81 8.18966 21.25 7.49966 21.25C6.80966 21.25 6.24966 21.81 6.24966 22.5Z" fill="#F3AAEE"/>
</g>
<defs>
<clipPath id="clip0_2125_437">
<rect width="30" height="30" fill="white"/>
</clipPath>
</defs>
</svg>
