<svg width="24" height="25" viewBox="0 0 24 25" fill="none" xmlns="http://www.w3.org/2000/svg">
<g clip-path="url(#clip0_0_486)">
<path d="M7.99998 0.118408C4.69098 0.118408 1.99998 2.80941 1.99998 6.11841C1.99998 9.42741 4.69098 12.1184 7.99998 12.1184C11.309 12.1184 14 9.42741 14 6.11841C14 2.80941 11.309 0.118408 7.99998 0.118408ZM7.99998 11.1184C5.24298 11.1184 2.99998 8.87541 2.99998 6.11841C2.99998 3.36141 5.24298 1.11841 7.99998 1.11841C10.757 1.11841 13 3.36141 13 6.11841C13 8.87541 10.757 11.1184 7.99998 11.1184ZM11.964 15.3874C11.86 15.6424 11.568 15.7654 11.313 15.6634C10.419 15.3024 9.47298 15.1184 8.50098 15.1184C4.36498 15.1184 1.00098 18.4824 1.00098 22.6184V23.6184C1.00098 23.8944 0.776977 24.1184 0.500977 24.1184C0.224977 24.1184 0.000976562 23.8944 0.000976562 23.6184V22.6184C0.000976562 17.9314 3.81398 14.1184 8.50098 14.1184C9.60298 14.1184 10.675 14.3264 11.688 14.7364C11.944 14.8404 12.068 15.1314 11.964 15.3874ZM19 23.6184C19 23.8944 18.776 24.1184 18.5 24.1184H16.5C15.121 24.1184 14 22.9964 14 21.6184V15.6184C14 14.2404 15.121 13.1184 16.5 13.1184H18.5C18.776 13.1184 19 13.3424 19 13.6184C19 13.8944 18.776 14.1184 18.5 14.1184H16.5C15.673 14.1184 15 14.7914 15 15.6184V21.6184C15 22.4454 15.673 23.1184 16.5 23.1184H18.5C18.776 23.1184 19 23.3424 19 23.6184ZM23.996 18.6394C23.996 19.0414 23.83 19.4574 23.515 19.7314L20.831 22.0974C20.624 22.2794 20.308 22.2614 20.125 22.0534C19.942 21.8464 19.962 21.5304 20.169 21.3474L22.697 19.1184H17.5C17.224 19.1184 17 18.8944 17 18.6184C17 18.3424 17.224 18.1184 17.5 18.1184H22.562L20.169 16.0084C19.962 15.8254 19.942 15.5094 20.125 15.3024C20.308 15.0944 20.623 15.0754 20.831 15.2584L23.519 17.6284C23.815 17.8824 23.996 18.2474 23.996 18.6394Z" fill="white"/>
</g>
<defs>
<clipPath id="clip0_0_486">
<rect width="24" height="24" fill="white" transform="translate(0 0.118408)"/>
</clipPath>
</defs>
</svg>
