<svg width="31" height="30" viewBox="0 0 31 30" fill="none" xmlns="http://www.w3.org/2000/svg">
<g clip-path="url(#clip0_2125_384)">
<path d="M24.875 3.75H6.125C3.02375 3.75 0.5 6.27375 0.5 9.375V20.625C0.5 23.7262 3.02375 26.25 6.125 26.25H24.875C27.9762 26.25 30.5 23.7262 30.5 20.625V9.375C30.5 6.27375 27.9762 3.75 24.875 3.75ZM1.75 10H29.25V12.5H1.75V10ZM6.125 5H24.875C27.0725 5 28.88 6.635 29.1862 8.75H1.81375C2.12 6.635 3.9275 5 6.125 5ZM24.875 25H6.125C3.7125 25 1.75 23.0375 1.75 20.625V13.75H29.25V20.625C29.25 23.0375 27.2875 25 24.875 25ZM6.75 17.5C5.37125 17.5 4.25 18.6213 4.25 20C4.25 21.3787 5.37125 22.5 6.75 22.5C8.12875 22.5 9.25 21.3787 9.25 20C9.25 18.6213 8.12875 17.5 6.75 17.5ZM6.75 21.25C6.06125 21.25 5.5 20.69 5.5 20C5.5 19.31 6.06125 18.75 6.75 18.75C7.43875 18.75 8 19.31 8 20C8 20.69 7.43875 21.25 6.75 21.25Z" fill="#F3AAEE"/>
</g>
<defs>
<clipPath id="clip0_2125_384">
<rect width="30" height="30" fill="white" transform="translate(0.5)"/>
</clipPath>
</defs>
</svg>
