<svg width="30" height="30" viewBox="0 0 30 30" fill="none" xmlns="http://www.w3.org/2000/svg">
<g clip-path="url(#clip0_2125_13)">
<path d="M29.495 14.7838C29.0063 14.1275 28.2537 13.75 27.43 13.75H26.2512V9.375C26.2512 6.27375 23.7275 3.75 20.6262 3.75H13.0562C12.7662 3.75 12.4763 3.68125 12.2175 3.5525L8.27375 1.58C7.8425 1.365 7.36 1.25 6.87625 1.25H4.37625C1.9625 1.25 0 3.2125 0 5.625V23.125C0 26.2263 2.52375 28.75 5.625 28.75H22.5725C25.0763 28.75 27.2412 27.1388 27.9688 24.7138L29.89 17.0413C30.125 16.2588 29.98 15.4363 29.495 14.7838ZM1.25 23.125V5.625C1.25 3.9025 2.65125 2.5 4.375 2.5H6.875C7.165 2.5 7.455 2.56875 7.71375 2.6975L11.6575 4.67C12.0887 4.885 12.5712 5 13.055 5H20.625C23.0375 5 25 6.9625 25 9.375V13.75H10.1437C8.28125 13.75 6.62125 14.9225 6.005 16.6925L2.96375 26.5975C1.92125 25.7975 1.24875 24.5388 1.24875 23.1263L1.25 23.125ZM28.685 16.71L26.7637 24.3825C26.2037 26.2475 24.5187 27.5 22.5712 27.5H5.625C5.08125 27.5 4.56125 27.4 4.0825 27.2188L7.19375 17.08C7.6275 15.835 8.8125 14.9988 10.1437 14.9988H27.4288C27.8538 14.9988 28.24 15.1913 28.4925 15.5288C28.74 15.8613 28.8137 16.2825 28.685 16.7088V16.71Z" fill="#F3AAEE"/>
</g>
<defs>
<clipPath id="clip0_2125_13">
<rect width="30" height="30" fill="white"/>
</clipPath>
</defs>
</svg>
