<svg width="31" height="30" viewBox="0 0 31 30" fill="none" xmlns="http://www.w3.org/2000/svg">
<g clip-path="url(#clip0_2125_109)">
<path d="M13.875 16.25H12.625C12.28 16.25 12 16.53 12 16.875C12 17.22 12.28 17.5 12.625 17.5H13.875C14.22 17.5 14.5 17.22 14.5 16.875C14.5 16.53 14.22 16.25 13.875 16.25Z" fill="#F3AAEE"/>
<path d="M18.875 16.25H17.625C17.28 16.25 17 16.53 17 16.875C17 17.22 17.28 17.5 17.625 17.5H18.875C19.22 17.5 19.5 17.22 19.5 16.875C19.5 16.53 19.22 16.25 18.875 16.25Z" fill="#F3AAEE"/>
<path d="M23.875 16.25H22.625C22.28 16.25 22 16.53 22 16.875C22 17.22 22.28 17.5 22.625 17.5H23.875C24.22 17.5 24.5 17.22 24.5 16.875C24.5 16.53 24.22 16.25 23.875 16.25Z" fill="#F3AAEE"/>
<path d="M13.875 22.5H12.625C12.28 22.5 12 22.78 12 23.125C12 23.47 12.28 23.75 12.625 23.75H13.875C14.22 23.75 14.5 23.47 14.5 23.125C14.5 22.78 14.22 22.5 13.875 22.5Z" fill="#F3AAEE"/>
<path d="M8.875 16.25H7.625C7.28 16.25 7 16.53 7 16.875C7 17.22 7.28 17.5 7.625 17.5H8.875C9.22 17.5 9.5 17.22 9.5 16.875C9.5 16.53 9.22 16.25 8.875 16.25Z" fill="#F3AAEE"/>
<path d="M8.875 22.5H7.625C7.28 22.5 7 22.78 7 23.125C7 23.47 7.28 23.75 7.625 23.75H8.875C9.22 23.75 9.5 23.47 9.5 23.125C9.5 22.78 9.22 22.5 8.875 22.5Z" fill="#F3AAEE"/>
<path d="M18.875 22.5H17.625C17.28 22.5 17 22.78 17 23.125C17 23.47 17.28 23.75 17.625 23.75H18.875C19.22 23.75 19.5 23.47 19.5 23.125C19.5 22.78 19.22 22.5 18.875 22.5Z" fill="#F3AAEE"/>
<path d="M23.875 22.5H22.625C22.28 22.5 22 22.78 22 23.125C22 23.47 22.28 23.75 22.625 23.75H23.875C24.22 23.75 24.5 23.47 24.5 23.125C24.5 22.78 24.22 22.5 23.875 22.5Z" fill="#F3AAEE"/>
<path d="M25.125 2.5H23.25V0.625C23.25 0.28 22.97 0 22.625 0C22.28 0 22 0.28 22 0.625V2.5H9.5V0.625C9.5 0.28 9.22 0 8.875 0C8.53 0 8.25 0.28 8.25 0.625V2.5H6.375C3.27375 2.5 0.75 5.02375 0.75 8.125V24.375C0.75 27.4762 3.27375 30 6.375 30H25.125C28.2262 30 30.75 27.4762 30.75 24.375V8.125C30.75 5.02375 28.2262 2.5 25.125 2.5ZM6.375 3.75H25.125C27.5375 3.75 29.5 5.7125 29.5 8.125V10H2V8.125C2 5.7125 3.9625 3.75 6.375 3.75ZM25.125 28.75H6.375C3.9625 28.75 2 26.7875 2 24.375V11.25H29.5V24.375C29.5 26.7875 27.5375 28.75 25.125 28.75Z" fill="#F3AAEE"/>
</g>
<defs>
<clipPath id="clip0_2125_109">
<rect width="30" height="30" fill="white" transform="translate(0.75)"/>
</clipPath>
</defs>
</svg>
