<svg width="31" height="30" viewBox="0 0 31 30" fill="none" xmlns="http://www.w3.org/2000/svg">
<path d="M15.2538 14.7175C19.6287 14.6912 21.8875 12.43 21.9688 7.9725C21.8938 3.665 19.51 1.2775 15.2462 1.25C10.9312 1.27625 8.53125 3.8325 8.53125 7.9725C8.53125 12.3 10.9325 14.6912 15.2538 14.7175ZM15.2462 2.5C18.815 2.52375 20.6562 4.3725 20.7188 7.9725C20.65 11.7 18.9113 13.4462 15.2538 13.4675C11.5913 13.4462 9.8525 11.7038 9.78125 7.98375C9.85 4.31625 11.64 2.5225 15.2462 2.5Z" fill="#F3AAEE"/>
<path d="M15.2465 17.8672C8.67274 17.9084 5.13524 21.4509 5.01524 28.1134C5.00899 28.4584 5.28399 28.7434 5.62899 28.7497H5.64024C5.98024 28.7497 6.25899 28.4772 6.26524 28.1359C6.37274 22.1047 9.31274 19.1534 15.2452 19.1172C21.1065 19.1547 24.1315 22.1897 24.234 28.1359C24.2402 28.4809 24.5527 28.7672 24.8702 28.7497C25.2152 28.7434 25.4902 28.4597 25.484 28.1134C25.3702 21.5484 21.7377 17.9084 15.2465 17.8672Z" fill="#F3AAEE"/>
</svg>
