<svg width="29" height="10" viewBox="0 0 29 10" fill="none" xmlns="http://www.w3.org/2000/svg">
<path fill-rule="evenodd" clip-rule="evenodd" d="M7.17097 9.09575H4.68867L2.82723 1.9842C2.73889 1.65707 2.55131 1.36785 2.27535 1.23155C1.5867 0.888997 0.827832 0.616393 0 0.478895V0.205095H3.99881C4.55069 0.205095 4.96462 0.616392 5.03361 1.09405L5.99942 6.22393L8.48051 0.205095H10.8938L7.17097 9.09575ZM12.2736 9.09575H9.92925L11.8597 0.205095H14.2041L12.2736 9.09575ZM17.2371 2.66808C17.3059 2.18922 17.7198 1.91542 18.2028 1.91542C18.9616 1.84668 19.7884 1.98417 20.4782 2.32553L20.8921 0.411298C20.2021 0.137498 19.4433 0 18.7548 0C16.4793 0 14.8236 1.23152 14.8236 2.94068C14.8236 4.24093 15.9964 4.92366 16.8242 5.33493C17.7198 5.74504 18.0649 6.01884 17.9959 6.42896C17.9959 7.04411 17.3059 7.31791 16.6174 7.31791C15.7895 7.31791 14.9616 7.11286 14.2041 6.77031L13.7902 8.68565C14.6178 9.02707 15.5136 9.16466 16.3413 9.16466C18.8926 9.23223 20.4782 8.0017 20.4782 6.15516C20.4782 3.82963 17.2371 3.69333 17.2371 2.66808ZM28.6826 9.09575L26.8214 0.205095H24.8218C24.4079 0.205095 23.9941 0.478895 23.8561 0.888996L20.4092 9.09575H22.8225L23.3041 7.79676H26.2694L26.5452 9.09575H28.6826ZM25.1667 2.59928L25.8554 5.95006H23.9251L25.1667 2.59928Z" fill="white"/>
</svg>
