<svg width="130" height="124" viewBox="0 0 130 124" fill="none" xmlns="http://www.w3.org/2000/svg">
<path d="M64.5 48L83.1549 56.212L64.4997 71.1724L56.199 64.5517L48.3134 69.1034L64.4997 86.4828L87.0158 57.9116L88 58.3448L81.3594 86.4828L64.5 96L47.6406 86.4828L41 58.3448L64.5 48Z" fill="#FEBF1D"/>
<path d="M60.4812 13.8534L59.1634 10.7447L57.9665 13.9019L60.4812 13.8534Z" fill="#FEBF1D"/>
<path d="M35.9734 18.1393C36.3401 18.0694 36.6671 17.9405 36.9543 17.7527C37.2507 17.5631 37.4908 17.3273 37.6745 17.0452C37.8656 16.7522 37.993 16.4239 38.0567 16.0602C38.1295 15.6947 38.1266 15.3057 38.0479 14.8932C37.9675 14.4714 37.827 14.1086 37.6265 13.8048C37.4335 13.4901 37.195 13.2363 36.9112 13.0434C36.6348 12.8395 36.3239 12.7041 35.9785 12.6369C35.6423 12.568 35.2909 12.5685 34.9241 12.6385C34.5574 12.7084 34.2259 12.8382 33.9295 13.0277C33.6422 13.2156 33.403 13.456 33.2119 13.749C33.0281 14.031 32.8999 14.3548 32.827 14.7203C32.7616 15.0748 32.7692 15.4629 32.8496 15.8847C32.9283 16.2972 33.0642 16.6609 33.2572 16.9756C33.4594 17.2886 33.6988 17.547 33.9752 17.7508C34.259 17.9437 34.569 18.0746 34.9052 18.1435C35.2506 18.2107 35.6066 18.2093 35.9734 18.1393Z" fill="#FEBF1D"/>
<path fill-rule="evenodd" clip-rule="evenodd" d="M15.9639 23.7133L12.4258 10.0325C28.6075 3.56017 46.2686 0.000119455 64.7613 0C83.2543 0 100.917 3.56006 117.099 10.0325L113.56 23.7135C119.09 26.0169 124.422 28.6998 129.523 31.73L121.708 42.1094L121.893 56.4888C118.84 54.421 115.669 52.5144 112.393 50.7809V103L64.7613 124L17.1299 103V50.7814C13.8537 52.5147 10.6832 54.4212 7.63077 56.4888L7.81538 42.1094L0 31.73C5.10181 28.6997 10.434 26.0167 15.9639 23.7133ZM27.0536 32.3249L30.3078 44.9656C27.1747 46.0898 24.1125 47.363 21.1299 48.7766V100.392L64.7613 119.628L108.393 100.392V48.7762C105.41 47.3627 102.348 46.0897 99.2156 44.9656L102.47 32.3246C90.6573 28.2265 77.9697 26 64.7622 26C51.5543 26 38.8665 28.2266 27.0536 32.3249ZM53.6311 17.9343L57.7672 8.05268L60.4967 8L65.025 17.7144L62.1415 17.7701L61.3408 15.8812L57.1858 15.9614L56.4586 17.8798L53.6311 17.9343ZM44.2329 17.902C45.1229 18.6066 46.2873 18.8838 47.7262 18.7335C49.165 18.5832 50.247 18.0713 50.9722 17.1979C51.6973 16.3245 51.9843 15.1637 51.833 13.7156L51.2686 8.31302L48.5534 8.59668L49.1091 13.9157C49.1963 14.7512 49.0964 15.3669 48.8094 15.7629C48.5223 16.1588 48.091 16.3869 47.5154 16.447C46.9399 16.5071 46.4661 16.3737 46.0941 16.0465C45.7314 15.7184 45.5064 15.1367 45.4191 14.3012L44.8634 8.98217L42.1064 9.2702L42.6709 14.6728C42.8222 16.1209 43.3428 17.1973 44.2329 17.902ZM35.3427 20.5122C34.9521 20.5228 34.5715 20.4954 34.2011 20.4299C33.503 20.3065 32.8681 20.0666 32.2965 19.71C31.7324 19.3426 31.2596 18.8816 30.8783 18.3272C30.4971 17.7729 30.2373 17.1335 30.0992 16.4093C29.961 15.685 29.9672 14.9949 30.1177 14.3391C30.2681 13.6833 30.5389 13.0854 30.9299 12.5452C31.3284 11.9941 31.8295 11.5327 32.4332 11.161C33.0369 10.7893 33.7239 10.53 34.494 10.3831C35.2733 10.2345 36.0074 10.2228 36.6964 10.3479C37.3945 10.4713 38.0248 10.7121 38.5872 11.0704C39.1496 11.4287 39.6224 11.8896 40.0054 12.4532C40.3959 13.0058 40.6602 13.6443 40.7983 14.3685C40.9365 15.0928 40.9266 15.7883 40.7687 16.455C40.6182 17.1108 40.3475 17.7088 39.9564 18.249C39.5654 18.7892 39.068 19.2451 38.4643 19.6168L38.4184 19.645L38.4283 19.6522C38.6484 19.8097 38.8534 19.9131 39.0433 19.9624C39.2424 20.01 39.4428 20.0145 39.6445 19.976C40.1762 19.8746 40.6193 19.5573 40.9737 19.0241L42.4239 20.2013C41.9085 21.1357 41.087 21.7105 39.9593 21.9256C39.5468 22.0043 39.153 22.0319 38.7779 22.0084C38.4046 21.9941 38.0254 21.9239 37.6403 21.7978C37.2644 21.67 36.857 21.4769 36.4181 21.2185C36.0942 21.0224 35.7357 20.787 35.3427 20.5122ZM67.2998 8.05519L66.7329 17.8388L74.1685 18.2696L74.2956 16.0753L69.6274 15.8048L70.0672 8.21553L67.2998 8.05519ZM75.493 18.4484L76.5488 8.70545L79.3046 9.00408L78.2489 18.747L75.493 18.4484ZM83.4729 11.7775L82.2779 19.285L85.0154 19.7207L86.2105 12.2132L89.1692 12.6842L89.4799 10.7324L91.6566 17.3791L90.8712 20.8453L93.5747 21.4579L94.3505 18.0341L99.3995 12.7293L96.778 12.1353L93.6471 15.4132L92.2449 11.1082L89.3912 10.4616L89.4024 10.4956L80.8459 9.13364L80.5004 11.3043L83.4729 11.7775Z" fill="#FEBF1D"/>
</svg>
