<svg width="130" height="124" viewBox="0 0 130 124" fill="none" xmlns="http://www.w3.org/2000/svg">
<path d="M64.5 48L83.155 56.2119L64.4997 71.1724L56.199 64.5518L48.3134 69.1035L64.4997 86.4827L87.0158 57.9116L88 58.3447L81.3594 86.4827L64.5 96L47.6406 86.4827L41 58.3447L64.5 48Z" fill="#FEBF1D"/>
<path d="M79.5759 14.2969L79.9618 11.4529L81.4878 11.6599C82.0612 11.7375 82.4697 11.9202 82.7133 12.2075C82.8431 12.3557 82.9315 12.5256 82.9784 12.717C83.0229 12.8987 83.0302 13.0999 83.0003 13.3203C82.9401 13.7642 82.7497 14.0916 82.4291 14.3025C82.1177 14.5144 81.6754 14.5815 81.102 14.5039L79.5759 14.2969Z" fill="#FEBF1D"/>
<path fill-rule="evenodd" clip-rule="evenodd" d="M117.099 10.0325C100.917 3.56006 83.2552 0 64.7622 0C46.2696 0 28.6075 3.56006 12.4258 10.0325L15.9639 23.7134C10.434 26.0166 5.10181 28.6997 0 31.73L7.81537 42.1094L7.63074 56.4888C10.6832 54.4211 13.8537 52.5146 17.1299 50.7815V103L64.7613 124L112.393 103V50.781C115.669 52.5144 118.84 54.4211 121.893 56.4888L121.708 42.1094L129.523 31.73C124.422 28.7 119.09 26.0168 113.56 23.7136L117.099 10.0325ZM21.1299 48.7766C24.1125 47.363 27.1747 46.0898 30.3078 44.9656L27.0536 32.325C38.8665 28.2266 51.5543 26 64.7622 26C77.9697 26 90.6572 28.2266 102.47 32.3247L99.2156 44.9656C102.348 46.0896 105.41 47.3628 108.393 48.7761V100.392L64.7613 119.628L21.1299 100.392V48.7766ZM56.1238 17.8936C56.7936 18.1155 57.5157 18.2146 58.29 18.1907C59.1949 18.1628 59.9969 17.9792 60.6962 17.6401C61.4044 17.2915 61.9873 16.8159 62.4449 16.2136L60.6325 14.6729C60.3268 15.0557 59.9858 15.3511 59.6094 15.5588C59.2423 15.7661 58.8255 15.8772 58.3591 15.8916C57.9579 15.9038 57.5874 15.8501 57.2476 15.7297C56.9077 15.6096 56.6127 15.4319 56.3627 15.1968C56.1216 14.9521 55.9258 14.6594 55.7753 14.3186C55.6942 14.1228 55.6342 13.9138 55.5953 13.6919C55.5815 13.6128 55.5704 13.5322 55.5619 13.4497C55.5528 13.3608 55.5468 13.27 55.5439 13.1772C55.5363 12.9304 55.5516 12.6958 55.59 12.4736C55.6168 12.3176 55.655 12.1677 55.7044 12.0237C55.8337 11.6741 56.0112 11.3745 56.2369 11.1248C56.4717 10.8655 56.7549 10.6653 57.0867 10.5242C57.4186 10.3833 57.785 10.3066 58.1862 10.2942C58.6526 10.2798 59.0754 10.3647 59.4547 10.5491C59.8432 10.7332 60.2018 11.0071 60.5305 11.3704L62.2444 9.7207C61.7502 9.13818 61.139 8.69971 60.4109 8.40454C59.6921 8.10938 58.8802 7.97559 57.9753 8.00366C57.201 8.02759 56.4866 8.17578 55.832 8.448C55.1865 8.71069 54.6283 9.07812 54.1573 9.55029C53.6956 10.022 53.3392 10.5747 53.088 11.208C52.8364 11.832 52.7222 12.5173 52.7452 13.2637C52.7683 14.01 52.9247 14.6914 53.2146 15.3081C53.5042 15.9155 53.8939 16.4404 54.3838 16.8828C54.883 17.325 55.463 17.6619 56.1238 17.8936ZM46.3654 16.6616L46.1793 14.8794L50.5096 14.427L50.2944 12.3662L45.9639 12.8186L45.7923 11.1755L50.7075 10.6621L50.485 8.53174L42.8406 9.33032L43.8589 19.0771L51.6843 18.2598L51.4617 16.1292L46.3654 16.6616ZM38.1577 20.2C37.3671 20.3381 36.5871 20.375 35.8178 20.3108C35.0562 20.2356 34.4181 20.0818 33.9037 19.8496L34.4479 17.6794C34.9283 17.8796 35.465 18.0227 36.0579 18.1084C36.6585 18.1833 37.2392 18.1719 37.8 18.0737C38.1769 18.0078 38.4747 17.9226 38.6933 17.8179C38.9103 17.7041 39.0597 17.5833 39.1415 17.4553C39.231 17.3164 39.262 17.1689 39.2346 17.0127C39.196 16.792 39.0643 16.635 38.8396 16.5417C38.6148 16.4482 38.3343 16.3884 37.998 16.3621C37.6617 16.3354 37.2888 16.3154 36.8789 16.302C36.4783 16.2866 36.0691 16.2493 35.6512 16.1897C35.3622 16.1465 35.0861 16.082 34.8228 15.9963C34.7138 15.9609 34.6071 15.9219 34.5025 15.8792C34.1437 15.7239 33.8343 15.4985 33.5742 15.2029C33.3124 14.8982 33.1365 14.4883 33.0464 13.9734C32.9451 13.3943 33.0097 12.8428 33.2403 12.3193C33.48 11.7942 33.8922 11.3335 34.4767 10.9375C35.0612 10.5417 35.8269 10.2607 36.7739 10.0952C37.4083 9.98413 38.0417 9.94922 38.6742 9.99023C38.7568 9.99414 38.8384 9.99927 38.919 10.0059C38.9882 10.0115 39.0566 10.0181 39.1244 10.0256C39.3081 10.0461 39.4867 10.0742 39.6602 10.1096C39.9269 10.1638 40.1814 10.2351 40.4238 10.3237L39.9373 12.498C39.4341 12.3303 38.9469 12.2258 38.4755 12.1853C38.0024 12.1353 37.5545 12.1475 37.1316 12.2214C36.7546 12.2874 36.4585 12.3818 36.2431 12.5046C36.0261 12.6184 35.8784 12.7485 35.7997 12.895C35.7211 13.0413 35.6963 13.1973 35.7252 13.3628C35.7622 13.5742 35.8885 13.7273 36.1041 13.8223C36.3273 13.9065 36.607 13.9617 36.9432 13.9883L37.4346 14.0095L38.0599 14.0344C38.1785 14.0383 38.2971 14.0442 38.4156 14.0522C38.7065 14.0718 38.9972 14.1033 39.2876 14.1467C39.4174 14.1624 39.5443 14.1831 39.6685 14.209C39.7808 14.2324 39.8909 14.26 39.9987 14.2917C40.1539 14.3374 40.3044 14.3918 40.4501 14.4548C40.8073 14.6008 41.1121 14.8271 41.3647 15.1335C41.6249 15.4292 41.7991 15.8296 41.8876 16.3354C41.9857 16.8962 41.9157 17.4438 41.6776 17.978C41.447 18.5017 41.0394 18.9614 40.4549 19.3574C39.8796 19.7517 39.1138 20.0327 38.1577 20.2ZM69.3297 18.3474C67.8851 18.2693 66.7789 17.8123 66.0109 16.9761C65.2429 16.1401 64.8983 14.9951 64.9769 13.5413L65.2701 8.11719L68.0381 8.26685L67.7493 13.6072C67.704 14.4458 67.8346 15.0559 68.1411 15.437C68.457 15.8186 68.9038 16.0249 69.4816 16.0562C70.0594 16.0874 70.5213 15.9302 70.8671 15.5842C71.213 15.2385 71.4086 14.6462 71.4539 13.8074L71.7427 8.46729L74.4688 8.61475L74.1754 14.0388C74.0968 15.4927 73.6307 16.5938 72.777 17.342C71.9233 18.0903 70.7743 18.4255 69.3297 18.3474ZM77.5085 8.91602L76.1911 18.627L78.9379 18.9998L79.288 16.4194L80.7874 16.6228L82.1981 19.4419L85.1392 19.8411L83.4577 16.5029C84.0836 16.2998 84.5943 15.9741 84.9899 15.5256C85.4141 15.0371 85.6758 14.4272 85.7749 13.6968C85.8752 12.9568 85.7861 12.2947 85.5074 11.7107C85.23 11.1174 84.787 10.6333 84.1785 10.2588C83.5793 9.8855 82.8358 9.63867 81.9479 9.51831L77.5085 8.91602ZM89.5235 18.5625L89.8928 16.8088L94.1533 17.7063L94.5803 15.6787L90.3198 14.7815L90.6603 13.1648L95.4962 14.1833L95.9376 12.0874L88.4166 10.5034L86.397 20.093L94.0961 21.7144L94.5375 19.6184L89.5235 18.5625Z" fill="#FEBF1D"/>
</svg>
