<svg width="130" height="124" viewBox="0 0 130 124" fill="none" xmlns="http://www.w3.org/2000/svg">
<path d="M64.5 48L83.1549 56.212L64.4997 71.1724L56.199 64.5517L48.3134 69.1034L64.4997 86.4828L87.0158 57.9116L88 58.3448L81.3594 86.4828L64.5 96L47.6406 86.4828L41 58.3448L64.5 48Z" fill="#FEBF1D"/>
<path d="M46.1083 11.7003L47.6961 14.6801L45.1956 14.951L46.1083 11.7003Z" fill="#FEBF1D"/>
<path d="M85.8533 12.3159L85.3479 15.1411L86.8639 15.4122C87.4335 15.5141 87.8783 15.4657 88.1983 15.2669C88.5275 15.0698 88.7315 14.7507 88.8104 14.3097C88.8909 13.8595 88.811 13.4849 88.5705 13.1859C88.3393 12.8886 87.9388 12.6889 87.3692 12.5871L85.8533 12.3159Z" fill="#FEBF1D"/>
<path fill-rule="evenodd" clip-rule="evenodd" d="M15.9639 23.7133L12.4258 10.0325C28.6075 3.56017 46.2686 0.000119455 64.7613 0C83.2543 0 100.917 3.56006 117.099 10.0325L113.56 23.7135C119.09 26.0169 124.422 28.6998 129.523 31.73L121.708 42.1094L121.893 56.4888C118.84 54.421 115.669 52.5144 112.393 50.7809V103L64.7613 124L17.1299 103V50.7814C13.8537 52.5147 10.6832 54.4212 7.63077 56.4888L7.81538 42.1094L0 31.73C5.10181 28.6997 10.434 26.0167 15.9639 23.7133ZM27.0536 32.3249L30.3078 44.9656C27.1747 46.0898 24.1125 47.363 21.1299 48.7766V100.392L64.7613 119.628L108.393 100.392V48.7762C105.41 47.3627 102.348 46.0897 99.2156 44.9656L102.47 32.3246C90.6573 28.2265 77.9697 26 64.7622 26C51.5543 26 38.8665 28.2266 27.0536 32.3249ZM57.3764 18.2028C56.5741 18.2275 55.7968 18.1535 55.0444 17.9806C54.3011 17.7982 53.6913 17.5556 53.2151 17.2528L54.0615 15.1817C54.5087 15.448 55.0196 15.6656 55.5944 15.8346C56.1783 15.994 56.7548 16.0649 57.3238 16.0474C57.7063 16.0355 58.0132 15.9934 58.2444 15.9209C58.4753 15.839 58.6403 15.7406 58.7395 15.6255C58.8477 15.5007 58.8993 15.3591 58.8944 15.2005C58.8875 14.9766 58.7794 14.8025 58.5702 14.6782C58.3609 14.554 58.0917 14.4549 57.7626 14.381C57.4335 14.3071 57.0671 14.2344 56.6633 14.1628C56.2689 14.091 55.8691 13.996 55.464 13.8777C55.0681 13.7592 54.7038 13.6024 54.3709 13.4073C54.0378 13.2028 53.7634 12.9358 53.5478 12.6063C53.3319 12.2675 53.2159 11.8368 53.1997 11.3144C53.1816 10.7267 53.3238 10.1901 53.6263 9.70448C53.9381 9.21863 54.4114 8.82116 55.0461 8.51208C55.6809 8.203 56.4787 8.03363 57.4396 8.00395C58.0833 7.98407 58.7153 8.03925 59.3356 8.1695C59.9649 8.29012 60.5265 8.48288 61.0202 8.74776L60.2302 10.8311C59.756 10.5937 59.2884 10.4214 58.8276 10.3142C58.3664 10.1977 57.9213 10.1461 57.4921 10.1594C57.1097 10.1712 56.8031 10.2227 56.5725 10.3138C56.3415 10.3957 56.1768 10.5035 56.0782 10.6372C55.9796 10.771 55.9329 10.9219 55.9381 11.0898C55.9447 11.3043 56.048 11.4739 56.248 11.5984C56.457 11.7134 56.726 11.8078 57.0551 11.8817C57.3932 11.9459 57.7595 12.014 58.1539 12.0858C58.5577 12.1574 58.9575 12.2524 59.3533 12.371C59.7582 12.4798 60.1272 12.6365 60.4603 12.841C60.7932 13.0361 61.0629 13.3033 61.2695 13.6424C61.4851 13.9719 61.6008 14.3932 61.6166 14.9063C61.6342 15.4753 61.4872 16.0075 61.1757 16.5027C60.8732 16.9882 60.4046 17.3856 59.7698 17.6946C59.1444 18.0034 58.3466 18.1728 57.3764 18.2028ZM44.4792 9.1424L41.2342 19.3514L44.0457 19.0468L44.6003 17.0715L48.7318 16.6238L49.6966 18.4344L52.5639 18.1237L47.1933 8.8483L44.4792 9.1424ZM27 12.1816L28.9463 21.7864L31.4573 21.2776L30.4535 16.3241L33.7215 19.8331L34.929 19.5884L36.5613 14.938L37.6181 20.0291L40.1153 19.5231L38.1415 9.92388L35.905 10.3771L33.7419 16.5926L29.2365 11.7284L27 12.1816ZM66.052 10.3912L65.7587 17.9875L68.5287 18.0944L68.822 10.4981L71.8157 10.6137L71.9006 8.41734L63.1291 8.07866L63.0443 10.275L66.052 10.3912ZM75.3616 16.4484L75.5478 14.6661L79.8782 15.1185L80.0935 13.0577L75.7631 12.6053L75.9347 10.9623L80.85 11.4758L81.0726 9.34538L73.4282 8.54675L72.4099 18.2937L80.2353 19.1112L80.4579 16.9808L75.3616 16.4484ZM83.5091 9.67793L81.7836 19.3248L84.5123 19.8129L84.9708 17.2496L86.4603 17.516L87.7509 20.3922L90.6725 20.9148L89.1332 17.5088C89.7671 17.3324 90.2911 17.0285 90.7052 16.5971C91.1497 16.1267 91.4368 15.5286 91.5666 14.8027C91.6981 14.0677 91.6369 13.4026 91.3831 12.8073C91.131 12.2027 90.7088 11.7006 90.1166 11.3007C89.5336 10.9025 88.8011 10.6245 87.9191 10.4668L83.5091 9.67793ZM95.9102 22.441C95.1331 22.2399 94.4077 21.9509 93.734 21.5741C93.0716 21.1906 92.5543 20.7867 92.182 20.3626L93.5751 18.6118C93.9297 18.9928 94.3591 19.345 94.8635 19.6683C95.3793 19.985 95.9128 20.2146 96.464 20.3573C96.8344 20.4532 97.1408 20.4987 97.383 20.4939C97.6276 20.4801 97.8137 20.4318 97.9411 20.3491C98.0799 20.2597 98.1692 20.1382 98.209 19.9846C98.2651 19.7678 98.2102 19.5704 98.0441 19.3924C97.8781 19.2145 97.6474 19.0439 97.3522 18.8807C97.057 18.7176 96.7257 18.5451 96.3582 18.3632C95.9998 18.1836 95.6426 17.9803 95.2868 17.7533C94.9401 17.5286 94.6343 17.2759 94.3695 16.9953C94.107 16.7056 93.9185 16.3724 93.8039 15.9957C93.6917 15.6099 93.701 15.164 93.832 14.658C93.9793 14.0888 94.2662 13.6135 94.6927 13.2322C95.1282 12.8532 95.6939 12.6044 96.3899 12.4856C97.0858 12.3669 97.8991 12.4279 98.8298 12.6688C99.4532 12.8302 100.044 13.0603 100.603 13.3592C101.174 13.6514 101.659 13.9939 102.058 14.3865L100.716 16.1649C100.327 15.804 99.9269 15.5076 99.5145 15.2755C99.1045 15.0344 98.6917 14.8601 98.276 14.7525C97.9056 14.6566 97.5969 14.6201 97.3499 14.643C97.1053 14.6568 96.917 14.7141 96.7849 14.8149C96.6527 14.9157 96.5656 15.0474 96.5235 15.21C96.4697 15.4178 96.5213 15.6096 96.6784 15.7852C96.8467 15.9541 97.0785 16.1201 97.3737 16.2833C97.6803 16.4397 98.0128 16.6078 98.3713 16.7873C98.7387 16.9692 99.0959 17.1725 99.4426 17.3972C99.8008 17.6152 100.111 17.869 100.374 18.1587C100.638 18.4393 100.822 18.7714 100.926 19.1548C101.04 19.5315 101.033 19.9684 100.905 20.4653C100.762 21.0165 100.472 21.4861 100.034 21.8741C99.6073 22.2554 99.0461 22.5054 98.3501 22.6242C97.6632 22.7453 96.8499 22.6842 95.9102 22.441Z" fill="#FEBF1D"/>
</svg>
