<svg width="52" height="32" viewBox="0 0 52 32" fill="none" xmlns="http://www.w3.org/2000/svg">
<path d="M24.7893 2.66446C24.3345 3.03609 23.8971 3.43236 23.4791 3.85238C20.2589 7.08821 18.4544 11.4696 18.4618 16.0347C18.4692 20.5998 20.2879 24.9754 23.5185 28.2007C23.9246 28.6061 24.3488 28.9892 24.7892 29.3492C22.1939 31.0698 19.1317 32.0068 15.9732 32.0068C11.7413 32.0068 7.68237 30.3247 4.68757 27.3297C1.69277 24.3347 0.00686863 20.2717 2.09413e-05 16.0327C-0.00682675 11.7937 1.66594 7.72523 4.65105 4.72055C7.63616 1.71587 11.6896 0.0205544 15.9215 0.00683594H16.0248C19.1659 0.0170183 22.2087 0.953628 24.7893 2.66446Z" fill="#5E6D7B"/>
<path d="M26.9034 29.3492C27.3438 28.9892 27.768 28.6062 28.1741 28.2007C31.4047 24.9754 33.2234 20.5998 33.2308 16.0347C33.2382 11.4696 31.4337 7.08821 28.2135 3.85239C27.7955 3.43235 27.3581 3.03608 26.9033 2.66444C29.4839 0.953619 32.5267 0.0170183 35.6677 0.00683594H35.7711C40.0029 0.0205544 44.0564 1.71587 47.0415 4.72055C50.0266 7.72523 51.6994 11.7937 51.6925 16.0327C51.6857 20.2717 49.9998 24.3347 47.005 27.3297C44.0102 30.3247 39.9512 32.0068 35.7194 32.0068C32.5609 32.0068 29.4987 31.0698 26.9034 29.3492Z" fill="#5E6D7B"/>
<path d="M25.8476 3.4248C23.9449 4.92189 22.4065 6.8324 21.3487 9.0121C20.2909 11.1918 19.7412 13.5838 19.7412 16.0074C19.7412 18.431 20.2909 20.8229 21.3487 23.0026C22.4065 25.1823 23.9449 27.0928 25.8476 28.5899C27.7504 27.0928 29.2887 25.1823 30.3465 23.0026C31.4044 20.8229 31.954 18.431 31.954 16.0074C31.954 13.5838 31.4044 11.1918 30.3465 9.0121C29.2887 6.8324 27.7504 4.92189 25.8476 3.4248Z" fill="#5E6D7B"/>
</svg>
