<svg width="77" height="32" viewBox="0 0 77 32" fill="none" xmlns="http://www.w3.org/2000/svg">
<g clip-path="url(#clip0_50_3007)">
<path d="M14.104 4.11724C13.203 5.19402 11.761 6.04361 10.3191 5.92213C10.1389 4.46621 10.8447 2.91899 11.6709 1.96339C12.5719 0.856277 14.1491 0.0674994 15.4257 0.00683594C15.5759 1.52358 14.9901 3.00998 14.104 4.11724ZM15.4107 6.21044C13.323 6.08911 11.5357 7.40854 10.5444 7.40854C9.53821 7.40854 8.02113 6.2711 6.36904 6.30143C4.22136 6.33176 2.22372 7.5602 1.12728 9.5169C-1.12567 13.4302 0.541589 19.2243 2.7193 22.4094C3.7857 23.9868 5.06235 25.7159 6.74448 25.6552C8.33665 25.5946 8.96739 24.6088 10.89 24.6088C12.8274 24.6088 13.3832 25.6552 15.0653 25.6249C16.8075 25.5946 17.9039 24.0476 18.9703 22.4701C20.1868 20.6804 20.6825 18.936 20.7125 18.845C20.6825 18.8146 17.3483 17.5255 17.3183 13.6425C17.2882 10.3967 19.9466 8.8496 20.0668 8.75861C18.5647 6.51375 16.2218 6.2711 15.4107 6.21044ZM27.4714 1.81173V25.4582H31.106V17.3739H36.1375C40.7333 17.3739 43.9626 14.1888 43.9626 9.57772C43.9626 4.96684 40.7934 1.81188 36.2576 1.81188H27.4712L27.4714 1.81173ZM31.106 4.90602H35.2963C38.4505 4.90602 40.2528 6.60475 40.2528 9.59273C40.2528 12.5807 38.4505 14.2948 35.2813 14.2948H31.106V4.90602ZM50.6011 25.64C52.8841 25.64 55.0017 24.4723 55.963 22.6217H56.0381V25.4581H59.4025V13.688C59.4025 10.2753 56.699 8.07599 52.5385 8.07599C48.6786 8.07599 45.8249 10.3057 45.7198 13.3695H48.9941C49.2644 11.9134 50.601 10.9578 52.4334 10.9578C54.6563 10.9578 55.903 12.0044 55.903 13.9308V15.235L51.367 15.508C47.1466 15.7658 44.8638 17.5102 44.8638 20.5439C44.8638 23.6077 47.2217 25.64 50.6011 25.64ZM51.5773 22.8341C49.64 22.8341 48.4082 21.8938 48.4082 20.4527C48.4082 18.9665 49.5948 18.1018 51.8628 17.9654L55.903 17.7075V19.0421C55.903 21.2567 54.0406 22.8341 51.5774 22.8341H51.5773ZM63.8932 31.8891C67.4379 31.8891 69.105 30.5242 70.5618 26.3833L76.9451 8.30348H73.2503L68.9698 22.2728H68.8947L64.6142 8.30348H60.8143L66.9722 25.5187L66.6418 26.5653C66.0861 28.3399 65.1849 29.0225 63.5779 29.0225C63.2925 29.0225 62.7369 28.9922 62.5115 28.9618V31.7982C62.7217 31.8588 63.6228 31.8891 63.8932 31.8891Z" fill="#5E6D7B"/>
</g>
<defs>
<clipPath id="clip0_50_3007">
<rect width="77" height="32" fill="white" transform="translate(0 0.00683594)"/>
</clipPath>
</defs>
</svg>
