<svg width="95" height="32" viewBox="0 0 95 32" fill="none" xmlns="http://www.w3.org/2000/svg">
<path fill-rule="evenodd" clip-rule="evenodd" d="M10.6209 14.97C10.8913 15.0802 11.1367 15.2204 11.3069 15.4007C11.4371 15.5359 11.5373 15.6761 11.6224 15.8313C11.8628 16.272 11.9078 16.7327 11.9028 17.0381C11.9028 17.2585 11.8728 17.3987 11.8728 17.3987C11.8728 17.3987 11.8578 17.5189 11.8327 17.7091C11.7726 18.1448 11.6575 18.966 11.5423 19.652C11.4371 20.273 11.3119 20.7837 11.3119 20.7837C11.3119 20.7837 11.0065 22.1608 9.86476 22.7667C8.72305 23.3726 7.11064 23.3075 7.11064 23.3075L2.97445 23.2875L2.13319 28.3951H0L2.28342 14.6045H4.83223H8.25736C8.25736 14.6045 8.4176 14.6045 8.66797 14.6145C8.93838 14.6245 9.31895 14.6546 9.70953 14.7247C10.02 14.7798 10.3355 14.8599 10.6209 14.97ZM9.2238 20.278C9.47418 18.966 9.66446 17.8594 9.66446 17.8343C9.66446 17.8318 9.66545 17.8245 9.66699 17.8131C9.67467 17.7561 9.69615 17.597 9.67949 17.4137C9.66446 17.2635 9.6244 17.0932 9.51924 16.963C9.43912 16.8629 9.18875 16.7978 8.87328 16.7577C8.50773 16.7076 8.06207 16.6926 7.72656 16.6876C7.43112 16.6826 7.22081 16.6876 7.22081 16.6876L4.09112 16.6776L3.32998 21.2594L6.78515 21.2695C6.78515 21.2695 7.57133 21.2995 8.30242 21.1443C8.74308 21.0491 9.12866 20.7787 9.2238 20.278ZM27.7065 18.4402L19.8748 18.4502L19.5593 20.3932H24.5718L18.2924 26.4072L17.9519 28.3951L26.049 28.3901L26.3695 26.4672L20.8713 26.4773L27.4211 20.2229L27.7065 18.4402ZM38.3274 14.6045H40.3804L38.082 28.3951L36.0239 28.3901L38.3274 14.6045ZM51.2517 18.4452L49.2838 18.4502L50.2853 28.3951L52.6688 28.3851L55.7284 21.4247L56.4295 28.3851H58.8531L63.1896 18.4452H61.1465L58.122 25.4708L57.4059 18.4402L54.9773 18.4352L51.9478 25.4457L51.2517 18.4452ZM32.1181 18.315C32.9643 18.305 33.9608 18.3451 34.5367 18.5304C36.2493 19.0912 36.4846 20.5183 36.1541 22.3911L35.8687 24.0436L29.1837 24.0636C29.1837 24.0636 29.0535 24.3691 28.9984 25.5409C28.9934 25.5709 28.9934 25.5909 28.9934 25.606C28.9002 26.5651 29.9585 26.5847 30.2848 26.5909C30.3094 26.5913 30.33 26.5917 30.3454 26.5924L30.4128 26.5959C30.6815 26.6098 31.2861 26.6412 32.3334 26.5223C33.4851 26.3921 33.6003 24.985 33.6003 24.985L35.7285 24.98L35.5983 25.5158L35.595 25.5293C35.5779 25.6034 35.5076 25.9049 35.3129 26.322C35.1025 26.7727 34.8071 27.1533 34.8071 27.1533C34.8071 27.1533 34.1461 28.0346 32.8942 28.33C31.6424 28.6255 29.9799 28.4953 29.9799 28.4953C29.9799 28.4953 29.1887 28.5153 28.2573 28.1548C27.3259 27.7992 27.0705 27.0331 26.9253 26.2119C26.7801 25.3856 27.2708 22.9169 27.2708 22.9169C27.2708 22.9169 27.5162 20.6836 28.3424 19.6621C29.1687 18.6405 30.6208 18.4302 30.6208 18.4302C30.9263 18.3651 31.3019 18.3251 32.1181 18.315ZM29.5092 22.1508L34.091 22.1558C34.091 22.1558 34.2613 21.3346 34.101 20.7938C34.0309 20.5634 33.7706 20.4082 33.4951 20.3531C32.6689 20.1828 31.6524 20.258 31.2718 20.293C30.8912 20.3281 30.4856 20.3731 30.1652 20.6135C29.8497 20.8538 29.6894 21.4247 29.6894 21.4247L29.5092 22.1508ZM47.1506 18.5354C46.5747 18.3501 45.5782 18.31 44.732 18.3201C43.9157 18.3301 43.5402 18.3701 43.2347 18.4352C43.2347 18.4352 41.7825 18.6455 40.9563 19.6671C40.1301 20.6886 39.8847 22.9219 39.8847 22.9219C39.8847 22.9219 39.394 25.3906 39.5392 26.2169C39.6844 27.0381 39.9398 27.8042 40.8712 28.1598C41.8026 28.5203 42.5938 28.5003 42.5938 28.5003C42.5938 28.5003 44.2562 28.6305 45.5081 28.335C46.76 28.0396 47.421 27.1583 47.421 27.1583C47.421 27.1583 47.7164 26.7777 47.9267 26.327C48.1215 25.9099 48.1917 25.6085 48.2089 25.5343L48.2122 25.5208L48.3424 24.985L46.2142 24.99C46.2142 24.99 46.099 26.3971 44.9473 26.5273C43.9483 26.6408 43.3522 26.6175 43.0662 26.6061C43.0238 26.6046 42.9884 26.603 42.9593 26.6024C42.9443 26.6019 42.9246 26.6013 42.9011 26.6009C42.5776 26.5944 41.5139 26.5726 41.6073 25.616C41.6073 25.6009 41.6073 25.5809 41.6123 25.5509C41.6674 24.3791 41.7976 24.0737 41.7976 24.0737L48.4826 24.0536L48.768 22.4012C49.0985 20.5233 48.8631 19.0912 47.1506 18.5354ZM46.6849 22.1558L42.103 22.1508L42.2833 21.4247C42.2833 21.4247 42.4435 20.8538 42.759 20.6135C43.0745 20.3731 43.4851 20.3281 43.8657 20.293C44.2462 20.258 45.2628 20.1828 46.089 20.3531C46.3644 20.4082 46.6248 20.5634 46.6949 20.7938C46.8551 21.3296 46.6849 22.1558 46.6849 22.1558ZM65.5531 18.4502L66.8701 25.7211L70.5907 18.4452L72.6838 18.4653L67.3208 28.8558C67.3208 28.8558 66.3493 30.7386 65.7484 31.2143C65.1475 31.6901 64.777 31.9054 64.2862 31.9555L64.1547 31.9691C63.7552 32.0111 63.5507 32.0325 63.1245 31.9555L62.6237 31.8653L62.9342 30.0075C62.9342 30.0075 63.7654 30.1628 64.2562 29.9675C64.7519 29.7722 65.1475 28.9309 65.1475 28.9309L65.3979 28.5103L63.46 18.4452L65.5531 18.4502ZM14.9874 19.1313C15.6534 18.7657 16.4346 18.4402 17.2608 18.4402H18.4526L18.1121 20.3631L16.9804 20.3681C15.358 20.3681 14.5268 21.7452 14.3265 22.8568L13.355 28.34H11.1617L12.9143 18.4402H15.1026L14.9874 19.1313Z" fill="#5E6D7B"/>
<path fill-rule="evenodd" clip-rule="evenodd" d="M57.4262 5.12521L59.97 0.0125617C59.97 0.0125617 65.5434 -0.0976028 70.3506 0.648514C75.1578 1.38962 79.5543 2.53133 79.4592 2.58141L67.271 8.95595C67.271 8.95595 64.4217 7.15325 60.8864 6.04659C58.8834 5.45571 57.4262 5.12521 57.4262 5.12521ZM41.3121 2.72162L41.8429 5.70107C41.8429 5.70107 44.2966 5.0501 47.236 4.69958C51.0116 4.1838 55.0326 4.73463 55.0326 4.73463L56.5449 0.132741C56.5449 0.132741 51.9731 0.438198 48.5229 1.07916C45.0777 1.72012 41.3121 2.72162 41.3121 2.72162ZM29.9651 10.5834L26.9156 8.53031C26.9156 8.53031 29.6747 6.96296 33.3452 5.50077C37.0107 4.03859 38.9686 3.42767 38.9686 3.42767L39.5895 6.33703C39.5895 6.33703 36.0592 7.5188 34.0362 8.47523C31.9431 9.36656 29.9651 10.5834 29.9651 10.5834ZM22.4088 15.7411H15.834C15.834 15.7411 18.3978 13.7782 19.6898 12.9319C21.0217 12.0155 24.1614 10.0726 24.1614 10.0726L27.877 11.8102C27.877 11.8102 25.9742 13.017 24.9276 13.7832C23.881 14.5493 22.4088 15.7411 22.4088 15.7411ZM73.4452 19.4366L75.6034 19.4416L75.7336 18.6054C75.7336 18.6054 75.964 17.0931 76.4797 16.8027C76.645 16.7075 76.9104 16.6224 77.2158 16.5673C77.7817 16.4672 78.4978 16.4572 79.0836 16.4772L79.1322 16.4789C79.9927 16.5076 80.3372 16.5192 81.2318 16.6224C82.1432 16.7276 81.9129 17.6089 81.9129 17.6089L81.7326 18.9259C81.7326 18.9259 81.6525 19.5167 81.4422 19.8823C81.2569 20.2078 80.7461 20.4281 80.4507 20.5233C79.7396 20.7536 77.306 21.3745 77.306 21.3745L75.3931 21.9253C75.3931 21.9253 74.2164 22.2659 73.5604 22.9919C72.8994 23.723 72.639 24.5493 72.5489 24.9799C72.4587 25.4106 71.953 28.39 71.953 28.39L82.2784 28.395L82.6239 26.3319L74.4567 26.342L74.6019 25.5007C74.6019 25.5007 74.6971 24.6344 75.0476 24.349C75.0645 24.3351 75.0803 24.3205 75.0971 24.3049C75.189 24.2192 75.3134 24.1032 75.8638 23.9083C76.2544 23.7681 77.5864 23.4126 77.5864 23.4126L80.666 22.5713C80.666 22.5713 82.3485 22.1407 83.0095 21.2193C83.6705 20.3029 83.9259 18.5453 83.9259 18.5453C83.9259 18.5453 84.1062 16.8377 83.9659 16.3019C83.8307 15.7661 83.325 15.1252 82.7091 14.8498C82.0931 14.5744 81.4522 14.4141 79.5944 14.4391C77.7366 14.4642 76.8152 14.5493 75.8738 14.8998C74.9324 15.2454 74.3866 15.8763 74.0411 16.7676C73.6655 17.6139 73.4452 19.4366 73.4452 19.4366ZM92.8843 23.2724L94.3315 14.5994H91.7676L83.7857 23.1722L83.4251 25.3455H90.4056L89.8948 28.39L92.038 28.395L92.5438 25.3455L94.5217 25.3505L94.8773 23.2724H92.8843ZM90.7511 23.2774L86.2393 23.2724L91.7326 17.4186L90.7511 23.2774ZM72.1332 12.3761L69.4542 10.343L84.7171 4.45421L84.8351 4.50794C86.7782 5.39003 87.86 5.88115 89.7646 7.11819C90.5258 7.61393 91.5373 8.40512 91.7926 8.65549C92.4887 9.35154 93.1547 10.0225 93.5202 10.6535C94.1061 11.665 94.1512 12.3761 94.1512 12.3761H72.1332Z" fill="#5E6D7B"/>
</svg>
