<svg width="81" height="32" viewBox="0 0 81 32" fill="none" xmlns="http://www.w3.org/2000/svg">
<path d="M38.1119 15.6434V25.0204H35.1348V1.85806H43.0266C44.9303 1.81756 46.7699 2.5399 48.137 3.86308C49.5209 5.10862 50.3007 6.89085 50.2703 8.75072C50.3108 10.6241 49.531 12.4198 48.137 13.6687C46.7564 14.9852 45.0518 15.6434 43.0266 15.64L38.1119 15.6434ZM38.1119 4.71031V12.7979H43.1008C44.208 12.8316 45.2746 12.3962 46.0442 11.5996C47.607 10.0806 47.6442 7.57944 46.1218 6.01661C46.0948 5.98961 46.0712 5.9626 46.0442 5.93898C45.2847 5.12549 44.2113 4.67993 43.1008 4.71031H38.1119ZM57.1292 8.65621C59.33 8.65621 61.065 9.24354 62.3375 10.4182C63.61 11.5928 64.2446 13.2063 64.2446 15.2518V25.0204H61.3991V22.8196H61.2709C60.0388 24.6322 58.3983 25.5368 56.3528 25.5368C54.6077 25.5368 53.1461 25.0204 51.9715 23.9841C50.8306 23.0221 50.1825 21.5977 50.2095 20.1024C50.2095 18.4619 50.8306 17.159 52.0694 16.1902C53.3082 15.2215 54.9621 14.7354 57.0347 14.7354C58.8 14.7354 60.2582 15.0594 61.3991 15.7041V15.0223C61.4059 14.0029 60.9536 13.0375 60.1705 12.3895C59.384 11.6806 58.3578 11.2924 57.298 11.3059C55.6372 11.3059 54.3208 12.008 53.3521 13.4088L50.7327 11.7582C52.1706 9.6891 54.3039 8.65621 57.1292 8.65621ZM53.2778 20.1699C53.2744 20.9395 53.6423 21.6618 54.2634 22.1107C54.9216 22.6272 55.7385 22.904 56.5756 22.8871C57.8313 22.8837 59.0363 22.3842 59.9241 21.4964C60.9097 20.5682 61.4025 19.4813 61.4025 18.229C60.4742 17.4898 59.1814 17.1185 57.5207 17.1185C56.3123 17.1185 55.3031 17.4087 54.4963 17.9927C53.6828 18.5868 53.2778 19.3057 53.2778 20.1699ZM80.5818 9.17265L70.6478 32.0076H67.5762L71.2622 24.0179L64.7273 9.17265H67.961L72.6832 20.558H72.7474L77.3414 9.17265H80.5818Z" fill="#5E6D7B"/>
<path d="M26.0851 13.6173C26.0851 12.7093 26.0108 11.8046 25.8556 10.9102H13.3057V16.0341H20.492C20.1949 17.6881 19.2363 19.1496 17.8355 20.0779V23.4061H22.1257C24.637 21.0939 26.0851 17.6678 26.0851 13.6173Z" fill="#5E6D7B"/>
<path d="M13.3063 26.6232C16.8978 26.6232 19.9222 25.4452 22.1263 23.4098L17.8361 20.0816C16.6412 20.8917 15.1054 21.3542 13.3063 21.3542C9.83633 21.3542 6.88957 19.015 5.83643 15.8623H1.41797V19.2918C3.67614 23.7879 8.27688 26.6232 13.3063 26.6232Z" fill="#5E6D7B"/>
<path d="M5.83615 15.8619C5.2792 14.2113 5.2792 12.4189 5.83615 10.7683V7.33887H1.41769C-0.472563 11.0991 -0.472563 15.5311 1.41769 19.2913L5.83615 15.8619Z" fill="#5E6D7B"/>
<path d="M13.3063 5.27672C15.2033 5.24634 17.0362 5.96193 18.41 7.27161L22.2107 3.47423C19.8007 1.21268 16.6109 -0.0294849 13.3063 0.00764497C8.27688 0.00764497 3.67614 2.8464 1.41797 7.33912L5.83643 10.7686C6.88957 7.6159 9.83633 5.27672 13.3063 5.27672Z" fill="#5E6D7B"/>
</svg>
