<svg width="99" height="32" viewBox="0 0 99 32" fill="none" xmlns="http://www.w3.org/2000/svg">
<g clip-path="url(#clip0_50_2933)">
<path d="M64.5613 0.00649722C57.6693 0.00649722 51.5055 3.58135 51.5055 10.1871C51.5055 17.7619 62.4335 18.2861 62.4335 22.091C62.4335 23.6941 60.5982 25.128 57.4637 25.128C54.7492 25.1094 52.081 24.4211 49.696 23.1242L48.2735 29.7893C51.1127 30.9096 54.1375 31.4839 57.1896 31.4823C64.7273 31.4823 70.6597 27.7306 70.6597 21.0122C70.6597 13.0076 59.6935 12.5002 59.6935 8.97412C59.6935 7.7185 61.1997 6.34402 64.3267 6.34402C66.5402 6.37427 68.7225 6.87117 70.7313 7.80231L72.1233 1.36421C69.7085 0.446677 67.1443 -0.0137166 64.5613 0.00649722ZM1.48297 0.492592L1.31543 1.46478C3.19661 1.83051 5.04168 2.36238 6.82896 3.05412C10.1934 4.27316 10.4326 4.97564 10.9991 7.1684L17.1723 30.9779H25.4471L38.1953 0.492592H29.9387L21.7476 21.2164L18.4044 3.65145C18.2906 2.74775 17.8401 1.92031 17.143 1.33462C16.4457 0.748946 15.5532 0.448217 14.6439 0.492592H1.48297ZM41.5156 0.492592L35.0379 30.9825H42.9107L49.3655 0.492592H41.5156ZM85.4259 0.492592C84.5935 0.482542 83.782 0.752397 83.1215 1.25888C82.4608 1.76537 81.9894 2.47914 81.7827 3.28574L70.2484 30.9825H78.505L80.1027 26.3684H90.1551L91.1268 30.984H98.4117L92.0619 0.492592H85.4259ZM86.4997 8.73031L88.9473 20.171H82.398L86.5103 8.73031H86.4997Z" fill="#5E6D7B"/>
</g>
<defs>
<clipPath id="clip0_50_2933">
<rect width="99" height="32" fill="white" transform="translate(0 0.00683594)"/>
</clipPath>
</defs>
</svg>
