<svg width="63" height="32" viewBox="0 0 63 32" fill="none" xmlns="http://www.w3.org/2000/svg">
<g clip-path="url(#clip0_50_2935)">
<path fill-rule="evenodd" clip-rule="evenodd" d="M10.3994 0.0220945C10.3874 0.0345329 10.3775 0.661229 10.3775 1.41474V2.78479L10.0389 2.8072C8.48295 2.91012 7.00399 3.4791 5.90526 4.3976C4.81347 5.31028 3.90648 6.75444 3.54643 8.15349C3.3425 8.94594 3.3443 8.91837 3.32478 11.532C3.30814 13.7587 3.3031 13.9265 3.25029 14.0096C3.16633 14.1417 3.05455 14.1772 2.3621 14.2917C1.63996 14.4113 1.41694 14.4742 1.08657 14.6516C0.609297 14.908 0.262603 15.3322 0.0921851 15.8684L0 16.1584V21.4195V26.6808L0.0856969 26.9412C0.299294 27.5904 0.757668 28.0847 1.35263 28.3074C1.56916 28.3885 2.7555 28.6027 4.01558 28.7883C5.88529 29.0636 7.37994 29.1876 9.21973 29.2199L10.3768 29.2401L10.385 30.6235L10.3933 32.0068H10.787H11.1806V16.0123V0.0176452L10.801 0.0085843C10.5922 0.00358293 10.4115 0.0096885 10.3994 0.0220945ZM10.3775 4.80453V5.80791L10.1177 5.82945C9.1039 5.91343 8.41082 6.20062 7.66276 6.84668C6.92137 7.48691 6.46914 8.32523 6.29246 9.38668C6.24855 9.65045 6.24125 9.99074 6.24232 11.7151L6.24358 13.7346L6.12954 13.7529C5.99553 13.7744 4.34883 13.9662 4.29846 13.9662C4.27387 13.9662 4.26734 13.3047 4.27553 11.6361C4.28807 9.08816 4.28658 9.11111 4.48724 8.33158C4.91447 6.67208 6.07555 5.22613 7.62367 4.42569C8.35148 4.04939 9.28225 3.81309 10.0704 3.80448L10.3775 3.80114V4.80453ZM55.7142 4.66573C54.8043 4.76235 54.0604 4.95859 53.3337 5.29362C51.5286 6.12576 50.2873 7.69756 49.8838 9.66205C49.8201 9.97206 49.8 10.1815 49.7864 10.6756C49.7539 11.8632 49.9103 12.7144 50.3138 13.5454C50.819 14.5857 51.6265 15.3964 52.7346 15.9756C53.4462 16.3475 54.1028 16.5988 55.9346 17.2003C57.3608 17.6686 57.6205 17.7669 58.1563 18.0409C59.3991 18.6763 60.0133 19.4221 60.1681 20.484C60.2416 20.9877 60.1905 21.72 60.0427 22.2802C59.8914 22.8542 59.4821 23.5522 59.0575 23.9601C58.2504 24.7356 57.1846 25.1097 55.7771 25.1114C55.1638 25.1121 54.75 25.0731 54.2811 24.9703C53.4037 24.7779 52.3206 24.1912 51.242 23.3237C50.8212 22.9854 50.5963 22.8648 50.3861 22.8648C49.9981 22.8648 49.7987 23.0647 49.2414 24.0127L48.8245 24.7224L49.0726 24.9823C49.6175 25.5531 50.4294 26.1637 51.195 26.5785C52.1336 27.0869 53.0777 27.4029 54.1866 27.5796C54.5869 27.6435 54.7679 27.6526 55.6512 27.6538C56.471 27.6547 56.7266 27.6441 57.0212 27.5966C58.3738 27.3784 59.4879 26.9225 60.431 26.2015C60.7394 25.9657 61.2715 25.4399 61.5271 25.1184C62.1022 24.395 62.5306 23.5005 62.7706 22.5218C62.9189 21.9176 62.9741 21.5028 62.995 20.835C63.0305 19.6979 62.8787 18.8862 62.4802 18.0828C61.9556 17.0253 61.1448 16.2511 59.903 15.6221C59.2053 15.2687 58.4329 14.9617 56.8162 14.395C55.3252 13.8725 55.0602 13.7681 54.5397 13.4984C54.0094 13.2235 53.6385 12.9555 53.3048 12.6059C52.7501 12.0248 52.5489 11.5101 52.5489 10.6713C52.5489 8.93928 53.5959 7.71265 55.4248 7.3019C55.7106 7.23768 55.837 7.22973 56.5803 7.22915C57.2514 7.22863 57.4725 7.23983 57.7094 7.28637C58.5749 7.45635 59.5696 7.93576 60.457 8.61072C60.7405 8.82633 60.9057 8.89837 61.1184 8.89921C61.3468 8.90015 61.5358 8.79899 61.6824 8.59744C61.743 8.51404 61.9556 8.1178 62.1548 7.71694L62.517 6.98807L62.4068 6.86911C62.2341 6.68276 61.6962 6.24508 61.3674 6.02333C60.3826 5.35912 59.3045 4.94973 57.9818 4.7377C57.6623 4.68651 57.3821 4.66992 56.7062 4.66222C56.2298 4.65679 55.7834 4.65839 55.7142 4.66573ZM20.3456 4.87396C17.3767 5.18375 15.3323 6.96901 14.5975 9.89344C14.5084 10.2483 14.3964 10.8464 14.4154 10.866C14.4364 10.8877 15.2363 11.0109 15.3559 11.0109C15.6343 11.0109 15.8172 10.819 15.917 10.4224C16.2396 9.14089 16.703 8.27151 17.459 7.52965C18.4718 6.53584 19.9344 6.04107 21.4843 6.16791C23.342 6.32 24.6 7.12285 25.277 8.58838C25.5654 9.21267 25.684 9.82076 25.6838 10.674C25.6837 10.9709 25.6642 11.3139 25.6376 11.4828C25.4112 12.9218 24.6229 13.9817 23.2822 14.6493C22.4401 15.0687 21.5609 15.2815 20.3614 15.3564L19.9992 15.379V15.9311V16.4831L20.6133 16.5044C21.9732 16.5517 23.0193 16.7851 23.9359 17.2459C25.1933 17.878 25.8352 18.7242 26.129 20.1368C26.2266 20.6056 26.2357 21.7316 26.1452 22.134C25.9358 23.0656 25.5798 23.8017 25.0245 24.4515C24.4447 25.13 23.5351 25.7314 22.6447 26.0249C21.5676 26.38 20.0172 26.3959 18.8964 26.0633C17.9545 25.7838 17.1524 25.2836 16.5986 24.6305C16.023 23.9516 15.6644 23.2853 15.3072 22.2315C15.1625 21.8047 15.1021 21.7074 14.9316 21.6275C14.7181 21.5276 14.539 21.5471 14.1284 21.7153C13.9276 21.7976 13.7502 21.8775 13.7343 21.8928C13.6706 21.9546 14.2257 23.5287 14.5362 24.1666C14.9716 25.0612 15.6796 25.8934 16.4717 26.4415C16.8269 26.6873 17.5375 27.0488 17.9556 27.1963C18.3593 27.3388 18.8773 27.4586 19.4008 27.5303C19.991 27.6112 21.4327 27.6119 21.9361 27.5314C24.3025 27.1532 26.1417 25.8723 27.0879 23.9434C27.5069 23.0891 27.6977 22.2401 27.699 21.2238C27.6999 20.4708 27.6257 19.9709 27.4166 19.3212C27.0694 18.2425 26.3882 17.3352 25.4635 16.7197C24.9151 16.3547 24.1184 16.0215 23.3436 15.8329L22.9718 15.7424L23.2964 15.6396C23.9479 15.4332 24.5856 15.1171 25.0855 14.7526C25.4631 14.4774 26.0175 13.908 26.2778 13.5278C26.6445 12.9924 26.9336 12.2913 27.0745 11.5954C27.1547 11.1993 27.188 10.1833 27.1356 9.72566C26.9493 8.09623 26.1982 6.81326 24.9113 5.92636C24.1643 5.41164 23.2743 5.08048 22.2038 4.91894C21.8154 4.86035 20.7283 4.83401 20.3456 4.87396ZM29.4003 16.2222V27.3465H33.6943C37.2438 27.3465 38.0725 27.3381 38.4745 27.2985C42.5684 26.8941 45.5911 24.4985 46.8928 20.6269C47.5972 18.5316 47.7593 15.939 47.3351 13.5518C46.9491 11.3793 45.9874 9.41558 44.6127 7.9926C43.3159 6.65029 41.64 5.74411 39.7149 5.34425C38.5901 5.11062 38.8216 5.11997 33.8647 5.10834L29.4003 5.09789V16.2222ZM38.6125 6.50853C39.9234 6.70101 40.9727 7.06625 41.9353 7.66501C43.2273 8.4688 44.1604 9.53971 44.8648 11.0271C45.4352 12.2315 45.7446 13.4475 45.8725 14.9862C45.9144 15.4907 45.9138 16.9605 45.8714 17.4754C45.7113 19.4208 45.192 21.0638 44.2994 22.449C43.8722 23.1118 43.5203 23.5258 42.9588 24.0255C42.0806 24.8072 40.9012 25.4258 39.7229 25.7231C39.2605 25.8398 38.6897 25.9377 38.2188 25.9812C37.9971 26.0017 36.522 26.0147 34.4158 26.0148L30.9751 26.0149V16.2218V6.4287L34.6048 6.44085C37.8183 6.45163 38.2779 6.45939 38.6125 6.50853ZM10.3775 10.1937V13.5661L9.34606 13.587C8.77877 13.5986 8.08211 13.6236 7.79794 13.6425C7.42466 13.6673 7.27172 13.667 7.24677 13.6413C7.22249 13.6162 7.21242 12.998 7.21276 11.5533L7.21323 9.50074L7.29771 9.18351C7.47559 8.51547 7.85191 7.92212 8.36087 7.50731C8.86548 7.09599 9.56243 6.82959 10.1492 6.82371L10.3775 6.82144V10.1937ZM10.3775 16.7707V19.0229L10.165 19.0592C9.85246 19.1127 9.53795 19.2852 9.32879 19.5182C9.11709 19.754 9.00564 19.981 8.94097 20.308C8.87207 20.6564 8.913 20.9074 9.10112 21.2896C9.18024 21.4504 9.24471 21.6225 9.24433 21.6721C9.24398 21.7217 9.12871 22.0943 8.98816 22.5003C8.84759 22.9061 8.72523 23.2931 8.71625 23.3602C8.69497 23.5195 8.78022 23.7487 8.89903 23.8519C9.0769 24.0062 9.65641 24.18 10.1177 24.2173L10.3775 24.2383V26.2361V28.2337L9.29882 28.2128C7.11359 28.1702 5.67548 28.0591 3.93684 27.7984C3.00063 27.658 1.89305 27.4514 1.69822 27.3808C1.3526 27.2556 1.11368 27.0174 1.00172 26.6865C0.947802 26.5271 0.944842 26.2513 0.944842 21.3871V16.2558L1.01674 16.0724C1.16562 15.6928 1.48173 15.4496 1.95866 15.3479C2.65988 15.1981 4.24886 14.9537 5.33835 14.8279C6.67937 14.6731 8.38232 14.5612 9.71612 14.5404C9.98461 14.5362 10.2432 14.5295 10.2909 14.5256L10.3775 14.5183V16.7707ZM10.3775 21.6354V23.5887L10.1492 23.5686C9.91227 23.5478 9.43821 23.4355 9.39377 23.3898C9.37979 23.3753 9.49902 22.9919 9.65873 22.5377C10.0151 21.5242 10.0276 21.4214 9.82178 21.2017C9.62488 20.9915 9.5497 20.8126 9.55125 20.5578C9.55275 20.3109 9.63036 20.1092 9.78825 19.9418C9.90581 19.8172 10.1661 19.6829 10.2909 19.6824L10.3775 19.682V21.6354Z" fill="#5E6D7B"/>
</g>
<defs>
<clipPath id="clip0_50_2935">
<rect width="63" height="32" fill="white" transform="translate(0 0.00683594)"/>
</clipPath>
</defs>
</svg>
