<svg width="69" height="32" viewBox="0 0 69 32" fill="none" xmlns="http://www.w3.org/2000/svg">
<path d="M18.4369 23.9169C17.7025 23.9169 16.9846 23.6998 16.374 23.293C15.7633 22.8863 15.2874 22.3082 15.0063 21.6318C14.7253 20.9554 14.6517 20.2111 14.7949 19.4931C14.9382 18.775 15.2918 18.1154 15.8111 17.5977C16.3303 17.0799 16.9919 16.7273 17.7122 16.5844C18.4325 16.4415 19.1791 16.5148 19.8576 16.7949C20.5361 17.075 21.1161 17.5494 21.5242 18.1581C21.9323 18.7668 22.1502 19.4824 22.1503 20.2146C22.1505 20.7008 22.0546 21.1822 21.868 21.6315C21.6815 22.0807 21.408 22.4889 21.0631 22.8328C20.7183 23.1766 20.3089 23.4493 19.8582 23.6353C19.4076 23.8213 18.9247 23.917 18.4369 23.9169Z" fill="#5E6D7B"/>
<path fill-rule="evenodd" clip-rule="evenodd" d="M3.63837 0.00683651H65.1471C66.1115 0.00642977 67.0365 0.387892 67.7187 1.06732C68.4009 1.74675 68.7845 2.6685 68.785 3.62984V28.3843C68.7847 28.8603 68.6904 29.3316 68.5075 29.7712C68.3245 30.2109 68.0564 30.6103 67.7186 30.9467C67.3808 31.2831 66.9799 31.5498 66.5387 31.7317C66.0974 31.9136 65.6246 32.0071 65.1471 32.0068H3.63837C3.16086 32.0072 2.68797 31.9137 2.24669 31.7319C1.80541 31.55 1.40439 31.2832 1.06653 30.9469C0.728674 30.6105 0.460591 30.211 0.277594 29.7714C0.0945963 29.3317 0.000269581 28.8604 0 28.3843V3.62984C0.000269599 3.15379 0.0945926 2.68245 0.277584 2.24275C0.460575 1.80304 0.72865 1.40357 1.0665 1.06714C1.40436 0.730714 1.80537 0.463921 2.24665 0.281994C2.68793 0.100066 3.16084 0.00656818 3.63837 0.00683651ZM25.086 9.76693C25.7684 9.08662 26.1518 8.16392 26.1518 7.20182C26.1518 6.23972 25.7684 5.31703 25.086 4.63672C24.4036 3.95641 23.478 3.57422 22.5129 3.57422C21.5478 3.57422 20.6222 3.95641 19.9398 4.63672C19.2574 5.31703 18.874 6.23972 18.874 7.20182C18.874 8.16392 19.2574 9.08662 19.9398 9.76693C20.6222 10.4472 21.5478 10.8294 22.5129 10.8294C23.478 10.8294 24.4036 10.4472 25.086 9.76693ZM59.3769 27.7472H54.1373L48.429 19.7048L48.432 27.7472H44.3634V4.74093H48.432V19.6854L54.0377 12.6773H58.7901L53.0818 19.6419L59.3769 27.7472ZM36.6894 12.6748H40.7569V27.7446H36.6894V12.6748ZM33.0797 4.73633H29.0122V27.7446H33.0797V4.73633ZM18.4369 12.5243C17.1635 12.5225 15.9095 12.8363 14.7878 13.4374V4.73684H10.7197V20.2146C10.7193 21.736 11.1715 23.2234 12.0191 24.4886C12.8666 25.7538 14.0715 26.7401 15.4814 27.3227C16.8913 27.9052 18.4427 28.0579 19.9396 27.7614C21.4365 27.4649 22.8116 26.7325 23.891 25.6569C24.9704 24.5813 25.7056 23.2108 26.0036 21.7187C26.3016 20.2265 26.149 18.6798 25.5652 17.2741C24.9814 15.8684 23.9926 14.6668 22.7238 13.8213C21.4549 12.9759 19.9631 12.5245 18.4369 12.5243Z" fill="#5E6D7B"/>
</svg>
