<svg width="58" height="32" viewBox="0 0 58 32" fill="none" xmlns="http://www.w3.org/2000/svg">
<path d="M46.0659 15.8401C47.1614 15.8401 48.0494 16.6839 48.0494 17.725C48.0494 18.7661 47.1615 19.6102 46.0659 19.6102C44.9704 19.6102 44.0823 18.7661 44.0823 17.725C44.0823 16.6839 44.9705 15.8401 46.0659 15.8401Z" fill="#5E6D7B"/>
<path d="M22.9716 15.8401C24.0671 15.8401 24.9552 16.6839 24.9552 17.725C24.9552 18.7662 24.0672 19.6102 22.9716 19.6102C21.8761 19.6102 20.988 18.7662 20.988 17.725C20.988 16.6839 21.8762 15.8401 22.9716 15.8401Z" fill="#5E6D7B"/>
<path fill-rule="evenodd" clip-rule="evenodd" d="M5.56929 0.00683594H52.4307C55.5065 0.00683594 58 2.4831 58 5.53772V26.476C58 29.5306 55.5065 32.0068 52.4307 32.0068H5.56929C2.49346 32.0068 0 29.5306 0 26.476V5.53772C0 2.4831 2.49346 0.00683594 5.56929 0.00683594ZM51.196 20.1664C51.196 19.406 51.8111 18.7895 52.5699 18.7895C53.3288 18.7895 53.944 19.4059 53.944 20.1664C53.944 20.9268 53.3287 21.5433 52.5699 21.5433C51.8111 21.5433 51.196 20.9267 51.196 20.1664ZM50.2458 14.0614H48.0568V14.5301C47.4383 14.1073 46.6918 13.8589 45.8867 13.8589C43.756 13.8589 42.0286 15.5897 42.0286 17.725C42.0286 19.8603 43.756 21.5912 45.8867 21.5912C46.6918 21.5912 47.4383 21.3427 48.0568 20.9201V21.3884H50.2458V14.0614ZM30.5382 14.0615V15.0158C30.977 14.4434 31.7947 14.0621 32.6836 14.0621V16.194C32.6748 16.1939 32.6665 16.1931 32.6576 16.1931C31.7915 16.1931 30.5432 16.8134 30.5432 17.9675V21.3883H28.2969V14.0615H30.5382ZM27.1516 14.0614H24.9624V14.5301C24.344 14.1073 23.5976 13.8589 22.7925 13.8589C20.6617 13.8589 18.9343 15.5897 18.9343 17.725C18.9343 19.8603 20.6617 21.5912 22.7925 21.5912C23.5975 21.5912 24.344 21.3428 24.9624 20.9201V21.3884H27.1516V14.0614ZM35.8833 14.887C36.4366 14.1364 37.2643 13.8643 38.1388 13.8643C39.9023 13.8643 41.2552 15.024 41.2552 16.7291V21.3884H39.0687V17.523C39.0687 16.4542 38.5156 15.8783 37.5535 15.8783C36.6557 15.8783 35.9101 16.4239 35.9101 17.5381V21.3884H33.7037V14.0619H35.8833V14.887ZM18.0369 21.3884H15.7456V10.7963H18.0369V21.3884ZM8.10674 21.3914H5.68053V10.7944H8.10674V21.3914ZM11.6847 16.809C13.2744 15.2227 14.1666 13.0885 14.1666 10.7944L11.7923 10.7944C11.7923 12.7445 10.8976 14.5344 9.33764 15.7053L8.39699 16.4113L12.0417 21.3918H15.0384L11.6847 16.809Z" fill="#5E6D7B"/>
</svg>
