<svg width="180" height="32" viewBox="0 0 180 32" fill="none" xmlns="http://www.w3.org/2000/svg">
<g clip-path="url(#clip0_53_658)">
<path d="M33.0282 14.3959C33.0082 13.7779 32.7169 13.4589 32.1515 13.438H29.131C28.4161 13.4818 28.0467 13.8741 28.0296 14.612V20.0461C28.0467 20.8078 28.4551 21.1963 29.249 21.2182H32.0173C32.3047 21.2182 32.5437 21.1115 32.7341 20.8935C32.933 20.7297 33.0282 20.5193 33.0282 20.2584V14.3959ZM24.1514 13.6246C24.1714 12.2649 24.4741 11.2318 25.0614 10.5253C25.3689 10.2291 25.7535 9.98158 26.2218 9.77686C26.7083 9.55882 27.1795 9.45312 27.6364 9.45312H33.1805C35.6261 9.47407 36.8693 10.8119 36.9083 13.4694V21.6486C36.8903 22.5922 36.5209 23.411 35.8069 24.0957C35.0996 24.8155 34.2553 25.1821 33.2719 25.204H28.0296V31.1008H24.1514V13.6246Z" fill="#5E6D7B"/>
<path d="M43.9085 20.4288C43.9085 20.6564 44.0132 20.8364 44.2178 20.9716C44.4006 21.1334 44.631 21.2182 44.9223 21.2182H47.9009C48.5739 21.2182 48.9233 20.9573 48.9433 20.4288V19.3167C48.9433 18.7092 48.5882 18.4026 47.8723 18.4026H44.9223C44.5339 18.4026 44.2654 18.4674 44.116 18.5892C43.978 18.733 43.9085 19.0177 43.9085 19.4395V20.4288ZM48.9433 14.2997C48.9633 13.7036 48.6158 13.4189 47.8999 13.438H40.0893V9.45312H48.8833C51.445 9.49502 52.7453 10.7328 52.7891 13.1771V21.5134C52.7672 22.5674 52.4445 23.4368 51.8181 24.128C51.1632 24.8441 50.3188 25.204 49.2841 25.204H43.9684C41.3811 25.1821 40.0693 24.0004 40.0293 21.6514V18.435C40.0493 15.9803 41.303 14.7329 43.7847 14.6901H48.9433V14.2997Z" fill="#5E6D7B"/>
<path d="M63.6816 27.115C63.9891 27.096 64.2557 26.9855 64.4718 26.7875C64.6793 26.6027 64.784 26.3904 64.784 26.1495V25.204H59.8187C59.1713 25.204 58.6535 25.1211 58.267 24.9564C57.8586 24.8069 57.4521 24.5279 57.0428 24.1318C56.6554 23.7119 56.3764 23.273 56.207 22.814C56.0309 22.3941 55.9414 21.86 55.9414 21.2182V9.45312H59.8187V19.9556C59.8187 20.7973 60.1623 21.2182 60.8582 21.2182H63.596C63.9215 21.2182 64.2043 21.1115 64.4413 20.8935C64.6698 20.7088 64.784 20.4898 64.784 20.2327V9.45312H68.6298V26.8094C68.6079 28.0938 68.2786 29.1222 67.6436 29.902C66.9992 30.6818 66.1177 31.0808 64.9934 31.1008H55.9414V27.115H63.6816Z" fill="#5E6D7B"/>
<path d="M71.6748 21.2182H78.5849C79.217 21.1963 79.5455 20.943 79.5654 20.4574V20.0994C79.5654 19.9956 79.534 19.8804 79.4731 19.7566C79.3189 19.4557 79.1295 19.3062 78.9038 19.3062H75.4778C74.4611 19.2862 73.5939 18.9358 72.8647 18.2598C72.127 17.6352 71.7491 16.8668 71.7272 15.965V12.9933C71.7671 10.6748 73.0266 9.49502 75.5073 9.45312H83.5217V13.438H76.7315C75.9347 13.438 75.533 13.6827 75.533 14.1702V14.5558C75.533 15.0614 75.9433 15.3147 76.761 15.3147H80.1766C81.0866 15.3357 81.8625 15.6842 82.5089 16.364C83.1619 17.0486 83.5008 17.8627 83.5217 18.8082V21.7152C83.5008 22.5322 83.1229 23.3472 82.3965 24.1604C82.0424 24.5594 81.6797 24.8336 81.317 24.9888C80.942 25.1316 80.4327 25.204 79.7825 25.204H71.6748V21.2182Z" fill="#5E6D7B"/>
<path d="M90.1576 20.4288C90.1576 20.6564 90.2623 20.8364 90.4717 20.9716C90.6526 21.1334 90.8839 21.2182 91.1714 21.2182H94.1557C94.8288 21.2182 95.1762 20.9573 95.1962 20.4288V19.3167C95.1962 18.7092 94.8364 18.4026 94.1234 18.4026H91.1714C90.784 18.4026 90.5165 18.4674 90.368 18.5892C90.2299 18.733 90.1576 19.0177 90.1576 19.4395V20.4288ZM95.1962 14.2997C95.2133 13.7036 94.8659 13.4189 94.1491 13.438H86.3403V9.45312H95.1372C97.696 9.49502 98.9973 10.7328 99.0373 13.1771V21.5134C99.0163 22.5674 98.6908 23.4368 98.0682 24.128C97.418 24.8441 96.5727 25.204 95.537 25.204H90.2166C87.6311 25.1821 86.3184 24.0004 86.2822 21.6514V18.435C86.2994 15.9803 87.5521 14.7329 90.0357 14.6901H95.1962V14.2997Z" fill="#5E6D7B"/>
<path d="M102.19 7.19387C102.214 6.11791 102.61 5.25429 103.387 4.60681C104.141 3.94886 105.131 3.61084 106.355 3.5918H108.818V7.44144H107.326C106.507 7.46048 106.089 7.85278 106.071 8.61071V9.45433H108.818V13.443H106.071V25.2061H102.19V7.19387Z" fill="#5E6D7B"/>
<path d="M119.847 14.2254V14.1331C119.847 13.9283 119.765 13.7541 119.598 13.6246C119.417 13.4989 119.196 13.438 118.931 13.438H116.231C115.884 13.438 115.606 13.5351 115.389 13.7341C115.121 13.9179 114.985 14.1597 114.985 14.4578V16.0574L119.847 14.2254ZM115.047 19.8585V20.107C115.047 20.426 115.13 20.6793 115.298 20.863C115.42 21.0982 115.584 21.2182 115.802 21.2182H123.768V25.204H115.298C114.525 25.204 113.922 25.1316 113.497 24.9869C113.031 24.8336 112.614 24.5832 112.249 24.2347C111.823 23.8129 111.532 23.3834 111.387 22.9416C111.227 22.4808 111.148 21.8695 111.148 21.1077L111.114 13.1314C111.157 10.7214 112.416 9.49502 114.889 9.45312H120.117C122.532 9.49502 123.755 10.7643 123.794 13.2675V16.4183L115.047 19.8585Z" fill="#5E6D7B"/>
<path d="M132.003 25.2043C131.416 25.2043 130.88 25.15 130.394 25.051C129.884 24.9681 129.377 24.732 128.858 24.333C128.326 23.8693 127.958 23.3494 127.756 22.7753C127.543 22.2106 127.44 21.5708 127.44 20.8509V13.4135C127.418 12.807 127.479 12.2747 127.621 11.8129C127.751 11.3521 128.025 10.9007 128.439 10.4589C128.912 9.99521 129.393 9.6867 129.902 9.53531C130.391 9.41248 130.942 9.35059 131.56 9.35059H137.504V10.2828H131.698C130.673 10.2828 129.867 10.4932 129.278 10.915C128.676 11.3749 128.368 12.1681 128.368 13.2859V20.7281C128.368 21.2518 128.448 21.7612 128.607 22.2525C128.77 22.7353 129.041 23.159 129.43 23.5294C129.853 23.8503 130.274 24.0502 130.684 24.1321C131.112 24.2264 131.57 24.2712 132.057 24.2712H137.597V25.2043H132.003Z" fill="#5E6D7B"/>
<path d="M152.791 15.555H144.999C144.066 15.5759 143.335 15.8644 142.808 16.4205C142.264 16.9851 141.994 17.7592 141.994 18.7428V21.1166C141.994 21.5765 142.042 21.9974 142.141 22.3763C142.239 22.7753 142.484 23.1314 142.87 23.437C143.543 23.995 144.289 24.2712 145.103 24.2712H149.825C151.798 24.2502 152.791 23.2104 152.791 21.1461V15.555ZM153.718 20.9138C153.718 21.5127 153.672 22.0383 153.595 22.5011C153.469 23.0038 153.211 23.4885 152.82 23.9493C152.006 24.8072 150.997 25.2252 149.793 25.2043H145.16C143.955 25.2043 142.98 24.8444 142.224 24.1283C141.452 23.4209 141.061 22.4373 141.061 21.1756V18.7781C141.1 16.0729 142.447 14.6875 145.101 14.6247H152.82V13.5754C152.82 12.7108 152.57 11.9538 152.072 11.3025C151.756 10.8798 151.381 10.597 150.957 10.4513C150.528 10.3389 150.046 10.2828 149.509 10.2828H141.088V9.35059H149.071C149.801 9.35059 150.461 9.402 151.059 9.50293C151.366 9.56387 151.645 9.68385 151.903 9.85714C152.176 10.0219 152.431 10.2628 152.668 10.5789C153.383 11.5025 153.733 12.568 153.718 13.7677V20.9138Z" fill="#5E6D7B"/>
<path d="M162.432 10.2828C160.271 10.3228 159.206 11.5025 159.246 13.8239V25.2043H158.317V13.8277C158.274 10.8417 159.695 9.35059 162.581 9.35059H163.613V10.2828H162.432Z" fill="#5E6D7B"/>
<path d="M178.129 10.2878H170.784C170.255 10.2878 169.781 10.3468 169.353 10.4592C168.906 10.5601 168.474 10.8315 168.069 11.2733C167.682 11.6761 167.438 12.075 167.336 12.474C167.2 12.8768 167.138 13.3595 167.16 13.9223V21.1778C167.16 22.3842 167.509 23.205 168.218 23.6459C168.567 23.8506 168.951 24.0039 169.381 24.1067C169.809 24.221 170.287 24.2772 170.813 24.2772H174.025C175.225 24.2772 176.206 24.001 176.96 23.444C177.718 22.9213 178.103 22.0195 178.129 20.7341V10.2878ZM179.056 20.7979C178.974 23.8011 177.386 25.2731 174.291 25.2112H170.848C170.12 25.2112 169.47 25.1474 168.895 25.0265C168.303 24.8732 167.737 24.5123 167.191 23.9496C166.781 23.444 166.517 22.9327 166.412 22.409C166.27 21.8862 166.208 21.3045 166.23 20.6694V13.8985C166.27 10.8486 167.805 9.33278 170.84 9.35563H178.129V4.21484H179.056V20.7979Z" fill="#5E6D7B"/>
<path d="M2.6091 8.85419C2.91372 8.71994 3.21834 8.6152 3.52296 8.5495C4.0827 5.87579 6.45018 3.87051 9.28792 3.87051C12.1276 3.87051 14.496 5.87865 15.0548 8.5514C15.9258 8.71708 16.6464 9.06938 17.2081 9.59403C17.2309 9.08081 17.21 8.58663 17.1491 8.12102C16.7902 4.0819 13.4041 0.912109 9.27555 0.912109C5.02513 0.912109 1.56482 4.28185 1.3849 8.49427C1.36015 8.858 1.35254 9.23697 1.36586 9.63307C1.72284 9.33218 2.13027 9.06177 2.6091 8.85419Z" fill="#5E6D7B"/>
<path d="M13.9022 9.45312H4.43035C3.97437 9.45312 3.5022 9.55882 3.01576 9.77686C2.54645 9.98158 2.16187 10.2291 1.85344 10.5253C1.26609 11.2318 0.965278 12.2649 0.944336 13.6246V21.0306C0.965278 22.3932 1.26609 23.4253 1.85344 24.128C2.16187 24.4289 2.54645 24.6765 3.01576 24.8831C3.5022 25.0964 3.97437 25.204 4.43035 25.204H13.9022C16.3487 25.1821 17.5928 23.8395 17.6319 21.1858V13.4694C17.5928 10.8119 16.3487 9.47407 13.9022 9.45312Z" fill="#5E6D7B"/>
</g>
<defs>
<clipPath id="clip0_53_658">
<rect width="180" height="32" fill="white" transform="translate(0 0.00683594)"/>
</clipPath>
</defs>
</svg>
