<svg width="52" height="32" viewBox="0 0 52 32" fill="none" xmlns="http://www.w3.org/2000/svg">
<g clip-path="url(#clip0_50_2958)">
<path d="M42.5819 16.5113H38.3247C37.8511 16.5113 37.4659 16.1326 37.4659 15.6584C37.4659 15.1842 37.8512 14.7667 38.3247 14.7667H44.806V11.5566H38.3247C36.0625 11.5566 34.2221 13.4083 34.2221 15.6739C34.2221 17.9396 36.0625 19.7913 38.3247 19.7913H42.5241C42.9976 19.7913 43.3829 20.1685 43.3829 20.6427C43.3829 21.1169 42.9976 21.4661 42.5241 21.4661H33.519C32.7545 22.9315 32.0111 24.1877 30.502 24.8158H42.5819C44.806 24.7836 46.6253 22.8937 46.6253 20.6482C46.6253 18.4027 44.806 16.5435 42.5819 16.5113Z" fill="#5E6D7B"/>
<path d="M29.9265 29.0725L29.6307 30.7542C29.4828 31.6041 28.9281 31.9934 28.1762 31.9934C27.5394 31.9934 27.0464 31.5767 27.1901 30.7556L27.4859 29.0726H27.942L27.6461 30.7543C27.5557 31.2784 27.7899 31.5769 28.2337 31.5769C28.6898 31.5769 29.0801 31.3044 29.1745 30.7556L29.4703 29.0726L29.9265 29.0725ZM28.135 28.5459C28.135 28.6862 28.242 28.7521 28.357 28.7521C28.5008 28.7521 28.657 28.649 28.657 28.4551C28.657 28.3191 28.5664 28.249 28.4473 28.249C28.2996 28.249 28.135 28.3438 28.135 28.5459ZM29.1213 28.5418C29.1213 28.6861 29.2321 28.7521 29.3514 28.7521C29.4787 28.7521 29.6472 28.649 29.6472 28.4593C29.6472 28.3233 29.5485 28.249 29.4376 28.249C29.2898 28.249 29.1213 28.3438 29.1213 28.5418Z" fill="#5E6D7B"/>
<path d="M26.2618 11.5566C22.6536 11.5566 19.7148 14.525 19.7148 18.1722V18.3118V31.9338H22.9815V24.8158H26.255C29.8633 24.8158 32.7918 21.808 32.7918 18.1607C32.7917 14.5134 29.8702 11.5566 26.2618 11.5566ZM26.2618 21.4661H22.9815V18.1607C22.9815 16.3136 24.4461 14.8109 26.2618 14.8109C28.0776 14.8109 29.5547 16.3136 29.5547 18.1607C29.5547 20.0078 28.0776 21.4661 26.2618 21.4661Z" fill="#5E6D7B"/>
<path d="M9.37294 24.8156C6.28421 24.8156 3.68742 22.6057 2.98474 19.7187C2.98474 19.7187 2.78172 18.7642 2.78172 18.1356C2.78172 17.5071 2.9739 16.5427 2.9739 16.5427C3.68165 13.6628 6.27524 11.5184 9.35893 11.5184C12.9857 11.5184 15.9617 14.4785 15.9617 18.1199V19.7212H6.32605C6.89507 20.8379 8.04584 21.4659 9.37294 21.4659H18.0349L18.0468 12.0227C18.0468 10.6148 16.8996 9.46289 15.4974 9.46289H3.22043C1.8182 9.46289 0.670898 10.5799 0.670898 11.9878V24.3144C0.670898 25.7223 1.8182 26.9091 3.22043 26.9091H15.4974C16.7558 26.9091 17.8055 26.0019 18.0083 24.8156H9.37294Z" fill="#5E6D7B"/>
<path d="M9.35935 14.6514C8.03738 14.6514 6.88773 15.464 6.31641 16.5107H12.4024C11.8311 15.464 10.6815 14.6514 9.35935 14.6514Z" fill="#5E6D7B"/>
<path d="M14.9188 5.45417C14.9188 2.44568 12.4286 0.00683594 9.35694 0.00683594C6.33609 0.00683594 3.87921 2.36591 3.79852 5.30546C3.7972 5.31788 3.79824 5.32996 3.79824 5.34273V6.97975C3.79824 7.17556 3.95706 7.36914 4.15695 7.36914H6.2032C6.4031 7.36914 6.57838 7.17556 6.57838 6.97975V5.45417C6.57838 3.95185 7.82458 2.72956 9.35853 2.72956C10.8925 2.72956 12.1387 3.95185 12.1387 5.45417V6.97975C12.1387 7.17556 12.3008 7.36914 12.5007 7.36914H14.547C14.7469 7.36914 14.9188 7.17556 14.9188 6.97975V5.45417Z" fill="#5E6D7B"/>
<path d="M47.2259 29.9092L47.033 30.999C46.9713 31.3456 47.1275 31.5851 47.4807 31.5851C47.8135 31.5851 48.097 31.3083 48.1544 30.9701L48.3393 29.9092H48.7625L48.4051 31.933H48.023L48.0518 31.6397C47.8134 31.8667 47.5792 31.9736 47.2959 31.9736C46.7987 31.9736 46.5029 31.6157 46.6096 31.0013L46.8028 29.9092H47.2259Z" fill="#5E6D7B"/>
<path d="M31.0291 29.0723L30.8237 30.2343C31.0003 29.9951 31.3536 29.8687 31.6002 29.8687C32.1096 29.8687 32.463 30.1685 32.463 30.7252C32.463 31.5132 31.9166 31.987 31.2182 31.987C30.947 31.987 30.7168 31.8858 30.5771 31.6302L30.4991 31.9335H30.1006L30.6059 29.0723H31.0291ZM30.7087 31.0334C30.6923 31.3716 30.91 31.5902 31.2263 31.5902C31.6249 31.5902 32.011 31.2807 32.0357 30.8106C32.0522 30.4682 31.8303 30.2659 31.522 30.2659C31.1277 30.2659 30.7332 30.5837 30.7087 31.0334Z" fill="#5E6D7B"/>
<path d="M33.2937 31.096C33.2772 31.3751 33.495 31.603 33.8648 31.603C34.0703 31.603 34.3414 31.5224 34.4892 31.3821L34.7194 31.6492C34.4689 31.8801 34.099 31.9949 33.7867 31.9949C33.2034 31.9949 32.8623 31.6442 32.8623 31.1079C32.8623 30.3942 33.4211 29.8623 34.1359 29.8623C34.7892 29.8623 35.159 30.2586 34.9371 31.096H33.2937ZM34.5921 30.7471C34.6249 30.3981 34.4195 30.2562 34.0784 30.2562C33.7703 30.2562 33.4869 30.3981 33.3635 30.7471H34.5921Z" fill="#5E6D7B"/>
<path d="M36.0682 29.9094L36.0476 30.1784C36.245 29.9182 36.4833 29.8652 36.7009 29.8652C36.898 29.8652 37.0747 29.9355 37.1693 30.0385L36.9146 30.4098C36.8242 30.3276 36.7337 30.2863 36.5776 30.2863C36.2859 30.2863 35.9984 30.462 35.9326 30.8373L35.7396 31.9331H35.3164L35.6739 29.9094H36.0682Z" fill="#5E6D7B"/>
<path d="M39.2073 29.9092L39.4209 31.5097L40.1934 29.9092H40.6658L39.6058 31.933H39.1087L38.9075 30.5979L38.5828 31.2612L38.2294 31.933H37.7364L37.3789 29.9092H37.8555L38.0651 31.5097L38.8416 29.9092H39.2073Z" fill="#5E6D7B"/>
<path d="M41.2098 31.096C41.1933 31.3751 41.411 31.603 41.7808 31.603C41.9863 31.603 42.2574 31.5224 42.4052 31.3821L42.6354 31.6492C42.385 31.8801 42.015 31.9949 41.7028 31.9949C41.1194 31.9949 40.7783 31.6442 40.7783 31.1079C40.7783 30.3942 41.3371 29.8623 42.052 29.8623C42.7053 29.8623 43.075 30.2586 42.8531 31.096H41.2098ZM42.508 30.7471C42.5409 30.3981 42.3355 30.2562 41.9944 30.2562C41.6863 30.2562 41.4028 30.3981 41.2794 30.7471H42.508Z" fill="#5E6D7B"/>
<path d="M44.0121 29.9093L43.6547 31.9331H43.2314L43.589 29.9093H44.0121ZM43.6382 29.358C43.6382 29.5023 43.7452 29.5769 43.8601 29.5769C44.0244 29.5769 44.1766 29.4695 44.1766 29.2675C44.1766 29.1311 44.0738 29.0527 43.9629 29.0527C43.8107 29.0527 43.6382 29.1518 43.6382 29.358Z" fill="#5E6D7B"/>
<path d="M45.8898 30.4101C45.7583 30.2616 45.59 30.2204 45.3887 30.2204C45.1091 30.2204 44.9119 30.3153 44.9119 30.4926C44.9119 30.6411 45.0722 30.7032 45.3105 30.7238C45.6803 30.7567 46.1527 30.8806 46.0541 31.4045C45.9843 31.7839 45.6063 32.0066 45.0804 32.0066C44.7517 32.0066 44.4353 31.9324 44.2217 31.6313L44.4969 31.3302C44.6489 31.5405 44.916 31.6272 45.1542 31.6313C45.3555 31.6313 45.594 31.557 45.6309 31.3673C45.6678 31.1858 45.5076 31.1157 45.2118 31.0867C44.8666 31.0537 44.4887 30.926 44.4887 30.5422C44.4887 30.0349 45.0351 29.8574 45.446 29.8574C45.7582 29.8574 45.9883 29.9275 46.1774 30.1297L45.8898 30.4101Z" fill="#5E6D7B"/>
<path d="M50.6205 31.9335L50.8137 30.8503C50.8752 30.4996 50.7562 30.2673 50.3699 30.2673C50.033 30.2673 49.7494 30.5394 49.692 30.8735L49.5071 31.9335H49.084L49.4415 29.9097H49.8277L49.7989 30.2055C50.0332 29.9868 50.2755 29.8789 50.5383 29.8789C51.0315 29.8789 51.352 30.2234 51.2411 30.8463L51.0478 31.9335H50.6205Z" fill="#5E6D7B"/>
</g>
<defs>
<clipPath id="clip0_50_2958">
<rect width="52" height="32" fill="white" transform="translate(0 0.00683594)"/>
</clipPath>
</defs>
</svg>
