<svg width="27" height="32" viewBox="0 0 27 32" fill="none" xmlns="http://www.w3.org/2000/svg">
<g clip-path="url(#clip0_50_2988)">
<mask id="mask0_50_2988" style="mask-type:luminance" maskUnits="userSpaceOnUse" x="0" y="0" width="27" height="33">
<path d="M26.8921 0.00683594H0V32.0068H26.8921V0.00683594Z" fill="white"/>
</mask>
<g mask="url(#mask0_50_2988)">
<path fill-rule="evenodd" clip-rule="evenodd" d="M13.3079 25.7942H24.3212C26.8343 25.7942 26.8605 23.1023 26.6038 21.7739C26.4641 20.8802 24.9569 20.8942 24.791 21.7739V22.8102C24.7905 23.0387 24.7002 23.2578 24.5398 23.4194C24.3795 23.5809 24.162 23.6719 23.9352 23.6723H2.82392C2.5971 23.6719 2.3797 23.5809 2.21931 23.4194C2.05893 23.2578 1.96862 23.0387 1.96816 22.8102V21.7739C1.80224 20.8942 0.295043 20.8802 0.155326 21.7739C-0.101405 23.1023 -0.0752081 25.7942 2.43796 25.7942H13.3079ZM5.52396 0.00488281H22.5031C23.696 0.00488281 24.6722 1.04645 24.6722 2.3185V3.4234C24.6722 4.98575 22.5764 4.97871 22.5764 3.43395V2.83224C22.5764 2.64559 22.5029 2.46658 22.3718 2.33461C22.2408 2.20262 22.0632 2.12848 21.8778 2.12848H4.8638C4.67852 2.12848 4.50083 2.20262 4.36982 2.33461C4.23881 2.46658 4.16521 2.64559 4.16521 2.83224V3.4234C4.16521 4.97695 2.16376 4.96639 2.16376 3.45683V2.32026C2.169 1.04821 3.14353 0.00488281 4.33636 0.00488281H5.52396Z" fill="#5E6D7B"/>
<path fill-rule="evenodd" clip-rule="evenodd" d="M24.2444 12.7095C24.8275 12.9718 25.3241 13.3962 25.6761 13.9328C26.0282 14.4694 26.221 15.0961 26.2319 15.7392C26.2319 17.6006 24.6182 19.1243 22.6464 19.1243H17.1154C16.8754 19.1314 16.6423 19.0432 16.4665 18.8786C16.2907 18.7139 16.1862 18.4862 16.1758 18.2446V7.63894C16.1767 7.39254 16.2744 7.15653 16.4474 6.98247C16.6206 6.8084 16.8551 6.71043 17.0997 6.70997H21.7051C22.3955 6.70835 23.0713 6.91163 23.6479 7.29443C24.2244 7.67723 24.6763 8.22264 24.9471 8.86248C25.218 9.5024 25.2957 10.2085 25.1708 10.8926C25.0458 11.5768 24.7237 12.2087 24.2444 12.7095ZM20.1175 11.8474H21.8727V11.8281C22.2667 11.7658 22.6257 11.5643 22.8855 11.2597C23.1454 10.955 23.289 10.5671 23.2908 10.1654C23.2895 9.71976 23.1131 9.2928 22.8003 8.9776C22.4875 8.66248 22.0636 8.4848 21.6212 8.48344H18.0847V17.2805H22.5678C22.799 17.2878 23.0292 17.2484 23.2448 17.1644C23.4605 17.0805 23.6572 16.9537 23.8233 16.7916C23.9893 16.6295 24.1214 16.4355 24.2115 16.221C24.3017 16.0066 24.3482 15.776 24.3482 15.543C24.3482 15.3101 24.3017 15.0796 24.2115 14.865C24.1214 14.6506 23.9893 14.4566 23.8233 14.2945C23.6572 14.1324 23.4605 14.0057 23.2448 13.9217C23.0292 13.8377 22.799 13.7982 22.5678 13.8056H21.8692H20.1175C19.9902 13.8056 19.8642 13.7804 19.7466 13.7313C19.629 13.6822 19.5221 13.6103 19.4321 13.5196C19.3422 13.429 19.2708 13.3213 19.222 13.2029C19.1733 13.0844 19.1482 12.9574 19.1482 12.8292C19.1482 12.701 19.1733 12.574 19.222 12.4555C19.2708 12.337 19.3422 12.2294 19.4321 12.1387C19.5221 12.048 19.629 11.9761 19.7466 11.927C19.8642 11.8779 19.9902 11.8527 20.1175 11.8527" fill="#5E6D7B"/>
<path d="M6.22417 29.0488C6.22417 28.9695 6.25545 28.8934 6.31113 28.8373C6.36681 28.7812 6.44232 28.7497 6.52107 28.7497C6.59981 28.7497 6.67533 28.7812 6.73101 28.8373C6.78669 28.8934 6.81797 28.9695 6.81797 29.0488V30.664C6.81751 31.0191 6.67739 31.3595 6.42829 31.6108C6.17919 31.862 5.84142 32.0036 5.48891 32.0046C5.1364 32.0041 4.79844 31.863 4.54901 31.612C4.29959 31.3611 4.15902 31.0208 4.1581 30.6657V29.0505C4.15496 29.0095 4.16029 28.9682 4.17374 28.9292C4.1872 28.8904 4.20849 28.8546 4.23629 28.8244C4.26408 28.7942 4.29779 28.77 4.33527 28.7536C4.37276 28.7371 4.41322 28.7285 4.45412 28.7285C4.49504 28.7285 4.5355 28.7371 4.57299 28.7536C4.61047 28.77 4.64416 28.7942 4.67197 28.8244C4.69976 28.8546 4.72105 28.8904 4.7345 28.9292C4.74796 28.9682 4.75329 29.0095 4.75015 29.0505V30.6657C4.75198 30.8628 4.83064 31.0513 4.96916 31.1905C5.10769 31.3297 5.29498 31.4085 5.49065 31.4099C5.6866 31.409 5.87424 31.33 6.01263 31.1903C6.15103 31.0505 6.22895 30.8613 6.22941 30.664L6.22417 29.0488Z" fill="#5E6D7B"/>
<path d="M9.03252 31.4087C9.11129 31.4087 9.18681 31.4402 9.24248 31.4963C9.29815 31.5524 9.32944 31.6284 9.32944 31.7077C9.32944 31.7871 9.29815 31.8632 9.24248 31.9192C9.18681 31.9753 9.11129 32.0068 9.03252 32.0068H8.20822C7.91314 32.0068 7.63018 31.8888 7.42155 31.6786C7.21291 31.4684 7.0957 31.1833 7.0957 30.8861V29.0493C7.0957 28.9704 7.1268 28.8948 7.18215 28.8391C7.2375 28.7833 7.31258 28.752 7.39085 28.752C7.46913 28.752 7.54421 28.7833 7.59956 28.8391C7.65491 28.8948 7.686 28.9704 7.686 29.0493V30.8826C7.686 31.0226 7.74121 31.1568 7.83947 31.2558C7.93772 31.3548 8.071 31.4104 8.20997 31.4104H9.03252V31.4087Z" fill="#5E6D7B"/>
<path d="M15.2973 18.0667C15.3187 18.2156 15.31 18.3675 15.2718 18.513C15.2336 18.6585 15.1666 18.7948 15.0749 18.9136C14.9832 19.0324 14.8687 19.1314 14.7381 19.2046C14.6076 19.2778 14.4637 19.3237 14.3151 19.3396C14.1665 19.3554 14.0163 19.3409 13.8734 19.2969C13.7305 19.2529 13.5978 19.1804 13.4835 19.0836C13.3691 18.9868 13.2752 18.8676 13.2076 18.7334C13.1399 18.5992 13.0998 18.4526 13.0898 18.3024L12.1764 9.87317L8.96114 18.116V18.1371V18.1547V18.1723V18.1828V18.1987V18.2163C8.89062 18.3405 8.7962 18.4494 8.68344 18.5364L8.66597 18.5505C8.60752 18.6037 8.54304 18.6498 8.47387 18.6878L8.45291 18.6984L8.43369 18.7088H8.42146H8.40748H8.39525H8.38128H8.3708H8.35857H8.34808H8.3376H8.32362C8.21928 18.7464 8.10961 18.7672 7.99883 18.7704H7.91847C7.79392 18.7668 7.67096 18.7412 7.55521 18.6948H7.53949H7.52377H7.5098H7.49932H7.48535H7.47312H7.4644L7.44518 18.6843L7.42772 18.6737H7.41724C7.35525 18.6404 7.29674 18.6009 7.24259 18.5558L7.20592 18.5224L7.17797 18.496L7.11161 18.4784L7.07842 18.4415C7.03367 18.3869 6.99446 18.328 6.96141 18.2655V18.2549L6.95094 18.2373L6.94045 18.218V18.2057V18.1916V18.1811V18.1652V18.1512V18.1353L3.66583 9.87317L2.75592 18.3024C2.72489 18.5972 2.57893 18.8673 2.35015 19.0536C2.12138 19.2398 1.82852 19.3269 1.53602 19.2956C1.24351 19.2644 0.975313 19.1173 0.790428 18.8868C0.60554 18.6564 0.519105 18.3614 0.550139 18.0667L1.62247 8.12957C1.64836 7.89557 1.7183 7.66866 1.82855 7.46103C1.96615 7.20161 2.16302 6.97888 2.40292 6.81123C2.64282 6.64359 2.91887 6.53584 3.20826 6.49688H3.26764C3.36124 6.48987 3.45522 6.48987 3.54882 6.49688C3.66178 6.5014 3.77405 6.51672 3.88414 6.54262C4.17384 6.60945 4.44291 6.74669 4.66788 6.94234C4.89285 7.13801 5.06688 7.38614 5.17478 7.66512L7.92371 14.664L10.6674 7.64225C10.7964 7.30941 11.0189 7.02167 11.3077 6.81419C11.5964 6.60672 11.939 6.4885 12.2933 6.47401C12.387 6.467 12.481 6.467 12.5745 6.47401H12.6339C12.9232 6.51324 13.1992 6.6211 13.439 6.78872C13.6789 6.95633 13.8758 7.17891 14.0136 7.43816C14.0672 7.54217 14.1122 7.65045 14.1481 7.76189C14.1834 7.87652 14.2074 7.99438 14.2197 8.11373L15.2973 18.0667Z" fill="#5E6D7B"/>
<path d="M4.04315 31.674C4.05037 31.7141 4.04936 31.7553 4.04017 31.7951C4.03099 31.8349 4.01382 31.8723 3.98973 31.9051C3.96564 31.9379 3.93513 31.9654 3.9001 31.9859C3.86506 32.0065 3.82623 32.0195 3.786 32.0243C3.74576 32.0291 3.70498 32.0256 3.66615 32.0139C3.62733 32.0022 3.59128 31.9827 3.56023 31.9565C3.52919 31.9302 3.5038 31.8979 3.48563 31.8614C3.46746 31.8249 3.4569 31.7851 3.45459 31.7443L3.20135 29.5926L2.29493 31.7039C2.26382 31.7766 2.20535 31.8339 2.13234 31.8633C2.05933 31.8926 1.97775 31.8916 1.90547 31.8605C1.83603 31.8303 1.78092 31.7741 1.75179 31.7039L0.845366 29.5926L0.590385 31.7443C0.588076 31.7851 0.577511 31.8249 0.559342 31.8614C0.541173 31.8979 0.515784 31.9302 0.484738 31.9565C0.453693 31.9827 0.417647 32.0022 0.37882 32.0139C0.339994 32.0256 0.299208 32.0291 0.258974 32.0243C0.218741 32.0195 0.17991 32.0065 0.144873 31.9859C0.109836 31.9654 0.0793344 31.9379 0.0552454 31.9051C0.0311564 31.8723 0.0139901 31.8349 0.00480324 31.7951C-0.00438359 31.7553 -0.00539651 31.7141 0.00182681 31.674L0.300473 29.1756C0.310057 29.0969 0.338836 29.0218 0.384243 28.957C0.42965 28.8922 0.490272 28.8398 0.560695 28.8044C0.579253 28.7942 0.598514 28.7853 0.618329 28.778H0.641033C0.669286 28.7681 0.698595 28.7616 0.728356 28.7586C0.802746 28.7482 0.878513 28.7546 0.950118 28.7775C1.02172 28.8003 1.08737 28.8389 1.14227 28.8905C1.1643 28.9114 1.1842 28.9344 1.20165 28.9592C1.21454 28.9772 1.2262 28.996 1.23658 29.0155C1.24308 29.0263 1.24891 29.0374 1.25404 29.0489L2.02249 30.8435L2.79093 29.0349C2.8225 28.963 2.87068 28.8998 2.93145 28.8505C2.99222 28.8013 3.0638 28.7673 3.14022 28.7516C3.16905 28.7457 3.19821 28.7415 3.22754 28.7393H3.31837C3.39396 28.7478 3.46661 28.7737 3.53078 28.8149C3.59494 28.8561 3.64893 28.9114 3.68862 28.9768C3.70516 29.0039 3.71863 29.0329 3.72878 29.063C3.73608 29.0817 3.74135 29.1012 3.7445 29.1211C3.74533 29.134 3.74533 29.1469 3.7445 29.1597L4.04315 31.674Z" fill="#5E6D7B"/>
<path d="M10.3251 31.7075C10.3251 31.7869 10.2938 31.863 10.2381 31.919C10.1825 31.9751 10.107 32.0066 10.0282 32.0066C9.9494 32.0066 9.87388 31.9751 9.81821 31.919C9.76254 31.863 9.73125 31.7869 9.73125 31.7075V29.3482H8.88774C8.80896 29.3482 8.73344 29.3167 8.67778 29.2606C8.62211 29.2045 8.59082 29.1284 8.59082 29.0491C8.59082 28.9698 8.62211 28.8937 8.67778 28.8376C8.73344 28.7815 8.80896 28.75 8.88774 28.75H11.1686C11.2474 28.75 11.3229 28.7815 11.3786 28.8376C11.4342 28.8937 11.4655 28.9698 11.4655 29.0491C11.4655 29.1284 11.4342 29.2045 11.3786 29.2606C11.3229 29.3167 11.2474 29.3482 11.1686 29.3482H10.3251V31.7075Z" fill="#5E6D7B"/>
<path d="M12.1768 31.7075C12.1768 31.7869 12.1456 31.863 12.0899 31.919C12.0342 31.9751 11.9587 32.0066 11.8799 32.0066C11.8012 32.0066 11.7257 31.9751 11.67 31.919C11.6143 31.863 11.583 31.7869 11.583 31.7075V29.0491C11.583 28.9698 11.6143 28.8937 11.67 28.8376C11.7257 28.7815 11.8012 28.75 11.8799 28.75C11.9587 28.75 12.0342 28.7815 12.0899 28.8376C12.1456 28.8937 12.1768 28.9698 12.1768 29.0491V31.7075Z" fill="#5E6D7B"/>
<path d="M18.2563 31.6739C18.2613 31.7502 18.237 31.8256 18.1886 31.8844C18.1402 31.9433 18.0712 31.9813 17.9959 31.9905C17.9205 31.9998 17.8445 31.9796 17.7834 31.9341C17.7224 31.8887 17.681 31.8213 17.6677 31.746L17.5629 30.9016H16.543C16.5021 30.9047 16.4612 30.8993 16.4226 30.8858C16.3839 30.8722 16.3485 30.8508 16.3185 30.8228C16.2884 30.7948 16.2645 30.7608 16.2481 30.7231C16.2317 30.6853 16.2233 30.6445 16.2233 30.6033C16.2233 30.5621 16.2317 30.5213 16.2481 30.4836C16.2645 30.4458 16.2884 30.4119 16.3185 30.3839C16.3485 30.3559 16.3839 30.3344 16.4226 30.3208C16.4612 30.3073 16.5021 30.302 16.543 30.3051H17.4965L17.4686 30.0852C17.4686 30.0852 17.4686 30.0711 17.4686 30.064C17.4609 30.0124 17.4498 29.9612 17.4354 29.911C17.4194 29.8572 17.399 29.8048 17.3743 29.7544C17.3223 29.6368 17.2383 29.5364 17.132 29.4652C17.0255 29.3938 16.9013 29.3544 16.7735 29.3515C16.723 29.3519 16.6726 29.3578 16.6233 29.3691C16.5772 29.3807 16.5326 29.3978 16.4905 29.4201C16.3731 29.4886 16.2741 29.585 16.2023 29.7009C16.1304 29.8169 16.0878 29.9488 16.0784 30.0852L15.8933 31.746C15.889 31.7848 15.8772 31.8224 15.8586 31.8567C15.8399 31.8909 15.8147 31.9211 15.7845 31.9456C15.7542 31.97 15.7195 31.9881 15.6823 31.9991C15.645 32.01 15.6061 32.0133 15.5675 32.0091C15.529 32.0048 15.4917 31.9929 15.4577 31.9741C15.4237 31.9553 15.3938 31.93 15.3696 31.8995C15.3453 31.869 15.3272 31.834 15.3164 31.7965C15.3056 31.7591 15.3022 31.7198 15.3064 31.6809L15.4916 30.0201C15.5112 29.7851 15.5883 29.5585 15.716 29.3608C15.8437 29.1632 16.018 29.0004 16.2233 28.887C16.3067 28.8448 16.3946 28.8124 16.4853 28.7903C16.5798 28.7681 16.6765 28.7569 16.7735 28.7568C17.0114 28.7581 17.2439 28.8279 17.4438 28.9579C17.6437 29.0879 17.8026 29.2727 17.9017 29.4905C17.9422 29.572 17.976 29.6568 18.003 29.7439C18.0257 29.824 18.0427 29.9058 18.0537 29.9884C18.0553 29.9972 18.0553 30.0061 18.0537 30.0148L18.2563 31.6739Z" fill="#5E6D7B"/>
<path d="M19.1627 31.7075C19.1659 31.7486 19.1605 31.7899 19.1471 31.8289C19.1337 31.8678 19.1123 31.9034 19.0845 31.9337C19.0567 31.9639 19.023 31.9881 18.9856 32.0046C18.9481 32.021 18.9076 32.0296 18.8667 32.0296C18.8258 32.0296 18.7854 32.021 18.7479 32.0046C18.7104 31.9881 18.6766 31.9639 18.6488 31.9337C18.6211 31.9034 18.5998 31.8678 18.5863 31.8289C18.5728 31.7899 18.5675 31.7486 18.5707 31.7075V29.2444C18.5689 29.2274 18.5689 29.2103 18.5707 29.1934C18.5745 29.1603 18.5821 29.1278 18.5933 29.0966L18.6178 29.0438C18.6689 28.9523 18.7516 28.8828 18.8501 28.8486L18.8903 28.838H18.9217H18.9916H19.0003C19.0609 28.8406 19.1203 28.8563 19.1742 28.8843C19.2282 28.9122 19.2756 28.9517 19.3129 28.9998L20.8848 31.0284V29.0491C20.8848 28.9698 20.9161 28.8937 20.9717 28.8376C21.0274 28.7815 21.1029 28.75 21.1816 28.75C21.2604 28.75 21.3359 28.7815 21.3916 28.8376C21.4472 28.8937 21.4785 28.9698 21.4785 29.0491V31.5122C21.4783 31.5747 21.4642 31.6364 21.4373 31.6926C21.4104 31.749 21.3714 31.7986 21.3231 31.8378C21.3041 31.8538 21.2836 31.8679 21.262 31.88C21.2503 31.8869 21.238 31.8928 21.2253 31.8976L21.2008 31.9082C21.0967 31.9448 20.9824 31.9385 20.883 31.8906L20.8446 31.8712C20.8239 31.858 20.8045 31.8426 20.7869 31.8254C20.7733 31.8134 20.7604 31.8005 20.7485 31.7867L20.738 31.7744L19.1627 29.7388V31.7075Z" fill="#5E6D7B"/>
<path d="M23.7936 31.4089C23.8723 31.4089 23.9478 31.4404 24.0035 31.4965C24.0592 31.5525 24.0905 31.6286 24.0905 31.7079C24.0905 31.7873 24.0592 31.8633 24.0035 31.9194C23.9478 31.9755 23.8723 32.007 23.7936 32.007H22.9203C22.6105 32.007 22.3132 31.883 22.0941 31.6623C21.875 31.4416 21.752 31.1421 21.752 30.83V29.9309C21.7529 29.619 21.8762 29.3202 22.0952 29.0997C22.3141 28.8791 22.6107 28.7549 22.9203 28.7539H23.7936C23.8723 28.7539 23.9478 28.7854 24.0035 28.8415C24.0592 28.8976 24.0905 28.9737 24.0905 29.053C24.0905 29.1323 24.0592 29.2084 24.0035 29.2645C23.9478 29.3206 23.8723 29.3521 23.7936 29.3521H22.9203C22.7664 29.3539 22.6194 29.4172 22.5117 29.5281C22.457 29.5813 22.4134 29.6449 22.3834 29.7153C22.3534 29.7857 22.3377 29.8614 22.337 29.938V30.837C22.3379 30.9912 22.3992 31.1388 22.5073 31.2478C22.6156 31.3568 22.7621 31.4185 22.9151 31.4194H23.7883L23.7936 31.4089Z" fill="#5E6D7B"/>
<path d="M25.5104 29.3465C25.3016 29.3456 25.1006 29.4263 24.9497 29.5717C24.8782 29.6394 24.8209 29.7212 24.7816 29.8119C24.7423 29.9026 24.7216 30.0005 24.7209 30.0995V30.6572C24.7213 30.7561 24.7416 30.8539 24.7806 30.9446C24.8197 31.0353 24.8766 31.1171 24.948 31.185C25.0989 31.3303 25.2998 31.4111 25.5086 31.4103C25.7173 31.4111 25.9183 31.3303 26.0692 31.185C26.1408 31.1172 26.198 31.0354 26.2373 30.9447C26.2766 30.854 26.2972 30.7562 26.298 30.6572V30.0995C26.2972 30.0007 26.2767 29.903 26.2377 29.8123C26.1987 29.7217 26.142 29.6398 26.0709 29.5717C25.9191 29.4267 25.7178 29.3461 25.5086 29.3465M25.5086 28.75C25.8702 28.7487 26.2183 28.8887 26.4796 29.1406C26.6087 29.2638 26.7117 29.4122 26.7822 29.5768C26.8527 29.7413 26.8894 29.9185 26.8901 30.0977V30.6555C26.8894 30.8347 26.8527 31.0118 26.7822 31.1764C26.7117 31.3409 26.6087 31.4893 26.4796 31.6126C26.2183 31.8645 25.8702 32.0045 25.5086 32.0031C25.1469 32.0045 24.7988 31.8645 24.5376 31.6126C24.409 31.489 24.3066 31.3405 24.2363 31.176C24.1661 31.0115 24.1295 30.8345 24.1289 30.6555V30.0977C24.1295 29.9186 24.1661 29.7416 24.2363 29.5772C24.3066 29.4127 24.409 29.2642 24.5376 29.1406C24.7988 28.8887 25.1469 28.7487 25.5086 28.75Z" fill="#5E6D7B"/>
<path d="M13.0166 29.3478V31.4081H14.1623C14.2113 31.4081 14.2598 31.3983 14.3051 31.3794C14.3503 31.3604 14.3914 31.3326 14.426 31.2977C14.4606 31.2627 14.4879 31.2211 14.5065 31.1755C14.5251 31.1298 14.5346 31.0809 14.5343 31.0315C14.5345 30.9377 14.4996 30.8472 14.4365 30.7782L14.4243 30.7676C14.3904 30.7322 14.3496 30.7038 14.3047 30.6846C14.2596 30.6652 14.2113 30.6551 14.1623 30.655H13.7676C13.6888 30.655 13.6134 30.6235 13.5576 30.5674C13.502 30.5114 13.4707 30.4353 13.4707 30.3559C13.4707 30.2766 13.502 30.2006 13.5576 30.1444C13.6134 30.0883 13.6888 30.0568 13.7676 30.0568H13.9021C13.9863 30.0494 14.0653 30.0126 14.1257 29.953C14.1589 29.9202 14.1852 29.881 14.2033 29.8378C14.2212 29.7946 14.2305 29.7483 14.2304 29.7014C14.2304 29.6081 14.1937 29.5186 14.1281 29.4526C14.0626 29.3866 13.9738 29.3495 13.8812 29.3495H13.0166V29.3478ZM12.4229 30.3594V29.061C12.4227 29.0204 12.431 28.9802 12.4473 28.9431C12.4637 28.9047 12.4868 28.8696 12.5154 28.8394C12.5683 28.7883 12.6378 28.7583 12.711 28.7549H13.8724C14.123 28.7549 14.3633 28.8551 14.5405 29.0337C14.7177 29.2122 14.8173 29.4542 14.8173 29.7067C14.8167 29.8859 14.7665 30.0614 14.6723 30.2134C14.7354 30.251 14.794 30.2959 14.8469 30.3471L14.8661 30.3682C15.0357 30.5482 15.1301 30.787 15.1298 31.035C15.1294 31.2925 15.0277 31.5393 14.847 31.7213C14.6663 31.9033 14.4213 32.0058 14.1658 32.0062H12.7198C12.641 32.0062 12.5655 31.9747 12.5098 31.9186C12.4541 31.8626 12.4229 31.7865 12.4229 31.7071V30.3594Z" fill="#5E6D7B"/>
</g>
</g>
<defs>
<clipPath id="clip0_50_2988">
<rect width="27" height="32" fill="white" transform="translate(0 0.00683594)"/>
</clipPath>
</defs>
</svg>
