<svg width="66" height="32" viewBox="0 0 66 32" fill="none" xmlns="http://www.w3.org/2000/svg">
<g clip-path="url(#clip0_50_2976)">
<mask id="mask0_50_2976" style="mask-type:luminance" maskUnits="userSpaceOnUse" x="0" y="0" width="66" height="33">
<path d="M65.7347 0.00683594H0V32.0068H65.7347V0.00683594Z" fill="white"/>
</mask>
<g mask="url(#mask0_50_2976)">
<path d="M2.55705 27.918L2.44688 28.7828C2.43534 28.8755 2.44225 28.9697 2.46721 29.0598C2.49216 29.1498 2.53468 29.2341 2.59228 29.3076C2.64989 29.3812 2.72146 29.4425 2.80287 29.4883C2.88428 29.5339 2.9739 29.5631 3.06658 29.5739H31.1186C31.2127 29.5751 31.306 29.5577 31.3933 29.5228C31.4807 29.4879 31.5603 29.436 31.6276 29.3702C31.695 29.3045 31.7487 29.226 31.7859 29.1395C31.8229 29.0529 31.8426 28.9598 31.8438 28.8656C31.8463 28.8364 31.8463 28.8072 31.8438 28.7781L31.7291 27.9134C31.697 27.5898 31.7938 27.2665 31.9984 27.0142C32.203 26.7617 32.4989 26.6005 32.8216 26.5657C32.9799 26.5484 33.14 26.5626 33.2927 26.6074C33.4455 26.6521 33.588 26.7266 33.712 26.8265C33.8361 26.9266 33.9393 27.05 34.0157 27.1899C34.0921 27.3298 34.1403 27.4835 34.1574 27.642L34.2676 28.4838C34.4834 30.3558 33.4229 32.0025 31.5134 32.0025H2.75903C0.867772 32.0025 -0.188021 30.3558 0.0277276 28.4838L0.137897 27.642C0.153944 27.4842 0.200901 27.3313 0.276075 27.1918C0.35125 27.0522 0.453164 26.9289 0.575979 26.8289C0.698794 26.7289 0.840094 26.6543 0.99178 26.609C1.14346 26.5639 1.30256 26.5492 1.45993 26.5657C1.78301 26.6017 2.07893 26.7638 2.28346 27.0169C2.48799 27.2702 2.58465 27.5939 2.55246 27.918" fill="#5E6D7B"/>
<path d="M28.4013 21.4183C29.0079 21.4509 29.6028 21.2412 30.0554 20.8351C30.508 20.429 30.7814 19.8597 30.8158 19.2519C30.818 19.212 30.818 19.1721 30.8158 19.1322C30.7883 17.7938 29.5718 16.929 28.2176 16.9244H25.4771C25.1728 16.9244 24.8809 16.8033 24.6657 16.5876C24.4505 16.372 24.3296 16.0795 24.3296 15.7745C24.3296 15.4695 24.4505 15.177 24.6657 14.9613C24.8809 14.7458 25.1728 14.6246 25.4771 14.6246H27.3133C28.5482 14.5739 29.4984 13.8243 29.5581 12.6605C29.6177 11.4047 28.5436 10.4665 27.2353 10.4665H22.7918V21.3999H28.4013M31.7661 12.6605C31.768 13.1403 31.6744 13.6156 31.4908 14.0587C31.3072 14.5018 31.0371 14.9037 30.6965 15.2409L30.6276 15.3191L30.7195 15.3743C31.3907 15.7483 31.9546 16.2892 32.3566 16.9451C32.7586 17.6009 32.9853 18.3494 33.0147 19.1185C33.0306 20.333 32.5666 21.5044 31.7238 22.3773C30.8811 23.2503 29.7279 23.7538 28.516 23.778H21.6304C21.3118 23.7731 21.0081 23.6423 20.7854 23.4139C20.5626 23.1855 20.439 22.8782 20.4416 22.559V9.43613C20.439 9.27516 20.4688 9.11533 20.529 8.96607C20.5892 8.81681 20.6786 8.68115 20.792 8.5671C20.9054 8.45305 21.0405 8.36293 21.1892 8.30205C21.3379 8.24115 21.4973 8.21075 21.658 8.21261H27.2353C28.4038 8.18044 29.5374 8.61432 30.3869 9.41898C31.2364 10.2236 31.7325 11.3333 31.7661 12.5042V12.6559" fill="#5E6D7B"/>
<path d="M9.98941 19.2892L10.0215 19.3811L10.0537 19.2892C10.3658 18.4244 10.7469 17.4493 11.1462 16.4236C11.5456 15.3977 11.9724 14.2755 12.381 13.2727C12.7896 12.27 13.189 11.3501 13.5654 10.5589C13.8131 9.97505 14.1208 9.41857 14.4834 8.89843C14.6601 8.67859 14.8849 8.50243 15.1404 8.38358C15.3959 8.26474 15.6754 8.2064 15.9569 8.21308H16.237C16.5553 8.19978 16.8679 8.30093 17.1183 8.49826C17.3106 8.65799 17.4352 8.88482 17.4671 9.13302L19.2161 22.7021C19.2233 22.8522 19.2005 23.0024 19.1493 23.1438C19.0981 23.2851 19.0194 23.4148 18.9178 23.5254C18.681 23.724 18.3766 23.8229 18.0685 23.8014C17.754 23.8191 17.4429 23.7282 17.1872 23.5439C17.0742 23.4665 16.9792 23.3656 16.9087 23.2482C16.8381 23.1306 16.7938 22.9993 16.7786 22.8631C16.719 22.4031 16.6684 21.9109 16.6134 21.359C16.5583 20.807 16.2645 18.4473 16.1864 17.8448C16.1084 17.2422 15.6265 13.4016 15.4566 12.0079V11.8882L14.8966 13.0658C14.7083 13.4705 14.5018 13.9535 14.2769 14.5192C14.052 15.085 13.8178 15.683 13.6021 16.3177C13.3863 16.9525 12.2754 20.025 12.2754 20.025C12.1745 20.3057 11.9817 20.8714 11.8164 21.405C11.6512 21.9385 11.4813 22.3939 11.44 22.4813C11.2506 22.8527 10.9218 23.1335 10.5258 23.2621C10.1298 23.3905 9.69913 23.3562 9.3284 23.1667C9.02663 23.0158 8.78064 22.7725 8.62606 22.4721C8.58016 22.3847 8.42408 21.9155 8.24506 21.3958C8.06603 20.876 7.8916 20.3149 7.78602 20.0159C7.78602 20.0159 6.70727 16.9157 6.46398 16.3086C6.22069 15.7014 6.00494 15.0804 5.78919 14.5101C5.57343 13.9397 5.3531 13.4613 5.16948 13.0565L4.60486 11.8928V12.0125C4.43502 13.3923 3.94844 17.2376 3.8704 17.8495C3.79236 18.4612 3.50775 20.7978 3.44349 21.3451C3.37922 21.8926 3.32873 22.3985 3.27364 22.8493C3.25847 22.9856 3.21412 23.1169 3.1436 23.2344C3.0731 23.3519 2.97809 23.4527 2.86509 23.53C2.61061 23.7134 2.30133 23.8042 1.98833 23.7876C1.6832 23.8082 1.38202 23.7092 1.14828 23.5117C1.04665 23.401 0.967942 23.2712 0.916724 23.1299C0.865505 22.9886 0.842794 22.8385 0.849907 22.6883L2.57591 9.13302C2.61595 8.89424 2.74164 8.67832 2.92937 8.52585C3.17532 8.3175 3.48872 8.20628 3.81072 8.21308H4.09073C4.3697 8.20616 4.64657 8.26305 4.9003 8.37941C5.15404 8.49577 5.37797 8.66856 5.55508 8.88464C5.91937 9.40371 6.22714 9.96038 6.47316 10.5451C6.84958 11.3363 7.24435 12.2408 7.65749 13.259C8.07062 14.277 8.48376 15.3272 8.8969 16.4097C9.29626 17.4493 9.67267 18.4105 9.98482 19.2753" fill="#5E6D7B"/>
<path d="M6.56437 0.00696315H27.7996C29.801 0.00696315 30.7972 1.51106 31.0129 3.49812L31.1047 4.13288C31.1409 4.46146 31.0458 4.79103 30.8402 5.04959C30.6346 5.30814 30.3353 5.47467 30.0076 5.51279C29.686 5.53833 29.3673 5.43579 29.1207 5.2274C28.874 5.01902 28.7193 4.7216 28.6902 4.39966L28.5983 3.7879C28.5111 3.03356 28.1944 2.4494 27.4278 2.4494H6.94079C6.17419 2.4494 5.85745 3.03356 5.76564 3.7879L5.68301 4.39046C5.65386 4.71291 5.49836 5.01064 5.25056 5.21841C5.00275 5.42619 4.68287 5.52708 4.36098 5.49899C4.19847 5.48069 4.04114 5.43047 3.89802 5.35119C3.75489 5.27192 3.62878 5.16514 3.52688 5.03697C3.42498 4.90881 3.3493 4.76177 3.30417 4.60427C3.25904 4.44676 3.24534 4.28189 3.26386 4.11908L3.35108 3.48432C3.58979 1.50186 4.58131 -0.00683594 6.56437 -0.00683594" fill="#5E6D7B"/>
<path d="M44.7572 14.3119C44.6103 14.8776 44.4588 15.4848 44.2982 16.1517C44.1374 16.8186 43.9768 17.4166 43.8391 17.9916C43.7014 18.5665 43.5408 19.0909 43.38 19.5371C43.2942 19.8545 43.1773 20.1625 43.0312 20.457C42.9412 20.603 42.8123 20.7208 42.6589 20.7972C42.5056 20.8736 42.334 20.9056 42.1636 20.8894C42.0083 20.8855 41.8541 20.8623 41.7046 20.8204C41.6047 20.7902 41.5123 20.7393 41.4333 20.6712C41.3542 20.6031 41.2903 20.5191 41.2456 20.4248C41.1001 20.1173 40.9834 19.797 40.8966 19.468C40.759 19.0081 40.6121 18.4469 40.4376 17.826C40.2631 17.205 40.13 16.5519 39.9786 15.8574C39.8271 15.1628 39.6802 14.5188 39.5609 13.9254C39.4415 13.3321 39.3313 12.8215 39.2486 12.4076C39.166 11.9936 39.1201 11.7406 39.1064 11.6532C39.1039 11.618 39.1039 11.5826 39.1064 11.5474V11.4877C39.1039 11.4054 39.1209 11.3237 39.156 11.2494C39.191 11.175 39.2433 11.1101 39.3083 11.0598C39.449 10.9484 39.6249 10.8913 39.8041 10.8989C39.9656 10.8918 40.1256 10.9334 40.2631 11.0184C40.3955 11.1176 40.4844 11.2643 40.511 11.4278C40.511 11.4278 40.5386 11.5981 40.5936 11.8878C40.6488 12.1776 40.7268 12.5225 40.814 12.9503C40.9012 13.3781 41.0022 13.8703 41.1078 14.4084C41.2134 14.9465 41.3282 15.494 41.4521 16.046C41.576 16.5978 41.6907 17.1268 41.8102 17.6466C41.9295 18.1664 42.0351 18.608 42.1406 18.9805C42.2416 18.6309 42.3564 18.2308 42.4803 17.78C42.6043 17.3293 42.7328 16.86 42.8567 16.4001C42.9807 15.9401 43.0955 15.4387 43.2102 14.9604C43.325 14.482 43.4306 14.0404 43.5315 13.6173C43.6325 13.1941 43.7105 12.8399 43.784 12.518C43.8575 12.1959 43.9125 11.9614 43.9539 11.805C44.0002 11.6242 44.1031 11.463 44.2476 11.345C44.3879 11.2175 44.568 11.1427 44.7572 11.1334C44.9592 11.1241 45.158 11.1877 45.3172 11.3128C45.46 11.4291 45.5575 11.5919 45.5926 11.7728C45.7165 12.2741 45.836 12.8446 45.969 13.4701C46.1022 14.0957 46.2444 14.7258 46.3867 15.3651C46.5291 16.0045 46.6851 16.6346 46.8458 17.2511C47.0065 17.8674 47.1534 18.4101 47.3049 18.8839C47.4058 18.5113 47.5206 18.0697 47.64 17.5546C47.7593 17.0394 47.8741 16.5059 47.998 15.9539C48.1219 15.4019 48.2459 14.8684 48.3561 14.3302C48.4663 13.7921 48.5763 13.3091 48.6682 12.8814C48.76 12.4535 48.838 12.104 48.8886 11.8372C48.939 11.5704 48.9758 11.4232 48.9758 11.4141C49.0076 11.2538 49.0955 11.1103 49.2237 11.0093C49.3608 10.9232 49.5211 10.8815 49.6827 10.8897C49.8631 10.8834 50.0401 10.9402 50.183 11.0506C50.2473 11.1016 50.2989 11.1667 50.334 11.2408C50.369 11.3151 50.3864 11.3964 50.3851 11.4784V11.5382C50.3872 11.575 50.3872 11.6118 50.3851 11.6486C50.3851 11.7314 50.3253 11.9798 50.2382 12.403C50.1509 12.8261 50.0454 13.3229 49.9214 13.9162C49.7974 14.5096 49.6551 15.1536 49.5036 15.8389C49.3522 16.5242 49.1915 17.1775 49.0446 17.7984C48.8977 18.4194 48.7508 18.9667 48.5856 19.4358C48.4995 19.7621 48.3827 20.0793 48.2367 20.3834C48.144 20.5765 47.979 20.7253 47.7776 20.7974C47.6296 20.8476 47.4749 20.8754 47.3186 20.8802C47.2559 20.8848 47.1931 20.8848 47.1304 20.8802C47.0402 20.8673 46.9511 20.8473 46.8642 20.8204C46.7656 20.7852 46.6728 20.7356 46.5888 20.6732C46.4924 20.6021 46.4165 20.507 46.3684 20.3972C46.2343 20.0808 46.1238 19.7549 46.0379 19.4221C45.9047 18.9621 45.7671 18.4561 45.6156 17.8857C45.4641 17.3154 45.3218 16.7082 45.1566 16.0828C44.9913 15.4572 44.8765 14.8729 44.7526 14.3302" fill="#5E6D7B"/>
<path d="M52.8769 18.01C52.7208 18.5069 52.5831 18.9668 52.4683 19.39C52.3536 19.8131 52.2343 20.1581 52.1332 20.4296C52.1089 20.6125 52.0129 20.7784 51.8667 20.8905C51.7203 21.0026 51.5355 21.0518 51.3528 21.0275C51.1703 21.0031 51.0047 20.907 50.8929 20.7603C50.781 20.6137 50.7318 20.4285 50.7561 20.2456C50.7552 20.1768 50.7661 20.1083 50.7882 20.0431L50.981 19.4037C51.0912 19.045 51.2335 18.5988 51.408 18.0561C51.5823 17.5133 51.7798 16.9338 51.9909 16.2944C52.2021 15.655 52.4225 15.0203 52.6474 14.3948C52.8723 13.7692 53.1064 13.185 53.3176 12.6468C53.4939 12.1947 53.7009 11.7551 53.9373 11.3313C54.0042 11.1777 54.1228 11.0524 54.2724 10.9772C54.4539 10.9081 54.6476 10.8767 54.8416 10.8851C55.0411 10.8811 55.2393 10.917 55.4246 10.9909C55.5016 11.028 55.5706 11.0799 55.6273 11.1439C55.684 11.2079 55.7275 11.2826 55.755 11.3635C55.9019 11.6717 56.0764 12.0902 56.2738 12.61C56.4711 13.1298 56.6915 13.6956 56.9118 14.3027C57.1322 14.9099 57.3709 15.5263 57.5729 16.1426C57.7748 16.7589 57.9906 17.3569 58.1697 17.8997C58.3486 18.4425 58.5047 18.907 58.6287 19.2796C58.7526 19.6522 58.8398 19.9098 58.8674 20.0248C58.8895 20.0899 58.9004 20.1583 58.8995 20.2271C58.9042 20.313 58.8897 20.3988 58.8571 20.4784C58.8246 20.5579 58.7747 20.6292 58.7113 20.6872C58.6386 20.752 58.5535 20.8014 58.4612 20.8322C58.3688 20.863 58.2712 20.8748 58.1743 20.8665C58.0314 20.88 57.8887 20.8388 57.7748 20.7515C57.6785 20.6609 57.6073 20.5468 57.5683 20.4203C57.4627 20.1489 57.3434 19.804 57.2011 19.3808C57.0587 18.9577 56.9118 18.4976 56.7421 18.0009H52.8631M56.3059 16.6531C56.0856 15.9817 55.8836 15.3652 55.6862 14.8133C55.4888 14.2613 55.3144 13.7324 55.0941 13.208C55.0435 13.093 54.9885 12.9643 54.9333 12.8078C54.8783 12.6514 54.8416 12.5732 54.8324 12.5457C54.7894 12.6243 54.7554 12.7076 54.7314 12.794C54.6718 12.9596 54.6212 13.093 54.5662 13.208C54.3596 13.714 54.1622 14.2476 53.9694 14.8133C53.7766 15.3791 53.5746 15.9908 53.3589 16.6531H56.3059Z" fill="#5E6D7B"/>
<path d="M61.581 16.975C61.5272 16.921 61.4781 16.8625 61.4341 16.8001L61.2826 16.5886C61.1357 16.3816 60.9842 16.1287 60.8236 15.8343C60.663 15.5399 60.4794 15.2271 60.3095 14.9143C60.1397 14.6015 59.9743 14.2474 59.8183 13.9116C59.6622 13.5758 59.5062 13.2631 59.3823 12.9916C59.2582 12.7202 59.1389 12.4489 59.0471 12.2373C58.9782 12.0889 58.9213 11.9351 58.8773 11.7773C58.8595 11.739 58.8456 11.6989 58.8359 11.6577C58.8359 11.6577 58.8359 11.5979 58.8359 11.5427C58.8354 11.457 58.8522 11.3721 58.8853 11.2929C58.9186 11.2139 58.9673 11.1424 59.0287 11.0828C59.101 11.0167 59.1857 10.9659 59.278 10.9335C59.3703 10.901 59.4683 10.8877 59.5659 10.8942C59.6491 10.8848 59.7334 10.8939 59.8129 10.921C59.8922 10.948 59.9645 10.9922 60.0249 11.0506C60.1056 11.1411 60.1693 11.2456 60.2131 11.3587L60.3646 11.6991C60.4426 11.8739 60.539 12.0901 60.6491 12.3477C60.7593 12.6053 60.8925 12.8905 61.0394 13.2032C61.1863 13.516 61.3285 13.815 61.4984 14.1231L61.9344 14.9833C62.0527 15.2147 62.1846 15.4391 62.3293 15.6549C62.5634 15.2887 62.7764 14.9093 62.9673 14.5187C63.1923 14.0588 63.4264 13.6218 63.6146 13.1756C63.8028 12.7294 64.0001 12.3385 64.1563 12.0027L64.4271 11.3633C64.4726 11.2499 64.5378 11.1456 64.6199 11.0552C64.6785 10.9946 64.7508 10.9488 64.8306 10.9216C64.9104 10.8944 64.9956 10.8866 65.0789 10.8988C65.1765 10.8918 65.2746 10.9049 65.367 10.9373C65.4594 10.9697 65.5441 11.0208 65.616 11.0874C65.6791 11.1458 65.7289 11.2171 65.7621 11.2965C65.7954 11.3758 65.8113 11.4614 65.8087 11.5473C65.8136 11.5855 65.8136 11.6241 65.8087 11.6623L65.7721 11.7819L65.5931 12.2419C65.5058 12.4581 65.3957 12.7019 65.2625 12.9963C65.1294 13.2906 64.9917 13.5989 64.8357 13.9162C64.6796 14.2335 64.5051 14.5832 64.3352 14.919C64.1655 15.2546 63.9956 15.5629 63.8258 15.8389C63.6559 16.1148 63.4952 16.3954 63.3667 16.5978C63.2787 16.7265 63.1789 16.8466 63.0684 16.9566V20.1763C63.0728 20.2701 63.058 20.3639 63.0248 20.4517C62.9917 20.5395 62.9408 20.6195 62.8756 20.687C62.7441 20.817 62.5668 20.8899 62.3821 20.8899C62.1974 20.8899 62.02 20.817 61.8886 20.687C61.8182 20.6184 61.7626 20.536 61.7255 20.445C61.6884 20.3541 61.6704 20.2562 61.6729 20.158V16.9382" fill="#5E6D7B"/>
</g>
</g>
<defs>
<clipPath id="clip0_50_2976">
<rect width="66" height="32" fill="white" transform="translate(0 0.00683594)"/>
</clipPath>
</defs>
</svg>
