<svg id="mc_symbol" xmlns="http://www.w3.org/2000/svg" width="53.155" height="37.667" viewBox="0 0 53.155 37.667">
  <rect id="Прямоугольник_268" data-name="Прямоугольник 268" width="53.155" height="37.667" fill="none"/>
  <g id="Сгруппировать_15" data-name="Сгруппировать 15" transform="translate(6.248 6.278)">
    <rect id="Прямоугольник_269" data-name="Прямоугольник 269" width="10.986" height="19.743" transform="translate(14.822 2.685)" fill="#ff5f00"/>
    <path id="Контур_36" data-name="Контур 36" d="M353.23,282.556a12.534,12.534,0,0,1,4.8-9.871,12.556,12.556,0,1,0,0,19.743A12.534,12.534,0,0,1,353.23,282.556Z" transform="translate(-337.711 -269.999)" fill="#eb001b"/>
    <path id="Контур_37" data-name="Контур 37" d="M416.272,282.556a12.555,12.555,0,0,1-20.314,9.871,12.558,12.558,0,0,0,0-19.743,12.555,12.555,0,0,1,20.314,9.871Z" transform="translate(-375.643 -270)" fill="#f79e1b"/>
    <path id="Контур_38" data-name="Контур 38" d="M450.3,327.4v-.4h.163v-.082h-.415v.082h.163v.4Zm.806,0v-.487h-.127l-.146.335-.146-.335h-.127v.487h.09v-.368l.137.317h.093l.137-.318v.368Z" transform="translate(-410.867 -307.062)" fill="#f79e1b"/>
  </g>
</svg>
