<svg xmlns="http://www.w3.org/2000/svg" width="63.754" height="20.657" viewBox="0 0 63.754 20.657">
  <g id="visa" transform="translate(848.754 -5074)">
    <path id="path3789" d="M42.025.5C37.5.5,33.453,2.846,33.453,7.181c0,4.971,7.175,5.315,7.175,7.812,0,1.052-1.205,1.993-3.263,1.993a10.836,10.836,0,0,1-5.1-1.315l-.934,4.374a15.933,15.933,0,0,0,5.854,1.111c4.949,0,8.844-2.462,8.844-6.871,0-5.253-7.2-5.586-7.2-7.9,0-.824.989-1.726,3.042-1.726a10.338,10.338,0,0,1,4.205.957l.914-4.225A13.683,13.683,0,0,0,42.025.5ZM.61.819.5,1.457A21.29,21.29,0,0,1,4.12,2.5c2.209.8,2.366,1.261,2.738,2.7l4.053,15.625h5.433L24.714.819H19.293l-5.378,13.6L11.72,2.892A2.372,2.372,0,0,0,9.251.819H.61Zm26.284,0L22.641,20.828h5.169L32.048.819H26.894Zm28.83,0a2.439,2.439,0,0,0-2.392,1.833L45.759,20.828H51.18L52.229,17.8h6.6l.638,3.029h4.783L60.081.819H55.724Zm.705,5.406,1.607,7.508h-4.3l2.7-7.508Z" transform="translate(-849.254 5073.5)" fill="#1434cb"/>
  </g>
</svg>
